<?xml version="1.0" encoding="UTF-8"?>
<!DOCTYPE svg PUBLIC "-//W3C//DTD SVG 1.1//EN" "http://www.w3.org/Graphics/SVG/1.1/DTD/svg11.dtd">
<svg width="512px" height="512px" version="1.1" xmlns="http://www.w3.org/2000/svg">
<defs>
<linearGradient id="g1" x1="50%" y1="0%" x2="50%" y2="100%">
<stop offset="5%" stop-color="#1ad6fd"/>
<stop offset="95%"  stop-color="#1e63f0"/>
</linearGradient>
</defs>
<rect x="0" y="0" rx="148" ry="148" width="512" height="512" fill="url(#g1)" id="rect3563" />
<path d="m 118.14286,255.54409 c 18.57143,0 37.14285,0 55.71428,0 -5.69917,9.87126 -11.39835,19.74252 -17.09752,29.61378 -12.87225,0 -25.74451,0 -38.61676,0 0,-9.87126 0,-19.74252 0,-29.61378 z" fill="#ffffff" />
<path d="m 209.57143,204.82979 c 8.72436,5.03701 17.44871,10.07402 26.17307,15.11103 -21.68482,37.55923 -43.36965,75.11844 -65.05447,112.67766 -9.24817,-5.33943 -18.49635,-10.67887 -27.74452,-16.0183 22.20864,-37.25679 44.41728,-74.51359 66.62592,-111.77039 z" fill="#ffffff"/>
<path d="m 140.28571,321.61551 c 9.05815,5.5132 18.11631,11.0264 27.17446,16.5396 -12.90343,11.832 -25.80686,23.664 -38.71029,35.496 3.84528,-17.3452 7.69055,-34.6904 11.53583,-52.0356 z" fill="#ffffff" />
<path d="m 213.14286,197.68693 26.62591,15.37248 c 0,0 4.24286,-6.76217 8.23077,-13.29779 6.03982,-14.19871 -18.18,-26.78539 -27.49793,-14.02649 -2.45291,3.98393 -7.35875,11.9518 -7.35875,11.9518 z" fill="#ffffff" />
<path d="m 318.14286,292.68694 c 8.9784,-5.18368 17.9568,-10.36737 26.9352,-15.55105 4.36432,7.55922 8.72863,15.11844 13.09295,22.67766 -8.91231,5.14553 -17.82463,10.29105 -26.73694,15.43658 -4.4304,-7.52106 -8.86081,-15.04213 -13.29121,-22.56319 z" fill="#ffffff" />
<path d="m 314.57143,284.8298 25.55448,-14.75389 c 0,0 -49.31831,-85.73521 -74.27716,-128.41684 -9.22383,-9.32458 -30.23542,2.70531 -25.75353,15.57944 24.62038,42.64011 74.47621,127.59129 74.47621,127.59129 z" fill="#ffffff" />
<path d="m 337.07143,323.40123 c 8.14721,-4.70379 16.29441,-9.40759 24.44162,-14.11138 18.22914,13.34907 17.56702,38.59589 14.11559,58.59465 -1.02418,13.66121 -8.29622,-11.7645 -15.51133,-14.35922 -9.66539,-8.36378 -20.34093,-16.81402 -23.04588,-30.12405 z" fill="#ffffff" />
<path d="m 222.42857,256.25837 c 22.2619,0 44.52381,0 66.78571,0 5.70929,9.88877 11.41857,19.77755 17.12786,29.66632 -33.80452,0 -67.60905,0 -101.41357,0 5.83333,-9.88877 11.66667,-19.77755 17.5,-29.66632 z" fill="#ffffff" />
<path d="m 339.57143,255.54409 c 18.09524,0 36.19047,0 54.28571,0 0,9.64286 0,19.28571 0,28.92857 -12.2619,0 -24.52381,0 -36.78571,0 -5.83333,-9.64286 -11.66667,-19.28571 -17.5,-28.92857 z" fill="#ffffff" />
<circle cx="256" cy="256" r="212" stroke="#ffffff" stroke-width="20" fill="none" />
</svg>