<?xml version="1.0" encoding="utf-8"?>
<!-- Generator: Adobe Illustrator 18.1.1, SVG Export Plug-In . SVG Version: 6.00 Build 0)  -->
<svg version="1.1" id="Layer_1" xmlns="http://www.w3.org/2000/svg" xmlns:xlink="http://www.w3.org/1999/xlink" x="0px" y="0px"
	 viewBox="149.9 148.5 335.3 286.6" enable-background="new 149.9 148.5 335.3 286.6" xml:space="preserve">
<g display="none" enable-background="new    ">
	<path display="inline" fill="#777788" d="M218.5,327.2l-12.7-47.8h-0.3l-12.1,47.8h-20.2L150.7,256h20.6l13.1,48.3h0.3l11.8-48.3
		h19l12.1,48.2h0.3L241,256h20.1l-22.4,71.2H218.5z"/>
	<path display="inline" fill="#777788" d="M330.6,327.2l-12.7-47.8h-0.3l-12.1,47.8h-20.2L262.7,256h20.6l13.1,48.3h0.3l11.8-48.3
		h19l12.1,48.2h0.3L353,256h20.1l-22.4,71.2H330.6z"/>
	<path display="inline" fill="#777788" d="M442.6,327.2l-12.7-47.8h-0.3l-12.1,47.8h-20.2L374.8,256h20.6l13.1,48.3h0.3l11.8-48.3
		h19l12.1,48.2h0.3L465,256h20.1l-22.4,71.2H442.6z"/>
</g>
<path fill="#B1CBE0" d="M439.3,225.7c2.7,0,4.4-2.9,3-5.2c-24.7-43-71.2-72-124.4-72s-99.6,29-124.4,72c-1.3,2.3,0.4,5.2,3,5.2
	H439.3z"/>
<path fill="#B1CBE0" d="M196.6,357.9c-2.7,0-4.4,2.9-3,5.2c24.7,43,71.2,72,124.4,72s99.6-29,124.4-72c1.3-2.3-0.4-5.2-3-5.2H196.6z
	"/>
<g>
	<path fill="#B1CBE0" d="M176.2,250.9l6.8,58.8h0.3l8-58.8h29l8,58.8h0.3l6.8-58.8h26.3l-16.6,81.8h-30.8l-8.3-57.9h-0.3l-8.3,57.9
		h-30.8l-16.6-81.8H176.2z"/>
	<path fill="#B1CBE0" d="M288,250.9l6.8,58.8h0.3l8-58.8h29l8,58.8h0.3l6.8-58.8h26.3L357,332.7h-30.8l-8.3-57.9h-0.3l-8.3,57.9
		h-30.8l-16.6-81.8H288z"/>
	<path fill="#B1CBE0" d="M399.9,250.9l6.8,58.8h0.3l8-58.8h29l8,58.8h0.3l6.8-58.8h26.3l-16.6,81.8H438l-8.3-57.9h-0.3l-8.3,57.9
		h-30.8l-16.6-81.8H399.9z"/>
</g>
</svg>
