<?xml version="1.0" encoding="utf-8"?>
<!-- Generator: Adobe Illustrator 18.1.1, SVG Export Plug-In . SVG Version: 6.00 Build 0)  -->
<svg version="1.1" id="Layer_1" xmlns="http://www.w3.org/2000/svg" xmlns:xlink="http://www.w3.org/1999/xlink" x="0px" y="0px"
	 viewBox="-180 272 250 250" enable-background="new -180 272 250 250" xml:space="preserve">
<g>
	<path fill="none" d="M-34.3,354.6c4.2,14.4,9.5,28.2,16.3,41.3c4.2,8,7.4,16.2,9.1,25.1c0.1,0.8,0.4,1.3,1.4,1.4c1,0.1,2,0,3,0.4
		c1,0.3,1.1-0.6,1.2-1.2c1.7-5.3,1.7-10.7,0.2-16c-2-7.4-5.5-13.9-11-19.3c-0.5-0.5-1.1-1-1.1-1.9c0.6-0.1,0.9,0.4,1.3,0.8
		c7.6,7.7,12.8,16.7,14.5,27.5c0.5,3.4,0.5,6.8-0.3,10.2c-0.2,1.1,0,1.5,1,2c3.3,1.5,6.5,3.2,9.2,5.7c2,1.9,3.3,4.1,2.8,7
		c-0.1,0.6-0.1,1.2-1,1.1c-1-0.1-0.5-0.8-0.5-1.2c0.2-2.1-0.7-3.7-2.2-5c-4.7-3.9-10-6.4-16.1-7.1c-4-0.5-6.9,1.8-7.7,5.8
		c-0.2,1.2-0.7,1.9-1.9,2.5c-4.6,2.4-6.5,6.7-7.7,11.4c-1,4.3-1.5,8.7-1.5,13.2c-0.1,5.2-1.4,10.1-2.9,15c-0.2,0.6-0.6,0.9-1,1.1
		c-8,5.4-16.7,8.7-26.4,8.8c-7.2,0.1-13.9-1.9-20-5.8c-0.4-0.3-0.9-0.6-1.2-1c-1.7-2.5-3.6-4.9-5.5-7.5c0.7-0.1,1.4-0.2,2-0.4
		c4.3-1,6-4.1,4.7-8.3c-1-3.3-3-6-5.3-8.6c-3.9-4.4-8.6-7.8-13.5-10.9c-3.8-2.3-7.1-5.1-9.3-9.1c-2.8-5-3.2-10.4-2.3-15.9
		c1.6-9.7,6.2-18.2,11.2-26.4c0.1-0.1,0.2-0.2,0.4-0.3c0.2,0.8-0.3,1.3-0.5,1.8c-2.3,4.8-5,9.4-6.7,14.5c-2.2,6.8-3,13.5-0.6,20.4
		c0.7,2.1,1.7,4,3.3,5.9c0.3-2.6,0.5-4.9,0.8-7.2c1-7.6,3.3-14.9,6.5-21.8c4.3-9.3,8.7-18.5,11.9-28.2c1.7-5.2,3-10.6,3.5-16.2
		c2.2,1.2,4.2,2.5,5.8,4.2c6,6.2,13.8,5.8,19.7,2.3c3.2-1.9,6.4-3.8,9.9-5.1C-38.2,358.6-36.1,356.9-34.3,354.6z"/>
	<path fill="#FFD133" d="M-76.1,487.7c-0.4,8.4-6,11.3-11.4,12.1c-6.7,1-13-0.8-18.9-3.8c-6.1-3.1-12.7-4.4-19.4-5.2
		c-2.8-0.3-5.6-0.6-8.4-1.2c-5.6-1-7.5-4.2-6.1-9.9c0.5-2,1.2-4,1.7-6.1c0.6-2.9-0.2-5.8-0.5-8.8c-0.2-2.1-0.7-4.1-0.3-6.3
		c0.5-2.7,1.9-4.6,4.3-5.8c1.4-0.7,2.9-1.3,4.4-1.7c3.7-1.1,6.6-3.2,8.7-6.4c1.2-1.7,2.4-3.4,3.8-4.9c3.2-3.4,6.8-3.9,10.8-1.5
		c2.7,1.6,4.6,3.9,6.3,6.4c2.2,3.2,4.1,6.5,5.6,10.1c2.4,5.6,6,10.5,9.8,15.2c3,3.7,6,7.4,8,11.7C-76.6,483.6-76,485.5-76.1,487.7z"
		/>
	<path fill="#FFD133" d="M-14.5,436.8c0.3,2.4,0.8,4.7,2,6.9c2.6,4.9,6.8,6.6,12.1,4.9c3.6-1.1,6.7-3,9.4-5.6c0.7-0.6,1.3-1,2.2-0.9
		c1.5,0,3.1-0.2,4.6,0.2c2.7,0.7,4.6,2.4,5.7,5c1.2,3,1.6,6.1,2.5,9.1c0.7,2.3,1.8,4.4,3.4,6.2c1.6,1.8,3.1,3.8,4.1,6
		c1.6,3.4,1.1,5.6-2,7.8c-2.6,1.9-5.5,3.1-8.3,4.5c-4.3,2.1-8.6,4.3-12.2,7.5c-1.8,1.6-3.3,3.4-4.9,5.2c-4.1,4.2-8.7,7.5-14.6,8.6
		c-9.3,1.9-15.8-3.6-17.2-11c-0.6-3.2,0.1-6.3,0.8-9.4c1.2-5.5,3.3-10.9,4.4-16.4c0.8-3.7,0.6-7.4,0.9-11.2c0.4-4,0.8-8,2.2-11.7
		C-18.3,439.5-16.7,437.6-14.5,436.8z"/>
	<path fill="#FFD133" d="M-59.2,336.1c2.8,0,5.5,0.7,7.8,2.2c3.6,2.2,7.4,3.7,11.3,5.1c1.1,0.4,2.2,0.9,3.2,1.6
		c2.6,1.8,3.2,4.4,1.7,7.2c-1.4,2.6-3.6,4.4-6.3,5.5c-3.6,1.4-6.9,3.3-10.2,5.3c-3.6,2.2-7.6,2.7-11.7,1.6c-1.9-0.5-3.5-1.7-4.9-3
		c-1.7-1.6-3.6-3.1-5.6-4.3c-1.8-1.1-3.4-2.5-4.5-4.4c-1.4-2.6-1-4.8,1.4-6.5c2.9-2.1,5.7-4.3,8.4-6.7
		C-66,337.3-62.8,336-59.2,336.1z M-60.8,359.2c3.6,0,6.9-1.2,10.1-2.7c4.1-1.9,7.5-4.9,11.8-6.3c0.7-0.2,0.5-1,0.4-1.5
		c-0.1-0.7-0.7-0.5-1.1-0.4c-1.8,0.5-3.4,1.5-5,2.4c-3.2,1.9-6.3,3.8-9.8,5.2c-6.1,2.4-11.7,1.4-16.8-2.6c-1.6-1.3-3-2.7-4.5-4
		c-0.4-0.3-1-1-1.5-0.4c-0.4,0.5-0.5,1.3,0.3,2c1.5,1.3,3,2.7,4.5,4C-68.8,357.5-65.1,359.2-60.8,359.2z"/>
	<path fill="none" d="M-51.1,336.1c-1.3-0.5-2.4-0.9-3.5-1.3c-0.5-0.2-0.8-0.4-0.8-1c-0.4-4.8,0.6-9.2,4.2-12.5
		c4.2-3.9,10.1-3.3,13.7,1.3c3.9,5,4.2,13.3,0.7,18.6c-0.5,0.8-1,1.1-1.9,0.6c-1.2-0.6-2.9-0.7-3.5-1.6c-0.6-0.9,0.8-2.1,1-3.3
		c0.5-2.7,0.5-5.3-1-7.8c-1.8-3.2-5.1-3.3-7.2-0.3C-50.8,331-51.1,333.4-51.1,336.1z"/>
	<path d="M35.3,470c-0.8-3.3-2.7-5.9-4.8-8.4c-1.7-1.9-3.1-4-3.7-6.5c-0.4-1.7-0.8-3.5-1.2-5.2c-1-4.1-2.7-7.8-6.7-9.8
		c-0.8-0.4-0.7-0.9-0.4-1.6c0.8-2.6,1.4-5.2,1.7-7.8c0.7-7.1-0.2-14-2.4-20.8c-3.9-12-10.6-22.4-18.5-32.1
		c-3.9-4.8-7.9-9.6-11.2-14.9c-2.5-4.2-4.4-8.6-5-13.5c-0.5-3.7,0-7.4-0.3-10.6c0.1-5.9,0-11.5-0.6-17c-0.6-5.1-1.5-10.2-3.4-15
		c-3.4-8.6-9.3-14.8-18.5-17.2c-7.7-2-15.4-1.6-23.1,0.6c-7.2,2.1-12.8,6.3-16.3,13c-2.4,4.5-3.5,9.4-4,14.4
		c-0.6,5.3-0.5,10.5-0.2,15.8c0.3,6.1,0.9,12.2-0.1,18.4c-1.5,8.9-5.1,16.7-10.7,23.7c-8.3,10.2-15.6,21-20.6,33.2
		c-3.7,8.8-6,17.9-4.8,27.6c0.1,0.4-0.2,0.7-0.4,1c-1.9,1.9-3.4,4.1-4.9,6.2c-1.4,2-3.3,3.4-5.6,4.2c-1.8,0.6-3.7,1.3-5.4,2.1
		c-3.4,1.6-5.7,4.1-6.5,7.8c-0.7,2.8-0.1,5.5,0.3,8.3c0.4,2.9,1.1,5.7,0.2,8.6c-0.6,1.9-1.2,3.9-1.6,5.9c-1.1,5.5,1.1,9.7,6.3,11.7
		c4.1,1.5,8.4,1.7,12.7,2.2c5.8,0.7,11.5,1.8,16.8,4.5c5.7,2.9,11.7,4.7,18.2,4.4c6.3-0.3,11.6-2.5,14.8-8.3
		c0.4-0.6,0.8-0.9,1.5-0.9c4.6-0.2,9-1.5,13.5-2.1c3.9-0.5,7.8-0.8,11.8-0.3c5.4,0.6,10.7,1.7,16.2,1.6c1,0,1.3,0.4,1.6,1.2
		c3.4,8.7,11.9,13,20.9,10.8c7-1.7,12.5-5.8,17.1-11.1c2-2.3,4.1-4.2,6.6-5.8c3.8-2.5,8.1-4.3,12.1-6.4c2.4-1.3,4.9-2.5,6.8-4.6
		C35,475.2,36,472.9,35.3,470z M-51.2,321.3c4.2-3.9,10.1-3.3,13.7,1.3c3.9,5,4.2,13.3,0.7,18.6c-0.5,0.8-1,1.1-1.9,0.6
		c-1.2-0.6-2.9-0.7-3.5-1.6c-0.6-0.8,0.8-2.1,1-3.3c0.5-2.7,0.5-5.3-1-7.8c-1.8-3.2-5.1-3.3-7.2-0.3c-1.4,2.1-1.8,4.5-1.7,7.2
		c-1.3-0.5-2.4-0.9-3.5-1.3c-0.5-0.2-0.8-0.4-0.8-1C-55.8,329.1-54.8,324.7-51.2,321.3z M-76.9,324.1c2.6-4.2,7.2-4.5,10.2-0.6
		c2.4,3.1,3.1,6.6,3,10.4c0,0.5-0.2,0.8-0.6,1c-1.1,0.4-2.2,1-3.3,1.4c-0.1-2.2-0.3-4.3-1.6-6.2c-0.7-1-1.5-1.9-2.8-1.7
		c-1.3,0.1-2.1,1.1-2.5,2.2c-1.2,3.3-1,6.4,1,9.3c0.4,0.6,0.8,1-0.1,1.4c-0.7,0.3-1.2,1.8-2.3,0.4c-2.3-3.1-3.1-6.6-3-10.4
		C-78.8,328.8-78.2,326.3-76.9,324.1z M-77,346.3c2.9-2.1,5.7-4.3,8.4-6.7c2.6-2.4,5.8-3.6,9.4-3.5c2.8,0,5.5,0.7,7.8,2.2
		c3.6,2.2,7.4,3.7,11.3,5.1c1.1,0.4,2.2,0.9,3.2,1.6c2.6,1.8,3.2,4.4,1.7,7.2c-1.4,2.6-3.6,4.4-6.3,5.5c-3.6,1.4-6.9,3.3-10.2,5.3
		c-3.6,2.2-7.6,2.7-11.7,1.6c-1.9-0.5-3.5-1.7-4.9-3c-1.7-1.6-3.6-3.1-5.6-4.3c-1.8-1.1-3.4-2.5-4.5-4.4
		C-79.8,350.3-79.3,348.1-77,346.3z M-76.1,487.7c-0.4,8.4-6,11.3-11.4,12.1c-6.7,1-13-0.8-18.9-3.8c-6.1-3.1-12.7-4.4-19.4-5.2
		c-2.8-0.3-5.7-0.6-8.4-1.2c-5.6-1-7.5-4.2-6-9.9c0.5-2,1.2-4,1.7-6.1c0.6-3-0.2-5.8-0.5-8.8c-0.2-2.1-0.7-4.1-0.3-6.3
		c0.5-2.7,1.9-4.6,4.3-5.8c1.4-0.7,2.9-1.3,4.4-1.7c3.7-1.1,6.6-3.2,8.7-6.4c1.2-1.7,2.4-3.4,3.8-4.9c3.2-3.4,6.8-3.9,10.8-1.5
		c2.7,1.6,4.6,3.9,6.3,6.4c2.2,3.2,4.1,6.5,5.6,10.1c2.4,5.6,6,10.5,9.8,15.2c3,3.7,6,7.4,8,11.7C-76.6,483.6-76,485.5-76.1,487.7z
		 M-29.1,474.5c-8,5.4-16.7,8.7-26.4,8.8c-7.2,0-13.9-1.9-20-5.8c-0.4-0.3-0.9-0.6-1.2-1c-1.7-2.5-3.6-4.9-5.5-7.5
		c0.7-0.1,1.4-0.2,2-0.4c4.3-1,6-4.1,4.7-8.3c-1-3.3-3-6-5.3-8.6c-3.9-4.4-8.6-7.8-13.5-10.9c-3.8-2.3-7.1-5.1-9.3-9.1
		c-2.8-5-3.2-10.4-2.3-15.9c1.6-9.7,6.2-18.2,11.2-26.4c0.1-0.1,0.2-0.2,0.4-0.3c0.2,0.8-0.3,1.3-0.5,1.8c-2.3,4.8-5,9.4-6.7,14.5
		c-2.2,6.8-3,13.5-0.6,20.4c0.7,2.1,1.7,4,3.3,5.9c0.3-2.6,0.5-4.9,0.8-7.2c1-7.6,3.3-14.9,6.5-21.8c4.3-9.3,8.7-18.5,11.9-28.2
		c1.7-5.2,3-10.6,3.5-16.2c2.2,1.2,4.2,2.5,5.8,4.2c6,6.2,13.8,5.8,19.7,2.3c3.2-1.9,6.4-3.8,9.9-5.1c2.5-0.9,4.5-2.6,6.3-4.9
		c4.2,14.4,9.5,28.2,16.3,41.3c4.2,8,7.4,16.2,9.1,25.1c0.1,0.8,0.4,1.3,1.4,1.3c1,0.1,2,0,3,0.4c1,0.3,1.1-0.6,1.2-1.2
		c1.7-5.3,1.7-10.7,0.2-16c-2-7.4-5.5-13.9-11-19.3c-0.5-0.5-1.1-1-1.1-1.9c0.6-0.1,0.9,0.4,1.3,0.8c7.6,7.7,12.8,16.7,14.5,27.5
		c0.5,3.4,0.5,6.8-0.3,10.2c-0.2,1.1,0,1.5,1,2c3.3,1.5,6.5,3.2,9.2,5.7c2,1.9,3.3,4.1,2.8,7c-0.1,0.6-0.1,1.2-1,1.1
		c-1-0.1-0.5-0.8-0.5-1.2c0.2-2.1-0.7-3.7-2.2-5c-4.7-3.9-10-6.4-16.1-7.1c-4-0.5-6.9,1.8-7.7,5.8c-0.2,1.2-0.7,1.9-1.9,2.5
		c-4.6,2.4-6.5,6.7-7.7,11.4c-1,4.3-1.5,8.7-1.5,13.2c-0.1,5.2-1.4,10.1-2.9,15C-28.3,473.9-28.7,474.2-29.1,474.5z M29.4,476.4
		c-2.6,1.9-5.5,3.1-8.3,4.5c-4.3,2.1-8.6,4.3-12.2,7.5c-1.8,1.6-3.3,3.4-4.9,5.2c-4.1,4.2-8.7,7.5-14.6,8.6
		c-9.3,1.9-15.8-3.6-17.2-11c-0.6-3.2,0.1-6.3,0.8-9.4c1.2-5.5,3.3-10.9,4.4-16.4c0.8-3.7,0.6-7.4,0.9-11.2c0.4-4,0.8-8,2.2-11.7
		c1.1-3,2.8-4.8,4.9-5.7c0.3,2.4,0.8,4.7,2,6.9c2.6,4.9,6.8,6.6,12.1,4.9c3.6-1.1,6.7-3,9.4-5.6c0.7-0.6,1.3-1,2.2-0.9
		c1.5,0,3.1-0.2,4.6,0.2c2.7,0.7,4.6,2.4,5.7,5c1.2,3,1.6,6.1,2.5,9.1c0.7,2.3,1.8,4.4,3.4,6.2c1.6,1.8,3.1,3.8,4.1,6
		C33,472,32.5,474.2,29.4,476.4z"/>
	<path fill="none" d="M-67.6,336.4c-0.1-2.2-0.3-4.3-1.6-6.2c-0.7-1-1.5-1.9-2.8-1.7c-1.3,0.1-2.1,1.1-2.5,2.2c-1.2,3.3-1,6.4,1,9.3
		c0.4,0.6,0.8,1-0.1,1.4c-0.7,0.3-1.2,1.8-2.3,0.4c-2.3-3.1-3.1-6.6-3-10.4c0.1-2.6,0.6-5,2-7.2c2.6-4.2,7.2-4.5,10.2-0.6
		c2.4,3.1,3.1,6.6,3,10.4c0,0.5-0.2,0.8-0.6,1C-65.4,335.4-66.5,335.9-67.6,336.4z"/>
	<path fill="#273D68" d="M-60.8,359.2c-4.4,0-8.1-1.7-11.4-4.4c-1.6-1.2-3-2.7-4.5-4c-0.7-0.6-0.7-1.4-0.3-2
		c0.5-0.6,1.1,0.1,1.5,0.4c1.5,1.3,3,2.7,4.5,4c5.1,4.1,10.6,5,16.8,2.6c3.5-1.4,6.6-3.3,9.8-5.2c1.6-0.9,3.1-2,5-2.4
		c0.4-0.1,1-0.3,1.1,0.4c0.1,0.6,0.3,1.3-0.4,1.5c-4.3,1.4-7.8,4.4-11.8,6.3C-53.9,358-57.1,359.3-60.8,359.2z"/>
</g>
</svg>
