<?xml version="1.0" encoding="utf-8"?>
<!-- Generator: Adobe Illustrator 18.1.1, SVG Export Plug-In . SVG Version: 6.00 Build 0)  -->
<svg version="1.1"
	 id="svg2" inkscape:export-filename="C:\Users\Lazlo\Pictures\Commons\The OS X Logo.png" sodipodi:docname="The OS X Logo.svg" inkscape:export-xdpi="57.810001" inkscape:version="0.48.5 r10040" inkscape:export-ydpi="57.810001" xmlns:dc="http://purl.org/dc/elements/1.1/" xmlns:svg="http://www.w3.org/2000/svg" xmlns:sodipodi="http://sodipodi.sourceforge.net/DTD/sodipodi-0.dtd" xmlns:inkscape="http://www.inkscape.org/namespaces/inkscape" xmlns:cc="http://creativecommons.org/ns#" xmlns:rdf="http://www.w3.org/1999/02/22-rdf-syntax-ns#"
	 xmlns="http://www.w3.org/2000/svg" xmlns:xlink="http://www.w3.org/1999/xlink" x="0px" y="0px" viewBox="0 0 612 792"
	 enable-background="new 0 0 612 792" xml:space="preserve">
<linearGradient id="path2993_1_" gradientUnits="userSpaceOnUse" x1="-118.2189" y1="183.0959" x2="-117.6594" y2="317.8671" gradientTransform="matrix(3.8832 0 0 3.8832 762.9346 -462.1204)">
	<stop  offset="0" style="stop-color:#DEDEDE"/>
	<stop  offset="0.9191" style="stop-color:#A6A6A6"/>
	<stop  offset="1" style="stop-color:#DADADA"/>
</linearGradient>
<path id="path2993" inkscape:connector-curvature="0" fill="url(#path2993_1_)" d="M14.3,19.4c43.2,0,85.5-1,128.7,0
	c20.1-5,27.2,17.1,35.2,29.2C219.5,126,261.7,203.4,300,281.9c2,1,8,1,10.1,2c45.3-89.5,87.5-182,142.8-266.5c47.3,2,95.5,0,142.8,2
	c-65.4,120.7-140.8,235.3-209.2,354c-9.1,15.1,8,30.2,13.1,43.2c68.4,115.7,135.8,232.3,205.2,347c-46.3-1-92.5,1-138.8-1
	c-18.1-1-23.1-19.1-30.2-32.2C394.5,648,347.2,568.5,305,487c-3,1-9.1,2-12.1,3c-39.2,79.5-81.5,157.9-119.7,238.4
	c-8,12.1-11.1,30.2-26.1,35.2c-46.3,2-92.5,0-139.8,1c72.4-126.7,145.8-252.4,218.2-379.2C152.1,264.8,80.7,143.1,14.3,19.4z"/>
</svg>
