<?xml version="1.0" encoding="UTF-8" standalone="no"?>
<svg width="585px" height="233px" viewBox="0 0 585 233" version="1.1" xmlns="http://www.w3.org/2000/svg" xmlns:xlink="http://www.w3.org/1999/xlink" xmlns:sketch="http://www.bohemiancoding.com/sketch/ns">
    <!-- Generator: Sketch 3.3.1 (12002) - http://www.bohemiancoding.com/sketch -->
    <title>copay</title>
    <desc>Created with Sketch.</desc>
    <defs></defs>
    <g id="Page-1" stroke="none" stroke-width="1" fill="none" fill-rule="evenodd" sketch:type="MSPage">
        <g id="copay" sketch:type="MSArtboardGroup" fill="#2C3E50">
            <g id="copay-black-and-white" sketch:type="MSLayerGroup" transform="translate(172.054273, 63.440209)">
                <path d="M236.260162,11.8593517 C234.55559,12.0527107 232.754532,12.4394287 230.824828,13.0517321 C230.213755,13.2450911 229.667005,13.6318091 229.152417,14.1474331 C228.637829,14.6952836 228.219727,15.1142281 227.898109,15.4687196 C227.576492,15.8232111 227.254874,16.4355145 226.901095,17.3378565 C226.547316,18.2401985 226.290022,18.916955 226.129213,19.432579 C225.968405,19.9159765 225.711111,20.8505449 225.357332,22.2040579 C224.971391,23.5575709 224.714097,24.5888188 224.488964,25.2978018 C222.977363,30.4218152 220.565232,35.6102815 217.284734,40.9276539 C214.004236,46.2450262 211.141841,49.0165052 208.697549,49.2743171 C207.411079,49.4032231 206.639197,48.3397487 206.381903,46.0194407 C205.899477,41.6688634 206.800006,36.1903585 208.987004,29.5516997 C211.206165,22.9130409 213.553972,18.2401985 216.09475,15.5009461 C216.448529,15.0497751 216.641499,14.6952836 216.609338,14.4052451 C216.577176,14.1474331 216.416367,14.0185271 216.159073,14.0507536 C212.556958,14.4374716 209.758886,15.1786811 207.764858,16.3066086 C205.77083,17.4023095 204.001934,19.5937115 202.361685,22.8808144 C201.107377,25.4267078 200.04604,28.5849047 199.113349,32.4198581 C194.546382,43.4090943 190.397517,49.1131847 186.666755,49.4999026 C185.444609,49.6288086 184.73705,48.8231462 184.54408,47.0506887 C184.190301,43.6669063 185.219477,38.0594955 187.695931,30.2606827 C190.172385,22.4618699 192.423707,17.5312155 194.482058,15.4687196 L193.452883,15.5653991 L188.339166,16.0165701 C186.988372,16.1777026 185.573256,16.8866855 184.125977,18.207972 C182.678699,19.5292585 181.681685,21.0116774 181.102773,22.6552289 C180.266568,20.5605064 178.81929,19.110314 176.825262,18.336878 C174.799072,17.563442 172.708559,17.2734035 170.553722,17.5312155 C165.922431,18.0468395 161.870051,20.2060149 158.33226,24.0731948 C154.82663,27.9081482 152.285852,32.4198581 150.742088,37.511645 C150.709927,37.6083245 150.677765,37.705004 150.645603,37.8016835 C150.420471,38.3173074 150.131015,38.8973844 149.873721,39.5096879 C148.136987,43.3124148 146.786194,46.0194407 145.78918,47.6307657 C143.955961,50.5633771 141.7368,53.334856 139.099537,55.8807495 C136.462275,58.4266429 133.728526,59.8768354 130.930455,60.1668738 L130.126411,60.2635533 C134.243114,56.7830914 137.620097,52.1747021 140.289522,46.3739322 C142.958947,40.5731624 144.020284,35.126884 143.473534,29.9384177 C142.798138,23.6864769 140.193037,20.8183184 135.626069,21.3017159 C130.801808,21.8173399 125.655929,26.6513148 120.252756,35.7391875 C122.922181,28.5849047 125.173503,24.2021008 127.006722,22.6552289 L123.951357,22.9774939 C119.931139,23.3964384 117.197391,24.5243658 115.750112,26.3290498 C115.042554,27.2958448 114.013378,29.9706442 112.75907,34.3856746 C112.308806,35.964773 111.697733,38.2850809 110.893689,41.3143719 C108.481558,46.8573297 105.619163,49.7899411 102.306504,50.1444326 C100.408961,50.3377916 98.8651973,49.7899411 97.6752128,48.4686547 C98.7043885,44.6981543 99.0581677,41.2176924 98.7043885,37.9305895 C97.771698,29.3583407 93.269054,25.5233873 85.1642948,26.3935028 C80.3400334,26.9091268 76.1268451,29.0038492 72.5568917,32.7098966 C70.4020549,34.933525 68.6331591,37.3505125 67.2823659,39.9608589 C67.2823659,39.9286324 67.3145276,39.8964059 67.3145276,39.8641794 C64.0340298,46.0194407 58.3735631,56.7186384 51.265818,62.8416733 C44.1580728,68.9647081 37.1468129,72.4129435 30.2641999,73.154153 C19.2327222,74.3465335 13.0576676,68.9002551 11.7711979,56.8153179 C10.9349925,49.0165052 12.124977,41.0887864 15.373313,33.0966146 C18.6216491,25.0722163 23.2851018,18.336878 29.3636711,12.8905996 C35.4422405,7.4443213 41.9710743,4.31835088 48.9180107,3.5449149 C54.1603748,2.96483792 56.9906082,4.67284237 57.4087108,8.60447526 C57.6981665,11.1825952 56.7976377,13.5029031 54.7392862,15.5976256 C52.6809346,17.6601215 50.3331274,18.852502 47.6958645,19.1425405 C46.7310122,19.23922 45.8626452,19.2069935 45.0907634,19.0136345 C44.383205,20.2704679 44.0937493,21.3983954 44.2223963,22.3974169 C44.3188815,23.4286649 44.8977929,24.2021008 45.9269687,24.7499513 C46.9561444,25.2978018 48.2104524,25.4911608 49.7220543,25.3300283 C52.9060668,24.9755368 55.8971089,23.6864769 58.6630188,21.4628484 C61.4289287,19.23922 63.1978245,16.6933265 63.9697064,13.7607151 C64.3556473,12.2138432 64.4842942,10.8281037 64.3556473,9.60349674 C64.0018681,6.28416733 62.0400018,3.7060474 58.4700483,1.93358995 C54.9000949,0.161132496 49.9793483,-0.386717989 43.7399702,0.290038492 C37.4684303,0.966794973 31.3255375,3.35155591 25.2469681,7.4443213 C19.1683987,11.5370867 14.2798138,16.4355145 10.5812134,22.1718314 C6.85045121,27.9081482 4.08454133,33.9667301 2.21916025,40.3798034 C0.35377917,46.7928767 -0.257293942,52.8192321 0.35377917,58.4588694 C1.96186631,73.347512 10.7420221,79.9217178 26.75857,78.1814869 C33.6411829,77.4402774 40.2343402,75.3777814 46.5380418,71.9617725 C52.8417434,68.5779901 57.9554605,64.3563187 61.8148696,59.3934379 C62.4259427,58.5877754 62.9726923,57.8143394 63.519442,57.0731299 C63.5516037,57.6532069 63.5837654,58.2010574 63.6480889,58.7811344 C64.0983533,63.0350323 65.51347,66.0643232 67.893439,67.9012336 C70.2734079,69.7381441 73.135803,70.4793536 76.5449478,70.0926356 C81.8516353,69.5125586 86.0326619,67.6434216 89.1201892,64.5174512 C92.2077165,61.3914808 94.6841707,57.2342624 96.6138753,52.1747021 C98.3827711,53.3026295 100.408961,53.721574 102.692445,53.463762 C104.654311,53.2381765 106.648339,52.2391551 108.706691,50.4022446 C107.709677,54.49501 106.584016,59.2323054 105.297546,64.6785837 C101.566784,80.5017948 98.9616825,89.815253 97.4500806,92.586732 L102.338665,92.071108 C103.689459,91.9099755 104.81512,91.619937 105.651325,91.2009925 C106.48753,90.7498215 107.22725,89.9119325 107.806162,88.6550991 C108.385073,87.3982656 109.156955,84.6912397 110.089645,80.5340213 L113.884731,62.1004638 C115.074716,65.3553402 118.901963,66.6121737 125.462959,65.9031907 C131.991792,65.1942077 137.427127,62.5194083 141.7368,57.8465659 C144.406225,54.9784075 146.850517,51.4657191 149.134001,47.3729537 C149.069678,49.0165052 149.134001,50.6600566 149.29481,52.3036081 C149.970207,58.5555489 152.575308,61.4237073 157.142275,60.9403098 C163.735432,60.2313268 170.199943,52.5936466 176.471483,38.027269 C175.474469,42.2489403 175.217175,46.4706117 175.667439,50.6922831 C176.278512,56.3319205 178.401187,58.9422669 182.099788,58.5555489 C186.827564,58.0399249 191.973443,52.4969671 197.537424,41.9589018 C197.247968,44.4725688 197.183645,46.5672912 197.344454,48.2108427 C197.601748,51.0467746 198.373629,53.1092705 199.627937,54.4627835 C200.882245,55.8162965 202.393847,56.364147 204.194905,56.170788 C205.995962,55.977429 207.539726,55.590711 208.826196,55.0428605 C210.112665,54.49501 211.817238,53.077044 213.939913,50.8211891 C216.062588,48.5653342 218.50688,45.2460048 221.304952,40.8954274 L217.156087,57.0086769 C214.486662,67.2567037 210.369959,72.702982 204.870301,73.283059 C203.455185,73.4441915 202.233038,73.1863795 201.236024,72.4773965 C200.23901,71.80064 199.660099,70.8016186 199.531452,69.5125586 C199.274158,67.0633447 199.724423,65.5809257 200.914407,65.0330752 C200.496304,64.3885452 199.85307,63.8406947 198.984702,63.3895238 C198.116335,62.9383528 197.08716,62.7772203 195.897175,62.9061263 C194.707191,63.0350323 193.710177,63.7440153 192.938295,65.0330752 C192.134251,66.3221352 191.844796,67.7078746 192.005604,69.2225201 C192.327222,72.0906785 193.742338,74.0242685 196.315278,75.0877429 C198.888217,76.1512174 201.847098,76.5057089 205.256242,76.1189909 C208.665387,75.7644994 211.945885,74.5398925 215.097736,72.5418495 C218.249586,70.5115801 220.790364,67.9979131 222.75223,64.9686222 C224.714097,61.9393313 226.25786,57.9432454 227.447845,53.012591 C227.898109,51.3690396 228.444859,49.0809582 229.120255,46.0838937 C229.795652,43.0868293 230.245916,41.2176924 230.406725,40.4442564 C230.599696,39.6708204 231.114283,37.4794185 231.982651,33.8378241 C232.818856,30.1962297 233.912355,26.1679173 235.230987,21.6884339 C236.871235,16.3710616 238.672293,12.9228261 240.634159,11.4081807 L236.260162,11.8593517 L236.260162,11.8593517 Z M92.9795983,35.8036405 C91.275026,35.9969995 89.9885562,36.673756 89.1201892,37.8661365 C88.2518221,39.0585169 87.898043,40.5731624 88.1231752,42.4100728 C88.4447926,45.4071373 89.8599093,47.7596717 92.400687,49.4676761 C91.1142172,53.399309 89.3774831,57.0409034 87.2226464,60.3924593 C85.0678096,63.7440153 82.5270319,65.5809257 79.6003133,65.9031907 C76.0303599,66.0965497 74.0363318,64.1307332 73.5860674,60.0701944 C73.135803,56.0096555 73.8755231,51.3045866 75.8052277,46.0194407 C79.3108577,36.415944 83.4275607,31.3886101 88.1231752,30.8729862 C91.1142172,30.5507212 92.9474366,32.1620461 93.5906714,35.7391875 L92.9795983,35.8036405 L92.9795983,35.8036405 Z M118.966286,62.0682373 C117.00442,62.2938228 115.846597,60.7791773 115.492818,57.5887539 C115.139039,54.3983305 116.2647,50.1122061 118.869801,44.7626073 C121.474902,39.4130084 124.047842,35.4813755 126.58862,32.9999351 C128.132383,31.4530631 129.643985,30.6151742 131.059102,30.4540417 C131.477204,30.4218152 131.76666,30.4218152 131.991792,30.4540417 C133.05313,30.6151742 133.664203,31.5497426 133.857173,33.2577471 C134.275276,37.18938 132.795836,42.8934703 129.386691,50.3377916 C125.977546,57.7821129 122.504078,61.6815193 118.966286,62.0682373 L118.966286,62.0682373 Z M173.126661,39.4130084 C171.550736,42.6034318 169.685355,45.4393638 167.530518,47.8885777 C165.375681,50.3377916 163.413815,51.6913046 161.644919,51.8846636 C160.00467,52.0457961 159.07198,51.1112276 158.846848,48.9842787 C158.33226,44.0858508 159.843862,38.3173074 163.381653,31.6464221 C166.919445,24.9755368 170.939663,21.3983954 175.442307,20.9149979 C177.950923,20.6571859 179.687657,21.5595279 180.588186,23.6542504 C179.108745,27.0380328 176.632291,32.2909521 173.126661,39.4130084 L173.126661,39.4130084 Z" id="Shape" sketch:type="MSShapeGroup"></path>
                <g id="Group" transform="translate(28.623951, 75.410008)" sketch:type="MSShapeGroup">
                    <path d="M68.2472181,0.257811993 C45.0586016,4.22167138 22.8026756,9.82908223 7.10774515,16.2743821 C0.546749627,18.9491815 -1.09349925,24.3310068 0.964852283,29.3905672 C27.626937,17.2089505 40.8454133,13.7607151 60.3354294,8.92674026 C63.7767359,8.05662478 66.5426458,5.47850485 67.6683068,2.09472244 C67.8612772,1.45019246 68.0542477,0.837888977 68.2472181,0.257811993 L68.2472181,0.257811993 Z" id="Shape"></path>
                </g>
                <path d="M183.643551,73.025247 C184.318948,70.1248621 183.547066,69.9959561 180.588186,69.5770116 C164.410829,67.2244772 146.625385,67.3856097 125.205665,71.993999 C121.603549,72.767435 118.644669,75.2811019 118.065758,78.9549228 C118.065758,78.9549228 144.952975,70.0926356 183.643551,73.025247 L183.643551,73.025247 L183.643551,73.025247 Z" id="Shape" sketch:type="MSShapeGroup"></path>
            </g>
        </g>
    </g>
</svg>