<?xml version="1.0" encoding="UTF-8" standalone="no"?>
<svg width="242px" height="29px" viewBox="0 0 242 29" version="1.1" xmlns="http://www.w3.org/2000/svg" xmlns:xlink="http://www.w3.org/1999/xlink" xmlns:sketch="http://www.bohemiancoding.com/sketch/ns">
    <!-- Generator: Sketch 3.3.1 (12002) - http://www.bohemiancoding.com/sketch -->
    <title>Imported Layers</title>
    <desc>Created with Sketch.</desc>
    <defs></defs>
    <g id="Page-1" stroke="none" stroke-width="1" fill="none" fill-rule="evenodd" sketch:type="MSPage">
        <g id="developers-copy" sketch:type="MSArtboardGroup" transform="translate(-713.000000, -1345.000000)">
            <g id="Imported-Layers" sketch:type="MSLayerGroup" transform="translate(713.000000, 1345.679515)">
                <path d="M21.9023187,27.0801286 C21.6727021,28.2766967 21.4092376,28.4011105 20.4303936,27.7095161 C17.602724,25.7097471 15.8856305,22.9150105 14.814391,19.6912293 C14.1877479,17.8048964 13.6690522,15.8838009 13.0707681,13.9874051 C12.9079324,13.4677945 12.634405,12.9829466 12.4121068,12.482547 C12.2758005,12.5218837 12.1394942,12.5612204 12.0031879,12.6005571 C12.0315469,12.9362914 11.997699,13.2921515 12.0983278,13.6041008 C12.6014719,15.1620178 13.2098188,16.690661 13.6379487,18.2677889 C13.8712246,19.1231339 13.9233686,20.0626411 13.8712246,20.9536635 C13.7888919,22.3734445 12.2236565,23.5572053 10.7901533,23.316611 C9.45087524,23.0924832 8.24332947,22.6094649 7.52520566,21.2967162 C7.37883648,21.0286777 6.91045509,20.8777345 6.56099866,20.7917426 C5.66082818,20.5694444 4.64173274,20.6078663 3.85499838,20.1916289 C2.07935722,19.2539513 2.02355397,16.9971215 3.71320323,15.9149043 C4.58501468,15.3568718 5.6013657,15.0229671 6.56008386,14.6039853 C7.83989941,14.0441232 9.12977784,13.5098757 10.4059342,12.9454395 C10.6895245,12.8191961 10.9923257,12.6600196 11.1853501,12.4313177 C11.3372081,12.2529303 11.4506442,11.8879221 11.3646523,11.7095347 C11.2896381,11.5549323 10.8651675,11.4222852 10.6767171,11.4936402 C9.9284047,11.7781453 9.22034377,12.1669384 8.4820942,12.4807173 C7.07054638,13.0790014 5.68461318,13.7769994 4.22092134,14.1978108 C3.12223765,14.5143342 1.80674461,14.8701943 0.88278914,13.7760846 C-0.111606503,12.5996423 -0.213150124,11.1615651 0.47478504,9.83509434 C0.906574132,9.0017048 1.61554987,8.24241466 2.36752155,7.666086 C2.94385021,7.22423403 3.03990499,6.8875849 2.96489078,6.2069682 C2.8807285,5.43670037 2.9182356,4.56854815 3.19816667,3.85865761 C4.14956636,1.44539569 6.87569241,1.09502446 8.47386093,3.14968187 C9.81313897,4.87226421 10.430634,6.91045509 10.8605934,9.01542691 C10.9310336,9.35573527 10.9904961,9.72348784 11.1679687,10.0089077 C11.3070194,10.2348652 11.698557,10.539496 11.8376077,10.4800336 C12.0983278,10.3693419 12.3974699,10.0345224 12.4267437,9.76556898 C12.4697397,9.37311661 12.3361778,8.93858309 12.1934678,8.55344918 C11.6116503,6.9854693 10.9346928,5.44950767 10.4169118,3.86140203 C10.0610518,2.77186642 9.97505987,1.56340584 11.0600214,0.799541666 C12.2556747,-0.0420811403 13.6608189,0.0237849924 14.8253687,0.771182637 C15.5544702,1.23956403 16.1820281,2.09490894 16.4930626,2.91457637 C16.7912898,3.69948112 16.9495515,4.06906331 17.8890587,3.89799433 C19.037142,3.68850343 20.1870549,3.83670223 21.1924282,4.57129257 C22.2819638,5.36717501 22.8326779,6.40639621 22.556406,7.74384463 C22.3112376,8.93126463 21.3552639,9.44538639 20.2785356,9.62102941 C18.4544097,9.92017143 16.6064987,10.0683702 14.7851172,10.3757455 C14.2838027,10.4608226 13.8392063,10.8834636 13.3680805,11.1515022 C13.9004984,11.2631087 14.4493829,11.5192548 14.9607602,11.4579627 C16.2762532,11.3006158 17.5679613,10.9493298 18.8825395,10.7746015 C20.495345,10.5605366 22.0550916,10.6986725 23.1702418,12.1093055 C24.3988281,13.6626485 23.8947693,15.5297704 22.1118096,16.3466934 C21.8327934,16.4747664 21.5482883,16.9257665 21.5327365,17.2404602 C21.444915,19.0627566 20.6892841,20.3773348 19.4707607,20.6536066 C17.9979208,20.9865965 16.4647036,20.1166147 15.8179347,18.3455476 C15.3431497,17.0456063 15.1647622,15.6386325 14.790606,14.2975248 C14.5994113,13.6095897 14.2947804,12.9472691 13.9782571,12.3050743 C13.9041577,12.1550459 13.5354903,12.0297173 13.3662509,12.0864354 C13.2299446,12.1321757 13.0817458,12.4907802 13.1210825,12.6691677 C14.0304011,16.742805 15.1144478,20.7588095 17.6658457,24.1765299 C18.7325111,25.6045443 19.6921441,26.1955099 21.9023187,27.0801286" id="Fill-1" fill="#F15A24" sketch:type="MSShapeGroup"></path>
                <path d="M32.7007053,22.5774466 L32.7007053,0.613835765 L47.6431693,0.613835765 L47.6431693,4.72955425 L37.1960688,4.72955425 L37.1960688,9.3722018 L47.4208711,9.3722018 L47.4208711,13.4888351 L37.1960688,13.4888351 L37.1960688,22.5774466 L32.7007053,22.5774466" id="Fill-2" fill="#808080" sketch:type="MSShapeGroup"></path>
                <path d="M50.5129201,15.9359449 C50.5129201,12.0937538 53.2308129,8.99255673 57.1086815,8.99255673 C60.9078766,8.99255673 63.4931223,11.9565327 63.4931223,16.2927198 L63.4931223,17.061158 L54.0221213,17.061158 C54.2334418,18.7352555 55.5260647,20.1349108 57.6886694,20.1349108 C58.7708865,20.1349108 60.2748299,19.6409148 61.0926677,18.8175882 L62.5700816,21.0670996 C61.3030734,22.2755602 59.2987304,22.9067773 57.320002,22.9067773 C53.4412186,22.9067773 50.5129201,20.1888845 50.5129201,15.9359449 L50.5129201,15.9359449 Z M57.1086815,11.7644231 C55.0247502,11.7644231 54.1273242,13.3836322 53.9699773,14.7009549 L60.2483005,14.7009549 C60.1687122,13.4385207 59.324345,11.7644231 57.1086815,11.7644231 L57.1086815,11.7644231 Z" id="Fill-3" fill="#808080" sketch:type="MSShapeGroup"></path>
                <path d="M66.7379442,4.27306536 L70.0888837,4.27306536 L70.0888837,22.5774466 L66.7379442,22.5774466 L66.7379442,4.27306536 Z" id="Fill-4" fill="#808080" sketch:type="MSShapeGroup"></path>
                <path d="M73.8880788,5.80994179 C73.8880788,4.65728447 74.8111194,3.75162514 75.8924218,3.75162514 C77.0002536,3.75162514 77.8976796,4.65728447 77.8976796,5.80994179 C77.8976796,6.9616843 77.0002536,7.89478785 75.8924218,7.89478785 C74.8111194,7.89478785 73.8880788,6.9616843 73.8880788,5.80994179 L73.8880788,5.80994179 Z M74.2302167,9.32188739 L77.5811563,9.32188739 L77.5811563,22.5765318 L74.2302167,22.5765318 L74.2302167,9.32188739 Z" id="Fill-5" fill="#808080" sketch:type="MSShapeGroup"></path>
                <path d="M80.9046515,15.9359449 C80.9046515,11.8751148 83.7277472,8.99255673 87.6586746,8.99255673 C90.2704497,8.99255673 91.8530665,10.1726583 92.6974337,11.380204 L90.5073848,13.5208534 C89.9008675,12.5877498 88.9778268,12.0937538 87.8169362,12.0937538 C85.785149,12.0937538 84.3607939,13.6306302 84.3607939,15.9359449 C84.3607939,18.2403447 85.785149,19.8046654 87.8169362,19.8046654 C88.9778268,19.8046654 89.9008675,19.2566957 90.5073848,18.3784806 L92.6974337,20.4907709 C91.8530665,21.7266757 90.2704497,22.9067773 87.6586746,22.9067773 C83.7277472,22.9067773 80.9046515,20.025134 80.9046515,15.9359449" id="Fill-6" fill="#808080" sketch:type="MSShapeGroup"></path>
                <path d="M95.3631825,5.80994179 C95.3631825,4.65728447 96.2853083,3.75162514 97.3675255,3.75162514 C98.4753572,3.75162514 99.3718685,4.65728447 99.3718685,5.80994179 C99.3718685,6.9616843 98.4753572,7.89478785 97.3675255,7.89478785 C96.2853083,7.89478785 95.3631825,6.9616843 95.3631825,5.80994179 L95.3631825,5.80994179 Z M95.7053204,9.32188739 L99.0562599,9.32188739 L99.0562599,22.5765318 L95.7053204,22.5765318 L95.7053204,9.32188739 Z" id="Fill-7" fill="#808080" sketch:type="MSShapeGroup"></path>
                <path d="M102.088846,20.8484606 L103.539731,18.4059249 C104.463686,19.3106694 106.362827,20.2172435 107.945443,20.2172435 C109.396328,20.2172435 110.082434,19.6125558 110.082434,18.790144 C110.082434,16.5946062 102.511487,18.3784806 102.511487,13.1640785 C102.511487,10.9410965 104.384098,8.99255673 107.735038,8.99255673 C109.897642,8.99255673 111.612906,9.76099494 112.879,10.8047902 L111.533318,13.1915227 C110.768539,12.3407518 109.317655,11.6546463 107.760652,11.6546463 C106.547618,11.6546463 105.756309,12.2309749 105.756309,12.9719689 C105.756309,14.9479529 113.301641,13.3012996 113.301641,18.6529229 C113.301641,21.0670996 111.322912,22.9067773 107.788097,22.9067773 C105.571518,22.9067773 103.434528,22.1374242 102.088846,20.8484606" id="Fill-8" fill="#808080" sketch:type="MSShapeGroup"></path>
                <path d="M132.033237,22.5774466 L123.864922,0.613835765 L128.993332,0.613835765 L134.850844,17.5066692 L140.675423,0.613835765 L145.803833,0.613835765 L137.668451,22.5774466 L132.033237,22.5774466" id="Fill-9" fill="#808080" sketch:type="MSShapeGroup"></path>
                <path d="M147.503545,15.9359449 C147.503545,12.0937538 150.220523,8.99255673 154.099306,8.99255673 C157.897587,8.99255673 160.482832,11.9565327 160.482832,16.2927198 L160.482832,17.061158 L151.012746,17.061158 C151.223152,18.7352555 152.515775,20.1349108 154.680209,20.1349108 C155.760597,20.1349108 157.265455,19.6409148 158.082378,18.8175882 L159.559792,21.0670996 C158.293698,22.2755602 156.28844,22.9067773 154.309712,22.9067773 C150.431843,22.9067773 147.503545,20.1888845 147.503545,15.9359449 L147.503545,15.9359449 Z M154.099306,11.7644231 C152.01446,11.7644231 151.117949,13.3836322 150.959687,14.7009549 L157.23801,14.7009549 C157.158422,13.4385207 156.31497,11.7644231 154.099306,11.7644231 L154.099306,11.7644231 Z" id="Fill-10" fill="#808080" sketch:type="MSShapeGroup"></path>
                <path d="M172.328673,22.5774466 L172.328673,14.5637338 C172.328673,12.7249709 171.405633,12.0937538 169.980363,12.0937538 C168.662125,12.0937538 167.632967,12.8631068 167.078594,13.6580745 L167.078594,22.5774466 L163.727654,22.5774466 L163.727654,9.32188739 L167.078594,9.32188739 L167.078594,11.0508734 C167.896431,10.036352 169.453434,8.99255673 171.537365,8.99255673 C174.333931,8.99255673 175.679613,10.63921 175.679613,13.2189669 L175.679613,22.5774466 L172.328673,22.5774466" id="Fill-11" fill="#808080" sketch:type="MSShapeGroup"></path>
                <path d="M180.481437,19.28414 L180.481437,12.368196 L178.370061,12.368196 L178.370061,9.32188739 L180.481437,9.32188739 L180.481437,5.7001649 L183.857991,5.7001649 L183.857991,9.32188739 L186.443237,9.32188739 L186.443237,12.368196 L183.857991,12.368196 L183.857991,18.3510364 C183.857991,19.1743631 184.279717,19.8046654 185.018882,19.8046654 C185.519281,19.8046654 185.994981,19.6125558 186.179772,19.4213611 L186.891492,22.0550916 C186.391093,22.5225582 185.493667,22.9067773 184.095841,22.9067773 C181.746616,22.9067773 180.481437,21.6443431 180.481437,19.28414" id="Fill-12" fill="#808080" sketch:type="MSShapeGroup"></path>
                <path d="M198.156431,22.5774466 L198.156431,20.9033491 C197.285534,21.9187853 195.755061,22.9067773 193.670215,22.9067773 C190.874564,22.9067773 189.554497,21.3150124 189.554497,18.7352555 L189.554497,9.32188739 L192.906351,9.32188739 L192.906351,17.3630444 C192.906351,19.2018073 193.829392,19.8046654 195.253747,19.8046654 C196.54637,19.8046654 197.575528,19.0645862 198.156431,18.296148 L198.156431,9.32188739 L201.506455,9.32188739 L201.506455,22.5774466 L198.156431,22.5774466" id="Fill-13" fill="#808080" sketch:type="MSShapeGroup"></path>
                <path d="M205.647788,22.5774466 L205.647788,9.32188739 L208.998728,9.32188739 L208.998728,11.133206 C209.896154,9.9531045 211.478771,8.99255673 213.062302,8.99255673 L213.062302,12.3956403 C212.824452,12.3407518 212.507929,12.3133076 212.138347,12.3133076 C211.030515,12.3133076 209.553101,12.9719689 208.998728,13.8227398 L208.998728,22.5774466 L205.647788,22.5774466" id="Fill-14" fill="#808080" sketch:type="MSShapeGroup"></path>
                <path d="M215.146234,15.9359449 C215.146234,12.0937538 217.864126,8.99255673 221.741995,8.99255673 C225.540275,8.99255673 228.126436,11.9565327 228.126436,16.2927198 L228.126436,17.061158 L218.655435,17.061158 C218.866755,18.7352555 220.159378,20.1349108 222.321983,20.1349108 C223.403285,20.1349108 224.908143,19.6409148 225.725981,18.8175882 L227.203395,21.0670996 C225.936387,22.2755602 223.932044,22.9067773 221.953315,22.9067773 C218.074532,22.9067773 215.146234,20.1888845 215.146234,15.9359449 L215.146234,15.9359449 Z M221.741995,11.7644231 C219.658064,11.7644231 218.760638,13.3836322 218.602376,14.7009549 L224.881614,14.7009549 C224.802026,13.4385207 223.957658,11.7644231 221.741995,11.7644231 L221.741995,11.7644231 Z" id="Fill-15" fill="#808080" sketch:type="MSShapeGroup"></path>
                <path d="M230.262511,20.8484606 L231.713396,18.4059249 C232.637351,19.3106694 234.536491,20.2172435 236.120023,20.2172435 C237.570907,20.2172435 238.257013,19.6125558 238.257013,18.790144 C238.257013,16.5946062 230.685152,18.3784806 230.685152,13.1640785 C230.685152,10.9410965 232.557763,8.99255673 235.908702,8.99255673 C238.072222,8.99255673 239.787486,9.76099494 241.052664,10.8047902 L239.707897,13.1915227 C238.943118,12.3407518 237.492234,11.6546463 235.935232,11.6546463 C234.722197,11.6546463 233.929974,12.2309749 233.929974,12.9719689 C233.929974,14.9479529 241.475305,13.3012996 241.475305,18.6529229 C241.475305,21.0670996 239.496577,22.9067773 235.961761,22.9067773 C233.745183,22.9067773 231.608193,22.1374242 230.262511,20.8484606" id="Fill-16" fill="#808080" sketch:type="MSShapeGroup"></path>
            </g>
        </g>
    </g>
</svg>