<?xml version="1.0" encoding="UTF-8" standalone="no"?>
<svg width="146px" height="40px" viewBox="0 0 146 40" version="1.1" xmlns="http://www.w3.org/2000/svg" xmlns:xlink="http://www.w3.org/1999/xlink" xmlns:sketch="http://www.bohemiancoding.com/sketch/ns">
    <!-- Generator: Sketch 3.3.1 (12002) - http://www.bohemiancoding.com/sketch -->
    <title>Imported Layers</title>
    <desc>Created with Sketch.</desc>
    <defs></defs>
    <g id="Page-1" stroke="none" stroke-width="1" fill="none" fill-rule="evenodd" sketch:type="MSPage">
        <g id="developers-copy" sketch:type="MSArtboardGroup" transform="translate(-1044.000000, -1340.000000)">
            <g id="Imported-Layers" sketch:type="MSLayerGroup" transform="translate(1044.105277, 1340.394272)">
                <path d="M88.3270667,14.9409294 C86.6094383,17.010015 84.908546,17.4884478 82.9238684,16.8175503 C80.9664778,16.1557486 80.1253092,14.5781937 79.8546218,12.6819261 C79.7021782,11.6137293 79.6868974,10.5022371 79.7873137,9.42712762 C79.9768677,7.4060673 80.6968818,5.59784591 82.7368612,4.78214524 C84.729543,3.98536359 86.5203006,4.47653036 88.3154242,6.48740352 C88.3154242,4.65480571 88.3227008,3.25334318 88.3125136,1.85188065 C88.3063286,1.00962059 87.6536225,1.15042173 87.1329857,1.11513049 C86.6392721,1.08165838 86.1197268,0.740388433 86.5035646,0.382382429 C87.1500856,-0.220843135 88.1131363,0.153171268 88.9382965,0.144075587 C89.800567,0.134616079 89.6000982,0.853174878 89.6019174,1.35198202 C89.615379,5.59202468 89.6019174,9.83170351 89.6182896,14.0717462 C89.6212002,14.8430599 89.267924,15.8912462 90.708316,15.8046553 C90.9782758,15.7886469 91.1190769,16.0302282 91.0906984,16.3049178 C91.0630476,16.5748776 90.8833169,16.7797123 90.6228166,16.7476955 C89.6266576,16.6243581 88.0341858,17.561577 88.3270667,14.9409294 L88.3270667,14.9409294 Z M88.490789,10.6623211 C88.4813295,9.43804243 88.3394368,8.23450192 87.7001924,7.16084774 C86.3809548,4.94477602 83.4175819,4.85309155 81.9331668,6.96583634 C80.5826401,8.88829947 80.589189,12.6437242 81.9466284,14.569098 C83.501626,16.7757102 86.5286687,16.5850647 87.740941,14.1881709 C88.2983244,13.086502 88.461319,11.8855083 88.490789,10.6623211 L88.490789,10.6623211 Z" id="Fill-1" fill="#000000" sketch:type="MSShapeGroup"></path>
                <path d="M67.2276336,37.0132366 C68.8706774,32.2380041 70.3670988,27.923013 71.8365971,23.5992901 C72.2746451,22.3102502 71.2057206,22.8210636 70.686903,22.7028198 C70.3139801,22.6176842 69.709663,22.8574464 69.7267629,22.2080147 C69.7431351,21.596785 70.3310799,21.7295819 70.7189198,21.7215777 C71.8693415,21.6982928 73.0204909,21.7077523 74.1712765,21.723033 C74.5256442,21.7277628 74.9476838,21.7292181 74.9797006,22.224387 C75.0066238,22.6438798 74.6395221,22.6962709 74.349188,22.6842646 C73.2980911,22.641333 73.272987,23.5203396 73.0459588,24.1541266 C71.5164291,28.4247308 70.0240097,32.7091604 68.5006651,36.9819475 C68.2703624,37.6277408 68.1914119,38.41288 67.131947,38.3513932 C66.1714431,38.2957276 66.1743537,37.557886 65.9658807,36.9783092 C64.409064,32.6538586 62.875896,28.32104 61.3285387,23.993315 C61.1528102,23.5021482 61.1371656,22.8974673 60.4688149,22.7210111 C60.0755177,22.6173204 59.3151188,22.910929 59.5192258,22.0679412 C59.6469292,21.5396641 60.2275975,21.7288543 60.6205309,21.7193947 C61.6497982,21.693563 62.6797931,21.7048417 63.709788,21.7150288 C64.124551,21.7193947 64.687028,21.6677313 64.7128597,22.2203849 C64.7434212,22.8745462 64.126734,22.6438798 63.7541749,22.6929964 C63.3405033,22.7475705 62.9210105,22.7577577 62.3276083,22.7999616 C63.9313588,27.4522206 65.5005457,32.0033355 67.2276336,37.0132366" id="Fill-2" fill="#000000" sketch:type="MSShapeGroup"></path>
                <path d="M69.9366912,6.00787921 C70.6010397,5.49306367 71.1405955,4.82980661 71.9843109,4.58495088 C74.6045947,3.82382429 76.5834511,5.13032791 76.7813731,7.94234865 C76.9250848,9.99105984 76.8264877,12.0565071 76.8414046,14.1143139 C76.8472258,14.9252849 76.5903638,15.9116205 77.9921901,15.7915575 C78.329458,15.7628152 78.5688563,15.9942093 78.4902696,16.3653131 C78.4131382,16.7280488 78.0977,16.778257 77.7822618,16.7786208 C76.6322039,16.7793485 75.482146,16.7822591 74.3320881,16.7731634 C74.0257456,16.7709805 73.700484,16.7207723 73.6662842,16.3325686 C73.6208058,15.8093851 74.0217435,15.7464429 74.3877537,15.7751853 C75.2078203,15.8395827 75.6065749,15.5816292 75.5814708,14.6720611 C75.5210755,12.4941912 75.5767411,10.3134108 75.5028842,8.1366324 C75.4588611,6.83194791 74.9524135,5.75756607 73.4756388,5.52799108 C71.9690302,5.29405017 70.8309786,5.86489511 70.2554039,7.2805469 C69.2137665,9.84370981 69.7977092,12.5425803 69.7140289,15.183966 C69.6943823,15.8002894 70.2310274,15.7260686 70.6439714,15.7624513 C70.9881519,15.792649 71.4473019,15.7187921 71.4494849,16.2394289 C71.4523955,16.8870413 70.9095652,16.7695251 70.5159042,16.776074 C69.4873646,16.7939016 68.4577335,16.7855335 67.42883,16.7749826 C67.1297641,16.7720719 66.7921324,16.7527891 66.7295541,16.3689514 C66.6466015,15.8606847 67.0038798,15.7322537 67.3928111,15.7726385 C68.5035757,15.8879717 68.4995736,15.1836022 68.4926609,14.3973715 C68.4737419,12.1576511 68.4937524,9.91793056 68.4832014,7.67821007 C68.4788355,6.75809098 68.7884524,5.6109437 67.1745148,5.74010237 C67.030803,5.75174484 66.8186918,5.46723194 66.7248243,5.27731412 C66.6866225,5.19981891 66.8459788,4.95750997 66.9714992,4.87674032 C67.8246741,4.32663354 69.5423025,4.96660565 69.9366912,6.00787921" id="Fill-3" fill="#000000" sketch:type="MSShapeGroup"></path>
                <path d="M108.767973,9.69199385 C109.585492,8.60524188 110.320787,7.65383365 111.021518,6.67732134 C111.189607,6.44374425 111.668039,6.09774454 111.067725,5.85288881 C110.663512,5.68771124 110.146514,5.65242 110.420112,5.06374753 C110.640591,4.58968063 111.173962,4.83671933 111.569806,4.7963345 C111.929995,4.75995178 112.304009,4.74212425 112.658377,4.79997278 C113.205573,4.88983811 114.058021,4.42195627 114.234477,5.19327002 C114.420029,6.0049686 113.364202,5.58947789 113.067319,5.96858587 C111.948914,7.39624396 110.867983,8.85300823 109.792146,10.3130469 C109.70883,10.4261972 109.699734,10.7081633 109.781959,10.8118541 C111.085552,12.4534426 111.974018,14.4359372 113.707291,15.7151538 C113.979798,15.9163503 114.434582,15.8952483 114.33744,16.3773194 C114.239934,16.8619373 113.796429,16.7680698 113.454431,16.7771655 C112.788264,16.7953569 112.120277,16.8091823 111.455201,16.7749826 C111.074637,16.7553359 110.52453,16.9747237 110.406287,16.3733173 C110.275309,15.706422 110.823596,15.7788236 111.228172,15.7482621 C111.720067,15.7111517 111.646574,15.4433749 111.482488,15.1468557 C111.395169,14.9889546 111.269285,14.8528832 111.170688,14.7004396 C108.918961,11.2171576 108.264799,11.2553595 106.216816,14.9129147 C105.881731,15.5117744 105.843529,15.7719109 106.613751,15.7748215 C106.965209,15.7762768 107.187143,15.9392714 107.148941,16.3234729 C107.109284,16.7218638 106.805125,16.7615209 106.492961,16.7742549 C106.311411,16.7815314 106.126223,16.805544 105.948311,16.7811676 C105.032194,16.6545557 103.726418,17.2657855 103.282913,16.4133383 C102.821944,15.5277828 104.58687,15.9352693 104.756777,15.0267927 C104.816809,14.7040779 105.240304,14.4635881 105.358547,14.1350521 C105.915567,12.5891502 108.596246,11.8134705 107.282466,9.66907273 C106.399821,8.22904451 105.620867,6.56089662 103.931617,5.76265965 C103.686034,5.64659876 103.512488,5.51052738 103.520856,5.24529732 C103.534318,4.83162575 103.862126,4.80652167 104.165558,4.80142809 C104.892485,4.78905796 105.620867,4.7668645 106.346338,4.79960895 C106.732359,4.81670883 107.288287,4.58531471 107.440003,5.14015125 C107.609183,5.75865755 107.057621,5.71099619 106.661413,5.84124634 C105.885369,6.09665306 106.460216,6.48485673 106.651589,6.76209308 C107.30284,7.70440563 107.99011,8.62161411 108.767973,9.69199385" id="Fill-4" fill="#000000" sketch:type="MSShapeGroup"></path>
                <path d="M97.9408377,10.9988613 C96.9734211,10.9977698 95.9965449,11.083633 95.0411346,10.9777593 C93.5443493,10.8122179 93.4559393,11.5788019 93.7488202,12.6928409 C94.1890512,14.3664462 94.9592735,15.7806427 96.8646367,16.0396877 C98.6670369,16.2849073 100.092876,15.7006007 100.753586,13.853086 C100.908576,13.4201316 101.093037,13.0111898 101.63041,13.2302138 C102.260195,13.486712 101.840338,13.9491364 101.720639,14.2947723 C101.086852,16.1208212 99.665015,16.9503473 97.8498809,17.0744124 C95.8350056,17.2115752 94.1202878,16.5330374 93.165969,14.6345869 C91.9893517,12.2940863 91.9620647,9.84953104 92.9127452,7.43335434 C93.7306289,5.35553697 95.3653047,4.37720552 97.6126655,4.458339 C99.6239025,4.53110445 100.986799,5.58911406 101.737739,7.68366748 C101.879268,8.07914769 101.984414,8.49209161 102.064819,8.90503553 C102.469759,10.9875826 102.461027,10.9937677 100.298802,10.9995889 C99.5129352,11.0014081 98.7270684,10.9995889 97.9408377,10.9988613 L97.9408377,10.9988613 Z M97.2139109,10.0128895 L97.2139109,10.0052491 C98.180236,10.0052491 99.146925,9.99469811 100.112886,10.0088874 C100.711382,10.0176192 100.936955,9.79168251 100.945687,9.15462101 C100.979159,6.72643801 98.4632936,4.84108526 96.183916,5.63022654 C94.9570905,6.05481293 93.3606166,8.19884685 93.7306289,9.33617081 C94.1923256,10.7554609 95.5734138,9.70108953 96.4928053,10.0023385 C96.7107378,10.0736486 96.9723296,10.0128895 97.2139109,10.0128895 L97.2139109,10.0128895 Z" id="Fill-5" fill="#000000" sketch:type="MSShapeGroup"></path>
                <path d="M88.6901663,27.5657347 C90.0607035,25.9863606 91.8001615,25.64218 93.6320317,26.4145853 C95.3569366,27.1418759 95.4653572,28.8205748 95.4751805,30.4399699 C95.4850038,32.0764648 95.4642657,33.7129597 95.4839123,35.3490908 C95.495191,36.302682 95.0898874,37.5327819 96.7893245,37.4902141 C97.0185356,37.4843929 97.2546595,37.7008701 97.1364157,37.9941148 C97.0840245,38.1240012 96.8919238,38.2797192 96.7605821,38.282266 C95.4289744,38.3070063 94.0962753,38.3073701 92.7639399,38.301185 C92.5158097,38.3000936 92.2698625,38.20659 92.2865986,37.896973 C92.3077005,37.5029481 92.6307791,37.40617 92.9291175,37.4363677 C94.3167546,37.5775327 94.3047483,36.6919772 94.2847378,35.7107351 C94.2468997,33.8930542 94.3273055,32.0710074 94.2432615,30.2562371 C94.1450281,28.1307584 93.3256892,27.1571567 91.7459513,27.0534659 C90.162939,26.9494113 88.9317476,27.9965061 88.5570055,29.9167863 C88.1240511,32.1354048 88.4129299,34.3900422 88.3652686,36.6286712 C88.3478049,37.4494655 88.9852302,37.3701511 89.5186009,37.4261805 C89.8242158,37.4581973 90.1640304,37.5236862 90.160756,37.9042495 C90.1571177,38.3146466 89.7856501,38.3204679 89.493133,38.3237423 C88.341256,38.3361125 87.1893789,38.3408422 86.0382295,38.322287 C85.7682697,38.3179211 85.3913447,38.3921418 85.3389536,37.9562768 C85.2887454,37.5426052 85.603456,37.4214508 85.9047049,37.4410974 C87.2570508,37.5287798 87.0896903,36.6024757 87.0856882,35.7503923 C87.0751372,33.5685203 87.0896903,31.3866483 87.0765925,29.2047764 C87.0711351,28.2944806 87.4138603,27.1193186 85.7671782,27.3226981 C85.5095886,27.3547149 85.3098474,27.1673438 85.3142133,26.8846501 C85.3182154,26.6157817 85.5012205,26.4902613 85.752989,26.3971216 C86.8069965,26.0081903 88.0949449,26.5008123 88.6901663,27.5657347" id="Fill-6" fill="#000000" sketch:type="MSShapeGroup"></path>
                <path d="M137.356062,36.125862 C137.353515,35.8839169 137.318588,35.6354228 137.361155,35.4007543 C137.435376,34.9874465 137.086466,34.3238256 137.875607,34.2874429 C138.514488,34.2583367 138.350038,34.8561049 138.474467,35.2206598 C139.147911,37.1900566 140.422398,37.9693746 142.34195,37.6088218 C143.666645,37.359964 144.337906,36.5118827 144.439414,35.2326661 C144.545288,33.8952372 143.724494,33.2578118 142.521681,33.0158667 C141.692155,32.8485062 140.851714,32.7349921 140.022188,32.5676316 C138.66111,32.2925782 137.622019,31.6122212 137.503776,30.1136168 C137.386259,28.6248358 137.885067,27.345983 139.269065,26.6034116 C140.635964,25.8699359 142.043612,25.8502892 143.432704,26.5990457 C143.880939,26.840627 144.375017,27.7771183 144.738844,26.5150016 C144.754489,26.4604275 144.969147,26.4073087 145.061195,26.4393255 C145.694982,26.659441 145.556,27.2328327 145.507247,27.6668786 C145.404648,28.5829956 146.025337,29.7756213 145.103399,30.3471939 C144.472886,30.7379444 144.620236,29.7869 144.517273,29.3896006 C144.017011,27.4591333 142.090909,26.5011762 140.282688,27.2921366 C139.217402,27.7581993 138.709863,28.5793574 138.761163,29.7305067 C138.811007,30.8496393 139.589961,31.2727704 140.539186,31.4768775 C141.425106,31.667523 142.326669,31.7872221 143.21077,31.9851441 C144.753033,32.3300524 145.636042,33.2341631 145.660418,34.8950344 C145.685159,36.5915608 145.07502,37.8514946 143.381405,38.3928695 C142.136388,38.7908965 140.888824,38.8014475 139.661999,38.2658938 C139.153732,38.0439592 138.685123,36.9128203 138.057884,38.2222345 C137.943643,38.4609052 137.373162,38.2626193 137.361155,37.7601739 C137.348421,37.2158884 137.358245,36.6708752 137.356062,36.125862" id="Fill-7" fill="#000000" sketch:type="MSShapeGroup"></path>
                <path d="M79.892096,32.6018313 C79.1036823,32.6040143 78.3156325,32.6018313 77.5272189,32.6043781 C75.4366676,32.6116547 75.2780389,32.7968427 75.8630731,34.7556886 C76.328772,36.3157798 77.2270614,37.4803908 78.9777981,37.6488428 C80.7067052,37.8151118 82.1048932,37.3115749 82.7423186,35.5200896 C82.8969452,35.0856799 83.1272478,34.6399915 83.6202337,34.8539219 C84.1368684,35.0784033 83.8741851,35.5990401 83.7268351,35.971963 C83.08468,37.5946325 81.852761,38.4605414 80.1354964,38.6246275 C78.1246232,38.8167282 76.3036679,38.3579421 75.2958665,36.4714978 C73.8602042,33.7828145 73.8700275,30.9675194 75.2980494,28.2781084 C76.3589696,26.2806969 78.9901682,25.5173873 81.1836827,26.370926 C82.9689829,27.065836 84.5963822,30.1143445 84.2420145,31.9483976 C84.1015771,32.6764159 83.6249635,32.5850953 83.1658135,32.5934633 C82.0750594,32.6134738 80.9832139,32.5996484 79.892096,32.6018313 L79.892096,32.6018313 Z M79.1957306,31.6405998 L79.1957306,31.6329594 C80.1649664,31.6329594 81.1342022,31.6344147 82.1034379,31.6322317 C82.6604574,31.6307764 82.9871743,31.4703286 82.9784425,30.7899717 C82.958432,29.2553484 81.8254739,27.6388639 80.3628884,27.1939032 C78.7682336,26.7089215 77.2212402,27.3550787 76.3516931,28.8689638 C75.0808446,31.0817611 75.3970104,31.6391444 77.9237906,31.6402359 C78.3476493,31.6405998 78.7718719,31.6405998 79.1957306,31.6405998 L79.1957306,31.6405998 Z" id="Fill-8" fill="#000000" sketch:type="MSShapeGroup"></path>
                <path d="M114.019819,36.898631 C112.58161,38.6479124 110.943659,39.0513968 109.135438,38.3965078 C107.247902,37.7128764 107.128203,35.9956118 107.100552,34.3223703 C107.070718,32.5068724 107.093276,30.6906468 107.092184,28.8744212 C107.09182,28.1092926 107.299566,27.2106393 106.00616,27.3361597 C105.697998,27.3659935 105.374556,27.2095478 105.41967,26.8275292 C105.461511,26.4731615 105.79041,26.4287745 106.100391,26.3669239 C107.874413,26.01292 108.33138,26.3887535 108.340476,28.2610085 C108.351027,30.3799384 108.305184,32.5003235 108.37322,34.6174342 C108.423064,36.1789807 108.892765,37.5218671 110.788305,37.6641235 C112.407336,37.7856418 113.712021,36.7210833 114.026731,34.8746601 C114.404748,32.6560416 114.125329,30.4043148 114.215194,28.1696879 C114.248666,27.3430724 113.711293,27.3485298 113.136446,27.3503489 C112.828648,27.3514404 112.486651,27.3132386 112.470279,26.9155754 C112.44954,26.4116747 112.849387,26.4185874 113.216488,26.3621942 C115.129492,26.0664026 115.46676,26.3319965 115.46967,28.2013409 C115.473672,30.6833703 115.467487,33.1657635 115.472581,35.6481568 C115.474764,36.5213422 115.191342,37.5935411 116.712868,37.4447357 C117.037766,37.4130827 117.309545,37.6077303 117.237871,37.9973893 C117.18548,38.2837213 116.904241,38.3568506 116.680124,38.3164658 C115.712343,38.1418287 114.261036,39.0342969 114.019819,36.898631" id="Fill-9" fill="#000000" sketch:type="MSShapeGroup"></path>
                <path d="M131.402393,32.6018313 C130.736589,32.6040143 130.070785,32.6032866 129.404981,32.6040143 C126.925135,32.6065611 126.690466,32.9652947 127.662249,35.3036124 C128.243645,36.7018005 129.226706,37.5880836 130.800259,37.6684895 C132.392367,37.7496229 133.666854,37.2402648 134.303551,35.6634375 C134.487648,35.2071982 134.622628,34.5741388 135.229492,34.8586517 C135.79306,35.1227903 135.452518,35.7060053 135.261508,36.1335023 C134.515662,37.8031055 133.179689,38.56023 131.388567,38.6493677 C129.331852,38.7512393 127.635689,38.0941673 126.738128,36.1717042 C125.580429,33.6918577 125.577519,31.1086843 126.719936,28.6241081 C127.726282,26.4364149 130.191576,25.5337595 132.581921,26.3065286 C134.478552,26.9195775 136.151066,29.854208 135.862915,31.8981894 C135.759952,32.6265716 135.329544,32.5905527 134.85293,32.5956463 C133.702872,32.6076526 132.552815,32.5996484 131.402393,32.6018313 L131.402393,32.6018313 Z M130.914137,31.6365977 C131.817156,31.6365977 132.720175,31.6373253 133.623194,31.6362338 C134.230422,31.6355062 134.633543,31.539092 134.572783,30.7208445 C134.441442,28.9442761 133.230988,27.4023762 131.580304,27.0913039 C129.930348,26.7802317 128.505236,27.6257662 127.728101,29.3768667 C126.833814,31.3917419 126.980437,31.6329594 129.108098,31.6402359 C129.709868,31.6420551 130.312003,31.6402359 130.914137,31.6365977 L130.914137,31.6365977 Z" id="Fill-10" fill="#000000" sketch:type="MSShapeGroup"></path>
                <path d="M62.3236062,8.53902532 C62.3236062,6.84286273 62.3374316,5.14670014 62.3188765,3.45090137 C62.3061425,2.26482457 62.7547415,0.720014108 60.5805099,1.08638814 C60.2461527,1.14278136 60.0354967,0.865908831 60.07479,0.504992209 C60.1078983,0.202287945 60.35712,0.134252252 60.6041587,0.133524597 C62.1784391,0.128794843 63.7530834,0.131341634 65.3277277,0.140073487 C65.5729473,0.141528796 65.8276264,0.204107082 65.8436348,0.511541099 C65.8694665,1.00780145 65.4976351,1.15951741 65.1294419,1.09803061 C63.381252,0.806968818 63.5122298,1.93628857 63.5209617,3.08634648 C63.5489764,6.78137593 63.5566167,10.4767692 63.5155042,14.1714348 C63.503498,15.2298083 63.6137376,15.9771094 64.9551686,15.7802789 C65.3310022,15.725341 65.9109428,15.6784073 65.8290817,16.3474855 C65.7712331,16.8200971 65.312447,16.7764379 64.9573516,16.7786208 C63.6246524,16.7869889 62.2919532,16.7884442 60.9596179,16.7800761 C60.5448548,16.7775293 60.0227627,16.828829 60.0715156,16.192859 C60.1111728,15.683137 60.5954268,15.7235218 60.9210522,15.775913 C62.2799469,15.9945731 62.3647187,15.2079786 62.3370678,14.1717987 C62.2875873,12.2955416 62.3232424,10.4167377 62.3236062,8.53902532" id="Fill-11" fill="#000000" sketch:type="MSShapeGroup"></path>
                <path d="M99.7683419,32.3922668 C99.7683419,31.425214 99.7763461,30.4581612 99.766159,29.4911084 C99.7541527,28.3938055 100.117616,27.0134449 98.1693212,27.3281555 C97.9168251,27.369268 97.6999841,27.2160967 97.6799736,26.926854 C97.6530504,26.5426525 97.9088209,26.3450943 98.2344463,26.3927556 C99.793446,26.6212392 99.8738518,25.6672841 99.7781653,24.5346899 C99.7286848,23.9467451 100.041212,23.5781881 100.609511,23.5945603 C101.150885,23.6102049 101.019544,24.1486692 100.972974,24.4262694 C100.697193,26.0762259 101.420118,26.5990457 102.975479,26.3840238 C103.393153,26.3261753 104.119716,26.1759146 104.12008,26.8697332 C104.12008,27.5806516 103.378236,27.4034677 102.979481,27.3361597 C101.168349,27.0312724 100.891113,27.9557575 100.968608,29.4845595 C101.075937,31.5943937 100.978067,33.7140512 101.012995,35.8286151 C101.026093,36.6177564 101.098494,37.5302351 102.133219,37.6179175 C103.13811,37.7034169 103.433174,36.9317393 103.528496,36.0792921 C103.576158,35.6521589 103.611813,35.1246094 104.201213,35.2424894 C104.78552,35.3596418 104.571589,35.9199358 104.533387,36.3008629 C104.383127,37.7943737 103.293464,38.7235885 101.840338,38.6413635 C100.292253,38.5536811 99.7898077,37.5771688 99.7781653,36.1993551 C99.7676143,34.9303257 99.7759823,33.6612962 99.7759823,32.3922668 L99.7683419,32.3922668" id="Fill-12" fill="#000000" sketch:type="MSShapeGroup"></path>
                <path d="M121.334202,27.746193 C122.142626,26.8664587 122.89502,26.1733678 123.995598,26.074043 C124.436193,26.034022 124.875332,26.0118285 124.93027,26.6201477 C124.977204,27.1404206 124.608647,27.1811693 124.226992,27.2160967 C122.004371,27.4191123 121.329836,28.9664695 121.207226,30.8598265 C121.101716,32.4857704 121.19049,34.1233568 121.141737,35.7543944 C121.111175,36.7687447 121.178847,37.5942687 122.545382,37.4338209 C122.86737,37.3959829 123.363994,37.4290911 123.308328,37.9406322 C123.254482,38.4321628 122.765498,38.3193764 122.438053,38.3248338 C121.229056,38.3448443 120.019694,38.3404784 118.810696,38.3215594 C118.536006,38.3175573 118.166358,38.370676 118.097958,37.9606427 C118.028467,37.5447882 118.354456,37.4174487 118.65134,37.4425527 C119.988405,37.5571583 119.866159,36.6541391 119.862157,35.7933239 C119.850514,33.4360872 119.845421,31.0781228 119.85961,28.7208862 C119.86434,27.9586681 119.928373,27.2241009 118.792504,27.3419809 C118.451962,27.377636 118.007365,27.3638105 118.07431,26.8107931 C118.120152,26.4316852 118.450507,26.3556453 118.754666,26.3800217 C119.781023,26.4618828 121.160292,25.8004449 121.334202,27.746193" id="Fill-13" fill="#000000" sketch:type="MSShapeGroup"></path>
                <path d="M0.181185966,0.130977806 L21.3009934,0.130977806 L21.3009934,4.34919083 L0.181185966,4.34919083 L0.181185966,0.130977806 Z" id="Fill-14" fill="#FF0000" sketch:type="MSShapeGroup"></path>
                <path d="M12.8918544,34.154646 L34.0116619,34.154646 L34.0116619,38.372859 L12.8918544,38.372859 L12.8918544,34.154646 Z" id="Fill-15" fill="#FF0000" sketch:type="MSShapeGroup"></path>
                <path d="M12.8918544,8.46989815 L42.3796884,8.46989815 L42.3796884,12.6881112 L12.8918544,12.6881112 L12.8918544,8.46989815 Z" id="Fill-16" fill="#FF0000" sketch:type="MSShapeGroup"></path>
                <path d="M12.8918544,25.6458183 L42.3796884,25.6458183 L42.3796884,29.8640313 L12.8918544,29.8640313 L12.8918544,25.6458183 Z" id="Fill-17" fill="#FF0000" sketch:type="MSShapeGroup"></path>
                <path d="M12.9573433,17.1322609 L46.7263324,17.1322609 L46.7263324,21.3504739 L12.9573433,21.3504739 L12.9573433,17.1322609 Z" id="Fill-18" fill="#FF0000" sketch:type="MSShapeGroup"></path>
            </g>
        </g>
    </g>
</svg>