<?xml version="1.0" encoding="UTF-8" standalone="no"?>
<svg width="80px" height="41px" viewBox="0 0 80 41" version="1.1" xmlns="http://www.w3.org/2000/svg" xmlns:xlink="http://www.w3.org/1999/xlink" xmlns:sketch="http://www.bohemiancoding.com/sketch/ns">
    <!-- Generator: Sketch 3.3.1 (12002) - http://www.bohemiancoding.com/sketch -->
    <title>Imported Layers</title>
    <desc>Created with Sketch.</desc>
    <defs></defs>
    <g id="Page-1" stroke="none" stroke-width="1" fill="none" fill-rule="evenodd" sketch:type="MSPage">
        <g id="developers-copy" sketch:type="MSArtboardGroup" transform="translate(-546.000000, -1339.000000)" fill="#0096E8">
            <g id="Imported-Layers" sketch:type="MSLayerGroup" transform="translate(546.000000, 1339.359029)">
                <path d="M38.1538462,0 L0,0 L0,40.3787879 L11.0769231,40.3787879 L11.0769231,11.1818182 L38.1538462,11.1818182 L38.1538462,0" id="Fill-1" sketch:type="MSShapeGroup"></path>
                <path d="M41.8461538,0.206863636 L79.7950769,0.206863636 L79.7950769,11.3886818 L41.8461538,11.3886818 L41.8461538,0.206863636 Z" id="Fill-2" sketch:type="MSShapeGroup"></path>
                <path d="M41.8461538,14.9090909 L79.7950769,14.9090909 L79.7950769,26.0909091 L41.8461538,26.0909091 L41.8461538,14.9090909 Z" id="Fill-3" sketch:type="MSShapeGroup"></path>
                <path d="M38.1538462,14.9090909 L14.7692308,14.9090909 L14.7692308,40.3787879 L25.8461538,40.3787879 L25.8461538,26.0909091 L38.1538462,26.0909091 L38.1538462,14.9090909" id="Fill-4" sketch:type="MSShapeGroup"></path>
                <path d="M41.8461538,29.1969697 L79.7950769,29.1969697 L79.7950769,40.3787879 L41.8461538,40.3787879 L41.8461538,29.1969697 Z" id="Fill-5" sketch:type="MSShapeGroup"></path>
            </g>
        </g>
    </g>
</svg>