<?xml version="1.0" encoding="utf-8"?>
<!-- Generator: Adobe Illustrator 18.1.1, SVG Export Plug-In . SVG Version: 6.00 Build 0)  -->
<!DOCTYPE svg PUBLIC "-//W3C//DTD SVG 1.1//EN" "http://www.w3.org/Graphics/SVG/1.1/DTD/svg11.dtd">
<svg version="1.1" id="Layer_5" xmlns="http://www.w3.org/2000/svg" xmlns:xlink="http://www.w3.org/1999/xlink" x="0px" y="0px"
	 viewBox="0 0 623.6 107.8" enable-background="new 0 0 623.6 107.8" xml:space="preserve">
<g>
	<path fill="#8CC63E" d="M612.2,8.2c-7.9-5.4-20-8.2-35.7-8.2h-41.3l-15.4,83.3h-54.1l3.5-18.9h32.6l3.9-21.2l-32.6,0.1l3.5-18.8
		h33.6L514.6,0h-68.2l-14.6,79.1h-25L421.6,0h-35.6l-14.6,79.1H347L361.7,0h-35.6l-15.4,83.3h-54.5l3.4-18.9h32.7l3.9-21.1l-32.7,0
		l3.5-18.9H301L305.4,0H93L80.9,66L56.9,0h-37L0,107.8h35.3l12-67.9l23.4,67.9h126.5l15.4-83.4h19.8L217,107.8h332.9l9.6-52.6
		l15.6,52.6h35.3l-16.2-43L598,64c8.1-1.7,14.5-5.5,18.9-11.1c4.4-5.7,6.7-13,6.7-21.7C623.6,20.9,619.9,13.4,612.2,8.2z
		 M166.5,83.3h-54l3.5-18.9h33.9l3.9-21.3h-33.6l3.2-18.7h54L166.5,83.3z M583.1,47c-3.5,2.5-8.7,3.7-15.7,3.7h-3.1h-3.9l5.4-28.9
		h2.7h2.4c5.8,0,10.1,0.9,13.1,2.9c2.3,1.5,5,4.5,5,10.1C589,41.5,585.8,45.2,583.1,47z"/>
</g>
</svg>
