<?xml version="1.0" encoding="UTF-8" standalone="no"?>
<svg width="102px" height="104px" viewBox="0 0 102 104" version="1.1" xmlns="http://www.w3.org/2000/svg" xmlns:xlink="http://www.w3.org/1999/xlink" xmlns:sketch="http://www.bohemiancoding.com/sketch/ns">
    <!-- Generator: Sketch 3.3 (11970) - http://www.bohemiancoding.com/sketch -->
    <title>Imported Layers</title>
    <desc>Created with Sketch.</desc>
    <defs>
        <linearGradient x1="50%" y1="2.97353316%" x2="50%" y2="100%" id="linearGradient-1">
            <stop stop-color="#517AE3" offset="0%"></stop>
            <stop stop-color="#1C2D89" offset="100%"></stop>
        </linearGradient>
    </defs>
    <g id="FINAL" stroke="none" stroke-width="1" fill="none" fill-rule="evenodd" sketch:type="MSPage">
        <g id="tour/features-copy-11" sketch:type="MSArtboardGroup" transform="translate(-363.000000, -351.000000)" fill="url(#linearGradient-1)">
            <g id="Imported-Layers" sketch:type="MSLayerGroup" transform="translate(363.338840, 351.008825)">
                <path d="M9.98185685,80.3200529 L9.62562044,78.0423111 L12.6624755,77.5674632 L13.019114,79.845205 L9.98185685,80.3200529 L9.98185685,80.3200529 Z M14.9177013,79.5480733 L14.5610628,77.2703315 L17.59832,76.7954836 L17.9545564,79.0732255 L14.9177013,79.5480733 L14.9177013,79.5480733 Z M19.8527416,78.7764958 L19.4961031,76.498754 L22.5333603,76.023504 L22.8899988,78.3012459 L19.8527416,78.7764958 L19.8527416,78.7764958 Z M24.787782,78.0045162 L24.4315455,75.7267744 L27.4688027,75.2519265 L27.8250391,77.5296684 L24.787782,78.0045162 Z M65.9765114,8.72618381 L68.2819963,8.72618381 L68.2819963,11.8004317 L65.9765114,11.8004317 L65.9765114,8.72618381 Z M65.9765114,13.721535 L68.2819963,13.721535 L68.2819963,16.7953808 L65.9765114,16.7953808 L65.9765114,13.721535 Z M65.9765114,18.7164842 L68.2819963,18.7164842 L68.2819963,21.790732 L65.9765114,21.790732 L65.9765114,18.7164842 Z M65.9765114,23.7118354 L68.2819963,23.7118354 L68.2819963,26.7860833 L65.9765114,26.7860833 L65.9765114,23.7118354 Z M65.9765114,33.7025379 L68.2819963,33.7025379 L68.2819963,36.7767857 L65.9765114,36.7767857 L65.9765114,33.7025379 Z M65.9765114,38.6978891 L68.2819963,38.6978891 L68.2819963,41.7721369 L65.9765114,41.7721369 L65.9765114,38.6978891 Z M65.9765114,43.6932403 L68.2819963,43.6932403 L68.2819963,46.7670861 L65.9765114,46.7670861 L65.9765114,43.6932403 Z M65.9765114,48.6881895 L68.2819963,48.6881895 L68.2819963,51.7624373 L65.9765114,51.7624373 L65.9765114,48.6881895 Z M65.9765114,53.6835407 L68.2819963,53.6835407 L68.2819963,56.7577885 L65.9765114,56.7577885 L65.9765114,53.6835407 Z M65.9765114,58.6788919 L68.2819963,58.6788919 L68.2819963,61.7527377 L65.9765114,61.7527377 L65.9765114,58.6788919 Z M34.6586667,76.4609591 L34.3020282,74.1832173 L37.3392854,73.7079674 L37.6959239,75.9857092 L34.6586667,76.4609591 L34.6586667,76.4609591 Z M39.5941091,75.6889795 L39.2374706,73.4112377 L42.2747278,72.9363898 L42.6309642,75.2141317 L39.5941091,75.6889795 L39.5941091,75.6889795 Z M44.5291494,74.917402 L44.172511,72.6396602 L47.2097681,72.1644103 L47.5664066,74.4421521 L44.5291494,74.917402 L44.5291494,74.917402 Z M49.4641898,74.1454224 L49.1079534,71.8676806 L52.1448085,71.3928327 L52.5014469,73.6705746 L49.4641898,74.1454224 L49.4641898,74.1454224 Z M54.4000342,73.3734429 L54.0433957,71.095701 L57.0806529,70.6208532 L57.4372914,72.898595 L54.4000342,73.3734429 L54.4000342,73.3734429 Z M73.0550013,75.81322 L70.5440573,74.0396773 L71.8745158,72.1563688 L74.3854598,73.9299115 L73.0550013,75.81322 L73.0550013,75.81322 Z M77.135235,78.6952771 L74.624291,76.9213324 L75.9543475,75.0384259 L78.4652915,76.8119686 L77.135235,78.6952771 L77.135235,78.6952771 Z M81.2150667,81.5769322 L78.7045248,79.8033895 L80.0349834,77.920483 L82.5455253,79.6940257 L81.2150667,81.5769322 L81.2150667,81.5769322 Z M85.2957026,84.4589893 L82.7847586,82.6854466 L84.114815,80.8021381 L86.6257591,82.5760828 L85.2957026,84.4589893 L85.2957026,84.4589893 Z M89.3755342,87.3410464 L86.8645902,85.5675037 L88.1950488,83.6841952 L90.7059928,85.4577379 L89.3755342,87.3410464 Z M32.7472131,38.8627389 C32.4384213,38.8627389 32.1368668,38.8317793 31.8437558,38.7779015 L31.8437558,74.5675988 L29.3665859,74.9547948 L29.7232243,77.2329387 L31.8437558,76.9012287 L31.8437558,95.972341 C32.1368668,95.9184633 32.4384213,95.8871016 32.7472131,95.8871016 C33.2345252,95.8871016 33.7049503,95.9590726 34.1492406,96.0893442 L34.1492406,38.6608984 C33.7049503,38.7911699 33.2345252,38.8627389 32.7472131,38.8627389 Z M29.5185693,30.6025573 L7.9501835,15.5972042 C7.58148283,16.2883671 7.0443137,16.8802182 6.38973935,17.3204878 L28.1897191,32.4870721 C28.4703658,31.7561039 28.9295328,31.1119834 29.5185693,30.6025573 Z M37.6143032,34.1323536 C37.6143032,34.4053609 37.5853539,34.671131 37.5391156,34.931272 L65.9765114,30.7979647 L65.9765114,31.7810324 L68.2819963,31.7810324 L68.2819963,30.4630381 L92.7545532,26.906303 C92.421235,26.2658012 92.2290442,25.5448848 92.2290442,24.7797405 C92.2290442,24.7367187 92.2346732,24.6945011 92.2358794,24.6518814 L37.3573787,32.6277975 C37.5218264,33.1010371 37.6143032,33.6060404 37.6143032,34.1323536 Z M93.1260684,91.0075473 L37.3573787,99.1129309 C37.5218264,99.5861705 37.6143032,100.091174 37.6143032,100.617889 C37.6143032,100.890494 37.5853539,101.155862 37.5395176,101.416405 L93.5788023,93.2716187 C93.2828767,92.6612724 93.1128,91.9829757 93.1128,91.2648739 C93.1128,91.1780262 93.1216456,91.0931888 93.1260684,91.0075473 Z M4.39023181,75.0267658 L4.39023181,18.0956839 C4.14175088,18.1338808 3.88884715,18.1592114 3.62951026,18.1592114 C3.08912455,18.1592114 2.57085284,18.0695492 2.08474695,17.9111326 L2.08474695,75.2113172 C2.57085284,75.0524985 3.08912455,74.9628362 3.62951026,74.9628362 C3.88884715,74.9628362 4.14175088,74.9885689 4.39023181,75.0267658 Z M8.44593913,14.075359 L62.5468313,5.61414111 C62.207884,4.97002064 62.0132808,4.2430732 62.0132808,3.47109362 C62.0132808,3.43490708 62.0177036,3.39952468 62.0189098,3.36333813 L8.18620017,11.7823384 C8.38361787,12.2957852 8.49660029,12.8490373 8.49660029,13.4288261 C8.49660029,13.6487599 8.47569251,13.8634667 8.44593913,14.075359 Z M29.5185693,97.0876907 L7.8617275,82.0208204 C7.46488175,82.6999212 6.8999696,83.2724727 6.22287918,83.6894221 L28.1897191,98.9722055 C28.4703658,98.2416394 28.9295328,97.5971168 29.5185693,97.0876907 Z M96.1930789,29.4252885 L96.1930789,86.8694151 C96.7467331,86.6559145 97.3486359,86.5348906 97.9802921,86.5348906 C98.1551937,86.5348906 98.328085,86.5449424 98.4985638,86.5626336 L98.4985638,29.3082853 C98.0538714,29.4385569 97.5838484,29.5105279 97.0961342,29.5105279 C96.7873424,29.5105279 96.4857879,29.4791662 96.1930789,29.4252885 Z M69.9522063,7.13598628 L92.5523107,23.0994787 C92.8381843,22.371325 93.3025783,21.7304211 93.8952335,21.2254178 L71.3642856,5.31057622 C71.0522772,6.02626563 70.5633568,6.6510866 69.9522063,7.13598628 Z M63.5500027,3.47109362 C63.5500027,5.23217204 65.0441048,6.66475707 66.8799688,6.66475707 C68.7162348,6.66475707 70.2103369,5.23217204 70.2103369,3.47109362 C70.2103369,1.71041727 68.7162348,0.277430163 66.8799688,0.277430163 C65.0441048,0.277430163 63.5500027,1.71041727 63.5500027,3.47109362 Z M93.7657661,24.7797405 C93.7657661,26.5408189 95.2598682,27.973404 97.0961342,27.973404 C98.9324003,27.973404 100.426502,26.5408189 100.426502,24.7797405 C100.426502,23.0190641 98.9324003,21.5864791 97.0961342,21.5864791 C95.2598682,21.5864791 93.7657661,23.0190641 93.7657661,24.7797405 Z M32.7472131,37.326017 C34.5834791,37.326017 36.0775813,35.893432 36.0775813,34.1323536 C36.0775813,32.3716772 34.5834791,30.9390922 32.7472131,30.9390922 C30.9109471,30.9390922 29.4168449,32.3716772 29.4168449,34.1323536 C29.4168449,35.893432 30.9109471,37.326017 32.7472131,37.326017 Z M3.62951026,16.6224896 C5.46577628,16.6224896 6.95987844,15.1895025 6.95987844,13.4288261 C6.95987844,11.6681498 5.46577628,10.2355647 3.62951026,10.2355647 C1.79324424,10.2355647 0.299142089,11.6681498 0.299142089,13.4288261 C0.299142089,15.1895025 1.79324424,16.6224896 3.62951026,16.6224896 Z M6.95987844,79.6936236 C6.95987844,77.9325452 5.46577628,76.4999602 3.62951026,76.4999602 C1.79324424,76.4999602 0.299142089,77.9325452 0.299142089,79.6936236 C0.299142089,81.4543 1.79324424,82.886885 3.62951026,82.886885 C5.46577628,82.886885 6.95987844,81.4543 6.95987844,79.6936236 Z M36.0775813,100.617889 C36.0775813,98.8568106 34.5834791,97.4242256 32.7472131,97.4242256 C30.9109471,97.4242256 29.4168449,98.8568106 29.4168449,100.617889 C29.4168449,102.378565 30.9109471,103.81115 32.7472131,103.81115 C34.5834791,103.81115 36.0775813,102.378565 36.0775813,100.617889 Z M97.9802921,88.0716125 C96.143624,88.0716125 94.6495219,89.5041975 94.6495219,91.2648739 C94.6495219,93.0259523 96.143624,94.4585373 97.9802921,94.4585373 C99.816156,94.4585373 101.310258,93.0259523 101.310258,91.2648739 C101.310258,89.5041975 99.816156,88.0716125 97.9802921,88.0716125 Z M70.2103369,69.9220508 C70.2103369,68.1609724 68.7162348,66.7283874 66.8799688,66.7283874 C65.0441048,66.7283874 63.5500027,68.1609724 63.5500027,69.9220508 C63.5500027,71.6827272 65.0441048,73.1157143 66.8799688,73.1157143 C68.7162348,73.1157143 70.2103369,71.6827272 70.2103369,69.9220508 Z" id="Fill-1" sketch:type="MSShapeGroup"></path>
                <path d="M65.9765114,43.6932403 L68.2819963,43.6932403 L68.2819963,46.7670861 L65.9765114,46.7670861 L65.9765114,43.6932403 Z M65.9765114,38.6978891 L68.2819963,38.6978891 L68.2819963,41.7721369 L65.9765114,41.7721369 L65.9765114,38.6978891 Z M65.9765114,48.6881895 L68.2819963,48.6881895 L68.2819963,51.7624373 L65.9765114,51.7624373 L65.9765114,48.6881895 Z M65.9765114,58.6788919 L68.2819963,58.6788919 L68.2819963,61.7527377 L65.9765114,61.7527377 L65.9765114,58.6788919 Z M68.2819963,65.393506 L68.2819963,63.6742431 L65.9765114,63.6742431 L65.9765114,65.2765028 C66.2696224,65.2226251 66.5711769,65.1916655 66.8799688,65.1916655 C67.3672809,65.1916655 67.8377059,65.2632344 68.2819963,65.393506 Z M65.9765114,53.6835407 L68.2819963,53.6835407 L68.2819963,56.7577885 L65.9765114,56.7577885 L65.9765114,53.6835407 Z M65.9765114,13.721535 L68.2819963,13.721535 L68.2819963,16.7953808 L65.9765114,16.7953808 L65.9765114,13.721535 Z M65.9765114,23.7118354 L68.2819963,23.7118354 L68.2819963,26.7860833 L65.9765114,26.7860833 L65.9765114,23.7118354 Z M65.9765114,8.72618381 L68.2819963,8.72618381 L68.2819963,11.8004317 L65.9765114,11.8004317 L65.9765114,8.72618381 Z M65.9765114,33.7025379 L68.2819963,33.7025379 L68.2819963,36.7767857 L65.9765114,36.7767857 L65.9765114,33.7025379 Z M65.9765114,18.7164842 L68.2819963,18.7164842 L68.2819963,21.790732 L65.9765114,21.790732 L65.9765114,18.7164842 Z M70.5440573,74.0396773 L73.0550013,75.81322 L74.3854598,73.9299115 L71.8745158,72.1563688 L70.5440573,74.0396773 Z M74.624291,76.9213324 L77.135235,78.6952771 L78.4652915,76.8119686 L75.9543475,75.0384259 L74.624291,76.9213324 Z M82.7847586,82.6854466 L85.2957026,84.4589893 L86.6257591,82.5760828 L84.114815,80.8021381 L82.7847586,82.6854466 Z M90.944824,88.4491587 L93.2704125,90.0920278 C93.4730571,89.3252752 93.8670884,88.6345143 94.4026492,88.068798 L92.2748805,86.5662523 L90.944824,88.4491587 Z M86.8645902,85.5675037 L89.3755342,87.3410464 L90.7059928,85.4577379 L88.1950488,83.6841952 L86.8645902,85.5675037 Z M78.7045248,79.8033895 L81.2150667,81.5769322 L82.5455253,79.6940257 L80.0349834,77.920483 L78.7045248,79.8033895 Z M49.1079534,71.8676806 L49.4641898,74.1454224 L52.5014469,73.6705746 L52.1448085,71.3928327 L49.1079534,71.8676806 Z M62.0164974,69.8541005 L62.0156932,69.8488736 L58.9788381,70.3241235 L59.3350745,72.6018654 L62.3723317,72.1266154 L62.257741,71.3948431 C62.1009326,70.9308512 62.0132808,70.4363018 62.0132808,69.9220508 C62.0132808,69.8991327 62.0160953,69.8770187 62.0164974,69.8541005 Z M24.4315455,75.7267744 L24.787782,78.0045162 L27.8250391,77.5296684 L27.4688027,75.2519265 L24.4315455,75.7267744 Z M14.5610628,77.2703315 L14.9177013,79.5480733 L17.9545564,79.0732255 L17.59832,76.7954836 L14.5610628,77.2703315 Z M9.62562044,78.0423111 L9.98185685,80.3200529 L13.019114,79.845205 L12.6624755,77.5674632 L9.62562044,78.0423111 Z M19.4961031,76.498754 L19.8527416,78.7764958 L22.8899988,78.3012459 L22.5333603,76.023504 L19.4961031,76.498754 Z M34.3020282,74.1832173 L34.6586667,76.4609591 L37.6959239,75.9857092 L37.3392854,73.7079674 L34.3020282,74.1832173 Z M54.0433957,71.095701 L54.4000342,73.3734429 L57.4372914,72.898595 L57.0806529,70.6208532 L54.0433957,71.095701 Z M39.2374706,73.4112377 L39.5941091,75.6889795 L42.6309642,75.2141317 L42.2747278,72.9363898 L39.2374706,73.4112377 Z M44.172511,72.6396602 L44.5291494,74.917402 L47.5664066,74.4421521 L47.2097681,72.1644103 L44.172511,72.6396602 Z" id="Fill-13" sketch:type="MSShapeGroup"></path>
            </g>
        </g>
    </g>
</svg>