<?xml version="1.0" encoding="utf-8"?>
<!-- Generator: Adobe Illustrator 18.1.1, SVG Export Plug-In . SVG Version: 6.00 Build 0)  -->
<!DOCTYPE svg PUBLIC "-//W3C//DTD SVG 1.1//EN" "http://www.w3.org/Graphics/SVG/1.1/DTD/svg11.dtd">
<svg version="1.1" xmlns="http://www.w3.org/2000/svg" xmlns:xlink="http://www.w3.org/1999/xlink" x="0px" y="0px"
	 viewBox="0 0 400 400" enable-background="new 0 0 400 400" xml:space="preserve">
<g id="Layer_2">
	<path fill="none" stroke="#3354A8" stroke-linecap="round" stroke-linejoin="round" stroke-miterlimit="10" d="M109.2,143.1
		c3.3-27.5,18.7-51.2,40.8-65.7"/>
	<path fill="none" stroke="#3354A8" stroke-linecap="round" stroke-linejoin="round" stroke-miterlimit="10" d="M251.2,78.1
		c21.1,14.3,36,37.2,39.5,63.6"/>
	<path fill="none" stroke="#3354A8" stroke-linecap="round" stroke-linejoin="round" stroke-miterlimit="10" d="M137.7,92.4
		c3.3-3.3,6.8-6.4,10.6-9.2"/>
	<path fill="none" stroke="#3354A8" stroke-linecap="round" stroke-linejoin="round" stroke-miterlimit="10" d="M132.4,98.3
		c0.9-1.1,1.8-2.1,2.7-3.2"/>
	<path fill="none" stroke="#3354A8" stroke-linecap="round" stroke-linejoin="round" stroke-miterlimit="10" d="M113.9,138.9
		c2.3-13.8,7.9-26.4,15.8-37.2"/>
	<path fill="none" stroke="#3354A8" stroke-linecap="round" stroke-linejoin="round" stroke-miterlimit="10" d="M146.4,222.5
		c-15.7-12.2-27.1-29.7-31.6-49.7"/>
	<path fill="none" stroke="#3354A8" stroke-linecap="round" stroke-linejoin="round" stroke-miterlimit="10" d="M155.3,228.5
		c-1.6-1-3.2-2-4.7-3"/>
	<path fill="none" stroke="#3354A8" stroke-linecap="round" stroke-linejoin="round" stroke-miterlimit="10" d="M277.3,194.1
		c-0.7,1.3-1.4,2.5-2.1,3.7"/>
	<path fill="none" stroke="#3354A8" stroke-linecap="round" stroke-linejoin="round" stroke-miterlimit="10" d="M285.7,170
		c-1.4,7.2-3.6,14.1-6.7,20.6"/>
	<path fill="none" stroke="#3354A8" stroke-linecap="round" stroke-linejoin="round" stroke-miterlimit="10" d="M282.7,125.5
		c1.4,4,2.4,8.2,3.2,12.4"/>
	<path fill="none" stroke="#3354A8" stroke-linecap="round" stroke-linejoin="round" stroke-miterlimit="10" d="M279.6,117.6
		c0.6,1.4,1.2,2.7,1.7,4.1"/>
	<path fill="none" stroke="#3354A8" stroke-linecap="round" stroke-linejoin="round" stroke-miterlimit="10" d="M252,83.4
		c11,8.2,20,18.9,26.2,31.3"/>
	<g>
		<path fill="#3354A8" d="M159.1,73.4l5.8-2.5c1.6-0.7,3-0.8,4.2-0.5c1.1,0.3,1.9,1,2.4,2.1c0.3,0.8,0.4,1.6,0.2,2.4
			c-0.2,0.8-0.7,1.4-1.4,2c0.9-0.2,1.7-0.1,2.5,0.2s1.4,0.9,1.7,1.8c0.8,1.8,0.4,3.3-1.1,4.7c-0.6,0.5-1.3,1-2.4,1.4l-5.8,2.5
			L159.1,73.4z M164.3,78.3l3.1-1.3c0.8-0.3,1.3-0.8,1.5-1.3c0.3-0.5,0.2-1.1,0-1.6s-0.6-1-1.2-1.1c-0.5-0.2-1.2-0.1-2,0.2l-3.1,1.3
			L164.3,78.3z M170,83c0.8-0.4,1.4-0.8,1.6-1.3c0.2-0.5,0.2-1,0-1.6c-0.2-0.6-0.6-0.9-1.2-1.1c-0.5-0.2-1.2-0.1-2,0.3l-3.1,1.4
			l1.6,3.7L170,83z"/>
		<path fill="#3354A8" d="M176.6,66.9l2.7-0.7l3.8,15.1l-2.7,0.7L176.6,66.9z"/>
		<path fill="#3354A8" d="M185,64.9l12.4-1.2l0.2,2.4l-4.8,0.5l1.3,13.1l-2.8,0.3L190,66.8l-4.8,0.5L185,64.9z"/>
		<path fill="#3354A8" d="M212.3,65.8c0.9,0.9,1.3,2.2,1.2,3.8c-0.1,1.6-0.7,2.8-1.8,3.5s-2.5,1.1-4.2,0.9l-2.6-0.2l-0.5,5.6
			l-2.8-0.2l1.3-15.5l5.5,0.5C210,64.3,211.4,64.9,212.3,65.8z M207.6,71.6c0.9,0.1,1.6-0.1,2-0.5c0.5-0.4,0.8-1,0.8-1.7
			c0.1-0.7-0.1-1.3-0.5-1.8c-0.4-0.5-1-0.8-1.9-0.9l-2.6-0.2l-0.4,5L207.6,71.6z"/>
		<path fill="#3354A8" d="M220.9,66.3l3.4,0.9l1.1,16.4l-2.9-0.7l-0.2-3.5l-5.6-1.4l-1.9,3l-2.9-0.7L220.9,66.3z M218,75.9l4.2,1.1
			l-0.4-7L218,75.9z"/>
		<path fill="#3354A8" d="M234.5,70.6l0.5,7.1l5.9-4.1l3,1.4l-8.9,6l-2.7,5.8l-2.6-1.2l2.7-5.8l-1-10.5L234.5,70.6z"/>
	</g>
	
		<line fill="none" stroke="#3354A8" stroke-linecap="round" stroke-linejoin="round" stroke-miterlimit="10" x1="199.5" y1="34" x2="199.5" y2="42"/>
	
		<line fill="none" stroke="#3354A8" stroke-linecap="round" stroke-linejoin="round" stroke-miterlimit="10" x1="189" y1="34.5" x2="189.7" y2="42.5"/>
	
		<line fill="none" stroke="#3354A8" stroke-linecap="round" stroke-linejoin="round" stroke-miterlimit="10" x1="178.7" y1="35.9" x2="180.1" y2="43.8"/>
	
		<line fill="none" stroke="#3354A8" stroke-linecap="round" stroke-linejoin="round" stroke-miterlimit="10" x1="168.5" y1="38.2" x2="170.5" y2="45.9"/>
	
		<line fill="none" stroke="#3354A8" stroke-linecap="round" stroke-linejoin="round" stroke-miterlimit="10" x1="158.5" y1="41.4" x2="161.2" y2="48.9"/>
	
		<line fill="none" stroke="#3354A8" stroke-linecap="round" stroke-linejoin="round" stroke-miterlimit="10" x1="148.8" y1="45.5" x2="152.2" y2="52.7"/>
	
		<line fill="none" stroke="#3354A8" stroke-linecap="round" stroke-linejoin="round" stroke-miterlimit="10" x1="139.6" y1="50.3" x2="143.6" y2="57.3"/>
	
		<line fill="none" stroke="#3354A8" stroke-linecap="round" stroke-linejoin="round" stroke-miterlimit="10" x1="130.8" y1="56" x2="135.3" y2="62.5"/>
	
		<line fill="none" stroke="#3354A8" stroke-linecap="round" stroke-linejoin="round" stroke-miterlimit="10" x1="122.5" y1="62.4" x2="127.6" y2="68.5"/>
	
		<line fill="none" stroke="#3354A8" stroke-linecap="round" stroke-linejoin="round" stroke-miterlimit="10" x1="114.8" y1="69.5" x2="120.5" y2="75.2"/>
	
		<line fill="none" stroke="#3354A8" stroke-linecap="round" stroke-linejoin="round" stroke-miterlimit="10" x1="107.8" y1="77.2" x2="113.9" y2="82.4"/>
	
		<line fill="none" stroke="#3354A8" stroke-linecap="round" stroke-linejoin="round" stroke-miterlimit="10" x1="101.4" y1="85.6" x2="108" y2="90.2"/>
	
		<line fill="none" stroke="#3354A8" stroke-linecap="round" stroke-linejoin="round" stroke-miterlimit="10" x1="95.8" y1="94.4" x2="102.8" y2="98.4"/>
	
		<line fill="none" stroke="#3354A8" stroke-linecap="round" stroke-linejoin="round" stroke-miterlimit="10" x1="91" y1="103.7" x2="98.3" y2="107.1"/>
	
		<line fill="none" stroke="#3354A8" stroke-linecap="round" stroke-linejoin="round" stroke-miterlimit="10" x1="87.1" y1="113.4" x2="94.6" y2="116.2"/>
	
		<line fill="none" stroke="#3354A8" stroke-linecap="round" stroke-linejoin="round" stroke-miterlimit="10" x1="84" y1="123.4" x2="91.7" y2="125.5"/>
	
		<line fill="none" stroke="#3354A8" stroke-linecap="round" stroke-linejoin="round" stroke-miterlimit="10" x1="81.7" y1="133.7" x2="89.6" y2="135"/>
	
		<line fill="none" stroke="#3354A8" stroke-linecap="round" stroke-linejoin="round" stroke-miterlimit="10" x1="80.4" y1="144" x2="88.4" y2="144.7"/>
	
		<line fill="none" stroke="#3354A8" stroke-linecap="round" stroke-linejoin="round" stroke-miterlimit="10" x1="80" y1="154.5" x2="88" y2="154.5"/>
	
		<line fill="none" stroke="#3354A8" stroke-linecap="round" stroke-linejoin="round" stroke-miterlimit="10" x1="80.5" y1="165" x2="88.5" y2="164.3"/>
	
		<line fill="none" stroke="#3354A8" stroke-linecap="round" stroke-linejoin="round" stroke-miterlimit="10" x1="81.9" y1="175.3" x2="89.8" y2="173.9"/>
	
		<line fill="none" stroke="#3354A8" stroke-linecap="round" stroke-linejoin="round" stroke-miterlimit="10" x1="84.2" y1="185.5" x2="91.9" y2="183.5"/>
	
		<line fill="none" stroke="#3354A8" stroke-linecap="round" stroke-linejoin="round" stroke-miterlimit="10" x1="87.4" y1="195.5" x2="94.9" y2="192.8"/>
	
		<line fill="none" stroke="#3354A8" stroke-linecap="round" stroke-linejoin="round" stroke-miterlimit="10" x1="91.5" y1="205.2" x2="98.7" y2="201.8"/>
	
		<line fill="none" stroke="#3354A8" stroke-linecap="round" stroke-linejoin="round" stroke-miterlimit="10" x1="96.3" y1="214.4" x2="103.3" y2="210.4"/>
	
		<line fill="none" stroke="#3354A8" stroke-linecap="round" stroke-linejoin="round" stroke-miterlimit="10" x1="102" y1="223.2" x2="108.5" y2="218.7"/>
	
		<line fill="none" stroke="#3354A8" stroke-linecap="round" stroke-linejoin="round" stroke-miterlimit="10" x1="108.4" y1="231.5" x2="114.5" y2="226.4"/>
	
		<line fill="none" stroke="#3354A8" stroke-linecap="round" stroke-linejoin="round" stroke-miterlimit="10" x1="115.5" y1="239.2" x2="121.2" y2="233.5"/>
	
		<line fill="none" stroke="#3354A8" stroke-linecap="round" stroke-linejoin="round" stroke-miterlimit="10" x1="276.7" y1="244.6" x2="272.4" y2="239.5"/>
	
		<line fill="none" stroke="#3354A8" stroke-linecap="round" stroke-linejoin="round" stroke-miterlimit="10" x1="285.2" y1="238.5" x2="279.5" y2="232.8"/>
	
		<line fill="none" stroke="#3354A8" stroke-linecap="round" stroke-linejoin="round" stroke-miterlimit="10" x1="292.2" y1="230.8" x2="286.1" y2="225.6"/>
	
		<line fill="none" stroke="#3354A8" stroke-linecap="round" stroke-linejoin="round" stroke-miterlimit="10" x1="298.6" y1="222.4" x2="292" y2="217.8"/>
	
		<line fill="none" stroke="#3354A8" stroke-linecap="round" stroke-linejoin="round" stroke-miterlimit="10" x1="304.2" y1="213.6" x2="297.2" y2="209.6"/>
	
		<line fill="none" stroke="#3354A8" stroke-linecap="round" stroke-linejoin="round" stroke-miterlimit="10" x1="309" y1="204.3" x2="301.7" y2="200.9"/>
	
		<line fill="none" stroke="#3354A8" stroke-linecap="round" stroke-linejoin="round" stroke-miterlimit="10" x1="312.9" y1="194.6" x2="305.4" y2="191.8"/>
	
		<line fill="none" stroke="#3354A8" stroke-linecap="round" stroke-linejoin="round" stroke-miterlimit="10" x1="316" y1="184.6" x2="308.3" y2="182.5"/>
	
		<line fill="none" stroke="#3354A8" stroke-linecap="round" stroke-linejoin="round" stroke-miterlimit="10" x1="319.6" y1="164" x2="311.6" y2="163.3"/>
	
		<line fill="none" stroke="#3354A8" stroke-linecap="round" stroke-linejoin="round" stroke-miterlimit="10" x1="320" y1="153.5" x2="312" y2="153.5"/>
	
		<line fill="none" stroke="#3354A8" stroke-linecap="round" stroke-linejoin="round" stroke-miterlimit="10" x1="319.5" y1="143" x2="311.5" y2="143.7"/>
	
		<line fill="none" stroke="#3354A8" stroke-linecap="round" stroke-linejoin="round" stroke-miterlimit="10" x1="318.1" y1="132.7" x2="310.2" y2="134.1"/>
	
		<line fill="none" stroke="#3354A8" stroke-linecap="round" stroke-linejoin="round" stroke-miterlimit="10" x1="315.8" y1="122.5" x2="308.1" y2="124.5"/>
	
		<line fill="none" stroke="#3354A8" stroke-linecap="round" stroke-linejoin="round" stroke-miterlimit="10" x1="312.6" y1="112.5" x2="305.1" y2="115.2"/>
	
		<line fill="none" stroke="#3354A8" stroke-linecap="round" stroke-linejoin="round" stroke-miterlimit="10" x1="308.5" y1="102.8" x2="301.3" y2="106.2"/>
	
		<line fill="none" stroke="#3354A8" stroke-linecap="round" stroke-linejoin="round" stroke-miterlimit="10" x1="303.7" y1="93.6" x2="296.7" y2="97.6"/>
	
		<line fill="none" stroke="#3354A8" stroke-linecap="round" stroke-linejoin="round" stroke-miterlimit="10" x1="298" y1="84.8" x2="291.5" y2="89.3"/>
	
		<line fill="none" stroke="#3354A8" stroke-linecap="round" stroke-linejoin="round" stroke-miterlimit="10" x1="291.6" y1="76.5" x2="285.5" y2="81.6"/>
	
		<line fill="none" stroke="#3354A8" stroke-linecap="round" stroke-linejoin="round" stroke-miterlimit="10" x1="284.5" y1="68.8" x2="278.8" y2="74.5"/>
	
		<line fill="none" stroke="#3354A8" stroke-linecap="round" stroke-linejoin="round" stroke-miterlimit="10" x1="276.8" y1="61.8" x2="271.6" y2="67.9"/>
	
		<line fill="none" stroke="#3354A8" stroke-linecap="round" stroke-linejoin="round" stroke-miterlimit="10" x1="268.4" y1="55.4" x2="263.8" y2="62"/>
	
		<line fill="none" stroke="#3354A8" stroke-linecap="round" stroke-linejoin="round" stroke-miterlimit="10" x1="259.6" y1="49.8" x2="255.6" y2="56.8"/>
	
		<line fill="none" stroke="#3354A8" stroke-linecap="round" stroke-linejoin="round" stroke-miterlimit="10" x1="250.3" y1="45" x2="246.9" y2="52.3"/>
	
		<line fill="none" stroke="#3354A8" stroke-linecap="round" stroke-linejoin="round" stroke-miterlimit="10" x1="240.6" y1="41.1" x2="237.8" y2="48.6"/>
	
		<line fill="none" stroke="#3354A8" stroke-linecap="round" stroke-linejoin="round" stroke-miterlimit="10" x1="230.6" y1="38" x2="228.5" y2="45.7"/>
	
		<line fill="none" stroke="#3354A8" stroke-linecap="round" stroke-linejoin="round" stroke-miterlimit="10" x1="220.3" y1="35.7" x2="219" y2="43.6"/>
	
		<line fill="none" stroke="#3354A8" stroke-linecap="round" stroke-linejoin="round" stroke-miterlimit="10" x1="215.2" y1="35" x2="214.5" y2="39.7"/>
	
		<line fill="none" stroke="#3354A8" stroke-linecap="round" stroke-linejoin="round" stroke-miterlimit="10" x1="204.7" y1="34.1" x2="204.5" y2="38.8"/>
	
		<line fill="none" stroke="#3354A8" stroke-linecap="round" stroke-linejoin="round" stroke-miterlimit="10" x1="194.3" y1="34.1" x2="194.5" y2="38.9"/>
	
		<line fill="none" stroke="#3354A8" stroke-linecap="round" stroke-linejoin="round" stroke-miterlimit="10" x1="183.8" y1="35.1" x2="184.5" y2="39.8"/>
	
		<line fill="none" stroke="#3354A8" stroke-linecap="round" stroke-linejoin="round" stroke-miterlimit="10" x1="173.5" y1="37" x2="174.6" y2="41.6"/>
	
		<line fill="none" stroke="#3354A8" stroke-linecap="round" stroke-linejoin="round" stroke-miterlimit="10" x1="163.4" y1="39.7" x2="164.9" y2="44.2"/>
	
		<line fill="none" stroke="#3354A8" stroke-linecap="round" stroke-linejoin="round" stroke-miterlimit="10" x1="153.6" y1="43.3" x2="155.4" y2="47.7"/>
	
		<line fill="none" stroke="#3354A8" stroke-linecap="round" stroke-linejoin="round" stroke-miterlimit="10" x1="144.1" y1="47.8" x2="146.3" y2="52"/>
	
		<line fill="none" stroke="#3354A8" stroke-linecap="round" stroke-linejoin="round" stroke-miterlimit="10" x1="135.1" y1="53.1" x2="137.7" y2="57.1"/>
	
		<line fill="none" stroke="#3354A8" stroke-linecap="round" stroke-linejoin="round" stroke-miterlimit="10" x1="126.6" y1="59.1" x2="129.4" y2="62.9"/>
	
		<line fill="none" stroke="#3354A8" stroke-linecap="round" stroke-linejoin="round" stroke-miterlimit="10" x1="118.6" y1="65.9" x2="121.8" y2="69.4"/>
	
		<line fill="none" stroke="#3354A8" stroke-linecap="round" stroke-linejoin="round" stroke-miterlimit="10" x1="111.2" y1="73.3" x2="114.7" y2="76.5"/>
	
		<line fill="none" stroke="#3354A8" stroke-linecap="round" stroke-linejoin="round" stroke-miterlimit="10" x1="104.5" y1="81.3" x2="108.3" y2="84.2"/>
	
		<line fill="none" stroke="#3354A8" stroke-linecap="round" stroke-linejoin="round" stroke-miterlimit="10" x1="98.5" y1="89.9" x2="102.5" y2="92.5"/>
	
		<line fill="none" stroke="#3354A8" stroke-linecap="round" stroke-linejoin="round" stroke-miterlimit="10" x1="93.3" y1="99" x2="97.5" y2="101.2"/>
	
		<line fill="none" stroke="#3354A8" stroke-linecap="round" stroke-linejoin="round" stroke-miterlimit="10" x1="88.9" y1="108.5" x2="93.3" y2="110.4"/>
	
		<line fill="none" stroke="#3354A8" stroke-linecap="round" stroke-linejoin="round" stroke-miterlimit="10" x1="85.4" y1="118.4" x2="89.9" y2="119.8"/>
	
		<line fill="none" stroke="#3354A8" stroke-linecap="round" stroke-linejoin="round" stroke-miterlimit="10" x1="82.7" y1="128.5" x2="87.4" y2="129.5"/>
	
		<line fill="none" stroke="#3354A8" stroke-linecap="round" stroke-linejoin="round" stroke-miterlimit="10" x1="81" y1="138.8" x2="85.7" y2="139.5"/>
	
		<line fill="none" stroke="#3354A8" stroke-linecap="round" stroke-linejoin="round" stroke-miterlimit="10" x1="80.1" y1="149.3" x2="84.8" y2="149.5"/>
	
		<line fill="none" stroke="#3354A8" stroke-linecap="round" stroke-linejoin="round" stroke-miterlimit="10" x1="80.1" y1="159.7" x2="84.9" y2="159.5"/>
	
		<line fill="none" stroke="#3354A8" stroke-linecap="round" stroke-linejoin="round" stroke-miterlimit="10" x1="81.1" y1="170.2" x2="85.8" y2="169.5"/>
	
		<line fill="none" stroke="#3354A8" stroke-linecap="round" stroke-linejoin="round" stroke-miterlimit="10" x1="83" y1="180.5" x2="87.6" y2="179.4"/>
	
		<line fill="none" stroke="#3354A8" stroke-linecap="round" stroke-linejoin="round" stroke-miterlimit="10" x1="85.7" y1="190.6" x2="90.2" y2="189.1"/>
	
		<line fill="none" stroke="#3354A8" stroke-linecap="round" stroke-linejoin="round" stroke-miterlimit="10" x1="89.3" y1="200.4" x2="93.7" y2="198.6"/>
	
		<line fill="none" stroke="#3354A8" stroke-linecap="round" stroke-linejoin="round" stroke-miterlimit="10" x1="93.8" y1="209.9" x2="98" y2="207.7"/>
	
		<line fill="none" stroke="#3354A8" stroke-linecap="round" stroke-linejoin="round" stroke-miterlimit="10" x1="99.1" y1="218.9" x2="103.1" y2="216.3"/>
	
		<line fill="none" stroke="#3354A8" stroke-linecap="round" stroke-linejoin="round" stroke-miterlimit="10" x1="105.1" y1="227.4" x2="108.9" y2="224.6"/>
	
		<line fill="none" stroke="#3354A8" stroke-linecap="round" stroke-linejoin="round" stroke-miterlimit="10" x1="111.9" y1="235.4" x2="115.4" y2="232.2"/>
	
		<line fill="none" stroke="#3354A8" stroke-linecap="round" stroke-linejoin="round" stroke-miterlimit="10" x1="119.3" y1="242.8" x2="122.5" y2="239.3"/>
	
		<line fill="none" stroke="#3354A8" stroke-linecap="round" stroke-linejoin="round" stroke-miterlimit="10" x1="281.4" y1="242.1" x2="278.2" y2="238.6"/>
	
		<line fill="none" stroke="#3354A8" stroke-linecap="round" stroke-linejoin="round" stroke-miterlimit="10" x1="288.8" y1="234.7" x2="285.3" y2="231.5"/>
	
		<line fill="none" stroke="#3354A8" stroke-linecap="round" stroke-linejoin="round" stroke-miterlimit="10" x1="295.5" y1="226.7" x2="291.7" y2="223.8"/>
	
		<line fill="none" stroke="#3354A8" stroke-linecap="round" stroke-linejoin="round" stroke-miterlimit="10" x1="301.5" y1="218.1" x2="297.5" y2="215.5"/>
	
		<line fill="none" stroke="#3354A8" stroke-linecap="round" stroke-linejoin="round" stroke-miterlimit="10" x1="306.7" y1="209" x2="302.5" y2="206.8"/>
	
		<line fill="none" stroke="#3354A8" stroke-linecap="round" stroke-linejoin="round" stroke-miterlimit="10" x1="311.1" y1="199.5" x2="306.7" y2="197.6"/>
	
		<line fill="none" stroke="#3354A8" stroke-linecap="round" stroke-linejoin="round" stroke-miterlimit="10" x1="314.6" y1="189.6" x2="310.1" y2="188.2"/>
	
		<line fill="none" stroke="#3354A8" stroke-linecap="round" stroke-linejoin="round" stroke-miterlimit="10" x1="317.3" y1="179.5" x2="312.6" y2="178.5"/>
	
		<line fill="none" stroke="#3354A8" stroke-linecap="round" stroke-linejoin="round" stroke-miterlimit="10" x1="319" y1="169.2" x2="314.3" y2="168.5"/>
	
		<line fill="none" stroke="#3354A8" stroke-linecap="round" stroke-linejoin="round" stroke-miterlimit="10" x1="319.9" y1="158.7" x2="315.2" y2="158.5"/>
	
		<line fill="none" stroke="#3354A8" stroke-linecap="round" stroke-linejoin="round" stroke-miterlimit="10" x1="319.9" y1="148.3" x2="315.1" y2="148.5"/>
	
		<line fill="none" stroke="#3354A8" stroke-linecap="round" stroke-linejoin="round" stroke-miterlimit="10" x1="318.9" y1="137.8" x2="314.2" y2="138.5"/>
	
		<line fill="none" stroke="#3354A8" stroke-linecap="round" stroke-linejoin="round" stroke-miterlimit="10" x1="317" y1="127.5" x2="312.4" y2="128.6"/>
	
		<line fill="none" stroke="#3354A8" stroke-linecap="round" stroke-linejoin="round" stroke-miterlimit="10" x1="314.3" y1="117.4" x2="309.8" y2="118.9"/>
	
		<line fill="none" stroke="#3354A8" stroke-linecap="round" stroke-linejoin="round" stroke-miterlimit="10" x1="310.7" y1="107.6" x2="306.3" y2="109.4"/>
	
		<line fill="none" stroke="#3354A8" stroke-linecap="round" stroke-linejoin="round" stroke-miterlimit="10" x1="306.2" y1="98.1" x2="302" y2="100.3"/>
	
		<line fill="none" stroke="#3354A8" stroke-linecap="round" stroke-linejoin="round" stroke-miterlimit="10" x1="300.9" y1="89.1" x2="296.9" y2="91.7"/>
	
		<line fill="none" stroke="#3354A8" stroke-linecap="round" stroke-linejoin="round" stroke-miterlimit="10" x1="294.9" y1="80.6" x2="291.1" y2="83.4"/>
	
		<line fill="none" stroke="#3354A8" stroke-linecap="round" stroke-linejoin="round" stroke-miterlimit="10" x1="288.1" y1="72.6" x2="284.6" y2="75.8"/>
	
		<line fill="none" stroke="#3354A8" stroke-linecap="round" stroke-linejoin="round" stroke-miterlimit="10" x1="280.7" y1="65.2" x2="277.5" y2="68.7"/>
	
		<line fill="none" stroke="#3354A8" stroke-linecap="round" stroke-linejoin="round" stroke-miterlimit="10" x1="272.7" y1="58.5" x2="269.8" y2="62.3"/>
	
		<line fill="none" stroke="#3354A8" stroke-linecap="round" stroke-linejoin="round" stroke-miterlimit="10" x1="264.1" y1="52.5" x2="261.5" y2="56.5"/>
	
		<line fill="none" stroke="#3354A8" stroke-linecap="round" stroke-linejoin="round" stroke-miterlimit="10" x1="255" y1="47.3" x2="252.8" y2="51.5"/>
	
		<line fill="none" stroke="#3354A8" stroke-linecap="round" stroke-linejoin="round" stroke-miterlimit="10" x1="245.5" y1="42.9" x2="243.6" y2="47.3"/>
	
		<line fill="none" stroke="#3354A8" stroke-linecap="round" stroke-linejoin="round" stroke-miterlimit="10" x1="235.6" y1="39.4" x2="234.2" y2="43.9"/>
	
		<line fill="none" stroke="#3354A8" stroke-linecap="round" stroke-linejoin="round" stroke-miterlimit="10" x1="225.5" y1="36.7" x2="224.5" y2="41.4"/>
	
		<line fill="none" stroke="#3354A8" stroke-linecap="round" stroke-linejoin="round" stroke-miterlimit="10" x1="210" y1="34.4" x2="209.3" y2="42.4"/>
	<path id="SVGID_x5F_1_x5F_" fill="none" d="M210,34.4l-0.7,8"/>
	<text>	<textPath  xlink:href="#SVGID_x5F_1_x5F_" startOffset="0%">
	</textPath>
</text>
	<path id="Imported-Layers-3_1_" fill="#3354A8" d="M229,155.6c2.6-2.8,4.3-6.4,4.3-10.4c0-12.6-8.2-20.2-21.9-20.2h0
		c0,0,0-15.5,0-16.2h-8.7l0,16.2h-8.8c0,0,0-15.6,0-16.2h-8.8c0,0.9,0,16.2,0,16.2l-19.8,0v8.1h2.2c4.8,0,8.8,3.6,8.8,8.1l0,32.3
		c0,4.2,0,7.9-5.8,7.9c-0.5,0-3.7,0-5.2,0v8.3l19.8,0l0,16.2h8.8l0-16.2h8.8l0,16.3h8.7l0-16.3h4.4c13.7,0,21.9-7.6,21.9-20.2
		C237.7,163.5,234.2,158.4,229,155.6L229,155.6z M193.8,137.1H207c4.8,0,8.8,3.6,8.8,8.1c0,4.5-3.9,8.1-8.8,8.1h-13.2V137.1
		L193.8,137.1z M211.4,177.5h-17.5v-16.2h17.5c4.8,0,8.8,3.6,8.8,8.1C220.2,173.9,216.2,177.5,211.4,177.5L211.4,177.5z"/>
	
		<polygon fill="none" stroke="#3354A8" stroke-width="2" stroke-linecap="round" stroke-linejoin="round" stroke-miterlimit="10" points="
		115.1,146.2 117.8,152.8 125,152.3 119.5,156.6 122.2,163.1 116.1,159.3 110.7,163.9 112.4,157.2 106.3,153.7 113.4,153.2 	"/>
	
		<polygon fill="none" stroke="#3354A8" stroke-width="2" stroke-linecap="round" stroke-linejoin="round" stroke-miterlimit="10" points="
		285.2,146.2 287.1,153.1 294.2,153.4 288.3,157.1 290.2,163.8 284.6,159.3 278.6,163.2 281.1,156.8 275.6,152.6 282.7,152.9 	"/>
	<path fill="none" stroke="#3354A8" stroke-linecap="round" stroke-linejoin="round" stroke-miterlimit="10" d="M159.1,230.7
		c5.8,3.1,12,5.5,18.5,7.2c7.5-0.4,15-0.6,22.4-0.6c7.5,0,15.1,0.2,22.7,0.5c20.8-5.6,38.5-18.6,50.1-36.1"/>
	<path fill="none" stroke="#3354A8" stroke-linecap="round" stroke-linejoin="round" stroke-miterlimit="10" d="M109.9,169.9"/>
	<path fill="none" stroke="#3354A8" stroke-linecap="round" stroke-linejoin="round" stroke-miterlimit="10" d="M109.9,169.9
		c5.5,31.3,26.9,57.1,55.6,68.8c11.6-0.9,23.2-1.3,34.6-1.3c11.6,0,23.3,0.4,34.9,1.2c28.9-11.9,50.3-38.2,55.4-70"/>
	<path fill="none" stroke="#3354A8" stroke-linecap="round" stroke-linejoin="round" stroke-miterlimit="10" d="M146.8,240.6
		c17.9-2.2,35.8-3.2,53.2-3.2c17.8,0,35.8,0.8,53.6,2.9c28.8-17.9,48-49.9,48-86.3c0-56.1-45.5-101.6-101.6-101.6
		S98.4,97.9,98.4,154C98.4,190.6,117.8,222.7,146.8,240.6z"/>
	<path fill="none" stroke="#3354A8" stroke-width="2" stroke-linecap="round" stroke-linejoin="round" stroke-miterlimit="10" d="
		M142.9,241.1c19.1-2.5,38.4-3.7,57.1-3.7c19.1,0,38.4,1,57.5,3.4c28.1-18.6,46.6-50.6,46.6-86.8c0-57.5-46.6-104.1-104.1-104.1
		S95.9,96.5,95.9,154C95.9,190.4,114.6,222.5,142.9,241.1z"/>
	<path fill="none" stroke="#3354A8" stroke-width="3" stroke-linecap="round" stroke-linejoin="round" stroke-miterlimit="10" d="
		M121.3,244.6c26.1-5,53-7.2,78.7-7.2c26.3,0,52.9,1.8,79.1,6.9c25.1-22,40.9-54.3,40.9-90.2c0-66.3-53.7-120-120-120
		S80,87.7,80,154C80,190.2,96,222.6,121.3,244.6z"/>
</g>
<g id="Layer_1">
	<path fill="none" stroke="#3354A8" stroke-linecap="round" stroke-linejoin="round" stroke-miterlimit="10" d="M348.8,277.6"/>
	<path fill="none" stroke="#3354A8" stroke-linecap="round" stroke-linejoin="round" stroke-miterlimit="10" d="M354.4,280"/>
	<path fill="none" stroke="#3354A8" stroke-linecap="round" stroke-linejoin="round" stroke-miterlimit="10" d="M345.6,272.9
		c7,3.1,9.6,4.9,9.6,4.9"/>
	<path fill="none" stroke="#3354A8" stroke-width="3" stroke-linecap="round" stroke-linejoin="round" stroke-miterlimit="10" d="
		M93.7,314.8l4.9,15.1c-42.9,6.7-72.9,21.5-72.9,21.5l10-27.5L7,314c14.7-8.2,31-14.1,42.4-17.5"/>
	
		<line fill="#FFFFFF" stroke="#3354A8" stroke-width="3" stroke-linecap="round" stroke-linejoin="round" stroke-miterlimit="10" x1="57" y1="323.7" x2="98.6" y2="329.9"/>
	<path fill="none" stroke="#3354A8" stroke-width="3" stroke-linecap="round" stroke-linejoin="round" stroke-miterlimit="10" d="
		M306.1,314.1l-4.7,15.8c42.9,6.7,72.9,21.5,72.9,21.5l-10-27.5l28.7-10c-14.7-8.2-31-14.1-42.4-17.5"/>
	<path fill="none" stroke="#3354A8" stroke-width="3" stroke-linecap="round" stroke-linejoin="round" stroke-miterlimit="10" d="
		M200,237.4c53,0,107,7.4,156.5,33.3c0,0.5-13.5,53-13.5,53c-68.3-19.5-106.9-21.9-143-21.9s-78,4.8-143,21.9c0,0-13.5-52.5-13.5-53
		C89,246.7,147,237.4,200,237.4"/>
	
		<line fill="#FFFFFF" stroke="#3354A8" stroke-width="3" stroke-linecap="round" stroke-linejoin="round" stroke-miterlimit="10" x1="343" y1="323.7" x2="301.4" y2="329.9"/>
	<g>
		<path fill="#3354A8" d="M86.7,273.8l7.3-1.9c2-0.5,3.7-0.5,5.1,0.2c1.3,0.6,2.1,1.6,2.5,3c0.3,1,0.2,2-0.2,2.9
			c-0.4,0.9-1,1.6-2,2.2c1.1-0.1,2.1,0.2,2.9,0.7c0.9,0.5,1.4,1.4,1.7,2.5c0.6,2.2-0.1,4.1-2.1,5.5c-0.8,0.5-1.8,0.9-3.1,1.3
			l-7.4,1.9L86.7,273.8z M92,280.6l3.9-1c1-0.3,1.7-0.7,2.1-1.2c0.4-0.6,0.5-1.2,0.3-2c-0.2-0.7-0.6-1.3-1.2-1.6
			c-0.6-0.3-1.4-0.3-2.4-0.1l-3.9,1L92,280.6z M98,287.2c1.1-0.3,1.8-0.7,2.1-1.3c0.4-0.6,0.5-1.2,0.3-1.9c-0.2-0.7-0.6-1.2-1.2-1.5
			s-1.4-0.3-2.5-0.1l-4,1l1.2,4.7L98,287.2z"/>
		<path fill="#3354A8" d="M106,269.1c-0.1-0.6-0.1-1.1,0.2-1.5c0.3-0.4,0.8-0.7,1.4-0.9c0.6-0.1,1.2-0.1,1.6,0.2
			c0.4,0.3,0.7,0.7,0.9,1.3c0.1,0.6,0.1,1.1-0.2,1.6c-0.3,0.4-0.8,0.7-1.4,0.9c-0.7,0.1-1.2,0.1-1.6-0.2
			C106.4,270.2,106.1,269.7,106,269.1z M107.4,273.5l3.3-0.7l3.1,13.8l-3.3,0.7L107.4,273.5z"/>
		<path fill="#3354A8" d="M127.8,283.3c-1.2,0.7-2.1,1.2-2.8,1.3c-0.7,0.1-1.4,0.2-1.9,0.1c-0.6-0.1-1.1-0.2-1.6-0.5
			c-1-0.6-1.7-1.6-1.9-3l-1.5-7.7l-1.9,0.4l-0.4-2.2l1.9-0.4l-0.7-3.6l3.4-0.7l0.7,3.6l3.8-0.7l0.4,2.2l-3.8,0.7l1.5,7.6
			c0.2,1.1,0.9,1.6,2,1.4c0.5-0.1,1.2-0.4,2-0.9L127.8,283.3z"/>
		<path fill="#3354A8" d="M134.9,267.8c0.9-0.1,1.7-0.1,2.4,0.1c0.7,0.2,1.4,0.5,1.9,0.9c1.1,0.8,1.8,1.8,2.2,3.2l-3.4,0.6
			c-0.3-0.6-0.6-1-1.1-1.4c-0.5-0.3-1-0.5-1.5-0.4c-0.5,0.1-1,0.2-1.3,0.5c-0.4,0.2-0.6,0.5-0.9,0.9c-0.5,0.9-0.7,2.1-0.4,3.5
			c0.2,1.4,0.7,2.4,1.4,3c0.7,0.6,1.5,0.9,2.4,0.7s1.5-0.4,1.8-0.9s0.4-1.1,0.3-1.8l3.4-0.5c0.2,1.5-0.1,2.9-0.9,4.1
			c-0.9,1.2-2.2,1.9-4.1,2.2c-1.8,0.3-3.5-0.1-4.9-1.3c-1.5-1.2-2.5-2.9-2.8-5c-0.4-2.3,0-4.2,1.1-5.7
			C131.6,269,133,268.1,134.9,267.8z"/>
		<path fill="#3354A8" d="M151.3,265.5c0.9-0.1,1.8-0.1,2.7,0.1c0.9,0.2,1.6,0.6,2.3,1.1c1.5,1.2,2.4,3,2.7,5.4
			c0.3,2.3-0.2,4.3-1.3,5.8c-1,1.4-2.6,2.2-4.6,2.4c-2,0.2-3.7-0.2-5.1-1.3c-1.5-1.2-2.4-2.9-2.6-5.3c-0.3-2.4,0.2-4.3,1.3-5.8
			C147.8,266.6,149.3,265.8,151.3,265.5z M155.6,272.5c-0.2-1.5-0.6-2.6-1.3-3.2c-0.7-0.7-1.5-0.9-2.5-0.8c-1,0.1-1.8,0.6-2.4,1.4
			c-0.6,0.8-0.8,2-0.6,3.4s0.6,2.6,1.3,3.2c0.7,0.7,1.5,0.9,2.5,0.8c1-0.1,1.8-0.6,2.4-1.4C155.6,275.1,155.8,274,155.6,272.5z"/>
		<path fill="#3354A8" d="M162.7,260.1c-0.1-0.6,0.1-1.1,0.4-1.5c0.3-0.4,0.8-0.6,1.5-0.7c0.7-0.1,1.2,0.1,1.6,0.4
			c0.4,0.3,0.6,0.8,0.7,1.4c0.1,0.6-0.1,1.1-0.4,1.5c-0.3,0.4-0.8,0.6-1.5,0.7c-0.7,0.1-1.2-0.1-1.6-0.4
			C163,261.2,162.8,260.8,162.7,260.1z M163.5,264.6l3.4-0.3l1.2,14.1l-3.4,0.3L163.5,264.6z"/>
		<path fill="#3354A8" d="M177.2,266.1c0.8-1.9,2.3-2.9,4.3-3c1.7-0.1,3.1,0.4,4,1.5c0.9,1.1,1.5,2.6,1.6,4.4l0.4,8.2l-3.4,0.2
			l-0.4-8.2c-0.1-1-0.3-1.8-0.9-2.3s-1.2-0.7-2.2-0.7c-0.9,0-1.7,0.5-2.3,1.3c-0.6,0.8-0.9,2.1-0.8,3.7l0.3,6.5l-3.4,0.2l-0.7-14.1
			l3-0.2L177.2,266.1z"/>
		<path fill="#3354A8" d="M201.2,258.1l7.6,0.1c2.1,0,3.7,0.5,4.8,1.5c1.1,0.9,1.6,2.1,1.6,3.5c0,1.1-0.3,2-0.9,2.7
			c-0.6,0.7-1.4,1.3-2.5,1.6c1.1,0.2,1.9,0.7,2.6,1.5c0.7,0.8,1,1.7,1,2.9c0,2.3-1.2,3.9-3.5,4.7c-0.9,0.3-2,0.4-3.3,0.4l-7.6-0.1
			L201.2,258.1z M208.5,274c1.1,0,1.9-0.2,2.4-0.6c0.5-0.4,0.8-1,0.8-1.8c0-0.7-0.2-1.3-0.7-1.8c-0.5-0.5-1.3-0.7-2.4-0.7l-4.1-0.1
			l-0.1,4.9L208.5,274z M204.5,266.1l4,0.1c1,0,1.8-0.2,2.3-0.6c0.5-0.4,0.8-1,0.8-1.8c0-0.8-0.2-1.4-0.7-1.8
			c-0.5-0.5-1.3-0.7-2.3-0.7l-4.1-0.1L204.5,266.1z"/>
		<path fill="#3354A8" d="M231.7,267.7c0.2,0.8,0.3,1.6,0.2,2.2c0,0.7-0.1,1.3-0.2,1.8l-9.1-0.5c0,1.1,0.2,2.1,0.7,2.8
			s1.3,1.1,2.3,1.2c1.4,0.1,2.3-0.5,2.6-1.7l3.4,0.2c-0.3,1.4-1,2.5-2.1,3.2c-1.1,0.8-2.5,1.1-4.1,1c-1.9-0.1-3.4-0.9-4.5-2.3
			c-1.2-1.5-1.8-3.3-1.6-5.5c0.1-2.3,0.9-4,2.2-5.3c1.3-1.2,2.9-1.8,4.8-1.7c1.9,0.1,3.4,0.9,4.4,2.3
			C231.2,266.1,231.5,266.9,231.7,267.7z M226.2,265.9c-1-0.1-1.7,0.2-2.3,0.8c-0.6,0.6-0.9,1.4-1.1,2.4l6,0.3
			c0.1-1.5-0.3-2.6-1.3-3.1C227.1,266.1,226.7,265.9,226.2,265.9z"/>
		<path fill="#3354A8" d="M238.4,274.2c-0.1,1.3,0.8,2.1,2.7,2.3c0.7,0.1,1.3,0,1.8-0.3c0.5-0.3,0.8-0.6,0.8-1c0-0.4-0.1-0.8-0.3-1
			c-0.3-0.3-0.7-0.5-1.3-0.8l-3-1.4c-2.2-1-3.2-2.4-3-4.2c0.1-1.2,0.7-2.1,1.9-2.7s2.6-0.8,4.4-0.7c1.8,0.2,3.1,0.7,4,1.6
			c0.9,0.9,1.3,1.9,1.2,3.1l-3.2-0.3c0-0.5-0.2-0.9-0.6-1.2c-0.4-0.3-0.9-0.5-1.7-0.6c-0.8-0.1-1.3,0-1.8,0.3s-0.7,0.6-0.7,1
			c-0.1,0.7,0.5,1.2,1.6,1.7l3.2,1.6c1.1,0.5,1.9,1,2.4,1.6c0.5,0.6,0.8,1.4,0.7,2.3c-0.1,1.2-0.8,2.1-1.9,2.8
			c-1.2,0.8-2.8,1.1-4.6,0.9c-1.9-0.2-3.3-0.7-4.4-1.7c-1.1-0.9-1.5-2.1-1.4-3.6L238.4,274.2z"/>
		<path fill="#3354A8" d="M259.7,280.7c-1.3,0.3-2.4,0.5-3.1,0.4c-0.7-0.1-1.4-0.3-1.9-0.5c-0.5-0.2-1-0.6-1.4-1
			c-0.8-0.9-1.1-2-0.9-3.4l1-7.8l-2-0.3l0.3-2.3l2,0.3l0.5-3.7l3.4,0.4l-0.5,3.7l3.8,0.5l-0.3,2.3l-3.8-0.5l-1,7.7
			c-0.2,1.2,0.3,1.8,1.4,1.9c0.6,0.1,1.3,0,2.2-0.2L259.7,280.7z"/>
		<path fill="#3354A8" d="M275.1,264.4l7.5,1.5c2,0.4,3.5,1.2,4.5,2.4c0.9,1.1,1.2,2.3,0.9,3.8c-0.2,1-0.7,1.9-1.4,2.5
			c-0.7,0.6-1.6,1-2.7,1.1c1,0.4,1.8,1,2.3,1.9s0.7,1.9,0.5,3c-0.4,2.3-1.9,3.6-4.3,4c-0.9,0.1-2,0.1-3.3-0.2l-7.5-1.5L275.1,264.4z
			 M279.5,281.4c1.1,0.2,1.9,0.1,2.5-0.2c0.6-0.3,0.9-0.9,1.1-1.6c0.1-0.7,0-1.4-0.4-1.9c-0.4-0.5-1.1-0.9-2.2-1.1l-4-0.8l-0.9,4.8
			L279.5,281.4z M277,272.9l4,0.8c1,0.2,1.8,0.1,2.4-0.2c0.6-0.3,1-0.9,1.1-1.6c0.1-0.7,0-1.4-0.4-1.9c-0.4-0.5-1.1-0.9-2.1-1.1
			l-4-0.8L277,272.9z"/>
		<path fill="#3354A8" d="M294,273.1l3.3,0.8l-3.2,13.7l-3.3-0.8L294,273.1z M294.6,268.6c0.1-0.6,0.4-1,0.9-1.3
			c0.4-0.3,1-0.3,1.6-0.2c0.6,0.2,1.1,0.4,1.4,0.9c0.3,0.4,0.4,1,0.2,1.6s-0.4,1-0.9,1.3c-0.4,0.3-1,0.3-1.6,0.2
			c-0.7-0.2-1.1-0.4-1.4-0.9C294.5,269.7,294.5,269.2,294.6,268.6z"/>
		<path fill="#3354A8" d="M309.6,289.5c-1.3,1.4-2.8,1.9-4.5,1.4c-1.7-0.5-3-1.5-3.8-3.2c-0.8-1.7-0.9-3.6-0.4-5.8
			c0.6-2.1,1.7-3.7,3.2-4.7c1.5-1,3.1-1.2,4.8-0.7c1.7,0.5,2.8,1.5,3.3,3.1l2-7.3l3.3,0.9l-5.3,19.2l-2.7-0.8L309.6,289.5z
			 M308.6,279.6c-0.9-0.3-1.8-0.1-2.6,0.5c-0.8,0.6-1.4,1.5-1.8,2.8s-0.3,2.4,0.1,3.3c0.4,1,1.1,1.6,2.1,1.8
			c0.8,0.2,1.6,0.1,2.4-0.3c0.8-0.5,1.4-1.2,1.7-2.2l0.5-1.8c0.2-1,0.1-1.9-0.3-2.6C310.2,280.4,309.6,279.9,308.6,279.6z"/>
	</g>
	<g>
		<path fill="none" stroke="#3354A8" stroke-linecap="round" stroke-linejoin="round" stroke-miterlimit="10" d="M51.7,278.4"/>
		<path fill="none" stroke="#3354A8" stroke-linecap="round" stroke-linejoin="round" stroke-miterlimit="10" d="M46,280.5"/>
		
			<line fill="none" stroke="#3354A8" stroke-linecap="round" stroke-linejoin="round" stroke-miterlimit="10" x1="45.3" y1="276.4" x2="49.2" y2="274.6"/>
		<path fill="none" stroke="#3354A8" stroke-linecap="round" stroke-linejoin="round" stroke-miterlimit="10" d="M47.3,282.4
			c0,0,3.2-1.4,3.7-1.6"/>
		<path fill="none" stroke="#3354A8" stroke-linecap="round" stroke-linejoin="round" stroke-miterlimit="10" d="M48.4,288.8
			c0,0,5.4-2.4,6.5-2.7"/>
		<path fill="none" stroke="#3354A8" stroke-linecap="round" stroke-linejoin="round" stroke-miterlimit="10" d="M49.4,294.2
			c0,0,11-4.1,13-4.6"/>
		<path fill="none" stroke="#3354A8" stroke-linecap="round" stroke-linejoin="round" stroke-miterlimit="10" d="M55.7,318.5
			c0,0,4.7-1.8,6.7-2.4"/>
		<path fill="none" stroke="#3354A8" stroke-linecap="round" stroke-linejoin="round" stroke-miterlimit="10" d="M50.5,300.3
			c0,0,10.5-3.9,14.7-5.1"/>
		<path fill="none" stroke="#3354A8" stroke-linecap="round" stroke-linejoin="round" stroke-miterlimit="10" d="M51.9,306.6
			c0,0,8.2-3.2,13.3-4.8"/>
		<path fill="none" stroke="#3354A8" stroke-linecap="round" stroke-linejoin="round" stroke-miterlimit="10" d="M53.4,312.6
			c0,0,7.9-3,10.7-3.8"/>
	</g>
	<path fill="none" stroke="#3354A8" stroke-linecap="round" stroke-linejoin="round" stroke-miterlimit="10" d="M353,282.8
		c0,0-10.3-4.9-10.8-5.1"/>
	<path fill="none" stroke="#3354A8" stroke-linecap="round" stroke-linejoin="round" stroke-miterlimit="10" d="M351.6,289.1
		c0,0-14.1-6.5-15.2-6.8"/>
	<path fill="none" stroke="#3354A8" stroke-linecap="round" stroke-linejoin="round" stroke-miterlimit="10" d="M350.4,295.1
		c0,0-12-5.4-14-6"/>
	<path fill="none" stroke="#3354A8" stroke-linecap="round" stroke-linejoin="round" stroke-miterlimit="10" d="M343,318.5
		c0,0-4.6-2-6.6-2.7"/>
	<path fill="none" stroke="#3354A8" stroke-linecap="round" stroke-linejoin="round" stroke-miterlimit="10" d="M349,300.5
		c0,0-10.3-4.4-14.5-5.8"/>
	<path fill="none" stroke="#3354A8" stroke-linecap="round" stroke-linejoin="round" stroke-miterlimit="10" d="M347.4,306.7
		c0,0-8-3.5-13.1-5.3"/>
	<path fill="none" stroke="#3354A8" stroke-linecap="round" stroke-linejoin="round" stroke-miterlimit="10" d="M345.7,312.7
		c0,0-7.8-3.3-10.6-4.2"/>
	<path fill="none" stroke="#3354A8" stroke-linecap="round" stroke-linejoin="round" stroke-miterlimit="10" d="M305.5,257.2
		c8.1,2.4,26.2,8.5,34.9,13.1"/>
	<path fill="none" stroke="#3354A8" stroke-linecap="round" stroke-linejoin="round" stroke-miterlimit="10" d="M15.6,317.3
		c7.5-3.8,22.8-11.1,36.1-14.5"/>
	<path fill="none" stroke="#3354A8" stroke-linecap="round" stroke-linejoin="round" stroke-miterlimit="10" d="M323.5,327
		c8.1,2.4,35.8,9.6,47.8,16.1"/>
	<path fill="none" stroke="#3354A8" stroke-linecap="round" stroke-linejoin="round" stroke-miterlimit="10" d="M29.3,342.4
		c8-2.8,34.7-12.9,48.3-14.5"/>
	<path fill="none" stroke="#3354A8" stroke-linecap="round" stroke-linejoin="round" stroke-miterlimit="10" d="M295.8,254.6
		c1.7,0.4,3.3,0.9,5,1.3"/>
	<path fill="none" stroke="#3354A8" stroke-linecap="round" stroke-linejoin="round" stroke-miterlimit="10" d="M55.7,272
		c77.4-33.5,167.5-34.5,234.3-18.8"/>
	<g>
		
			<line fill="none" stroke="#3354A8" stroke-linecap="round" stroke-linejoin="round" stroke-miterlimit="10" x1="68.6" y1="321.1" x2="72.4" y2="326"/>
		
			<line fill="none" stroke="#3354A8" stroke-linecap="round" stroke-linejoin="round" stroke-miterlimit="10" x1="72.4" y1="320.3" x2="76.5" y2="326.6"/>
		
			<line fill="none" stroke="#3354A8" stroke-linecap="round" stroke-linejoin="round" stroke-miterlimit="10" x1="76.5" y1="319.4" x2="81.2" y2="327.3"/>
		
			<line fill="none" stroke="#3354A8" stroke-linecap="round" stroke-linejoin="round" stroke-miterlimit="10" x1="80.2" y1="318.5" x2="85.8" y2="328.1"/>
		
			<line fill="none" stroke="#3354A8" stroke-linecap="round" stroke-linejoin="round" stroke-miterlimit="10" x1="84.5" y1="317.9" x2="90.5" y2="328.7"/>
		
			<line fill="none" stroke="#3354A8" stroke-linecap="round" stroke-linejoin="round" stroke-miterlimit="10" x1="88.8" y1="317.3" x2="94.6" y2="329.1"/>
	</g>
	<g>
		
			<line fill="none" stroke="#3354A8" stroke-linecap="round" stroke-linejoin="round" stroke-miterlimit="10" x1="331.6" y1="320.1" x2="327.9" y2="325"/>
		
			<line fill="none" stroke="#3354A8" stroke-linecap="round" stroke-linejoin="round" stroke-miterlimit="10" x1="327.9" y1="319.3" x2="323.8" y2="325.6"/>
		
			<line fill="none" stroke="#3354A8" stroke-linecap="round" stroke-linejoin="round" stroke-miterlimit="10" x1="323.8" y1="318.4" x2="319" y2="326.3"/>
		
			<line fill="none" stroke="#3354A8" stroke-linecap="round" stroke-linejoin="round" stroke-miterlimit="10" x1="320" y1="317.5" x2="314.5" y2="327.1"/>
		
			<line fill="none" stroke="#3354A8" stroke-linecap="round" stroke-linejoin="round" stroke-miterlimit="10" x1="315.8" y1="316.9" x2="309.8" y2="327.7"/>
		
			<line fill="none" stroke="#3354A8" stroke-linecap="round" stroke-linejoin="round" stroke-miterlimit="10" x1="311.5" y1="316.3" x2="305.6" y2="328.1"/>
	</g>
	<path fill="none" stroke="#3354A8" stroke-linecap="round" stroke-linejoin="round" stroke-miterlimit="10" d="M67.1,314.7
		c48.8-14.4,96.1-19.8,132.7-20.4c36.6-0.6,84.2,6,130.9,19.7"/>
	<path fill="none" stroke="#3354A8" stroke-linecap="round" stroke-linejoin="round" stroke-miterlimit="10" d="M347.5,303
		c8.1,2.4,24.2,7.5,36.3,14.1"/>
</g>
</svg>
