<?xml version="1.0" encoding="utf-8"?>
<!-- Generator: Adobe Illustrator 18.1.1, SVG Export Plug-In . SVG Version: 6.00 Build 0)  -->
<!DOCTYPE svg PUBLIC "-//W3C//DTD SVG 1.1//EN" "http://www.w3.org/Graphics/SVG/1.1/DTD/svg11.dtd">
<svg version="1.1" id="Layer_1" xmlns="http://www.w3.org/2000/svg" xmlns:xlink="http://www.w3.org/1999/xlink" x="0px" y="0px"
	 viewBox="0 0 100 100" enable-background="new 0 0 100 100" xml:space="preserve">
<path id="Imported-Layers-3" fill="#FFFFFF" d="M77.1,48.4c2.3-2.5,3.8-5.7,3.8-9.3c0-11.2-7.3-18-19.5-18h0l0-13.5
	c0-0.5,0-0.3,0-0.9l-6.8,0c-0.5,0-0.9,0-0.9,0l0,14.4h-7.8l0-13.5c0-0.5,0-0.4,0-0.9H38c0,0.8,0,0.4,0,0.9v13.5l-17.6,0
	c0,0,0,0.4,0,0.9l0,6.3h2c4.3,0,7.8,3.2,7.8,7.2l0,28.8c0,3.8,0,7-5.2,7c-0.4,0-3.3,0-4.6,0v6.2c0,0.4,0,1.2,0,1.2s1,0,1.3,0H38
	L38,93h7.8v-0.9l0-13.5h7.8l0,14.5h6.8h1l0-14.5h3.9c12.2,0,19.5-6.7,19.5-18C84.8,55.4,81.7,50.9,77.1,48.4L77.1,48.4z M45.8,31.9
	h11.7c4.3,0,7.8,3.2,7.8,7.2s-3.5,7.2-7.8,7.2H45.8V31.9L45.8,31.9z M61.4,67.8H45.8V53.5h15.6c4.3,0,7.8,3.2,7.8,7.2
	S65.7,67.8,61.4,67.8L61.4,67.8z"/>
</svg>
