<?xml version="1.0" encoding="utf-8"?>
<!-- Generator: Adobe Illustrator 18.1.1, SVG Export Plug-In . SVG Version: 6.00 Build 0)  -->
<!DOCTYPE svg PUBLIC "-//W3C//DTD SVG 1.1//EN" "http://www.w3.org/Graphics/SVG/1.1/DTD/svg11.dtd">
<svg version="1.1" id="Layer_1" xmlns="http://www.w3.org/2000/svg" xmlns:xlink="http://www.w3.org/1999/xlink" x="0px" y="0px"
	 viewBox="0 0 120 100" enable-background="new 0 0 120 100" xml:space="preserve">
<path fill="#3354A8" d="M67,74.9c-0.3,0-0.7,0-1-0.1c-1.1-0.2-2-0.9-2.5-1.8c-0.5-0.9-0.6-2-0.2-3c0.4-1,1.1-1.9,2.1-2.4
	c1.1-0.6,2.4-0.7,3.5-0.4c0.3,0.1,0.4,0.4,0.3,0.6C69.3,68,69,68.1,68.7,68c-0.9-0.3-1.9-0.2-2.8,0.3c-0.8,0.4-1.4,1.1-1.7,1.9
	C64,71,64,71.8,64.4,72.5c0.4,0.7,1,1.1,1.8,1.3c0.8,0.2,1.7,0.1,2.5-0.4c0.2-0.1,0.5,0,0.7,0.2c0.1,0.2,0,0.5-0.2,0.7
	C68.5,74.7,67.7,74.9,67,74.9z"/>
<g>
	<path fill="#3354A8" d="M46.5,74.7l0.5-1c-0.6-0.3-1-0.7-1.3-1.1l0.5-0.5c0.2,0.4,0.6,0.8,1.2,1.1c0.7,0.3,1.3,0.2,1.6-0.4
		c0.3-0.5,0-1-0.5-1.7c-0.8-0.9-1.2-1.6-0.8-2.4c0.4-0.8,1.3-1.1,2.2-0.8l0.5-1l0.6,0.3L50.6,68c0.6,0.3,0.9,0.7,1.1,1l-0.6,0.5
		c-0.1-0.2-0.4-0.6-1.1-0.9c-0.7-0.4-1.2-0.1-1.4,0.3c-0.2,0.5,0,0.9,0.7,1.7c0.8,0.9,1.1,1.6,0.6,2.5c-0.4,0.8-1.3,1.2-2.3,0.9
		l-0.5,1L46.5,74.7z"/>
</g>
<g>
	<ellipse fill="#FFFFFF" cx="90.6" cy="41.2" rx="20.8" ry="3.7"/>
	<path fill="#3354A8" d="M90.6,45.9c-2.2,0-21.8-0.1-21.8-4.7s19.6-4.7,21.8-4.7s21.8,0.1,21.8,4.7S92.8,45.9,90.6,45.9z M70.8,41.2
		c1,1,7.5,2.7,19.7,2.7c12.2,0,18.8-1.7,19.7-2.7c-1-1-7.5-2.7-19.7-2.7C78.3,38.5,71.8,40.2,70.8,41.2z"/>
</g>
<g>
	<ellipse fill="#FFFFFF" cx="90.6" cy="41.4" rx="16.1" ry="1.5"/>
	<path fill="#3354A8" d="M90.6,43.4c-5,0-16.6-0.2-16.6-2s11.6-2,16.6-2c5,0,16.6,0.2,16.6,2S95.5,43.4,90.6,43.4z M75.5,41.4
		c1.7,0.5,7.1,1,15.1,1c8,0,13.4-0.5,15.1-1c-1.7-0.5-7.1-1-15.1-1S77.2,40.9,75.5,41.4z"/>
</g>
<path fill="#3354A8" d="M90.6,63.9c-2.2,0-21.8-0.1-21.8-4.7v-6c0-0.6,0.4-1,1-1s1,0.4,1,1v5.9c0.7,1,7.2,2.8,19.8,2.8
	c12.5,0,19.1-1.8,19.8-2.8v-5.9c0-0.6,0.4-1,1-1s1,0.4,1,1v6C112.3,63.7,92.8,63.9,90.6,63.9z"/>
<path fill="#3354A8" d="M90.6,57.9c-2.2,0-21.8-0.1-21.8-4.7v-6c0-0.6,0.4-1,1-1s1,0.4,1,1v5.9c0.7,1,7.2,2.8,19.8,2.8
	c12.5,0,19.1-1.8,19.8-2.8v-5.9c0-0.6,0.4-1,1-1s1,0.4,1,1v6C112.3,57.7,92.8,57.9,90.6,57.9z"/>
<path fill="#3354A8" d="M90.6,51.9c-2.2,0-21.8-0.1-21.8-4.7v-6c0-0.6,0.4-1,1-1s1,0.4,1,1v5.9c0.7,1,7.2,2.8,19.8,2.8
	s19.1-1.8,19.8-2.8v-5.9c0-0.6,0.4-1,1-1s1,0.4,1,1v6C112.3,51.7,92.8,51.9,90.6,51.9z"/>
<path fill="#3354A8" d="M90.6,69.9c-2.2,0-21.8-0.1-21.8-4.7v-6c0-0.6,0.4-1,1-1s1,0.4,1,1v5.9c0.7,1,7.2,2.8,19.8,2.8
	c12.5,0,19.1-1.8,19.8-2.8v-5.9c0-0.6,0.4-1,1-1s1,0.4,1,1v6C112.3,69.7,92.8,69.9,90.6,69.9z"/>
<path fill="#3354A8" d="M90.6,75.9c-2.2,0-21.8-0.1-21.8-4.7v-6c0-0.6,0.4-1,1-1s1,0.4,1,1v5.9c0.7,1,7.2,2.8,19.8,2.8
	c12.5,0,19.1-1.8,19.8-2.8v-5.9c0-0.6,0.4-1,1-1s1,0.4,1,1v6C112.3,75.7,92.8,75.9,90.6,75.9z"/>
<path fill="#3354A8" d="M90.6,81.9c-2.2,0-21.8-0.1-21.8-4.7v-6c0-0.6,0.4-1,1-1s1,0.4,1,1v5.9c0.7,1,7.2,2.8,19.8,2.8
	c12.5,0,19.1-1.8,19.8-2.8v-5.9c0-0.6,0.4-1,1-1s1,0.4,1,1v6C112.3,81.7,92.8,81.9,90.6,81.9z"/>
<path fill="#3354A8" d="M90.6,87.9c-2.2,0-21.8-0.1-21.8-4.7v-6c0-0.6,0.4-1,1-1s1,0.4,1,1v5.9c0.7,1,7.2,2.8,19.8,2.8
	c12.5,0,19.1-1.8,19.8-2.8v-5.9c0-0.6,0.4-1,1-1s1,0.4,1,1v6C112.3,87.7,92.8,87.9,90.6,87.9z"/>
<path fill="#3354A8" d="M90.6,93.9c-2.2,0-21.8-0.1-21.8-4.7v-6c0-0.6,0.4-1,1-1s1,0.4,1,1v5.9c0.7,1,7.2,2.8,19.8,2.8
	c12.5,0,19.1-1.8,19.8-2.8v-5.9c0-0.6,0.4-1,1-1s1,0.4,1,1v6C112.3,93.7,92.8,93.9,90.6,93.9z"/>
<path fill="#3354A8" d="M90.6,99.9c-2.2,0-21.8-0.1-21.8-4.7v-6c0-0.6,0.4-1,1-1s1,0.4,1,1v5.9c0.7,1,7.2,2.8,19.8,2.8
	c12.5,0,19.1-1.8,19.8-2.8v-5.9c0-0.6,0.4-1,1-1s1,0.4,1,1v6C112.3,99.7,92.8,99.9,90.6,99.9z"/>
<g>
	<circle fill="#FFFFFF" cx="90.6" cy="22.7" r="20.7"/>
	<path fill="#3354A8" d="M90.6,44.5c-12,0-21.7-9.8-21.7-21.7c0-12,9.8-21.7,21.7-21.7c12,0,21.7,9.8,21.7,21.7
		C112.3,34.7,102.6,44.5,90.6,44.5z M90.6,3c-10.9,0-19.7,8.9-19.7,19.7s8.9,19.7,19.7,19.7c10.9,0,19.7-8.9,19.7-19.7
		S101.5,3,90.6,3z"/>
</g>
<path fill="#3354A8" d="M90.6,40.8c-10,0-18.1-8.1-18.1-18.1S80.6,4.7,90.6,4.7s18.1,8.1,18.1,18.1S100.5,40.8,90.6,40.8z M90.6,5.7
	c-9.4,0-17.1,7.7-17.1,17.1s7.7,17.1,17.1,17.1s17.1-7.7,17.1-17.1S100,5.7,90.6,5.7z"/>
<path id="Imported-Layers-3_2_" fill="#3354A8" d="M95.5,22.5c0.5-0.5,0.8-1.2,0.8-1.9c0-2.3-1.5-3.7-4-3.7h0l0-3h-1.6l0,3h-1.6l0-3
	h-1.5v3l-3.5,0v1.8h0.2c0.9,0,1.6,0.5,1.6,1.3l0,5.9c0,0.8,0.1,1.4-1,1.4c-0.1,0-0.8,0-0.8,0v1.5l3.5-0.1l-0.1,2.9h1.6l0-3h1.6l0,3
	h1.6l0-3h0.8c2.5,0,4-1.3,4-3.7C97.1,23.9,96.5,23,95.5,22.5L95.5,22.5z M89.3,19.2h2.1c0.9,0,1.6,0.7,1.6,1.5
	c0,0.8-0.7,1.5-1.6,1.5h-2.1V19.2L89.3,19.2z M92.3,26.3h-2.9v-3h2.9c0.9,0,1.6,0.7,1.6,1.5S93.2,26.3,92.3,26.3L92.3,26.3z"/>
<path fill="#3354A8" d="M84.6,6.7c-0.2,0-0.4-0.1-0.5-0.3l-1.1-3c-0.1-0.3,0-0.5,0.3-0.6c0.3-0.1,0.5,0,0.6,0.3l1.1,3
	c0.1,0.3,0,0.5-0.3,0.6C84.7,6.7,84.6,6.7,84.6,6.7z"/>
<path fill="#3354A8" d="M83.1,7.3c-0.2,0-0.4-0.1-0.5-0.3l-1.3-2.9c-0.1-0.3,0-0.5,0.2-0.7c0.2-0.1,0.5,0,0.7,0.2l1.3,2.9
	c0.1,0.3,0,0.5-0.2,0.7C83.3,7.3,83.2,7.3,83.1,7.3z"/>
<path fill="#3354A8" d="M81.8,8c-0.2,0-0.3-0.1-0.4-0.2L79.8,5c-0.1-0.2-0.1-0.5,0.2-0.7c0.2-0.1,0.5-0.1,0.7,0.2l1.6,2.7
	C82.3,7.5,82.3,7.8,82,8C81.9,8,81.9,8,81.8,8z"/>
<path fill="#3354A8" d="M80.5,8.8c-0.2,0-0.3-0.1-0.4-0.2L78.3,6c-0.2-0.2-0.1-0.5,0.1-0.7c0.2-0.2,0.5-0.1,0.7,0.1l1.8,2.6
	c0.2,0.2,0.1,0.5-0.1,0.7C80.7,8.8,80.6,8.8,80.5,8.8z"/>
<path fill="#3354A8" d="M79.3,9.8c-0.1,0-0.3-0.1-0.4-0.2l-2-2.4c-0.2-0.2-0.2-0.5,0.1-0.7c0.2-0.2,0.5-0.2,0.7,0.1l2,2.4
	c0.2,0.2,0.2,0.5-0.1,0.7C79.5,9.7,79.4,9.8,79.3,9.8z"/>
<path fill="#3354A8" d="M78.1,10.8c-0.1,0-0.3,0-0.4-0.1l-2.2-2.2c-0.2-0.2-0.2-0.5,0-0.7s0.5-0.2,0.7,0l2.2,2.2
	c0.2,0.2,0.2,0.5,0,0.7C78.4,10.8,78.3,10.8,78.1,10.8z"/>
<path fill="#3354A8" d="M77.1,11.9c-0.1,0-0.2,0-0.3-0.1l-2.4-2c-0.2-0.2-0.2-0.5-0.1-0.7C74.5,8.9,74.8,8.8,75,9l2.4,2
	c0.2,0.2,0.2,0.5,0.1,0.7C77.4,11.9,77.2,11.9,77.1,11.9z"/>
<path fill="#3354A8" d="M76.2,13.2c-0.1,0-0.2,0-0.3-0.1l-2.6-1.8c-0.2-0.2-0.3-0.5-0.1-0.7c0.2-0.2,0.5-0.3,0.7-0.1l2.6,1.8
	c0.2,0.2,0.3,0.5,0.1,0.7C76.5,13.1,76.3,13.2,76.2,13.2z"/>
<path fill="#3354A8" d="M75.3,14.5c-0.1,0-0.2,0-0.2-0.1l-2.7-1.6c-0.2-0.1-0.3-0.4-0.2-0.7c0.1-0.2,0.4-0.3,0.7-0.2l2.7,1.6
	c0.2,0.1,0.3,0.4,0.2,0.7C75.7,14.4,75.5,14.5,75.3,14.5z"/>
<path fill="#3354A8" d="M74.6,15.8c-0.1,0-0.1,0-0.2,0l-2.9-1.3c-0.3-0.1-0.4-0.4-0.2-0.7c0.1-0.3,0.4-0.4,0.7-0.2l2.9,1.3
	c0.3,0.1,0.4,0.4,0.2,0.7C75,15.7,74.8,15.8,74.6,15.8z"/>
<path fill="#3354A8" d="M74.1,17.2c-0.1,0-0.1,0-0.2,0l-3-1.1c-0.3-0.1-0.4-0.4-0.3-0.6s0.4-0.4,0.6-0.3l3,1.1
	c0.3,0.1,0.4,0.4,0.3,0.6C74.4,17.1,74.3,17.2,74.1,17.2z"/>
<path fill="#3354A8" d="M73.6,18.7c0,0-0.1,0-0.1,0l-3.1-0.8c-0.3-0.1-0.4-0.3-0.4-0.6c0.1-0.3,0.3-0.4,0.6-0.4l3.1,0.8
	c0.3,0.1,0.4,0.3,0.4,0.6C74,18.5,73.8,18.7,73.6,18.7z"/>
<path fill="#3354A8" d="M73.3,20.2C73.2,20.2,73.2,20.2,73.3,20.2l-3.2-0.6c-0.3,0-0.5-0.3-0.4-0.6c0-0.3,0.3-0.5,0.6-0.4l3.1,0.5
	c0.3,0,0.5,0.3,0.4,0.6C73.7,20,73.5,20.2,73.3,20.2z"/>
<path fill="#3354A8" d="M73.1,21.7C73,21.7,73,21.7,73.1,21.7l-3.2-0.3c-0.3,0-0.5-0.3-0.5-0.5c0-0.3,0.3-0.5,0.5-0.5l3.2,0.3
	c0.3,0,0.5,0.3,0.5,0.5C73.5,21.5,73.3,21.7,73.1,21.7z"/>
<path fill="#3354A8" d="M73,23.2h-3.2c-0.3,0-0.5-0.2-0.5-0.5s0.2-0.5,0.5-0.5H73c0.3,0,0.5,0.2,0.5,0.5S73.3,23.2,73,23.2z"/>
<path fill="#3354A8" d="M69.9,25c-0.3,0-0.5-0.2-0.5-0.5c0-0.3,0.2-0.5,0.5-0.5l3.2-0.3c0.3,0,0.5,0.2,0.5,0.5s-0.2,0.5-0.5,0.5
	L69.9,25C69.9,25,69.9,25,69.9,25z"/>
<path fill="#3354A8" d="M70.1,26.8c-0.2,0-0.4-0.2-0.5-0.4c0-0.3,0.1-0.5,0.4-0.6l3.1-0.6c0.3-0.1,0.5,0.1,0.6,0.4
	c0,0.3-0.1,0.5-0.4,0.6L70.1,26.8C70.2,26.8,70.2,26.8,70.1,26.8z"/>
<path fill="#3354A8" d="M70.5,28.6c-0.2,0-0.4-0.1-0.5-0.4c-0.1-0.3,0.1-0.5,0.4-0.6l3.1-0.8c0.3-0.1,0.5,0.1,0.6,0.4
	c0.1,0.3-0.1,0.5-0.4,0.6l-3.1,0.8C70.6,28.6,70.6,28.6,70.5,28.6z"/>
<path fill="#3354A8" d="M71.1,30.3c-0.2,0-0.4-0.1-0.5-0.3c-0.1-0.3,0-0.5,0.3-0.6l3-1.1c0.3-0.1,0.5,0,0.6,0.3
	c0.1,0.3,0,0.5-0.3,0.6l-3,1.1C71.2,30.3,71.1,30.3,71.1,30.3z"/>
<path fill="#3354A8" d="M71.8,32c-0.2,0-0.4-0.1-0.5-0.3c-0.1-0.3,0-0.5,0.2-0.7l2.9-1.3c0.2-0.1,0.5,0,0.7,0.2
	c0.1,0.3,0,0.5-0.2,0.7L72,32C71.9,32,71.8,32,71.8,32z"/>
<path fill="#3354A8" d="M72.6,33.6c-0.2,0-0.3-0.1-0.4-0.2c-0.1-0.2-0.1-0.5,0.2-0.7l2.7-1.6c0.2-0.1,0.5-0.1,0.7,0.2
	c0.1,0.2,0.1,0.5-0.2,0.7l-2.7,1.6C72.8,33.6,72.7,33.6,72.6,33.6z"/>
<path fill="#3354A8" d="M73.6,35.1c-0.2,0-0.3-0.1-0.4-0.2c-0.2-0.2-0.1-0.5,0.1-0.7l2.6-1.8c0.2-0.2,0.5-0.1,0.7,0.1
	c0.2,0.2,0.1,0.5-0.1,0.7L73.9,35C73.8,35.1,73.7,35.1,73.6,35.1z"/>
<path fill="#3354A8" d="M74.7,36.6c-0.1,0-0.3-0.1-0.4-0.2c-0.2-0.2-0.2-0.5,0.1-0.7l2.4-2c0.2-0.2,0.5-0.2,0.7,0.1
	c0.2,0.2,0.2,0.5-0.1,0.7l-2.4,2C74.9,36.5,74.8,36.6,74.7,36.6z"/>
<path fill="#3354A8" d="M75.9,37.9c-0.1,0-0.3,0-0.4-0.1c-0.2-0.2-0.2-0.5,0-0.7l2.2-2.2c0.2-0.2,0.5-0.2,0.7,0s0.2,0.5,0,0.7
	l-2.2,2.2C76.2,37.9,76,37.9,75.9,37.9z"/>
<path fill="#3354A8" d="M77.2,39.1c-0.1,0-0.2,0-0.3-0.1c-0.2-0.2-0.2-0.5-0.1-0.7l2-2.4c0.2-0.2,0.5-0.2,0.7-0.1s0.2,0.5,0.1,0.7
	l-2,2.4C77.5,39.1,77.4,39.1,77.2,39.1z"/>
<path fill="#3354A8" d="M78.7,40.2c-0.1,0-0.2,0-0.3-0.1c-0.2-0.2-0.3-0.5-0.1-0.7l1.8-2.6c0.2-0.2,0.5-0.3,0.7-0.1
	c0.2,0.2,0.3,0.5,0.1,0.7L79.1,40C79,40.2,78.8,40.2,78.7,40.2z"/>
<path fill="#3354A8" d="M80.2,41.2c-0.1,0-0.2,0-0.2-0.1c-0.2-0.1-0.3-0.4-0.2-0.7l1.6-2.7c0.1-0.2,0.4-0.3,0.7-0.2
	c0.2,0.1,0.3,0.4,0.2,0.7L80.6,41C80.5,41.1,80.4,41.2,80.2,41.2z"/>
<path fill="#3354A8" d="M81.8,42c-0.1,0-0.1,0-0.2,0c-0.3-0.1-0.4-0.4-0.2-0.7l1.3-2.9c0.1-0.3,0.4-0.4,0.7-0.2
	c0.3,0.1,0.4,0.4,0.2,0.7l-1.3,2.9C82.2,41.9,82,42,81.8,42z"/>
<path fill="#3354A8" d="M83.5,42.7c-0.1,0-0.1,0-0.2,0c-0.3-0.1-0.4-0.4-0.3-0.6l1.1-3c0.1-0.3,0.4-0.4,0.6-0.3
	c0.3,0.1,0.4,0.4,0.3,0.6l-1.1,3C83.9,42.6,83.7,42.7,83.5,42.7z"/>
<path fill="#3354A8" d="M85.2,43.3c0,0-0.1,0-0.1,0c-0.3-0.1-0.4-0.3-0.4-0.6l0.8-3.1c0.1-0.3,0.3-0.4,0.6-0.4
	c0.3,0.1,0.4,0.3,0.4,0.6l-0.8,3.1C85.6,43.1,85.4,43.3,85.2,43.3z"/>
<path fill="#3354A8" d="M87,43.7C86.9,43.7,86.9,43.7,87,43.7c-0.4-0.1-0.5-0.3-0.5-0.6L87,40c0-0.3,0.3-0.5,0.6-0.4
	c0.3,0,0.5,0.3,0.4,0.6l-0.5,3.1C87.4,43.5,87.2,43.7,87,43.7z"/>
<path fill="#3354A8" d="M88.8,43.9C88.7,43.9,88.7,43.9,88.8,43.9c-0.3,0-0.5-0.3-0.5-0.5l0.3-3.2c0-0.3,0.3-0.5,0.5-0.5
	c0.3,0,0.5,0.3,0.5,0.5l-0.3,3.2C89.2,43.7,89,43.9,88.8,43.9z"/>
<path fill="#3354A8" d="M90.6,44c-0.3,0-0.5-0.2-0.5-0.5v-3.2c0-0.3,0.2-0.5,0.5-0.5s0.5,0.2,0.5,0.5v3.2C91.1,43.8,90.8,44,90.6,44
	z"/>
<path fill="#3354A8" d="M92.4,43.9c-0.3,0-0.5-0.2-0.5-0.5l-0.3-3.2c0-0.3,0.2-0.5,0.5-0.5c0.3,0,0.5,0.2,0.5,0.5l0.3,3.2
	C92.9,43.6,92.7,43.9,92.4,43.9C92.4,43.9,92.4,43.9,92.4,43.9z"/>
<path fill="#3354A8" d="M94.2,43.7c-0.2,0-0.4-0.2-0.5-0.4l-0.5-3.1c0-0.3,0.1-0.5,0.4-0.6c0.3,0,0.5,0.1,0.6,0.4l0.5,3.1
	C94.7,43.4,94.5,43.6,94.2,43.7C94.2,43.7,94.2,43.7,94.2,43.7z"/>
<path fill="#3354A8" d="M97.7,42.7c-0.2,0-0.4-0.1-0.5-0.3l-1.1-3c-0.1-0.3,0-0.5,0.3-0.6s0.5,0,0.6,0.3l1.1,3
	c0.1,0.3,0,0.5-0.3,0.6C97.8,42.7,97.7,42.7,97.7,42.7z"/>
<path fill="#3354A8" d="M100.9,41.2c-0.2,0-0.3-0.1-0.4-0.2l-1.6-2.7c-0.1-0.2-0.1-0.5,0.2-0.7c0.2-0.1,0.5-0.1,0.7,0.2l1.6,2.7
	c0.1,0.2,0.1,0.5-0.2,0.7C101.1,41.2,101,41.2,100.9,41.2z"/>
<path fill="#3354A8" d="M103.9,39.1c-0.1,0-0.3-0.1-0.4-0.2l-2-2.4c-0.2-0.2-0.2-0.5,0.1-0.7c0.2-0.2,0.5-0.2,0.7,0.1l2,2.4
	c0.2,0.2,0.2,0.5-0.1,0.7C104.1,39.1,104,39.1,103.9,39.1z"/>
<path fill="#3354A8" d="M106.5,36.6c-0.1,0-0.2,0-0.3-0.1l-2.4-2c-0.2-0.2-0.2-0.5-0.1-0.7c0.2-0.2,0.5-0.2,0.7-0.1l2.4,2
	c0.2,0.2,0.2,0.5,0.1,0.7C106.7,36.5,106.6,36.6,106.5,36.6z"/>
<path fill="#3354A8" d="M108.5,33.6c-0.1,0-0.2,0-0.2-0.1l-2.7-1.6c-0.2-0.1-0.3-0.4-0.2-0.7c0.1-0.2,0.4-0.3,0.7-0.2l2.7,1.6
	c0.2,0.1,0.3,0.4,0.2,0.7C108.9,33.5,108.7,33.6,108.5,33.6z"/>
<path fill="#3354A8" d="M110.1,30.3c-0.1,0-0.1,0-0.2,0l-3-1.1c-0.3-0.1-0.4-0.4-0.3-0.6c0.1-0.3,0.4-0.4,0.6-0.3l3,1.1
	c0.3,0.1,0.4,0.4,0.3,0.6C110.5,30.2,110.3,30.3,110.1,30.3z"/>
<path fill="#3354A8" d="M111,26.8C111,26.8,110.9,26.8,111,26.8l-3.2-0.6c-0.3,0-0.5-0.3-0.4-0.6c0-0.3,0.3-0.5,0.6-0.4l3.1,0.6
	c0.3,0,0.5,0.3,0.4,0.6C111.4,26.7,111.2,26.8,111,26.8z"/>
<path fill="#3354A8" d="M111.3,23.2h-3.2c-0.3,0-0.5-0.2-0.5-0.5s0.2-0.5,0.5-0.5h3.2c0.3,0,0.5,0.2,0.5,0.5S111.6,23.2,111.3,23.2z
	"/>
<path fill="#3354A8" d="M107.9,20.2c-0.2,0-0.4-0.2-0.5-0.4c0-0.3,0.1-0.5,0.4-0.6l3.1-0.5c0.3,0,0.5,0.1,0.6,0.4
	c0,0.3-0.1,0.5-0.4,0.6L107.9,20.2C107.9,20.2,107.9,20.2,107.9,20.2z"/>
<path fill="#3354A8" d="M107.1,17.2c-0.2,0-0.4-0.1-0.5-0.3c-0.1-0.3,0-0.5,0.3-0.6l3-1.1c0.3-0.1,0.5,0,0.6,0.3s0,0.5-0.3,0.6
	l-3,1.1C107.2,17.2,107.1,17.2,107.1,17.2z"/>
<path fill="#3354A8" d="M105.8,14.5c-0.2,0-0.3-0.1-0.4-0.2c-0.1-0.2-0.1-0.5,0.2-0.7l2.7-1.6c0.2-0.1,0.5-0.1,0.7,0.2
	c0.1,0.2,0.1,0.5-0.2,0.7l-2.7,1.6C106,14.4,105.9,14.5,105.8,14.5z"/>
<path fill="#3354A8" d="M104,11.9c-0.1,0-0.3-0.1-0.4-0.2c-0.2-0.2-0.2-0.5,0.1-0.7l2.4-2c0.2-0.2,0.5-0.2,0.7,0.1
	c0.2,0.2,0.2,0.5-0.1,0.7l-2.4,2C104.3,11.9,104.1,11.9,104,11.9z"/>
<path fill="#3354A8" d="M101.9,9.8c-0.1,0-0.2,0-0.3-0.1c-0.2-0.2-0.2-0.5-0.1-0.7l2-2.4c0.2-0.2,0.5-0.2,0.7-0.1
	c0.2,0.2,0.2,0.5,0.1,0.7l-2,2.4C102.1,9.7,102,9.8,101.9,9.8z"/>
<path fill="#3354A8" d="M99.4,8c-0.1,0-0.2,0-0.2-0.1c-0.2-0.1-0.3-0.4-0.2-0.7l1.6-2.7c0.1-0.2,0.4-0.3,0.7-0.2
	c0.2,0.1,0.3,0.4,0.2,0.7l-1.6,2.7C99.7,7.9,99.5,8,99.4,8z"/>
<path fill="#3354A8" d="M96.6,6.7c-0.1,0-0.1,0-0.2,0c-0.3-0.1-0.4-0.4-0.3-0.6l1.1-3c0.1-0.3,0.4-0.4,0.6-0.3
	c0.3,0.1,0.4,0.4,0.3,0.6l-1.1,3C97,6.6,96.8,6.7,96.6,6.7z"/>
<path fill="#3354A8" d="M93.6,5.9C93.6,5.9,93.6,5.9,93.6,5.9c-0.4-0.1-0.5-0.3-0.5-0.6l0.5-3.1c0-0.3,0.3-0.5,0.6-0.4
	c0.3,0,0.5,0.3,0.4,0.6l-0.5,3.1C94.1,5.8,93.9,5.9,93.6,5.9z"/>
<path fill="#3354A8" d="M90.6,5.7c-0.3,0-0.5-0.2-0.5-0.5V2c0-0.3,0.2-0.5,0.5-0.5s0.5,0.2,0.5,0.5v3.2C91.1,5.4,90.8,5.7,90.6,5.7z
	"/>
<path fill="#3354A8" d="M87.5,5.9c-0.2,0-0.4-0.2-0.5-0.4l-0.5-3.1c0-0.3,0.1-0.5,0.4-0.6c0.3-0.1,0.5,0.1,0.6,0.4L88,5.3
	C88.1,5.6,87.9,5.9,87.5,5.9C87.6,5.9,87.5,5.9,87.5,5.9z"/>
<path fill="#3354A8" d="M95.9,43.3c-0.2,0-0.4-0.1-0.5-0.4l-0.8-3.1c-0.1-0.3,0.1-0.5,0.4-0.6c0.3-0.1,0.5,0.1,0.6,0.4l0.8,3.1
	c0.1,0.3-0.1,0.5-0.4,0.6C96,43.3,96,43.3,95.9,43.3z"/>
<path fill="#3354A8" d="M99.3,42c-0.2,0-0.4-0.1-0.5-0.3l-1.3-2.9c-0.1-0.3,0-0.5,0.2-0.7c0.2-0.1,0.5,0,0.7,0.2l1.3,2.9
	c0.1,0.3,0,0.5-0.2,0.7C99.5,42,99.4,42,99.3,42z"/>
<path fill="#3354A8" d="M102.5,40.2c-0.2,0-0.3-0.1-0.4-0.2l-1.8-2.6c-0.2-0.2-0.1-0.5,0.1-0.7c0.2-0.2,0.5-0.1,0.7,0.1l1.8,2.6
	c0.2,0.2,0.1,0.5-0.1,0.7C102.7,40.2,102.6,40.2,102.5,40.2z"/>
<path fill="#3354A8" d="M105.2,37.9c-0.1,0-0.3,0-0.4-0.1l-2.2-2.2c-0.2-0.2-0.2-0.5,0-0.7s0.5-0.2,0.7,0l2.2,2.2
	c0.2,0.2,0.2,0.5,0,0.7C105.5,37.9,105.4,37.9,105.2,37.9z"/>
<path fill="#3354A8" d="M107.6,35.1c-0.1,0-0.2,0-0.3-0.1l-2.6-1.8c-0.2-0.2-0.3-0.5-0.1-0.7c0.2-0.2,0.5-0.3,0.7-0.1l2.6,1.8
	c0.2,0.2,0.3,0.5,0.1,0.7C107.9,35.1,107.7,35.1,107.6,35.1z"/>
<path fill="#3354A8" d="M109.4,32c-0.1,0-0.1,0-0.2,0l-2.9-1.3c-0.3-0.1-0.4-0.4-0.2-0.7s0.4-0.4,0.7-0.2l2.9,1.3
	c0.3,0.1,0.4,0.4,0.2,0.7C109.7,31.9,109.6,32,109.4,32z"/>
<path fill="#3354A8" d="M110.6,28.6c0,0-0.1,0-0.1,0l-3.1-0.8c-0.3-0.1-0.4-0.3-0.4-0.6c0.1-0.3,0.4-0.4,0.6-0.4l3.1,0.8
	c0.3,0.1,0.4,0.3,0.4,0.6C111,28.5,110.8,28.6,110.6,28.6z"/>
<path fill="#3354A8" d="M111.2,25C111.2,25,111.2,25,111.2,25l-3.2-0.3c-0.3,0-0.5-0.3-0.5-0.5c0-0.3,0.3-0.5,0.5-0.5l3.2,0.3
	c0.3,0,0.5,0.3,0.5,0.5C111.7,24.9,111.5,25,111.2,25z"/>
<path fill="#3354A8" d="M108.1,21.7c-0.3,0-0.5-0.2-0.5-0.5c0-0.3,0.2-0.5,0.5-0.5l3.2-0.3c0.3,0,0.5,0.2,0.5,0.5
	c0,0.3-0.2,0.5-0.5,0.5L108.1,21.7C108.1,21.7,108.1,21.7,108.1,21.7z"/>
<path fill="#3354A8" d="M107.5,18.7c-0.2,0-0.4-0.1-0.5-0.4c-0.1-0.3,0.1-0.5,0.4-0.6l3.1-0.8c0.3-0.1,0.5,0.1,0.6,0.4
	c0.1,0.3-0.1,0.5-0.4,0.6l-3.1,0.8C107.6,18.7,107.6,18.7,107.5,18.7z"/>
<path fill="#3354A8" d="M106.5,15.8c-0.2,0-0.4-0.1-0.5-0.3c-0.1-0.3,0-0.5,0.2-0.7l2.9-1.3c0.2-0.1,0.5,0,0.7,0.2
	c0.1,0.3,0,0.5-0.2,0.7l-2.9,1.3C106.6,15.8,106.6,15.8,106.5,15.8z"/>
<path fill="#3354A8" d="M105,13.2c-0.2,0-0.3-0.1-0.4-0.2c-0.2-0.2-0.1-0.5,0.1-0.7l2.6-1.8c0.2-0.2,0.5-0.1,0.7,0.1
	c0.2,0.2,0.1,0.5-0.1,0.7l-2.6,1.8C105.2,13.1,105.1,13.2,105,13.2z"/>
<path fill="#3354A8" d="M103,10.8c-0.1,0-0.3,0-0.4-0.1c-0.2-0.2-0.2-0.5,0-0.7l2.2-2.2c0.2-0.2,0.5-0.2,0.7,0s0.2,0.5,0,0.7
	l-2.2,2.2C103.2,10.8,103.1,10.8,103,10.8z"/>
<path fill="#3354A8" d="M100.6,8.8c-0.1,0-0.2,0-0.3-0.1c-0.2-0.2-0.3-0.5-0.1-0.7l1.8-2.6c0.2-0.2,0.5-0.3,0.7-0.1
	c0.2,0.2,0.3,0.5,0.1,0.7l-1.8,2.6C101,8.8,100.8,8.8,100.6,8.8z"/>
<path fill="#3354A8" d="M98,7.3c-0.1,0-0.1,0-0.2,0c-0.3-0.1-0.4-0.4-0.2-0.7l1.3-2.9c0.1-0.3,0.4-0.4,0.7-0.2
	c0.3,0.1,0.4,0.4,0.2,0.7L98.4,7C98.4,7.2,98.2,7.3,98,7.3z"/>
<path fill="#3354A8" d="M95.1,6.3c0,0-0.1,0-0.1,0c-0.3-0.1-0.4-0.3-0.4-0.6l0.8-3.1c0.1-0.3,0.3-0.4,0.6-0.4
	c0.3,0.1,0.4,0.3,0.4,0.6l-0.8,3.1C95.5,6.1,95.3,6.3,95.1,6.3z"/>
<path fill="#3354A8" d="M92.1,5.7C92.1,5.7,92.1,5.7,92.1,5.7c-0.3,0-0.5-0.3-0.5-0.5L91.9,2c0-0.3,0.3-0.5,0.5-0.5
	c0.3,0,0.5,0.3,0.5,0.5l-0.3,3.2C92.6,5.5,92.4,5.7,92.1,5.7z"/>
<path fill="#3354A8" d="M89,5.7c-0.3,0-0.5-0.2-0.5-0.5l-0.3-3.2c0-0.3,0.2-0.5,0.5-0.5c0.3,0,0.5,0.2,0.5,0.5l0.3,3.2
	C89.6,5.5,89.4,5.7,89,5.7C89.1,5.7,89,5.7,89,5.7z"/>
<path fill="#3354A8" d="M86,6.3c-0.2,0-0.4-0.1-0.5-0.4l-0.8-3.1c-0.1-0.3,0.1-0.5,0.4-0.6c0.3-0.1,0.5,0.1,0.6,0.4l0.8,3.1
	c0.1,0.3-0.1,0.5-0.4,0.6C86.1,6.3,86.1,6.3,86,6.3z"/>
<path fill="#3354A8" d="M69.8,80.3H7.6c-0.4,0-0.8-0.2-0.9-0.6c-0.2-0.4-0.1-0.8,0.2-1.1l16.9-16.8c0.2-0.2,0.4-0.3,0.7-0.3h45.2
	c0.6,0,1,0.4,1,1s-0.4,1-1,1H24.9L10,78.3h59.8c0.6,0,1,0.4,1,1S70.4,80.3,69.8,80.3z"/>
<path fill="#3354A8" d="M69.6,77.5H13.8c-0.2,0-0.4-0.1-0.5-0.3s0-0.4,0.1-0.5l12.3-12.3c0.1-0.1,0.2-0.1,0.4-0.1h43.5
	c0.3,0,0.5,0.2,0.5,0.5s-0.2,0.5-0.5,0.5H26.3L15,76.5h54.7c0.3,0,0.5,0.2,0.5,0.5S69.9,77.5,69.6,77.5z"/>
<path fill="#3354A8" d="M69.8,96.4H7c-0.3,0-0.5-0.2-0.5-0.5V79.3c0-0.3,0.2-0.5,0.5-0.5h62.8c0.3,0,0.5,0.2,0.5,0.5v16.6
	C70.3,96.2,70.1,96.4,69.8,96.4z M7.5,95.4h61.8V79.8H7.5V95.4z"/>
<path fill="#3354A8" d="M69.8,82.4H7.2c-0.3,0-0.5-0.2-0.5-0.5s0.2-0.5,0.5-0.5h62.6c0.3,0,0.5,0.2,0.5,0.5S70.1,82.4,69.8,82.4z"/>
<path fill="#3354A8" d="M69.8,84.4H7.2c-0.3,0-0.5-0.2-0.5-0.5s0.2-0.5,0.5-0.5h62.6c0.3,0,0.5,0.2,0.5,0.5S70.1,84.4,69.8,84.4z"/>
<path fill="#3354A8" d="M69.8,86.4H7.2c-0.3,0-0.5-0.2-0.5-0.5s0.2-0.5,0.5-0.5h62.6c0.3,0,0.5,0.2,0.5,0.5S70.1,86.4,69.8,86.4z"/>
<path fill="#3354A8" d="M69.8,88.4H7.2c-0.3,0-0.5-0.2-0.5-0.5s0.2-0.5,0.5-0.5h62.6c0.3,0,0.5,0.2,0.5,0.5S70.1,88.4,69.8,88.4z"/>
<path fill="#3354A8" d="M69.8,90.4H7.2c-0.3,0-0.5-0.2-0.5-0.5s0.2-0.5,0.5-0.5h62.6c0.3,0,0.5,0.2,0.5,0.5S70.1,90.4,69.8,90.4z"/>
<path fill="#3354A8" d="M69.8,92.4H7.2c-0.3,0-0.5-0.2-0.5-0.5s0.2-0.5,0.5-0.5h62.6c0.3,0,0.5,0.2,0.5,0.5S70.1,92.4,69.8,92.4z"/>
<path fill="#3354A8" d="M69.8,94.4H7.2c-0.3,0-0.5-0.2-0.5-0.5s0.2-0.5,0.5-0.5h62.6c0.3,0,0.5,0.2,0.5,0.5S70.1,94.4,69.8,94.4z"/>
<path fill="#3354A8" d="M69.8,96.4H7.2c-0.3,0-0.5-0.2-0.5-0.5s0.2-0.5,0.5-0.5h62.6c0.3,0,0.5,0.2,0.5,0.5S70.1,96.4,69.8,96.4z"/>
<path fill="#3354A8" d="M28.9,74.9c-1.5,0-2.8-0.7-3.4-1.9c-0.5-0.9-0.6-2-0.2-3c0.4-1,1.1-1.9,2.1-2.4c0.7-0.4,1.5-0.6,2.2-0.6
	c1.5,0,2.8,0.7,3.4,1.9c0.5,0.9,0.6,2,0.2,3c-0.4,1-1.1,1.9-2.1,2.4C30.5,74.7,29.7,74.9,28.9,74.9z M29.7,67.9
	c-0.6,0-1.2,0.2-1.8,0.5c-0.8,0.4-1.4,1.1-1.7,1.9C26,71,26,71.8,26.4,72.5c0.5,0.9,1.4,1.4,2.5,1.4c0.6,0,1.2-0.2,1.8-0.5
	c0.8-0.4,1.4-1.1,1.7-1.9c0.3-0.8,0.2-1.6-0.1-2.2C31.8,68.4,30.8,67.9,29.7,67.9z"/>
<path fill="#3354A8" d="M69.8,96.4c-0.1,0-0.3,0-0.4-0.1L52.8,79.6c-0.2-0.2-0.2-0.5,0-0.7s0.5-0.2,0.7,0l16.6,16.6
	c0.2,0.2,0.2,0.5,0,0.7C70,96.3,69.9,96.4,69.8,96.4z"/>
<path fill="#3354A8" d="M69.8,94.4c-0.1,0-0.3,0-0.4-0.1L54.9,79.7c-0.2-0.2-0.2-0.5,0-0.7s0.5-0.2,0.7,0l14.6,14.6
	c0.2,0.2,0.2,0.5,0,0.7C70,94.3,69.9,94.4,69.8,94.4z"/>
<path fill="#3354A8" d="M69.8,92.4c-0.1,0-0.3,0-0.4-0.1L56.9,79.7c-0.2-0.2-0.2-0.5,0-0.7s0.5-0.2,0.7,0l12.6,12.6
	c0.2,0.2,0.2,0.5,0,0.7C70,92.3,69.9,92.4,69.8,92.4z"/>
<path fill="#3354A8" d="M69.8,90.4c-0.1,0-0.3,0-0.4-0.1L59.1,79.9c-0.2-0.2-0.2-0.5,0-0.7s0.5-0.2,0.7,0l10.3,10.3
	c0.2,0.2,0.2,0.5,0,0.7C70,90.3,69.9,90.4,69.8,90.4z"/>
<path fill="#3354A8" d="M69.8,88.4c-0.1,0-0.3,0-0.4-0.1l-8.3-8.3c-0.2-0.2-0.2-0.5,0-0.7s0.5-0.2,0.7,0l8.3,8.3
	c0.2,0.2,0.2,0.5,0,0.7C70,88.3,69.9,88.4,69.8,88.4z"/>
<path fill="#3354A8" d="M69.8,86.4c-0.1,0-0.3,0-0.4-0.1l-6.2-6.2c-0.2-0.2-0.2-0.5,0-0.7s0.5-0.2,0.7,0l6.2,6.2
	c0.2,0.2,0.2,0.5,0,0.7C70,86.3,69.9,86.4,69.8,86.4z"/>
<path fill="#3354A8" d="M69.8,84.4c-0.1,0-0.3,0-0.4-0.1l-4.6-4.6c-0.2-0.2-0.2-0.5,0-0.7s0.5-0.2,0.7,0l4.6,4.6
	c0.2,0.2,0.2,0.5,0,0.7C70,84.3,69.9,84.4,69.8,84.4z"/>
<path fill="#3354A8" d="M69.8,82.4c-0.1,0-0.3,0-0.4-0.1l-2.6-2.6c-0.2-0.2-0.2-0.5,0-0.7s0.5-0.2,0.7,0l2.6,2.6
	c0.2,0.2,0.2,0.5,0,0.7C70,82.3,69.9,82.4,69.8,82.4z"/>
<path fill="#3354A8" d="M53.1,79.7c-0.2,0-0.4-0.1-0.5-0.3l-7.4-16.8c-0.1-0.3,0-0.5,0.3-0.7c0.3-0.1,0.5,0,0.7,0.3L53.6,79
	c0.1,0.3,0,0.5-0.3,0.7C53.3,79.7,53.2,79.7,53.1,79.7z"/>
<path fill="#3354A8" d="M55.1,79.7c-0.2,0-0.4-0.1-0.5-0.3l-7.4-16.8c-0.1-0.3,0-0.5,0.3-0.7c0.3-0.1,0.5,0,0.7,0.3L55.6,79
	c0.1,0.3,0,0.5-0.3,0.7C55.3,79.7,55.2,79.7,55.1,79.7z"/>
<path fill="#3354A8" d="M57.1,79.7c-0.2,0-0.4-0.1-0.5-0.3l-7.4-16.8c-0.1-0.3,0-0.5,0.3-0.7c0.3-0.1,0.5,0,0.7,0.3L57.6,79
	c0.1,0.3,0,0.5-0.3,0.7C57.3,79.7,57.2,79.7,57.1,79.7z"/>
<path fill="#3354A8" d="M59.1,79.7c-0.2,0-0.4-0.1-0.5-0.3l-7.4-16.8c-0.1-0.3,0-0.5,0.3-0.7c0.3-0.1,0.5,0,0.7,0.3L59.6,79
	c0.1,0.3,0,0.5-0.3,0.7C59.3,79.7,59.2,79.7,59.1,79.7z"/>
<path fill="#3354A8" d="M61.1,79.7c-0.2,0-0.4-0.1-0.5-0.3l-7.4-16.8c-0.1-0.3,0-0.5,0.3-0.7c0.3-0.1,0.5,0,0.7,0.3L61.6,79
	c0.1,0.3,0,0.5-0.3,0.7C61.3,79.7,61.2,79.7,61.1,79.7z"/>
<path fill="#3354A8" d="M63.1,79.7c-0.2,0-0.4-0.1-0.5-0.3l-7.4-16.8c-0.1-0.3,0-0.5,0.3-0.7c0.3-0.1,0.5,0,0.7,0.3L63.6,79
	c0.1,0.3,0,0.5-0.3,0.7C63.3,79.7,63.2,79.7,63.1,79.7z"/>
<path fill="#3354A8" d="M65.1,79.7c-0.2,0-0.4-0.1-0.5-0.3l-7.4-16.8c-0.1-0.3,0-0.5,0.3-0.7c0.3-0.1,0.5,0,0.7,0.3L65.6,79
	c0.1,0.3,0,0.5-0.3,0.7C65.3,79.7,65.2,79.7,65.1,79.7z"/>
<path fill="#3354A8" d="M67.1,79.7c-0.2,0-0.4-0.1-0.5-0.3l-7.4-16.8c-0.1-0.3,0-0.5,0.3-0.7c0.3-0.1,0.5,0,0.7,0.3L67.6,79
	c0.1,0.3,0,0.5-0.3,0.7C67.3,79.7,67.2,79.7,67.1,79.7z"/>
<path fill="#3354A8" d="M69.1,79.7c-0.2,0-0.4-0.1-0.5-0.3l-7.4-16.8c-0.1-0.3,0-0.5,0.3-0.7c0.3-0.1,0.5,0,0.7,0.3L69.6,79
	c0.1,0.3,0,0.5-0.3,0.7C69.3,79.7,69.2,79.7,69.1,79.7z"/>
<path fill="#3354A8" d="M69.6,76.3c-0.2,0-0.4-0.1-0.5-0.3l-5.9-13.4c-0.1-0.3,0-0.5,0.3-0.7c0.2-0.1,0.5,0,0.7,0.3l5.9,13.4
	c0.1,0.3,0,0.5-0.3,0.7C69.8,76.3,69.7,76.3,69.6,76.3z"/>
<path fill="#3354A8" d="M69.8,72.2c-0.2,0-0.4-0.1-0.5-0.3l-4.1-9.3c-0.1-0.3,0-0.5,0.3-0.7c0.3-0.1,0.5,0,0.7,0.3l4.1,9.3
	c0.1,0.3,0,0.5-0.3,0.7C70,72.2,69.9,72.2,69.8,72.2z"/>
<path fill="#3354A8" d="M69.9,67.9c-0.2,0-0.4-0.1-0.5-0.3l-2.2-4.9c-0.1-0.3,0-0.5,0.3-0.7c0.2-0.1,0.5,0,0.7,0.3l2.2,4.9
	c0.1,0.3,0,0.5-0.3,0.7C70,67.9,70,67.9,69.9,67.9z"/>
</svg>
