<?xml version="1.0" encoding="UTF-8" standalone="no"?>
<svg width="87px" height="86px" viewBox="0 0 87 86" version="1.1" xmlns="http://www.w3.org/2000/svg" xmlns:xlink="http://www.w3.org/1999/xlink" xmlns:sketch="http://www.bohemiancoding.com/sketch/ns">
    <!-- Generator: Sketch 3.2.2 (9983) - http://www.bohemiancoding.com/sketch -->
    <title>bitcoin</title>
    <desc>Created with Sketch.</desc>
    <defs></defs>
    <g id="Page-1" stroke="none" stroke-width="1" fill="none" fill-rule="evenodd" sketch:type="MSPage">
        <g id="home" sketch:type="MSArtboardGroup" transform="translate(-678.000000, -180.000000)">
            <g id="header" sketch:type="MSLayerGroup" transform="translate(254.000000, 180.000000)">
                <g id="bitcoin" transform="translate(424.000000, 0.000000)" sketch:type="MSShapeGroup">
                    <ellipse id="Oval-22" fill="#F6A623" cx="43.1343284" cy="43" rx="43.1343284" ry="42.5"></ellipse>
                    <path d="M57.0311295,42.0434479 C58.3486637,40.6365455 59.1686579,38.8242773 59.1686579,36.8171605 C59.1686579,30.4991149 55.0522212,26.7082875 48.1914933,26.7082875 L48.1958842,26.7082875 L48.1914933,19.1266327 C48.1914933,18.8473751 48.1796928,18.9434094 48.1796928,18.6123438 L44.3494857,18.6211891 C44.0536511,18.6211891 43.8181909,18.6123438 43.8181909,18.6123438 L43.8050183,26.7082875 L39.4141525,26.7082875 L39.4097616,19.1266327 C39.4097616,18.8473751 39.4086639,18.9118192 39.4086639,18.6123438 L35.0232866,18.6123438 C35.0232866,19.0626941 35.0350871,18.837519 35.0232866,19.1069204 L35.0232866,26.7082875 L25.1207864,26.7017167 C25.1207864,26.7017167 25.137801,26.9354844 25.1364289,27.2132257 L25.1207864,30.7513313 L26.2355175,30.7513313 C28.6603731,30.7513313 30.6263833,32.5618304 30.6263833,34.7948805 L30.6324208,50.9690773 C30.6324208,53.08259 30.6074477,54.909516 27.725942,54.909516 C27.4921284,54.909516 25.8697035,54.9178559 25.1207864,54.9178559 L25.1207864,58.3902538 C25.1163955,58.5942003 25.1207864,59.0688119 25.1207864,59.0688119 C25.1207864,59.0688119 25.6740355,59.0561758 25.8430838,59.0561758 L35.0232866,59.0561758 L35.0188957,67.1432742 L39.4097616,67.1432742 L39.4097616,66.6378305 L39.4141525,59.0561758 L43.8050183,59.0561758 L43.8181909,67.1950822 L47.6162899,67.1950822 L48.1796928,67.1950822 L48.1958842,59.0561758 L50.3869262,59.0561758 C57.2476541,59.0561758 61.3640908,55.2653484 61.3640908,48.9473027 C61.3640908,45.9876774 59.6115865,43.4432741 57.0311295,42.0434479 L57.0311295,42.0434479 Z M39.4097616,32.7733586 L45.9960604,32.7733586 C48.420916,32.7733586 50.3869262,34.5838578 50.3869262,36.8169078 C50.3869262,39.0499579 48.420916,40.860457 45.9960604,40.860457 L39.4097616,40.860457 L39.4097616,32.7733586 L39.4097616,32.7733586 Z M48.1914933,52.9908519 L39.4097616,52.9908519 L39.4097616,44.9037535 L48.1914933,44.9037535 C50.616349,44.9037535 52.5823591,46.7142527 52.5823591,48.9473027 C52.5823591,51.1803528 50.616349,52.9908519 48.1914933,52.9908519 L48.1914933,52.9908519 Z" id="Imported-Layers-3" fill="#FFFFFF"></path>
                </g>
            </g>
        </g>
    </g>
</svg>