<?xml version="1.0" encoding="UTF-8" standalone="no"?>
<svg width="232px" height="58px" viewBox="0 0 232 58" version="1.1" xmlns="http://www.w3.org/2000/svg" xmlns:xlink="http://www.w3.org/1999/xlink" xmlns:sketch="http://www.bohemiancoding.com/sketch/ns">
    <!-- Generator: Sketch 3.3.1 (12002) - http://www.bohemiancoding.com/sketch -->
    <title>Imported Layers Copy</title>
    <desc>Created with Sketch.</desc>
    <defs></defs>
    <g id="Page-1" stroke="none" stroke-width="1" fill="none" fill-rule="evenodd" sketch:type="MSPage">
        <g id="developers-copy-11" sketch:type="MSArtboardGroup" transform="translate(-739.000000, -1699.000000)" fill="#393939">
            <path d="M764.250762,1716.5401 C766.566545,1716.5401 768.567968,1716.95016 770.256428,1717.77029 C771.94419,1718.58972 773.34344,1719.69976 774.45278,1721.09831 C775.56212,1722.49686 776.38225,1724.13712 776.912469,1726.01839 C777.443388,1727.89966 777.708149,1729.92553 777.708149,1732.09601 C777.708149,1735.42403 777.093401,1738.57112 775.863207,1741.53728 C774.633711,1744.50413 772.957127,1747.08468 770.83485,1749.2796 C768.712573,1751.47384 766.204682,1753.2105 763.310478,1754.48889 C760.416273,1755.76659 757.28106,1756.40579 753.904838,1756.40579 C753.470323,1756.40579 752.71097,1756.39391 751.625381,1756.36946 C750.540491,1756.34571 749.298421,1756.23743 747.899172,1756.04393 C746.500621,1755.85112 745.017542,1755.56191 743.449935,1755.17629 C741.882328,1754.78998 740.39925,1754.25976 739,1753.58424 L751.517102,1700.98419 L762.731357,1699.24822 L758.245795,1717.9149 C759.21053,1717.48038 760.175264,1717.14297 761.139999,1716.90196 C762.104734,1716.66095 763.141422,1716.5401 764.250762,1716.5401 L764.250762,1716.5401 Z M754.845122,1747.50662 C756.533583,1747.50662 758.124941,1747.09655 759.620594,1746.27642 C761.115549,1745.45699 762.405821,1744.35953 763.491409,1742.98473 C764.576299,1741.60993 765.432755,1740.0542 766.060077,1738.31823 C766.6867,1736.58157 767.000361,1734.77296 767.000361,1732.89169 C767.000361,1730.5766 766.614747,1728.76729 765.842819,1727.46514 C765.070892,1726.163 763.64789,1725.51192 761.573815,1725.51192 C760.89899,1725.51192 760.018783,1725.63208 758.933195,1725.87309 C757.847606,1726.11479 756.870995,1726.62126 756.002664,1727.39319 L751.227891,1747.21741 C751.517102,1747.26561 751.769987,1747.31381 751.987244,1747.36201 C752.204501,1747.41021 752.433635,1747.44654 752.674644,1747.47029 C752.915653,1747.49474 753.205562,1747.50662 753.542975,1747.50662 L754.845122,1747.50662 L754.845122,1747.50662 Z M791.310839,1755.39285 L780.602353,1755.39285 L789.646829,1717.33578 L800.426569,1717.33578 L791.310839,1755.39285 L791.310839,1755.39285 Z M796.520127,1712.70561 C795.024474,1712.70561 793.674125,1712.25922 792.468381,1711.36714 C791.262637,1710.47435 790.659765,1709.11213 790.659765,1707.27906 C790.659765,1706.26613 790.864448,1705.31327 791.274513,1704.42118 C791.684578,1703.5291 792.226673,1702.75717 792.902197,1702.1061 C793.577721,1701.45503 794.361524,1700.93598 795.253607,1700.55037 C796.146389,1700.16476 797.098549,1699.97125 798.111485,1699.97125 C799.607139,1699.97125 800.957488,1700.41764 802.163232,1701.30972 C803.368976,1702.2025 803.971847,1703.56473 803.971847,1705.3978 C803.971847,1706.41073 803.767164,1707.36359 803.3571,1708.25567 C802.947035,1709.14846 802.404241,1709.91968 801.729415,1710.57076 C801.053892,1711.22253 800.270088,1711.74087 799.378005,1712.12649 C798.485224,1712.5128 797.533064,1712.70561 796.520127,1712.70561 L796.520127,1712.70561 Z M811.424266,1707.85818 L822.638522,1706.12152 L819.889622,1717.33578 L831.899557,1717.33578 L829.729078,1726.163 L817.791097,1726.163 L814.607681,1739.47578 C814.318471,1740.58512 814.137539,1741.6218 814.065586,1742.58654 C813.992934,1743.55127 814.113089,1744.38328 814.42675,1745.08255 C814.740411,1745.78253 815.283205,1746.32462 816.055133,1746.71094 C816.826362,1747.09655 817.8875,1747.28936 819.238548,1747.28936 C820.39609,1747.28936 821.517306,1747.18108 822.602895,1746.96382 C823.687785,1746.74726 824.785249,1746.44548 825.894589,1746.05986 L826.690268,1754.30796 C825.243516,1754.83818 823.675909,1755.29645 821.987448,1755.68276 C820.299686,1756.06838 818.297565,1756.26118 815.982481,1756.26118 C812.65446,1756.26118 810.073917,1755.76659 808.240851,1754.7781 C806.407785,1753.78892 805.105638,1752.43857 804.33371,1750.72636 C803.562481,1749.01415 803.22437,1747.04835 803.320774,1744.82967 C803.417177,1742.61099 803.755289,1740.27146 804.33371,1737.81177 L811.424266,1707.85818 L811.424266,1707.85818 Z M832.26142,1740.1995 C832.26142,1736.91898 832.792338,1733.83197 833.853476,1730.93777 C834.914615,1728.04426 836.43402,1725.51192 838.411691,1723.34144 C840.389362,1721.17096 842.788974,1719.45805 845.610526,1718.20411 C848.432079,1716.95016 851.579866,1716.32284 855.052492,1716.32284 C857.222971,1716.32284 859.164316,1716.52822 860.876528,1716.93829 C862.589439,1717.34835 864.144471,1717.89045 865.543721,1718.56597 L861.853838,1726.95867 C860.889103,1726.57306 859.888042,1726.22307 858.851354,1725.90941 C857.813967,1725.59645 856.548146,1725.43927 855.052492,1725.43927 C851.435261,1725.43927 848.589258,1726.65689 846.515184,1729.09283 C844.441109,1731.52876 843.403722,1734.84491 843.403722,1739.04126 C843.403722,1741.50165 843.93464,1743.4912 844.995779,1745.0106 C846.056917,1746.53001 848.010138,1747.28936 850.856141,1747.28936 C852.254692,1747.28936 853.60574,1747.14475 854.907887,1746.85554 C856.210034,1746.56633 857.367576,1746.20447 858.380513,1745.76995 L859.176192,1754.37992 C857.825843,1754.91083 856.342764,1755.38098 854.726956,1755.79104 C853.111147,1756.20111 851.145352,1756.40579 848.830268,1756.40579 C845.83966,1756.40579 843.307318,1755.97197 841.233243,1755.10364 C839.159168,1754.23531 837.446956,1753.06589 836.096607,1751.59469 C834.745559,1750.12349 833.768949,1748.3987 833.166077,1746.42103 C832.563205,1744.44406 832.26142,1742.36998 832.26142,1740.1995 L832.26142,1740.1995 Z M880.230603,1756.40579 C877.67451,1756.40579 875.455829,1756.02017 873.574562,1755.24825 C871.693294,1754.47632 870.137563,1753.39143 868.908068,1751.99218 C867.677874,1750.59363 866.749465,1748.94149 866.122143,1747.03647 C865.495519,1745.13146 865.181858,1743.02105 865.181858,1740.70527 C865.181858,1737.81177 865.652,1734.91756 866.592984,1732.02336 C867.533268,1729.12915 868.919943,1726.52486 870.753009,1724.20908 C872.586075,1721.89399 874.828507,1720.00085 877.481702,1718.52964 C880.134199,1717.05844 883.173009,1716.32284 886.598132,1716.32284 C889.106023,1716.32284 891.312827,1716.70915 893.217847,1717.48038 C895.123565,1718.25231 896.691171,1719.3379 897.920667,1720.73645 C899.150861,1722.135 900.079269,1723.78714 900.706592,1725.69285 C901.333215,1727.59787 901.646876,1729.70827 901.646876,1732.02336 C901.646876,1734.91756 901.18861,1737.81177 900.272077,1740.70527 C899.356242,1743.59948 898.005195,1746.20447 896.22033,1748.51955 C894.436165,1750.83464 892.20491,1752.72778 889.527963,1754.19898 C886.851016,1755.67019 883.752129,1756.40579 880.230603,1756.40579 L880.230603,1756.40579 Z M885.585195,1725.43927 C883.993138,1725.43927 882.594587,1725.89754 881.388843,1726.81407 C880.182401,1727.7306 879.170163,1728.88814 878.350034,1730.28669 C877.529904,1731.68594 876.915157,1733.21723 876.505092,1734.88124 C876.095027,1736.54525 875.889646,1738.12473 875.889646,1739.62038 C875.889646,1742.08007 876.275959,1743.97321 877.047188,1745.29981 C877.819115,1746.62641 879.217666,1747.28936 881.243539,1747.28936 C882.835596,1747.28936 884.234147,1746.83109 885.439891,1745.91526 C886.646333,1744.99873 887.65927,1743.84118 888.478701,1742.44193 C889.29883,1741.04338 889.914276,1739.5121 890.323642,1737.84739 C890.733707,1736.18338 890.939089,1734.6039 890.939089,1733.10895 C890.939089,1730.64856 890.552776,1728.75541 889.781547,1727.42882 C889.009619,1726.10222 887.611068,1725.43927 885.585195,1725.43927 L885.585195,1725.43927 Z M933.626332,1726.59681 C932.661597,1726.3558 931.709436,1726.12667 930.768453,1725.90941 C929.828169,1725.69285 928.441494,1725.58387 926.608428,1725.58387 C925.932904,1725.58387 925.185426,1725.64465 924.365297,1725.76481 C923.545168,1725.88566 922.870342,1726.01839 922.339424,1726.163 L915.32152,1755.39285 L904.54108,1755.39285 L913.222995,1719.36165 C915.297768,1718.68682 917.624728,1718.04763 920.205271,1717.44475 C922.785815,1716.84188 925.691895,1716.5401 928.923512,1716.5401 C930.129255,1716.5401 931.467729,1716.64838 932.938932,1716.86563 C934.410135,1717.08289 935.700407,1717.43218 936.809747,1717.9149 L933.626332,1726.59681 L933.626332,1726.59681 Z M936.08672,1740.48871 C936.08672,1737.4017 936.628815,1734.41109 937.714404,1731.51689 C938.799992,1728.62268 940.331273,1726.05472 942.308944,1723.81159 C944.286616,1721.56845 946.686228,1719.75984 949.50778,1718.38504 C952.329332,1717.01024 955.45267,1716.32284 958.877094,1716.32284 C960.565554,1716.32284 962.133161,1716.56455 963.579914,1717.04657 C965.027365,1717.52858 966.293187,1718.22856 967.378775,1719.14439 C968.463665,1720.06093 969.308245,1721.18284 969.911117,1722.50944 C970.513989,1723.83534 970.815774,1725.34287 970.815774,1727.03133 C970.815774,1729.73202 970.212203,1732.02336 969.00646,1733.90462 C967.800716,1735.78589 966.12483,1737.31717 963.978103,1738.49917 C961.831376,1739.68046 959.287159,1740.53691 956.344752,1741.06713 C953.403045,1741.59805 950.19518,1741.86351 946.721855,1741.86351 C947.059966,1743.88939 947.795568,1745.32426 948.92866,1746.16814 C950.06245,1747.01202 951.85919,1747.43466 954.318879,1747.43466 C955.862734,1747.43466 957.430341,1747.30193 959.022398,1747.03647 C960.613756,1746.77102 962.109409,1746.37283 963.50796,1745.84261 L964.30364,1754.30796 C962.95329,1754.83818 961.228504,1755.3209 959.130677,1755.75471 C957.032152,1756.18923 954.753394,1756.40579 952.293006,1756.40579 C949.302398,1756.40579 946.782631,1755.98385 944.732308,1755.13997 C942.682683,1754.29539 941.018673,1753.15042 939.740277,1751.70297 C938.461881,1750.25622 937.533472,1748.56776 936.955051,1746.63829 C936.37593,1744.70882 936.08672,1742.65919 936.08672,1740.48871 L936.08672,1740.48871 Z M957.14113,1724.86085 C954.680742,1724.86085 952.522139,1725.74105 950.665322,1727.50147 C948.808504,1729.26188 947.590186,1731.58954 947.011764,1734.48305 C950.002372,1734.38664 952.41386,1734.13376 954.246926,1733.72369 C956.079992,1733.31363 957.502993,1732.81904 958.515231,1732.24061 C959.528168,1731.66149 960.203692,1731.03487 960.541803,1730.35935 C960.879215,1729.68382 961.048271,1729.009 961.048271,1728.33347 C961.048271,1726.01839 959.745425,1724.86085 957.14113,1724.86085 L957.14113,1724.86085 Z" id="Imported-Layers-Copy" sketch:type="MSShapeGroup"></path>
        </g>
    </g>
</svg>