<?xml version="1.0" encoding="utf-8"?>
<!-- Generator: Adobe Illustrator 18.1.1, SVG Export Plug-In . SVG Version: 6.00 Build 0)  -->
<!DOCTYPE svg PUBLIC "-//W3C//DTD SVG 1.1//EN" "http://www.w3.org/Graphics/SVG/1.1/DTD/svg11.dtd">
<svg version="1.1" id="bitpay_wordmark" xmlns="http://www.w3.org/2000/svg" xmlns:xlink="http://www.w3.org/1999/xlink" x="0px"
	 y="0px" viewBox="116.6 16.8 86.8 30.5" enable-background="new 116.6 16.8 86.8 30.5" xml:space="preserve">
<g>
	<path id="y_2_" fill="#FFFFFF" d="M203.4,24h-4.5l-2.6,11l0,0l-0.4,1.5c-0.3,0.1-0.5,0.1-0.8,0.2c-0.5,0.1-0.9,0.1-1.4,0.1
		c-0.6,0-1-0.1-1.4-0.3c-0.3-0.2-0.6-0.4-0.7-0.7c-0.1-0.3-0.2-0.7-0.2-1.1c0-0.4,0.1-0.9,0.2-1.3l1.4-5.7l0.9-3.8l0,0h-4.6
		l-2.1,8.8c-0.3,1.1-0.4,2.1-0.4,3c0,1,0.1,1.8,0.4,2.5c0.3,0.7,0.9,1.3,1.7,1.7c0.8,0.4,1.9,0.6,3.3,0.6c1,0,1.9-0.1,2.6-0.3
		c0,0,0.1,0,0.1,0l0,0c-0.2,0.9-0.6,1.6-1.3,2.2c-0.7,0.6-1.6,0.9-2.9,0.9c-0.5,0-1.1,0-1.5-0.1l-0.9,3.7c0.6,0.1,1.3,0.1,2,0.1
		c1.4,0,2.6-0.2,3.6-0.5c1-0.3,1.9-0.8,2.7-1.4c0.7-0.6,1.4-1.4,1.9-2.4c0.5-1,0.9-2.1,1.2-3.4l3.1-13.1l0,0L203.4,24z"/>
	<path id="a_2_" fill="#FFFFFF" d="M184.5,33.4c-0.3,1.1-0.4,2.3-0.3,3.5c0.1,1.2,0.6,2.9,1,3.8h-4.4c-0.5-0.9-0.5-1.3-0.6-1.6
		c-0.6,0.5-1.2,0.8-1.9,1.1c-0.7,0.3-1.4,0.5-2.3,0.5c-1,0-1.9-0.2-2.6-0.5c-0.7-0.3-1.3-0.8-1.8-1.4c-0.5-0.6-0.8-1.3-1-2.1
		c-0.2-0.8-0.3-1.6-0.3-2.6c0-1.4,0.3-2.7,0.7-3.9c0.5-1.2,1.2-2.3,2.1-3.2c0.9-0.9,3-3,6.5-3c1.5,0,3.5,0,7,0L184.5,33.4z
		 M181.3,27.8c-2.1,0-2.5,0-3.4,0.4c-0.6,0.3-1.1,0.8-1.6,1.4c-0.4,0.5-0.8,1.2-1.1,1.9c-0.3,0.7-0.4,1.5-0.4,2.3
		c0,1,0.2,1.7,0.5,2.3s0.9,0.8,1.8,0.8c0.5,0,0.9-0.1,1.3-0.3c0.4-0.2,0.8-0.5,1.2-0.9c0-0.5,0.1-1,0.2-1.6s0.2-1.1,0.3-1.5
		L181.3,27.8"/>
	<path id="p_2_" fill="#FFFFFF" d="M169.2,30.6c0,1.5-0.3,2.8-0.7,4.1c-0.5,1.2-1.2,2.3-2,3.2c-0.9,0.9-1.9,1.6-3.1,2.1
		c-1.2,0.5-2.5,0.8-3.9,0.8c-0.7,0-1.4-0.1-2.1-0.2l-1.4,5.5h-4.5l5.2-22c0.8,0,4.8,0,6,0c1.1,0,2.1,0.2,2.9,0.5
		c0.8,0.3,1.5,0.8,2,1.4c0.5,0.6,0.9,1.3,1.2,2.1C169.1,28.8,169.2,29.7,169.2,30.6z M158.1,36.8c0.3,0.1,0.8,0.1,1.3,0.1
		c0.8,0,1.5-0.1,2.2-0.4c0.6-0.3,1.2-0.7,1.7-1.2c0.5-0.5,0.8-1.2,1.1-1.9c0.3-0.7,0.4-1.6,0.4-2.5c0-0.9-0.2-1.6-0.6-2.2
		c-0.4-0.6-1.1-0.9-2-0.9c-0.7,0-1.8,0-1.8,0L158.1,36.8z"/>
	<path id="t_2_" fill="#FFFFFF" d="M148.7,36.8c-0.6,0-1-0.1-1.4-0.3c-0.3-0.2-0.6-0.4-0.7-0.7c-0.1-0.3-0.2-0.7-0.2-1.1
		s0.1-0.9,0.2-1.3l1.4-5.7h5.1l0.9-3.8h-5.2l1.2-4.8l-4.8,0.8l-3,12.9c-0.3,1.1-0.4,2.1-0.4,3c0,1,0.1,1.8,0.4,2.5
		c0.3,0.7,0.9,1.3,1.7,1.7c0.8,0.4,1.9,0.6,3.3,0.6c1,0,1.9-0.1,2.6-0.3c0.1,0,0.2,0,0.3-0.1l0.9-3.9c-0.3,0.1-0.6,0.2-0.9,0.2
		C149.6,36.8,149.2,36.8,148.7,36.8z"/>
	<polygon id="i_bottom_6_" fill="#FFFFFF" points="137.2,24 133.2,40.7 137.7,40.7 141.7,24 	"/>
	<polygon id="i_top_2_" fill="#FFFFFF" points="142.1,22 142.8,19.1 138.3,19.1 137.6,22 	"/>
	<path id="b_2_" fill="#FFFFFF" d="M127.2,24c1,0,1.8,0.2,2.5,0.5s1.3,0.8,1.8,1.4c0.5,0.6,0.8,1.3,1,2.1s0.3,1.6,0.3,2.5
		c0,1.4-0.3,2.7-0.8,4c-0.5,1.2-1.2,2.3-2.1,3.3s-1.9,1.6-3.2,2.2c-1.2,0.5-2.5,0.8-3.9,0.8c-0.2,0-0.5,0-1,0c-0.5,0-1,0-1.6-0.1
		c-0.6-0.1-1.2-0.2-1.9-0.4c-0.7-0.2-1.3-0.4-1.9-0.7l5.2-22l4.7-0.7l-1.9,7.8c0.4-0.2,0.8-0.3,1.2-0.4C126.3,24,126.7,24,127.2,24z
		 M123.2,37c0.7,0,1.4-0.2,2-0.5c0.6-0.3,1.2-0.8,1.6-1.4c0.5-0.6,0.8-1.2,1.1-1.9c0.3-0.7,0.4-1.5,0.4-2.3c0-1-0.2-1.7-0.5-2.3
		c-0.3-0.5-1-0.8-1.9-0.8c-0.3,0-0.6,0-1,0.1c-0.5,0.1-0.8,0.3-1.2,0.6l-2,8.3c0.6,0.1,0.8,0.1,0.9,0.1C122.8,37,123,37,123.2,37z"
		/>
</g>
</svg>
