<?xml version="1.0" encoding="UTF-8" standalone="no"?>
<svg width="114px" height="113px" viewBox="0 0 114 113" version="1.1" xmlns="http://www.w3.org/2000/svg" xmlns:xlink="http://www.w3.org/1999/xlink" xmlns:sketch="http://www.bohemiancoding.com/sketch/ns">
    <!-- Generator: Sketch 3.3 (11970) - http://www.bohemiancoding.com/sketch -->
    <title>Imported Layers</title>
    <desc>Created with Sketch.</desc>
    <defs>
        <linearGradient x1="50%" y1="2.97353316%" x2="50%" y2="100%" id="linearGradient-1">
            <stop stop-color="#517AE3" offset="0%"></stop>
            <stop stop-color="#1C2D89" offset="100%"></stop>
        </linearGradient>
    </defs>
    <g id="FINAL" stroke="none" stroke-width="1" fill="none" fill-rule="evenodd" sketch:type="MSPage">
        <g id="tour/features-copy-11" sketch:type="MSArtboardGroup" transform="translate(-663.000000, -345.000000)" fill="url(#linearGradient-1)">
            <g id="Imported-Layers" sketch:type="MSLayerGroup" transform="translate(663.569709, 345.061470)">
                <path d="M66.2169425,67.6150482 L66.139384,67.9064057 L41.882846,71.4318314 C42.1454782,72.0354749 42.2911569,72.698621 42.2911569,73.3937754 C42.2911569,73.5525858 42.2817186,73.7093443 42.2665352,73.8644614 L65.4528472,70.4941527 L65.3912928,70.7260076 L67.770986,71.3575558 L68.1021487,70.1092325 L104.130761,64.8730047 C103.878798,64.280441 103.738044,63.632068 103.738044,62.952097 C103.738044,62.7785136 103.747072,62.606982 103.765128,62.4379126 L66.8985549,67.7964285 L66.2169425,67.6150482 Z M56.8257926,103.002263 L56.4572869,104.39011 C57.3202796,104.398728 58.1332081,104.612116 58.8468288,104.983494 L59.2054858,103.633812 L56.8257926,103.002263 Z M10.2377281,48.0136645 L8.63279967,48.2648064 C8.91020484,48.8828126 9.06655302,49.5631939 9.06655302,50.2792768 C9.06655302,50.4188001 9.05670431,50.5558613 9.04480379,50.692512 L10.6185447,50.4462944 L10.2377281,48.0136645 Z M104.331018,65.2870607 L59.5062816,105.396319 C60.1817386,105.887523 60.7287521,106.532203 61.0943852,107.279474 L105.988062,67.1082503 C105.29496,66.6420782 104.724556,66.0170959 104.331018,65.2870607 Z M8.40381729,47.8183318 L53.9553057,7.99058207 L44.2502283,42.6945434 L42.7171134,42.9341952 L43.0975196,45.3668252 L43.5214242,45.3003464 L37.0774991,68.3426212 C37.0828338,68.3426212 37.0877581,68.3418005 37.0930929,68.3418005 C37.9519819,68.3418005 38.7612172,68.5490336 39.4756586,68.909332 L46.1949371,44.8821869 L46.2281764,44.8772625 L46.2170967,44.8038076 L56.3633139,8.52118102 C54.6032684,8.50845977 53.0492249,7.6417738 52.118112,6.32615105 L6.69260492,46.0439236 C7.40048054,46.4912189 7.98976135,47.1001971 8.40381729,47.8183318 Z M57.0851418,8.47439967 L58.6498547,11.3703291 L60.1628619,10.5528866 L61.6615064,12.2247042 L59.688893,13.2916472 L61.3504515,16.3652636 L63.5159354,15.1940885 L62.290182,12.926014 L100.596307,55.6595419 L99.7460355,55.0591813 L98.3253599,57.0699584 L100.912697,58.8981241 L102.053094,57.2845781 L103.408522,58.7971749 L102.530346,60.0405738 L104.088904,61.1415769 C104.535378,60.0167728 105.379905,59.082377 106.459159,58.5115625 L60.201436,6.90763497 C59.3987666,7.74559555 58.3096641,8.31723077 57.0851418,8.47439967 Z M54.8285575,104.625658 L40.394871,77.2930416 C39.7588088,77.8023017 38.996355,78.1671141 38.1616773,78.3374146 L50.3133369,101.348912 L11.3559664,57.0917076 L32.233578,71.616905 C32.5360153,70.8380366 33.0296816,70.1519102 33.6604091,69.6102315 L8.66562868,52.2215234 C8.17073129,53.3725907 7.2470049,54.304114 6.09224432,54.8388165 L51.9174446,106.897836 C52.5608933,105.829252 53.5933658,105.008116 54.8285575,104.625658 Z M12.1943374,47.7075339 L12.5751539,50.1401639 L15.7054004,49.6506012 L15.3249942,47.2179712 L12.1943374,47.7075339 Z M47.8039691,42.138502 L48.1847857,44.571132 L51.3154426,44.0815693 L50.934626,41.6489393 L47.8039691,42.138502 Z M63.0657675,39.7518327 L63.4465841,42.1844626 L66.5772409,41.6948999 L66.1964244,39.26227 L63.0657675,39.7518327 Z M69.2417258,38.7858389 L68.1526233,38.9565498 L68.5334398,41.3887694 L69.9426253,41.1684046 C69.4982025,40.5064896 69.2372118,39.7177726 69.2372118,38.8703736 C69.2372118,38.8416482 69.2409051,38.8141539 69.2417258,38.7858389 Z M17.2816035,46.912251 L17.6620097,49.344881 L20.7926666,48.8553183 L20.41185,46.4226884 L17.2816035,46.912251 Z M52.8912353,41.3428088 L53.2720518,43.7754387 L56.4022983,43.285876 L56.0218921,40.8536564 L52.8912353,41.3428088 Z M57.9785014,40.5475259 L58.3593179,42.9801558 L61.4895645,42.4901828 L61.1087479,40.0579632 L57.9785014,40.5475259 Z M41.1413207,45.6725454 L40.7605041,43.2403258 L37.6298472,43.7298885 L38.0106638,46.1625184 L41.1413207,45.6725454 Z M35.6736484,44.0356087 L32.5429915,44.5251713 L32.9238081,46.9578013 L36.0544649,46.4682386 L35.6736484,44.0356087 Z M22.3684592,46.1165578 L22.7492758,48.5491878 L25.8799327,48.0596251 L25.4991161,45.6269951 L22.3684592,46.1165578 Z M27.4561357,45.3208646 L27.8365419,47.7534945 L30.9667884,47.2639318 L30.5863822,44.8313019 L27.4561357,45.3208646 Z M74.0470728,34.6768774 L72.6538915,32.0993894 L70.4884076,33.2701542 L71.5106211,35.1611054 C72.1253444,34.8360981 72.8299371,34.6510246 73.5780282,34.6510246 C73.7368386,34.6510246 73.8931868,34.6604629 74.0470728,34.6768774 Z M66.7500036,26.3547223 L68.9158978,25.1835472 L67.2543394,22.1099307 L65.0884451,23.2806955 L66.7500036,26.3547223 Z M69.4497797,31.3492465 L71.6156739,30.1780714 L69.9541154,27.1044549 L67.7886316,28.27563 L69.4497797,31.3492465 Z M66.2161218,20.1890231 L64.5545633,17.1149962 L62.3886691,18.2861713 L64.0502276,21.3597878 L66.2161218,20.1890231 Z M77.2996074,42.2185227 L79.8873544,44.0462781 L81.3076196,42.0350906 L78.7198726,40.2073352 L77.2996074,42.2185227 Z M85.7095801,48.1589328 L88.2973272,49.9870986 L89.7184131,47.9763215 L87.1306661,46.1481557 L85.7095801,48.1589328 Z M81.5045937,45.1887278 L84.0927511,47.0168935 L85.5130164,45.005706 L82.924859,43.1779507 L81.5045937,45.1887278 Z M89.9149768,51.1295483 L92.5023135,52.9573036 L93.9233995,50.9465265 L91.3356524,49.1183608 L89.9149768,51.1295483 Z M94.1199632,54.0997533 L96.7081206,55.9275087 L98.1283858,53.9167316 L95.5406388,52.0889762 L94.1199632,54.0997533 Z M64.0494068,75.7812655 L66.4291,76.4128136 L67.2547497,73.3018542 L64.8750566,72.670306 L64.0494068,75.7812655 Z M57.3416185,101.057555 L59.7213117,101.689513 L60.5469614,98.5785537 L58.1672682,97.9470055 L57.3416185,101.057555 Z M60.0249801,90.947039 L62.4042629,91.5785871 L63.2299126,88.468038 L60.8502194,87.8364899 L60.0249801,90.947039 Z M62.7083416,80.8365233 L65.0876244,81.4680715 L65.9132741,78.3575224 L63.533581,77.7259742 L62.7083416,80.8365233 Z M58.6830941,96.0027072 L61.0627873,96.6342553 L61.888437,93.5232959 L59.5087438,92.8917477 L58.6830941,96.0027072 Z M61.3664557,85.8921915 L63.7461488,86.5237397 L64.5717985,83.4127802 L62.1921054,82.7808217 L61.3664557,85.8921915 Z M66.7327684,65.6707498 L69.1124616,66.302298 L69.9381113,63.1913385 L67.5584181,62.5597903 L66.7327684,65.6707498 Z M70.7576055,50.5049763 L73.1372987,51.1365244 L73.9629484,48.025565 L71.5832553,47.3940168 L70.7576055,50.5049763 Z M72.7466335,43.009702 L72.0990811,45.4497184 L74.4787743,46.0812666 L75.304424,42.9703071 L74.9396116,42.8734616 C74.511193,43.0117538 74.0536386,43.0893123 73.5780282,43.0893123 C73.2932365,43.0893123 73.0158314,43.0605869 72.7466335,43.009702 Z M69.4157196,55.5602341 L71.7954128,56.1917823 L72.6210625,53.0808228 L70.2413693,52.4492747 L69.4157196,55.5602341 Z M68.0746544,60.615492 L70.4543475,61.2470401 L71.2799972,58.1360807 L68.9003041,57.5045325 L68.0746544,60.615492 Z M108.936108,59.5415728 C106.974984,59.5415728 105.379494,61.0718153 105.379494,62.952097 C105.379494,64.8327892 106.974984,66.3626213 108.936108,66.3626213 C110.897231,66.3626213 112.492721,64.8327892 112.492721,62.952097 C112.492721,61.0718153 110.897231,59.5415728 108.936108,59.5415728 Z M56.4022983,6.88178212 C58.3634216,6.88178212 59.9585013,5.35153969 59.9585013,3.4712579 C59.9585013,1.59056574 58.3634216,0.0607336764 56.4022983,0.0607336764 C54.4411751,0.0607336764 52.845685,1.59056574 52.845685,3.4712579 C52.845685,5.35153969 54.4411751,6.88178212 56.4022983,6.88178212 Z M7.4251023,50.2792768 C7.4251023,48.3985847 5.82961221,46.8687526 3.86848897,46.8687526 C1.90777609,46.8687526 0.312285998,48.3985847 0.312285998,50.2792768 C0.312285998,52.1595586 1.90777609,53.689801 3.86848897,53.689801 C5.82961221,53.689801 7.4251023,52.1595586 7.4251023,50.2792768 Z M56.4022983,106.028688 C54.4411751,106.028688 52.845685,107.55852 52.845685,109.439212 C52.845685,111.319494 54.4411751,112.849737 56.4022983,112.849737 C58.3634216,112.849737 59.9585013,111.319494 59.9585013,109.439212 C59.9585013,107.55852 58.3634216,106.028688 56.4022983,106.028688 Z M40.6497062,73.3937754 C40.6497062,71.5134936 39.0542161,69.9832512 37.0930929,69.9832512 C35.13238,69.9832512 33.5368899,71.5134936 33.5368899,73.3937754 C33.5368899,75.2744676 35.13238,76.8042996 37.0930929,76.8042996 C39.0542161,76.8042996 40.6497062,75.2744676 40.6497062,73.3937754 Z M76.5482333,38.8703736 C76.5482333,37.2995053 75.2157857,36.0220463 73.5780282,36.0220463 C71.9402708,36.0220463 70.6078232,37.2995053 70.6078232,38.8703736 C70.6078232,40.4408316 71.9402708,41.7182906 73.5780282,41.7182906 C75.2157857,41.7182906 76.5482333,40.4408316 76.5482333,38.8703736 Z" id="Fill-1" sketch:type="MSShapeGroup"></path>
            </g>
        </g>
    </g>
</svg>