<?xml version="1.0" encoding="utf-8"?>
<!-- Generator: Adobe Illustrator 18.1.1, SVG Export Plug-In . SVG Version: 6.00 Build 0)  -->
<!DOCTYPE svg PUBLIC "-//W3C//DTD SVG 1.1//EN" "http://www.w3.org/Graphics/SVG/1.1/DTD/svg11.dtd">
<svg version="1.1" id="Layer_1" xmlns="http://www.w3.org/2000/svg" xmlns:xlink="http://www.w3.org/1999/xlink" x="0px" y="0px"
	 viewBox="0 0 100 100" enable-background="new 0 0 100 100" xml:space="preserve">
<path fill="#FFFFFF" d="M70.5,22c-0.2-0.2-0.5-0.3-0.8-0.3c-0.3,0-0.6,0.1-0.9,0.3L41.6,56.9c0,0-10.7-10.3-11-10.6
	c-0.3-0.3-0.7-0.8-1.3-0.8c-0.6,0-0.9,0.4-1.2,0.7c-0.2,0.2-4,4.2-5.9,6.2c-0.1,0.1-0.2,0.2-0.3,0.3c-0.2,0.2-0.3,0.5-0.3,0.8
	c0,0.3,0.1,0.5,0.3,0.8l0.4,0.4c0,0,19,18.2,19.3,18.5c0.3,0.3,0.7,0.7,1.3,0.7c0.5,0,1-0.6,1.3-0.8L78,29.6
	c0.2-0.2,0.3-0.5,0.3-0.8c0-0.3-0.1-0.6-0.3-0.9L70.5,22z"/>
</svg>
