<?xml version="1.0" encoding="UTF-8" standalone="no"?>
<svg width="227px" height="99px" viewBox="0 0 227 99" version="1.1" xmlns="http://www.w3.org/2000/svg" xmlns:xlink="http://www.w3.org/1999/xlink" xmlns:sketch="http://www.bohemiancoding.com/sketch/ns">
    <!-- Generator: Sketch 3.3.1 (12002) - http://www.bohemiancoding.com/sketch -->
    <title>copay-black-and-white</title>
    <desc>Created with Sketch.</desc>
    <defs></defs>
    <g id="Page-1" stroke="none" stroke-width="1" fill="none" fill-rule="evenodd" sketch:type="MSPage">
        <g id="developers-copy-11" sketch:type="MSArtboardGroup" transform="translate(-259.000000, -1686.000000)" fill="#2C3E50">
            <g id="copay-black-and-white" sketch:type="MSLayerGroup" transform="translate(259.000000, 1686.159726)">
                <path d="M222.635781,11.1754601 C221.029506,11.3576687 219.33231,11.7220859 217.513885,12.2990798 C216.938051,12.4812883 216.42283,12.8457055 215.937917,13.3315951 C215.453004,13.8478528 215.059012,14.242638 214.755941,14.5766871 C214.45287,14.9107362 214.1498,15.4877301 213.816422,16.3380368 C213.483044,17.1883436 213.240587,17.8260736 213.089052,18.3119632 C212.937517,18.7674847 212.69506,19.6481595 212.361682,20.9236196 C211.997997,22.1990798 211.755541,23.1708589 211.543391,23.8389571 C210.118959,28.6674847 207.845928,33.5567485 204.754606,38.5674847 C201.663284,43.5782209 198.965955,46.1898773 196.662617,46.4328221 C195.450334,46.5542945 194.722964,45.5521472 194.480507,43.3656442 C194.025901,39.2659509 194.874499,34.1033742 196.935381,27.847546 C199.026569,21.5917178 201.238985,17.1883436 203.633244,14.6070552 C203.966622,14.1819018 204.148465,13.8478528 204.118158,13.5745399 C204.08785,13.3315951 203.936315,13.2101227 203.693858,13.2404908 C200.299466,13.604908 197.66275,14.3033742 195.783712,15.3662577 C193.904673,16.398773 192.237784,18.4638037 190.692123,21.5613497 C189.510147,23.9604294 188.510013,26.9365031 187.631108,30.5503067 C183.327503,40.9058282 179.417891,46.2809816 175.90227,46.6453988 C174.750601,46.7668712 174.083845,46.0076687 173.902003,44.3374233 C173.568625,41.148773 174.538451,35.8647239 176.872096,28.5156442 C179.205741,21.1665644 181.327236,16.5202454 183.266889,14.5766871 L182.297063,14.6677914 L177.478238,15.0929448 C176.20534,15.2447853 174.871829,15.9128834 173.508011,17.1579755 C172.144192,18.4030675 171.204673,19.8 170.659146,21.348773 C169.871162,19.3748466 168.507343,18.0082822 166.628304,17.2794479 C164.718959,16.5506135 162.748999,16.2773006 160.718425,16.5202454 C156.354206,17.006135 152.535514,19.0407975 149.201736,22.6849693 C145.898264,26.298773 143.504005,30.5503067 142.049266,35.3484663 C142.018959,35.4395706 141.988652,35.5306748 141.958344,35.6217791 C141.746195,36.1076687 141.473431,36.6542945 141.230975,37.2312883 C139.594393,40.8147239 138.321495,43.3656442 137.381976,44.8840491 C135.654473,47.647546 133.563284,50.2592025 131.078104,52.6582822 C128.592924,55.057362 126.016822,56.4239264 123.380107,56.6972393 L122.62243,56.7883436 C126.501736,53.508589 129.683979,49.1659509 132.199466,43.6996933 C134.714953,38.2334356 135.715087,33.101227 135.199866,28.2119632 C134.563418,22.3205521 132.108545,19.6177914 127.80494,20.0733129 C123.258879,20.5592025 118.409746,25.1144172 113.318158,33.6782209 C115.833645,26.9365031 117.95514,22.8064417 119.682644,21.348773 L116.803471,21.652454 C113.015087,22.0472393 110.438985,23.1101227 109.075167,24.8107362 C108.408411,25.7217791 107.438585,28.2423313 106.256609,32.4027607 C105.83231,33.8907975 105.256475,36.0773006 104.498798,38.9319018 C102.225768,44.1552147 99.5284379,46.9187117 96.4068091,47.2527607 C94.6186916,47.4349693 93.1639519,46.9187117 92.0425901,45.6736196 C93.0124166,42.1205521 93.3457944,38.8407975 93.0124166,35.7432515 C92.1335113,27.6653374 87.8905207,24.0515337 80.2531375,24.8714724 C75.7070761,25.357362 71.7368491,27.3312883 68.3727637,30.8236196 C66.3421896,32.9190184 64.6753004,35.1966258 63.4024032,37.6564417 C63.4024032,37.6260736 63.4327103,37.5957055 63.4327103,37.5653374 C60.3413885,43.3656442 55.0073431,53.4478528 48.3094793,59.2177914 C41.6116155,64.9877301 35.0046729,68.2371166 28.5189586,68.9355828 C18.1236315,70.0592025 12.3046729,64.9269939 11.0923899,53.5389571 C10.3044059,46.1898773 11.4257677,38.7193252 14.4867824,31.1880368 C17.5477971,23.6263804 21.9423231,17.2794479 27.6703605,12.1472393 C33.3983979,7.01503067 39.5507343,4.06932515 46.0970628,3.3404908 C51.0371162,2.79386503 53.7041389,4.40337423 54.0981308,8.10828221 C54.3708945,10.5377301 53.5222964,12.7242331 51.5826435,14.6981595 C49.6429907,16.6417178 47.4305741,17.7653374 44.9453939,18.0386503 C44.0361816,18.1297546 43.2178905,18.0993865 42.4905207,17.9171779 C41.823765,19.1015337 41.5510013,20.1644172 41.6722296,21.1058282 C41.7631509,22.0776074 42.3086782,22.8064417 43.2785047,23.3226994 C44.2483311,23.8389571 45.4303071,24.0211656 46.8547397,23.8693252 C49.8551402,23.5352761 52.6736983,22.3205521 55.2801068,20.2251534 C57.8865154,18.1297546 59.5534045,15.7306748 60.2807744,12.9671779 C60.6444593,11.5095092 60.7656876,10.203681 60.6444593,9.04969325 C60.3110814,5.92177914 58.4623498,3.49233129 55.0982644,1.82208589 C51.7341789,0.151840491 47.0971963,-0.364417178 41.2176235,0.273312883 C35.3077437,0.911042945 29.5190921,3.15828221 23.7910547,7.01503067 C18.0630174,10.8717791 13.4563418,15.4877301 9.97102804,20.8932515 C6.45540721,26.298773 3.84899866,32.0079755 2.09118825,38.051227 C0.333377837,44.0944785 -0.242456609,49.7733129 0.333377837,55.0877301 C1.84873164,69.1177914 10.1225634,75.3128834 25.2154873,73.6730061 C31.7012016,72.9745399 37.9141522,71.0309816 43.8543391,67.8119632 C49.794526,64.6233129 54.6133511,60.645092 58.2502003,55.9684049 C58.8260347,55.2092025 59.341255,54.4803681 59.8564753,53.7819018 C59.8867824,54.3285276 59.9170895,54.8447853 59.9777036,55.391411 C60.4020027,59.4 61.735514,62.2546012 63.9782377,63.9855828 C66.2209613,65.7165644 68.9182911,66.4150307 72.1308411,66.0506135 C77.1315087,65.5039877 81.0714286,63.742638 83.9809079,60.7969325 C86.8903872,57.851227 89.224032,53.9337423 91.0424566,49.1659509 C92.7093458,50.2288344 94.6186916,50.6236196 96.770494,50.3806748 C98.6192256,50.1680982 100.498264,49.2266871 102.437917,47.4957055 C101.498398,51.352454 100.43765,55.8165644 99.2253672,60.948773 C95.7097463,75.8595092 93.2548732,84.6358896 91.8304406,87.247546 L96.4371162,86.7616564 C97.7100134,86.609816 98.770761,86.3365031 99.558745,85.9417178 C100.346729,85.5165644 101.043792,84.7269939 101.589319,83.542638 C102.134846,82.3582822 102.862216,79.807362 103.741121,75.8898773 L107.317356,58.5193252 C108.438718,61.5865031 112.04526,62.7708589 118.227904,62.1027607 C124.38024,61.4346626 129.502136,58.9141104 133.563284,54.5107362 C136.078772,51.8079755 138.382109,48.4978528 140.533912,44.6411043 C140.473298,46.1898773 140.533912,47.7386503 140.685447,49.2874233 C141.321896,55.1788344 143.776769,57.8815951 148.080374,57.4260736 C154.293324,56.7579755 160.385047,49.5607362 166.294927,35.8343558 C165.355407,39.8125767 165.112951,43.7907975 165.53725,47.7690184 C166.113084,53.0834356 168.113351,55.5432515 171.598665,55.1788344 C176.053805,54.6929448 180.902937,49.4696319 186.146061,39.5392638 C185.873298,41.9079755 185.812684,43.8819018 185.964219,45.4306748 C186.206676,48.1030675 186.934045,50.0466258 188.116021,51.3220859 C189.297997,52.597546 190.72243,53.1138037 192.419626,52.9315951 C194.116822,52.7493865 195.571562,52.3849693 196.783845,51.8687117 C197.996128,51.352454 199.602403,50.0162577 201.60267,47.8904908 C203.602937,45.7647239 205.906275,42.6368098 208.542991,38.5371166 L204.633378,53.7211656 C202.117891,63.3782209 198.238585,68.5104294 193.056075,69.0570552 C191.722563,69.2088957 190.570895,68.9659509 189.631375,68.2978528 C188.691856,67.6601227 188.146328,66.7187117 188.0251,65.5039877 C187.782644,63.1960123 188.206943,61.7990798 189.328304,61.2828221 C188.934312,60.6754601 188.328171,60.1592025 187.50988,59.7340491 C186.691589,59.3088957 185.721762,59.1570552 184.600401,59.2785276 C183.479039,59.4 182.539519,60.0680982 181.81215,61.2828221 C181.054473,62.497546 180.781709,63.8033742 180.933244,65.2306748 C181.236315,67.9334356 182.569826,69.7555215 184.994393,70.7576687 C187.418959,71.759816 190.20721,72.093865 193.41976,71.7294479 C196.63231,71.3953988 199.723632,70.241411 202.693725,68.358589 C205.663818,66.4453988 208.058077,64.0766871 209.906809,61.2220859 C211.755541,58.3674847 213.21028,54.6018405 214.331642,49.9555215 C214.755941,48.4067485 215.271162,46.2506135 215.90761,43.4263804 C216.544059,40.6021472 216.968358,38.8407975 217.119893,38.1119632 C217.301736,37.3831288 217.786649,35.3180982 218.60494,31.8865031 C219.392924,28.454908 220.423364,24.6588957 221.665955,20.4377301 C223.211615,15.4269939 224.908812,12.1776074 226.757543,10.7503067 L222.635781,11.1754601 L222.635781,11.1754601 Z M87.617757,33.7389571 C86.011482,33.9211656 84.7991989,34.5588957 83.9809079,35.6825153 C83.1626168,36.806135 82.829239,38.2334356 83.0413885,39.9644172 C83.3444593,42.7886503 84.6779706,45.0055215 87.0722296,46.6150307 C85.8599466,50.3199387 84.2233645,53.7515337 82.1927904,56.909816 C80.1622163,60.0680982 77.7679573,61.7990798 75.0100134,62.1027607 C71.6459279,62.2849693 69.7668892,60.4325153 69.3425901,56.606135 C68.9182911,52.7797546 69.6153538,48.3460123 71.4337784,43.3656442 C74.7372497,34.3159509 78.6165554,29.5785276 83.0413885,29.092638 C85.8599466,28.7889571 87.5874499,30.307362 88.1935915,33.6782209 L87.617757,33.7389571 L87.617757,33.7389571 Z M112.105874,58.4889571 C110.257143,58.7015337 109.166088,57.2742331 108.83271,54.2677914 C108.499332,51.2613497 109.56008,47.2223926 112.014953,42.1812883 C114.469826,37.140184 116.894393,33.4352761 119.288652,31.0969325 C120.743391,29.6392638 122.167824,28.8496933 123.501335,28.6978528 C123.895327,28.6674847 124.168091,28.6674847 124.38024,28.6978528 C125.380374,28.8496933 125.956208,29.7303681 126.138051,31.3398773 C126.532043,35.0447853 125.137917,40.4199387 121.925367,47.4349693 C118.712817,54.45 115.439653,58.1245399 112.105874,58.4889571 L112.105874,58.4889571 Z M163.142991,37.140184 C161.657944,40.1466258 159.900134,42.8190184 157.869559,45.1269939 C155.838985,47.4349693 153.990254,48.7104294 152.323364,48.892638 C150.777704,49.0444785 149.898798,48.1638037 149.686649,46.1595092 C149.201736,41.5435583 150.626168,36.1076687 153.959947,29.8214724 C157.293725,23.5352761 161.082109,20.1644172 165.3251,19.7088957 C167.689052,19.4659509 169.325634,20.3162577 170.174232,22.290184 C168.780107,25.4788344 166.446462,30.4288344 163.142991,37.140184 L163.142991,37.140184 Z" id="Shape" sketch:type="MSShapeGroup"></path>
                <g id="Group" transform="translate(26.973298, 71.061350)" sketch:type="MSShapeGroup">
                    <path d="M64.3116155,0.242944785 C42.4602136,3.97822086 21.487717,9.26226994 6.69786382,15.3358896 C0.515220294,17.8564417 -1.03044059,22.9279141 0.909212283,27.6957055 C26.0337784,16.2165644 38.4899866,12.9671779 56.8560748,8.41196319 C60.0989319,7.59202454 62.7053405,5.16257669 63.7660881,1.97392638 C63.9479306,1.36656442 64.129773,0.789570552 64.3116155,0.242944785 L64.3116155,0.242944785 Z" id="Shape"></path>
                </g>
                <path d="M173.053405,68.8141104 C173.689853,66.0809816 172.962483,65.9595092 170.174232,65.5647239 C154.929773,63.3478528 138.16996,63.4996933 117.985447,67.8423313 C114.591055,68.5711656 111.802804,70.9398773 111.257276,74.4018405 C111.257276,74.4018405 136.593992,66.0506135 173.053405,68.8141104 L173.053405,68.8141104 L173.053405,68.8141104 Z" id="Shape" sketch:type="MSShapeGroup"></path>
            </g>
        </g>
    </g>
</svg>