<?xml version="1.0" encoding="UTF-8" standalone="no"?>
<svg width="96px" height="109px" viewBox="0 0 96 109" version="1.1" xmlns="http://www.w3.org/2000/svg" xmlns:xlink="http://www.w3.org/1999/xlink" xmlns:sketch="http://www.bohemiancoding.com/sketch/ns">
    <!-- Generator: Sketch 3.3 (11970) - http://www.bohemiancoding.com/sketch -->
    <title>Imported Layers</title>
    <desc>Created with Sketch.</desc>
    <defs>
        <linearGradient x1="50%" y1="2.97353316%" x2="50%" y2="100%" id="linearGradient-1">
            <stop stop-color="#517AE3" offset="0%"></stop>
            <stop stop-color="#1C2D89" offset="100%"></stop>
        </linearGradient>
    </defs>
    <g id="FINAL" stroke="none" stroke-width="1" fill="none" fill-rule="evenodd" sketch:type="MSPage">
        <g id="tour/features-copy-11" sketch:type="MSArtboardGroup" transform="translate(-971.000000, -349.000000)" fill="url(#linearGradient-1)">
            <g id="Imported-Layers" sketch:type="MSLayerGroup" transform="translate(971.409392, 348.870412)">
                <path d="M46.5597417,12.9488893 L47.7396642,12.9488893 L47.7396642,14.915849 L46.5597417,14.915849 L46.5597417,12.9488893 Z M46.5597417,22.0173604 C46.8142116,21.9453696 47.082054,21.9048503 47.3601224,21.9048503 C47.4891273,21.9048503 47.615379,21.9158652 47.7396642,21.9319943 L47.7396642,20.0299443 L46.5597417,20.0299443 L46.5597417,22.0173604 Z M46.5597417,16.4894168 L47.7396642,16.4894168 L47.7396642,18.4563765 L46.5597417,18.4563765 L46.5597417,16.4894168 Z M46.5597417,9.40836175 L47.7396642,9.40836175 L47.7396642,11.3753215 L46.5597417,11.3753215 L46.5597417,9.40836175 Z M12.4650946,27.8812607 L10.509963,28.0944791 L10.6373946,29.2675739 L12.5925262,29.0543555 L12.4650946,27.8812607 Z M38.6613405,25.0275955 L38.7887721,26.2010837 L40.7439037,25.9878653 L40.6164721,24.8147705 L38.6613405,25.0275955 Z M15.9836234,27.4977035 L14.0284919,27.710922 L14.1563168,28.8844101 L16.1114484,28.6711917 L15.9836234,27.4977035 Z M23.0214678,26.731376 L21.0667295,26.9442011 L21.1941612,28.1176892 L23.1492928,27.9048642 L23.0214678,26.731376 Z M19.5025456,27.1149332 L17.5474141,27.3277582 L17.675239,28.500853 L19.6299773,28.288028 L19.5025456,27.1149332 Z M26.5407833,26.3482123 L24.5856517,26.5610373 L24.7130834,27.7341321 L26.6682149,27.5213071 L26.5407833,26.3482123 Z M42.1802627,24.6440384 L42.3080876,25.8175265 L44.2628259,25.6047015 L44.1353943,24.4312133 L42.1802627,24.6440384 Z M33.5786277,25.581098 L31.6234961,25.7943164 L31.7513211,26.9678046 L33.7060593,26.7545862 L33.5786277,25.581098 Z M37.0971566,25.1983276 L35.1424183,25.4111527 L35.2698499,26.5842474 L37.2249815,26.3714224 L37.0971566,25.1983276 Z M78.3661258,27.3989622 L78.2426272,28.5732371 L80.1977588,28.7793745 L80.3216507,27.6062797 L78.3661258,27.3989622 Z M74.7217385,28.2018751 L76.6776567,28.4080125 L76.8011553,27.2341309 L74.8456304,27.0276002 L74.7217385,28.2018751 Z M50.0806304,25.599194 L52.0365486,25.8065116 L52.1600472,24.63263 L50.2186813,24.4276728 C50.2277274,24.516186 50.2328404,24.6058794 50.2328404,24.6963595 C50.2328404,25.0055656 50.178564,25.3025765 50.082597,25.5807046 L50.0806304,25.599194 Z M60.7648286,25.540972 L60.6413301,26.7148536 L62.5972482,26.9213843 L62.7207468,25.7471094 L60.7648286,25.540972 Z M55.6805426,25.0035986 L53.7246244,24.7974612 L53.6011258,25.9713428 L55.5566507,26.1778736 L55.6805426,25.0035986 Z M81.8866212,27.7711109 L81.7627293,28.9449925 L83.7182542,29.1515233 L83.8417528,27.9772483 L81.8866212,27.7711109 Z M57.2447265,25.1688232 L57.1208346,26.3427048 L59.0767528,26.549629 L59.2006447,25.3761408 L57.2447265,25.1688232 Z M73.1575546,28.0362571 L73.2814464,26.8627689 L71.3255283,26.6558448 L71.2016364,27.8293329 L73.1575546,28.0362571 Z M51.7584802,33.5622338 L52.7669206,35.250672 L53.7804741,34.6452418 L52.7716403,32.9568036 L51.7584802,33.5622338 Z M48.5258859,27.2455393 L48.1270721,27.4835414 L49.1359058,29.1719797 L50.1490659,28.5665495 L49.142592,26.8816518 C48.954591,27.0268134 48.7477113,27.1491583 48.5258859,27.2455393 Z M67.2960929,57.2719663 L66.2825395,57.8773965 L67.2913732,59.5658347 L68.3045334,58.9604045 L67.2960929,57.2719663 Z M70.1200408,61.9993573 L69.1116003,60.3113124 L68.0984402,60.9167426 L69.1068807,62.6051809 L70.1200408,61.9993573 Z M69.9139476,63.9556954 L70.9223881,65.644527 L71.9359415,65.0390968 L70.9271078,63.3502652 L69.9139476,63.9556954 Z M73.7239174,68.0320227 L72.7426152,66.3900048 L71.7294551,66.995435 L72.7017112,68.6228974 C72.9935454,68.3616852 73.3400493,68.1586949 73.7239174,68.0320227 Z M49.9429728,30.5228876 L50.9514132,32.2117192 L51.9645733,31.606289 L50.9561329,29.9174574 L49.9429728,30.5228876 Z M55.389495,39.6413195 L56.3983288,41.3297577 L57.4114889,40.7239341 L56.4030485,39.0358893 L55.389495,39.6413195 Z M59.2269963,43.7636737 L58.2177693,42.074842 L57.2050024,42.6802723 L58.2138362,44.3691039 L59.2269963,43.7636737 Z M61.0421104,46.8030198 L60.03367,45.1145816 L59.0205099,45.7200118 L60.0289503,47.40845 L61.0421104,46.8030198 Z M62.8576178,49.8419726 L61.8491774,48.1535344 L60.8360173,48.7589646 L61.8444577,50.4474028 L62.8576178,49.8419726 Z M75.9441382,65.8380759 L75.2031469,67.6602673 L76.2965417,68.1051936 L77.0371398,66.2830021 L75.9441382,65.8380759 Z M87.7087521,40.0473 L86.6157506,39.6023737 L85.8743659,41.4241718 L86.9673675,41.8690981 L87.7087521,40.0473 Z M78.611943,59.279052 L77.8709516,61.1012435 L78.9643465,61.5461697 L79.7049445,59.7239783 L78.611943,59.279052 Z M81.8728554,51.2625109 L82.9662503,51.7074372 L83.7068483,49.8856391 L82.6138468,49.4407128 L81.8728554,51.2625109 Z M78.3712388,63.0036869 L77.2782372,62.5587606 L76.5372459,64.3805587 L77.6302475,64.825485 L78.3712388,63.0036869 Z M86.3746531,43.3266152 L85.2816515,42.8816889 L84.5402669,44.7038804 L85.6336617,45.1488067 L86.3746531,43.3266152 Z M88.3014665,38.5897828 L89.0428511,36.7675913 L87.9494563,36.322665 L87.2080717,38.1448565 L88.3014665,38.5897828 Z M85.0409473,46.6063239 L83.9479458,46.1613976 L83.2065612,47.9831957 L84.2995627,48.428122 L85.0409473,46.6063239 Z M86.7298097,79.0643064 L67.5143786,80.4761901 L68.416626,79.3503024 L67.4954998,78.6119057 L66.2660206,80.1465277 L66.7470357,80.5324452 L50.0436595,81.759828 L49.1484916,81.8255245 L48.7772094,81.8526685 L55.5102404,70.5273078 L55.5102404,71.2637376 L57.4767779,71.2637376 L57.4767779,70.0835617 L55.7737565,70.0835617 L64.6530665,55.1484365 L65.4758658,56.5260951 L66.4890259,55.9206649 L65.4801922,54.2322267 L65.0416544,54.4946191 L73.8690479,39.6464336 C73.3431957,39.5028455 72.8786996,39.2176364 72.5211831,38.8352594 L64.4210151,52.4596026 L63.6646848,51.1932739 L62.6515247,51.7987041 L63.6599651,53.4871424 L63.8931965,53.3478816 L53.9370104,70.0949701 L53.9370104,70.0835617 L51.9704729,70.0835617 L51.9704729,71.2637376 L53.2420361,71.2637376 L47.3286578,81.2106529 L41.3932544,71.2637376 L43.317708,71.2637376 L43.317708,70.0835617 L41.3511705,70.0835617 L41.3511705,71.192927 L30.412109,52.8612558 L31.3001974,51.4147536 L30.2945101,50.7971282 L29.7297205,51.717272 L22.171137,39.0508382 C21.7738964,39.391909 21.2799022,39.6271574 20.7339914,39.7133102 L45.8801063,81.8538487 L45.5686068,81.831032 L44.6742255,81.7661223 L8.67125042,79.1516394 C8.68186972,79.2810654 8.69170241,79.4104913 8.69170241,79.5422776 C8.69170241,79.9494383 8.63309959,80.3424369 8.5339861,80.7196997 L27.4670225,82.0946046 L28.2685832,83.0627422 L29.1775168,82.30979 L29.0968887,82.2130156 L44.5523002,83.3353628 L45.4451082,83.3998791 L46.5432228,83.4797376 L46.5432228,100.218958 C46.7520691,100.192601 46.9636685,100.174505 47.1795943,100.174505 C47.5001399,100.174505 47.8128194,100.20637 48.1164528,100.263805 L48.1164528,83.4793442 L49.2771032,83.3939782 L50.1695179,83.3282817 L64.5637857,82.2708442 L64.0520927,82.9093193 L64.9724322,83.647716 L66.1704469,82.1528266 L86.2145769,80.6799671 L51.5885714,100.67608 L50.4247745,101.379858 C51.0237818,101.895595 51.4937843,102.549019 51.777359,103.292136 L87.2375697,82.8145118 C86.7958854,82.0993253 86.5374824,81.2657278 86.5374824,80.372728 C86.5374824,79.9183603 86.6070978,79.4805151 86.7298097,79.0643064 Z M13.5683221,58.095729 L14.6770559,57.6913221 L14.0041068,55.8431667 L13.838131,55.9037491 L20.1526829,39.7467485 C19.597726,39.7243252 19.0824932,39.5508393 18.6518215,39.2640566 L13.1207382,53.417512 L12.7927197,52.516251 L11.6839859,52.9202646 L12.356935,54.7688133 L12.6318569,54.6684984 L4.93522249,74.3624859 L4.93522249,34.3887502 L4.94544849,34.3887502 L4.94544849,33.998112 C4.57337959,34.0878054 4.1855784,34.1381596 3.78519137,34.1381596 C3.3671055,34.1381596 2.96317869,34.0819045 2.5753775,33.9855235 L2.5753775,74.9273967 C2.96317869,74.8314091 3.3671055,74.7747607 3.78519137,74.7747607 C4.67013324,74.7747607 5.49843883,75.0068619 6.21583171,75.4065481 L13.285534,57.3179931 L13.5683221,58.095729 Z M43.0514388,8.09403926 L28.1258125,26.1755132 L28.1045739,26.1778736 L28.1069338,26.1983299 L21.3558106,34.3769485 C21.8596375,34.577185 22.2907025,34.9123549 22.6041686,35.336038 L29.2907893,27.2357045 L30.1875304,27.1377499 L30.09235,26.2644198 L45.2382285,7.91583271 C44.1357876,7.45202361 43.2453394,6.60505075 42.7375794,5.54997356 L7.27736865,26.0272045 C7.84294483,26.5846408 8.2661437,27.2770107 8.49583528,28.049239 L43.0514388,8.09403926 Z M64.4925971,25.934364 L64.285324,25.912334 L64.1614322,27.0862156 L65.5576738,27.2337375 L72.258847,35.407242 C72.5593339,34.9737241 72.9821394,34.6271458 73.4781002,34.4119604 L67.7861541,27.4693793 L69.6374525,27.6645017 L69.760951,26.4906202 L67.8054261,26.2840894 L67.6925469,27.3552957 L52.4888522,8.81040599 L86.091865,28.2152504 L85.40633,28.1428663 L85.2828315,29.3163545 L86.5414155,29.449321 C86.5410221,29.4229637 86.5374824,29.3969998 86.5374824,29.3706426 C86.5374824,28.2376738 86.9480954,27.1967587 87.6300906,26.3777167 L51.60863,5.57672421 C51.167339,6.47877194 50.4467997,7.22700342 49.5512385,7.70969533 L64.4925971,25.934364 Z M91.4439934,75.6048177 C91.5387805,75.6048177 91.6312078,75.6138657 91.7244217,75.6189798 L91.7244217,34.1243908 C91.6312078,34.1295049 91.5387805,34.1381596 91.4439934,34.1381596 C90.5865831,34.1381596 89.7810893,33.9225808 89.0790354,33.5453179 L88.5421707,34.8651479 L89.3645767,35.1999244 L89.3645767,74.190967 L81.9047134,54.316806 L82.3731426,53.1653478 L81.3104257,52.7326166 L76.2568177,39.2699575 C75.8257527,39.5551666 75.3105198,39.7262921 74.7559563,39.7471419 L81.0205581,56.4371886 L79.946042,56.0001301 L79.2050507,57.8215348 L80.2980522,58.2664611 L81.0307841,56.4651194 L88.5602628,76.5241746 C89.3704763,75.9486422 90.3655443,75.6048177 91.4439934,75.6048177 Z M41.9167467,100.226039 L41.9202864,100.219352 L8.48364274,80.9101014 C8.24569171,81.6791827 7.8154133,82.3676186 7.24393751,82.9199409 L42.5716036,103.320854 C42.8536051,102.566721 43.3247875,101.901889 43.9304811,101.379464 L41.9167467,100.226039 Z M71.771539,36.9611402 C71.771539,36.8273869 71.7845181,36.6967808 71.8033969,36.5677482 L54.9285386,36.5677482 L54.5871477,35.9961497 L53.6306239,36.5677482 L40.4213916,36.5677482 L40.5661287,36.3321064 L39.5604414,35.7144811 L39.0361625,36.5677482 L23.1138951,36.5677482 C23.1323805,36.6967808 23.145753,36.8273869 23.145753,36.9611402 C23.145753,37.3832497 23.0458529,37.7821491 22.8727976,38.141316 L54.4935405,38.141316 L54.5828213,38.2904115 L54.8321783,38.141316 L72.0444944,38.141316 C71.8710458,37.7821491 71.771539,37.3832497 71.771539,36.9611402 Z M77.4760709,36.5071659 L87.3858467,32.0464946 C87.0849664,31.617304 86.8592079,31.136579 86.7148641,30.6228091 L76.7763769,35.0964623 C77.1362532,35.4843468 77.3848236,35.9697925 77.4760709,36.5071659 Z M7.57864219,32.3899258 L17.4026769,36.912753 C17.4125096,36.35571 17.589498,35.8372194 17.8891983,35.405275 L8.37980957,31.0272161 C8.18905543,31.5252503 7.91963979,31.9863056 7.57864219,32.3899258 Z M27.4123527,55.4899008 L28.4176467,56.1075261 L29.4473257,54.4316764 L28.4420318,53.8140511 L27.4123527,55.4899008 Z M40.3840273,34.3738013 L41.3893213,34.9914267 L42.4193936,33.3151836 L41.4137064,32.6975583 L40.3840273,34.3738013 Z M31.1184893,49.4568419 L32.1241766,50.0744672 L33.1534623,48.3982242 L32.147775,47.7805988 L31.1184893,49.4568419 Z M42.2372923,31.3572719 L43.2425862,31.9748973 L44.2722653,30.2990476 L43.266578,29.6810288 L42.2372923,31.3572719 Z M36.8595988,42.3651653 L35.8539116,41.74754 L34.8246258,43.4233896 L35.8303131,44.041015 L36.8595988,42.3651653 Z M44.0905572,28.3403491 L45.0958512,28.9579744 L46.1255302,27.2825181 L45.1198429,26.6644994 L44.0905572,28.3403491 Z M38.7128638,39.3486359 L37.7071765,38.7310105 L36.6778908,40.4068602 L37.6835781,41.0244856 L38.7128638,39.3486359 Z M35.0067272,45.3816947 L34.0010399,44.7640694 L32.9713609,46.4399191 L33.9770482,47.0575444 L35.0067272,45.3816947 Z M23.7062162,61.5229596 L24.7115101,62.140585 L25.7407959,60.4647353 L24.7355019,59.8471099 L23.7062162,61.5229596 Z M19.9996863,67.5560185 L21.0053736,68.1740372 L22.0350526,66.4977941 L21.0293653,65.8801688 L19.9996863,67.5560185 Z M21.8529512,64.539489 L22.8582452,65.1575078 L23.8875309,63.4812647 L22.882237,62.8636394 L21.8529512,64.539489 Z M25.5590878,58.5064302 L26.5643818,59.1240555 L27.5940608,57.4482059 L26.5887668,56.8305805 L25.5590878,58.5064302 Z M16.426881,62.4966047 L15.3185405,62.9006182 L15.9914896,64.749167 L17.1002234,64.34476 L16.426881,62.4966047 Z M18.3116105,67.6712823 L17.6386614,65.823127 L16.5303209,66.2275339 L17.20327,68.0756892 L18.3116105,67.6712823 Z M8.04943127,42.9403043 L8.7227737,44.7888531 L9.83111424,44.3844462 L9.1577718,42.5362908 L8.04943127,42.9403043 Z M12.2538884,51.0378841 L11.5809393,49.1897288 L10.4725988,49.5937423 L11.1455479,51.442291 L12.2538884,51.0378841 Z M5.62665708,36.2868664 L6.29960621,38.1350217 L7.40794674,37.7310082 L6.73499761,35.8828528 L5.62665708,36.2868664 Z M14.7801025,61.4222513 L15.8888363,61.0178444 L15.2151006,59.169689 L14.1067601,59.5737025 L14.7801025,61.4222513 Z M7.5109933,41.4623308 L8.61933383,41.0579239 L7.9463847,39.2097685 L6.83804417,39.613782 L7.5109933,41.4623308 Z M11.0425013,47.7109684 L10.3695522,45.8632065 L9.26121167,46.26722 L9.9341608,48.1153754 L11.0425013,47.7109684 Z M8.53595264,77.405766 L10.2295347,76.4057637 L9.6297408,75.3892389 L7.93615871,76.3892412 L8.53595264,77.405766 Z M11.5840858,75.6056045 L13.2776678,74.6063889 L12.6778739,73.5898641 L10.9842918,74.5890797 L11.5840858,75.6056045 Z M16.3261943,72.8062274 L15.726007,71.7897026 L14.0328182,72.7897049 L14.6326122,73.8062297 L16.3261943,72.8062274 Z M41.4699493,97.156402 L40.5610157,97.9093541 L41.8152733,99.4239131 L42.7238137,98.670961 L41.4699493,97.156402 Z M39.211971,94.429409 L38.3030374,95.1823612 L39.557295,96.6973136 L40.4662286,95.9443614 L39.211971,94.429409 Z M24.6619534,76.8561974 L23.4076958,75.3416385 L22.4987622,76.0945906 L23.7534131,77.6091496 L24.6619534,76.8561974 Z M36.9539926,91.702416 L36.0454523,92.4553682 L37.2997099,93.9703206 L38.2086436,93.2173684 L36.9539926,91.702416 Z M32.4388226,86.2488235 L31.5298889,87.0017757 L32.7841465,88.5167281 L33.6930802,87.7637759 L32.4388226,86.2488235 Z M30.1808442,83.5222239 L29.2723039,84.2747827 L30.5261682,85.7897351 L31.4351018,85.0367829 L30.1808442,83.5222239 Z M34.6964076,88.9758165 L33.787474,89.7287687 L35.0421249,91.2433276 L35.9506652,90.4903755 L34.6964076,88.9758165 Z M26.0109981,80.3361426 L26.9199317,79.5831904 L25.6652808,78.068238 L24.7567405,78.8211902 L26.0109981,80.3361426 Z M22.4043684,74.1295979 L21.1501107,72.6146455 L20.2411771,73.3675977 L21.4954347,74.8821567 L22.4043684,74.1295979 Z M63.067644,84.1367022 L61.8377715,85.6713241 L62.7588976,86.4097208 L63.9883769,84.8750988 L63.067644,84.1367022 Z M56.425467,92.4242903 L55.1955944,93.9593056 L56.1167206,94.6977023 L57.3465931,93.1626869 L56.425467,92.4242903 Z M60.8537161,86.8991004 L59.6238436,88.4341158 L60.5445764,89.1725124 L61.7748423,87.6374971 L60.8537161,86.8991004 Z M58.6401815,89.661892 L57.4099156,91.196514 L58.3302552,91.9349107 L59.5605211,90.4002887 L58.6401815,89.661892 Z M70.6305539,76.5875107 L69.7098211,75.8495075 L68.4799485,77.3841294 L69.4006814,78.1225261 L70.6305539,76.5875107 Z M52.918344,98.6874834 L51.9980045,97.9490867 L50.7677386,99.4841021 L51.6880782,100.222499 L52.918344,98.6874834 Z M54.2119324,95.1870819 L52.9820598,96.7213105 L53.9023994,97.4597072 L55.1322719,95.9254786 L54.2119324,95.1870819 Z M72.8444818,73.8251125 L71.9241423,73.0867158 L70.6938764,74.6213378 L71.614216,75.3601279 L72.8444818,73.8251125 Z M79.0567738,72.4797121 L77.3742043,71.5395053 C77.2463793,71.9195219 77.0355665,72.2621663 76.7645777,72.550916 L78.4813649,73.5100056 L79.0567738,72.4797121 Z M86.035622,77.7303143 L87.0369829,78.2897177 C87.2155445,77.9348782 87.4346168,77.6036421 87.6938064,77.3046643 L86.6110309,76.7000208 L86.035622,77.7303143 Z M79.8547947,74.2771199 L81.5715819,75.2362094 L82.1469908,74.2059159 L80.4302035,73.2468264 L79.8547947,74.2771199 Z M84.6621922,76.9628067 L85.2376011,75.9325132 L83.5208139,74.9734236 L82.945405,76.0037171 L84.6621922,76.9628067 Z M25.6188705,70.0835617 L27.585408,70.0835617 L27.585408,71.2637376 L25.6188705,71.2637376 L25.6188705,70.0835617 Z M32.6984055,70.0835617 L34.664943,70.0835617 L34.664943,71.2637376 L32.6984055,71.2637376 L32.6984055,70.0835617 Z M36.3121148,70.0835617 L38.2786523,70.0835617 L38.2786523,71.2637376 L36.3121148,71.2637376 L36.3121148,70.0835617 Z M29.158638,70.0835617 L31.1251755,70.0835617 L31.1251755,71.2637376 L29.158638,71.2637376 L29.158638,70.0835617 Z M59.0500079,70.0835617 L61.0165454,70.0835617 L61.0165454,71.2637376 L59.0500079,71.2637376 L59.0500079,70.0835617 Z M48.4307055,70.0835617 L50.3972429,70.0835617 L50.3972429,71.2637376 L48.4307055,71.2637376 L48.4307055,70.0835617 Z M44.890938,70.0835617 L46.8574755,70.0835617 L46.8574755,71.2637376 L44.890938,71.2637376 L44.890938,70.0835617 Z M62.5897754,70.0835617 L64.5563129,70.0835617 L64.5563129,71.2637376 L62.5897754,71.2637376 L62.5897754,70.0835617 Z M69.6693104,70.0835617 L71.6358479,70.0835617 L71.6358479,71.2637376 L69.6693104,71.2637376 L69.6693104,70.0835617 Z M22.12512,70.0835617 L24.2977506,70.0835617 L24.2977506,71.2637376 L22.12512,71.2637376 L22.12512,70.0835617 Z M66.1295429,70.0835617 L68.0960804,70.0835617 L68.0960804,71.2637376 L66.1295429,71.2637376 L66.1295429,70.0835617 Z M18.8917391,72.6327415 C20.0169918,72.6327415 20.9322184,71.7535105 20.9322184,70.6736496 C20.9322184,69.5937888 20.0169918,68.7153445 18.8917391,68.7153445 C17.7668796,68.7153445 16.8516531,69.5937888 16.8516531,70.6736496 C16.8516531,71.7535105 17.7668796,72.6327415 18.8917391,72.6327415 Z M22.3127277,36.9611402 C22.3127277,35.8812793 21.3978945,35.0024417 20.2726417,35.0024417 C19.1481756,35.0024417 18.2325557,35.8812793 18.2325557,36.9611402 C18.2325557,38.041001 19.1481756,38.9198387 20.2726417,38.9198387 C21.3978945,38.9198387 22.3127277,38.041001 22.3127277,36.9611402 Z M72.6041709,36.9611402 C72.6041709,38.041001 73.5193975,38.9198387 74.6442569,38.9198387 C75.7691164,38.9198387 76.6847362,38.041001 76.6847362,36.9611402 C76.6847362,35.8812793 75.7691164,35.0024417 74.6442569,35.0024417 C73.5193975,35.0024417 72.6041709,35.8812793 72.6041709,36.9611402 Z M74.6442569,72.6327415 C75.7691164,72.6327415 76.6847362,71.7535105 76.6847362,70.6736496 C76.6847362,69.5937888 75.7691164,68.7153445 74.6442569,68.7153445 C73.5193975,68.7153445 72.6041709,69.5937888 72.6041709,70.6736496 C72.6041709,71.7535105 73.5193975,72.6327415 74.6442569,72.6327415 Z M45.3200364,24.6963595 C45.3200364,25.7762204 46.235263,26.655058 47.3601224,26.655058 C48.4849819,26.655058 49.4002084,25.7762204 49.4002084,24.6963595 C49.4002084,23.6164986 48.4849819,22.737661 47.3601224,22.737661 C46.235263,22.737661 45.3200364,23.6164986 45.3200364,24.6963595 Z M3.78519137,76.1976593 C1.86427754,76.1976593 0.301273544,77.6980562 0.301273544,79.5422776 C0.301273544,81.3868925 1.86427754,82.886896 3.78519137,82.886896 C5.70610519,82.886896 7.26871588,81.3868925 7.26871588,79.5422776 C7.26871588,77.6980562 5.70610519,76.1976593 3.78519137,76.1976593 Z M3.78519137,32.7152609 C5.70610519,32.7152609 7.26871588,31.2152574 7.26871588,29.3706426 C7.26871588,27.5264212 5.70610519,26.0256309 3.78519137,26.0256309 C1.86427754,26.0256309 0.301273544,27.5264212 0.301273544,29.3706426 C0.301273544,31.2152574 1.86427754,32.7152609 3.78519137,32.7152609 Z M91.4439934,32.7152609 C93.3653006,32.7152609 94.9279112,31.2152574 94.9279112,29.3706426 C94.9279112,27.5264212 93.3653006,26.0256309 91.4439934,26.0256309 C89.5226863,26.0256309 87.9600756,27.5264212 87.9600756,29.3706426 C87.9600756,31.2152574 89.5226863,32.7152609 91.4439934,32.7152609 Z M91.4439934,77.0281097 C89.5226863,77.0281097 87.9600756,78.5281132 87.9600756,80.372728 C87.9600756,82.2169495 89.5226863,83.7173464 91.4439934,83.7173464 C93.3653006,83.7173464 94.9279112,82.2169495 94.9279112,80.372728 C94.9279112,78.5281132 93.3653006,77.0281097 91.4439934,77.0281097 Z M47.1795943,101.597404 C45.2590738,101.597404 43.6960698,103.097407 43.6960698,104.942022 C43.6960698,106.786243 45.2590738,108.28664 47.1795943,108.28664 C49.1009014,108.28664 50.6635121,106.786243 50.6635121,104.942022 C50.6635121,103.097407 49.1009014,101.597404 47.1795943,101.597404 Z M47.1795943,6.88357225 C49.1009014,6.88357225 50.6635121,5.38317537 50.6635121,3.53895393 C50.6635121,1.6947325 49.1009014,0.194335621 47.1795943,0.194335621 C45.2590738,0.194335621 43.6960698,1.6947325 43.6960698,3.53895393 C43.6960698,5.38317537 45.2590738,6.88357225 47.1795943,6.88357225 Z" id="Fill-1" sketch:type="MSShapeGroup"></path>
            </g>
        </g>
    </g>
</svg>