<?xml version="1.0" encoding="utf-8"?>
<!-- Generator: Adobe Illustrator 18.1.1, SVG Export Plug-In . SVG Version: 6.00 Build 0)  -->
<!DOCTYPE svg PUBLIC "-//W3C//DTD SVG 1.1//EN" "http://www.w3.org/Graphics/SVG/1.1/DTD/svg11.dtd">
<svg version="1.1" id="Layer_1" xmlns="http://www.w3.org/2000/svg" xmlns:xlink="http://www.w3.org/1999/xlink" x="0px" y="0px"
	 viewBox="0 0 130 100" enable-background="new 0 0 130 100" xml:space="preserve">
<g>
	<polygon fill="#FFFFFF" points="46.5,72.2 39.2,72.2 41,53 44.7,53 	"/>
	<path fill="#3354A8" d="M47.1,72.7h-8.4l1.9-20.2h4.7L47.1,72.7z M39.8,71.7H46l-1.7-18.2h-2.8L39.8,71.7z"/>
</g>
<g>
	<rect x="23.9" y="72.2" fill="#FFFFFF" width="38.3" height="2.8"/>
	<path fill="#3354A8" d="M62.7,75.5H23.4v-3.8h39.3V75.5z M24.4,74.5h37.3v-1.8H24.4V74.5z"/>
</g>
<g>
	<path fill="#FFFFFF" d="M83,58.2H3.2C2,58.2,1,57.2,1,56V5.2C1,4,2,3,3.2,3H83c1.2,0,2.2,1,2.2,2.2V56C85.2,57.2,84.2,58.2,83,58.2
		z"/>
	<path fill="#3354A8" d="M83,59.2H3.2C1.4,59.2,0,57.8,0,56V5.2C0,3.4,1.4,2,3.2,2H83c1.7,0,3.2,1.4,3.2,3.2V56
		C86.2,57.8,84.7,59.2,83,59.2z M3.2,4C2.5,4,2,4.5,2,5.2V56c0,0.6,0.5,1.2,1.2,1.2H83c0.6,0,1.2-0.5,1.2-1.2V5.2
		C84.2,4.5,83.6,4,83,4H3.2z"/>
</g>
<g>
	<rect x="4.4" y="9.1" fill="#FFFFFF" width="76.5" height="45.6"/>
	<path fill="#3354A8" d="M81.4,55.2H3.9V8.6h77.5V55.2z M4.9,54.2h75.5V9.6H4.9V54.2z"/>
</g>
<g>
	<path fill="#FFFFFF" d="M117.7,94.2H61.1c-1.1,0-1.9-0.9-1.9-1.9V55.1c0-1.1,0.9-1.9,1.9-1.9h56.7c1.1,0,1.9,0.9,1.9,1.9v37.1
		C119.7,93.3,118.8,94.2,117.7,94.2z"/>
	<path fill="#3354A8" d="M117.7,95.2H61.1c-1.6,0-2.9-1.3-2.9-2.9V55.1c0-1.6,1.3-2.9,2.9-2.9h56.7c1.6,0,2.9,1.3,2.9,2.9v37.1
		C120.7,93.9,119.4,95.2,117.7,95.2z M61.1,54.2c-0.5,0-0.9,0.4-0.9,0.9v37.1c0,0.5,0.4,0.9,0.9,0.9h56.7c0.5,0,0.9-0.4,0.9-0.9
		V55.1c0-0.5-0.4-0.9-0.9-0.9H61.1z"/>
</g>
<g>
	<path fill="#FFFFFF" d="M128,98H50.8c-0.6,0-1-0.4-1-1v-3.7H129V97C129,97.5,128.5,98,128,98z"/>
	<path fill="#3354A8" d="M128,99H50.8c-1.1,0-2-0.9-2-2v-4.7H130V97C130,98.1,129.1,99,128,99z M50.8,94.3V97l77.2,0c0,0,0,0,0,0
		v-2.6H50.8z"/>
</g>
<g>
	<rect x="62.4" y="57.9" fill="#FFFFFF" width="54" height="31.8"/>
	<path fill="#3354A8" d="M116.9,90.2h-55V57.4h55V90.2z M62.9,89.2h53V58.4h-53V89.2z"/>
</g>
<circle fill="#3354A8" cx="41.2" cy="6.3" r="1.1"/>
<circle fill="#3354A8" cx="89.4" cy="55.8" r="0.7"/>
<path id="Imported-Layers-3_1_" fill="#3354A8" d="M44.7,31.7c0.3-0.4,0.6-0.8,0.6-1.4c0-1.6-1.1-2.6-2.8-2.6h0l0-2.1h-1.1l0,2.1
	h-1.1l0-2.1h-1v2.1l-2.5,0V29h0.1c0.6,0,1.1,0.4,1.1,0.9l0,4.1c0,0.5,0.1,1-0.7,1c-0.1,0-0.6,0-0.6,0v1.1l2.5,0L39,38.1h1.1l0-2.1
	h1.1l0,2.1h1.1l0-2.1H43c1.8,0,2.8-0.9,2.8-2.6C45.8,32.7,45.4,32,44.7,31.7L44.7,31.7z M40.3,29.4h1.5c0.6,0,1.1,0.5,1.1,1
	s-0.5,1-1.1,1h-1.5V29.4L40.3,29.4z M42.4,34.4h-2.1v-2.1h2.1c0.6,0,1.1,0.5,1.1,1S43,34.4,42.4,34.4L42.4,34.4z"/>
<path fill="#3354A8" d="M40.8,44.9c-7.4,0-13.5-6.1-13.5-13.5s6.1-13.5,13.5-13.5s13.5,6.1,13.5,13.5S48.3,44.9,40.8,44.9z
	 M40.8,18.9c-6.9,0-12.5,5.6-12.5,12.5c0,6.9,5.6,12.5,12.5,12.5c6.9,0,12.5-5.6,12.5-12.5C53.3,24.5,47.7,18.9,40.8,18.9z"/>
<g>
	<rect x="74.3" y="63.9" fill="#FFFFFF" width="38.7" height="23.5"/>
	<path fill="#3354A8" d="M113.4,88H73.8V63.4h39.7V88z M74.8,87h37.7V64.4H74.8V87z"/>
</g>
<g>
	<rect x="65.6" y="61" fill="#FFFFFF" width="38.7" height="23.5"/>
	<path fill="#3354A8" d="M104.8,85H65.1V60.5h39.7V85z M66.1,84h37.7V61.5H66.1V84z"/>
</g>
<rect x="65.6" y="64.7" fill="#3354A8" width="38.7" height="1"/>
<rect x="104.3" y="67.1" fill="#3354A8" width="8.6" height="1"/>
<g>
	<line fill="#FFFFFF" x1="69.5" y1="69.2" x2="71.9" y2="72"/>
	<path fill="#3354A8" d="M71.9,73c-0.3,0-0.6-0.1-0.8-0.3l-2.4-2.8c-0.4-0.4-0.3-1,0.1-1.4c0.4-0.4,1-0.3,1.4,0.1l2.4,2.8
		c0.4,0.4,0.3,1-0.1,1.4C72.4,72.9,72.2,73,71.9,73z"/>
</g>
<g>
	<line fill="#FFFFFF" x1="69.5" y1="74.8" x2="71.9" y2="72"/>
	<path fill="#3354A8" d="M69.5,75.8c-0.2,0-0.5-0.1-0.7-0.2c-0.4-0.4-0.5-1-0.1-1.4l2.4-2.8c0.4-0.4,1-0.5,1.4-0.1
		c0.4,0.4,0.5,1,0.1,1.4l-2.4,2.8C70.1,75.7,69.8,75.8,69.5,75.8z"/>
</g>
<path fill="#3354A8" d="M80.3,77.1h-6.8c-0.3,0-0.5-0.2-0.5-0.5s0.2-0.5,0.5-0.5h6.8c0.3,0,0.5,0.2,0.5,0.5S80.5,77.1,80.3,77.1z"/>
<g>
	<g>
		<path fill="#FFFFFF" d="M21.5,68.9c5.4,4,7.7,12.3,3.8,17.4s-12.4,5.3-17.8,1.3C-0.8,81.4,0.9,76.2,4.8,71S13.3,62.9,21.5,68.9z"
			/>
		<path fill="#3354A8" d="M16.2,91.5c-3.3,0-6.7-1.1-9.3-3c-4.1-3.1-6.2-6.2-6.3-9.5c-0.2-3.3,1.7-6.3,3.4-8.5c2-2.7,5-5.9,9.3-5.9
			c2.7,0,5.5,1.2,8.8,3.6c5.5,4.1,8.4,13,4,18.8C24,89.8,20.4,91.5,16.2,91.5z M13.3,66.6c-2.7,0-5.1,1.6-7.7,5.1
			c-2.2,2.9-3.1,5.1-3,7.3c0.1,2.7,1.9,5.2,5.5,7.9c2.2,1.7,5.2,2.6,8.1,2.6c3.5,0,6.5-1.3,8.3-3.7c3.7-4.9,1.1-12.5-3.6-16
			C18,67.6,15.5,66.6,13.3,66.6z"/>
	</g>
	<path fill="#3354A8" d="M35.3,97.3c-0.3,0-0.7-0.1-0.9-0.3l-10.5-9.2l0.7-0.8L35,96.2c0.1,0.1,0.2,0.1,0.3,0.1
		c0.2,0,0.4-0.1,0.5-0.3l1.6-2.2c0.1-0.2,0.2-0.4,0.2-0.6c0-0.1-0.1-0.2-0.2-0.3l-11.8-7.4l0.5-0.8L38,92c0.3,0.2,0.6,0.5,0.6,0.9
		c0.1,0.5,0,1-0.3,1.4l-1.6,2.2c-0.3,0.4-0.8,0.7-1.2,0.7C35.4,97.3,35.3,97.3,35.3,97.3z"/>
</g>
<g>
	<circle fill="#FFFFFF" cx="13.5" cy="91.9" r="4.3"/>
	<path fill="#3354A8" d="M13.5,96.6c-2.6,0-4.8-2.1-4.8-4.8s2.1-4.8,4.8-4.8s4.8,2.1,4.8,4.8S16.1,96.6,13.5,96.6z M13.5,88.1
		c-2.1,0-3.8,1.7-3.8,3.8s1.7,3.8,3.8,3.8s3.8-1.7,3.8-3.8S15.5,88.1,13.5,88.1z"/>
</g>
<g>
	<circle fill="#FFFFFF" cx="19.9" cy="94.2" r="4.3"/>
	<path fill="#3354A8" d="M19.9,99c-2.6,0-4.8-2.1-4.8-4.8s2.1-4.8,4.8-4.8s4.8,2.1,4.8,4.8S22.5,99,19.9,99z M19.9,90.4
		c-2.1,0-3.8,1.7-3.8,3.8s1.7,3.8,3.8,3.8s3.8-1.7,3.8-3.8S22,90.4,19.9,90.4z"/>
</g>
<g>
	<circle fill="#FFFFFF" cx="7.1" cy="94.2" r="4.3"/>
	<path fill="#3354A8" d="M7.1,99c-2.6,0-4.8-2.1-4.8-4.8s2.1-4.8,4.8-4.8s4.8,2.1,4.8,4.8S9.7,99,7.1,99z M7.1,90.4
		c-2.1,0-3.8,1.7-3.8,3.8S5,98,7.1,98c2.1,0,3.8-1.7,3.8-3.8S9.1,90.4,7.1,90.4z"/>
</g>
<path fill="#3354A8" d="M27.2,88.1c-0.3,0-0.5-0.2-0.5-0.5v-1.8c0-0.3,0.2-0.5,0.5-0.5s0.5,0.2,0.5,0.5v1.8
	C27.7,87.9,27.5,88.1,27.2,88.1z"/>
<path fill="#3354A8" d="M28.8,89.5c-0.3,0-0.5-0.2-0.5-0.5v-1.8c0-0.3,0.2-0.5,0.5-0.5s0.5,0.2,0.5,0.5V89
	C29.3,89.2,29.1,89.5,28.8,89.5z"/>
<path fill="#3354A8" d="M30.4,90.3c-0.3,0-0.5-0.2-0.5-0.5v-1.8c0-0.3,0.2-0.5,0.5-0.5s0.5,0.2,0.5,0.5v1.8
	C30.9,90.1,30.6,90.3,30.4,90.3z"/>
<path fill="#3354A8" d="M31.9,91.3c-0.3,0-0.5-0.2-0.5-0.5v-1.8c0-0.3,0.2-0.5,0.5-0.5s0.5,0.2,0.5,0.5v1.8
	C32.4,91.1,32.2,91.3,31.9,91.3z"/>
<path fill="#3354A8" d="M33.5,92.3c-0.3,0-0.5-0.2-0.5-0.5V90c0-0.3,0.2-0.5,0.5-0.5S34,89.8,34,90v1.8C34,92.1,33.8,92.3,33.5,92.3
	z"/>
<path fill="#3354A8" d="M35.1,93.2c-0.3,0-0.5-0.2-0.5-0.5v-1.8c0-0.3,0.2-0.5,0.5-0.5s0.5,0.2,0.5,0.5v1.8
	C35.6,93,35.4,93.2,35.1,93.2z"/>
<path fill="#3354A8" d="M36.7,94.3c-0.3,0-0.5-0.2-0.5-0.5V92c0-0.3,0.2-0.5,0.5-0.5s0.5,0.2,0.5,0.5v1.8
	C37.2,94.1,36.9,94.3,36.7,94.3z"/>
<path fill="#3354A8" d="M43.5,62.7c-0.1,0-0.3,0-0.4-0.1l-2.7-2.7c-0.2-0.2-0.2-0.5,0-0.7s0.5-0.2,0.7,0l2.7,2.7
	c0.2,0.2,0.2,0.5,0,0.7C43.8,62.6,43.7,62.7,43.5,62.7z"/>
<path fill="#3354A8" d="M42.5,64c-0.1,0-0.3,0-0.4-0.1L40,61.7c-0.2-0.2-0.2-0.5,0-0.7s0.5-0.2,0.7,0l2.2,2.2c0.2,0.2,0.2,0.5,0,0.7
	C42.8,64,42.7,64,42.5,64z"/>
<path fill="#3354A8" d="M41.5,65.3c-0.1,0-0.3,0-0.4-0.1l-1.3-1.3c-0.2-0.2-0.2-0.5,0-0.7s0.5-0.2,0.7,0l1.3,1.3
	c0.2,0.2,0.2,0.5,0,0.7C41.7,65.2,41.6,65.3,41.5,65.3z"/>
<path fill="#3354A8" d="M40.4,66.6c-0.1,0-0.3,0-0.4-0.1l-0.4-0.4c-0.2-0.2-0.2-0.5,0-0.7s0.5-0.2,0.7,0l0.4,0.4
	c0.2,0.2,0.2,0.5,0,0.7C40.6,66.5,40.5,66.6,40.4,66.6z"/>
<path fill="#3354A8" d="M44.5,61.3c-0.1,0-0.3,0-0.4-0.1l-2.9-2.9c-0.2-0.2-0.2-0.5,0-0.7s0.5-0.2,0.7,0l2.9,2.9
	c0.2,0.2,0.2,0.5,0,0.7C44.8,61.3,44.7,61.3,44.5,61.3z"/>
</svg>
