<?xml version="1.0" encoding="utf-8"?>
<!-- Generator: Adobe Illustrator 18.1.1, SVG Export Plug-In . SVG Version: 6.00 Build 0)  -->
<!DOCTYPE svg PUBLIC "-//W3C//DTD SVG 1.1//EN" "http://www.w3.org/Graphics/SVG/1.1/DTD/svg11.dtd">
<svg version="1.1" id="Layer_1" xmlns:sketch="http://www.bohemiancoding.com/sketch/ns"
	 xmlns="http://www.w3.org/2000/svg" xmlns:xlink="http://www.w3.org/1999/xlink" x="0px" y="0px" viewBox="-136.1 14.8 27.2 36.5"
	 enable-background="new -136.1 14.8 27.2 36.5" xml:space="preserve">
<title>shuffle 2</title>
<desc>Created with Sketch.</desc>
<g>
	<path fill-rule="evenodd" clip-rule="evenodd" fill="#002855" d="M-111.6,24.8c-0.1-0.1-0.2-0.2-0.3-0.3l-3.8,3.5
		c0.3,0.4,0.6,0.9,0.8,1.3c0.5,1.1,0.8,2.3,0.8,3.6c0,4.2-3,7.7-7,8.3l0-4.7l-4.8,4.1l-3.6,3.2l2.1,1.9l6.2,5.5l0-4.6
		c1.1-0.1,2.1-0.4,3.1-0.7c5.2-1.8,8.9-6.8,9.1-12.6V33C-108.9,29.9-109.9,27.1-111.6,24.8z"/>
	<path fill-rule="evenodd" clip-rule="evenodd" fill="#002855" d="M-130.1,36.6c-0.5-1.1-0.8-2.3-0.8-3.6c0-4.2,3-7.7,7-8.3l0,4.7
		l4.8-4.1l3.6-3.1l-2.1-1.9l-6.2-5.4l0,4.6c-1,0.1-2,0.3-3,0.7c-5.3,1.8-9.1,6.8-9.2,12.6V33c0,3,1,5.8,2.7,8.1
		c0.1,0.1,0.2,0.3,0.3,0.4l3.8-3.5C-129.6,37.6-129.9,37.1-130.1,36.6z"/>
</g>
</svg>
