<?xml version="1.0" encoding="utf-8"?>
<!-- Generator: Adobe Illustrator 18.1.1, SVG Export Plug-In . SVG Version: 6.00 Build 0)  -->
<!DOCTYPE svg PUBLIC "-//W3C//DTD SVG 1.1//EN" "http://www.w3.org/Graphics/SVG/1.1/DTD/svg11.dtd">
<svg version="1.1" id="Layer_1" xmlns:sketch="http://www.bohemiancoding.com/sketch/ns"
	 xmlns="http://www.w3.org/2000/svg" xmlns:xlink="http://www.w3.org/1999/xlink" x="0px" y="0px" viewBox="52.5 52.5 45 45"
	 enable-background="new 52.5 52.5 45 45" xml:space="preserve">
<path fill-rule="evenodd" clip-rule="evenodd" fill="#343846" d="M89,82.3h-2.8c-3.1,0-5.5-1.6-7.7-3.9c-0.2,0.3-0.4,0.6-0.7,0.9
	c-1,1.3-2,2.7-3.2,4c3,2.9,6.6,5.2,11.5,5.2H89v5.3l8-8l-8-8.2V82.3z M64.9,71.2c0.3-0.5,0.7-0.9,1.1-1.4c0.9-1.1,1.8-2.3,2.7-3.5
	c-2.9-2.7-6.4-4.8-11.1-4.8H53v6.2c0,0,1.3-0.1,4.6,0C60.8,67.8,62.8,69.1,64.9,71.2z M86.2,67.7H89v4.6l8-8.2l-8-8v5.3h-2.8
	c-8.1,0-12.7,6.1-16.8,11.4c-3.6,4.8-6.8,9.4-11.8,9.4H53v6.2h4.6c8.1,0,12.7-6.5,16.8-11.8C78,71.8,81.1,67.7,86.2,67.7z"/>
</svg>
