<?xml version="1.0" encoding="utf-8"?>
<!-- Generator: Adobe Illustrator 18.1.1, SVG Export Plug-In . SVG Version: 6.00 Build 0)  -->
<!DOCTYPE svg PUBLIC "-//W3C//DTD SVG 1.1//EN" "http://www.w3.org/Graphics/SVG/1.1/DTD/svg11.dtd">
<svg version="1.1" id="Layer_1" xmlns:sketch="http://www.bohemiancoding.com/sketch/ns"
	 xmlns="http://www.w3.org/2000/svg" xmlns:xlink="http://www.w3.org/1999/xlink" x="0px" y="0px" viewBox="0 0 100 100"
	 enable-background="new 0 0 100 100" xml:space="preserve">
<title>shuffle 2</title>
<desc>Created with Sketch.</desc>
<g>
	<path fill="#002855" d="M80,27.3c-0.3-0.3-0.6-0.6-0.8-0.8l-10.5,9.6c0.8,1.1,1.7,2.5,2.2,3.6c1.4,3,2.2,6.3,2.2,9.9
		c0,11.6-8.3,21.2-19.3,22.9V59.5L40.6,70.8l-9.9,8.8l5.8,5.2L53.6,100V87.3c3-0.3,5.8-1.1,8.5-1.9c14.3-5,24.5-18.7,25.1-34.7v-0.8
		C87.5,41.3,84.7,33.6,80,27.3z"/>
	<path fill="#002855" d="M29.1,59.8c-1.4-3-2.2-6.3-2.2-9.9c0-11.6,8.3-21.2,19.3-22.9v12.9l13.2-11.3l9.9-8.5l-5.8-5.2L46.4,0v12.7
		c-2.8,0.3-5.5,0.8-8.3,1.9c-14.6,5-25.1,18.7-25.3,34.7v0.6c0,8.3,2.8,16,7.4,22.3c0.3,0.3,0.6,0.8,0.8,1.1l10.5-9.6
		C30.4,62.5,29.6,61.2,29.1,59.8z"/>
</g>
</svg>
