<?xml version="1.0" encoding="utf-8"?>
<!-- Generator: Adobe Illustrator 18.1.1, SVG Export Plug-In . SVG Version: 6.00 Build 0)  -->
<!DOCTYPE svg PUBLIC "-//W3C//DTD SVG 1.1//EN" "http://www.w3.org/Graphics/SVG/1.1/DTD/svg11.dtd">
<svg version="1.1" id="Layer_1" xmlns="http://www.w3.org/2000/svg" xmlns:xlink="http://www.w3.org/1999/xlink" x="0px" y="0px"
	 viewBox="0 0 100 100" enable-background="new 0 0 100 100" xml:space="preserve">
<g>
	<path fill="#FFFFFF" d="M61.9,47.8c4.2,1.5,7.3,3.3,9.4,5.5c2.1,2.2,3.1,5.1,3.1,8.8c0,4-1.6,7.4-4.9,10.3c-3.6,3.1-8.6,4.8-15,5.3
		v7.4h-7.1v-7.6c-5.8-0.6-10.6-2.3-14.2-5.2c-3.9-3.1-5.8-7.4-5.8-12.8h9.8c0,2.7,0.9,4.7,2.6,6.1c1.7,1.4,4.3,2.3,7.6,2.7V52.1
		l-4.2-1.4c-4.7-1.6-8.3-3.5-10.9-5.7c-2.6-2.2-3.9-5.3-3.9-9.3c0-4,1.6-7.3,4.8-10c3.2-2.7,7.9-4.2,14.2-4.7v-6.4h7.1v6.5
		c5.4,0.6,9.6,2.2,12.4,5c2.9,2.8,4.7,6.4,5.5,10.9h-9.8c-0.3-1.7-1.1-3.2-2.5-4.5c-1.4-1.3-3.2-2.2-5.6-2.7v15.3L61.9,47.8z
		 M41.4,31.9c-1.4,1.2-2.1,2.5-2.1,4.1c0,1.6,0.4,2.8,1.3,3.7c0.9,0.9,2.3,1.7,4.3,2.4l2.5,1V29.7C44.8,30,42.7,30.8,41.4,31.9z
		 M61.1,66.3c1.4-1.2,2.1-2.7,2.1-4.4c0-3.2-2-5.5-6-7.1l-2.7-1v14.7C57.5,68.3,59.7,67.5,61.1,66.3z"/>
</g>
</svg>
