<?xml version="1.0" encoding="utf-8"?>
<!-- Generator: Adobe Illustrator 18.1.1, SVG Export Plug-In . SVG Version: 6.00 Build 0)  -->
<!DOCTYPE svg PUBLIC "-//W3C//DTD SVG 1.1//EN" "http://www.w3.org/Graphics/SVG/1.1/DTD/svg11.dtd">
<svg version="1.1" id="Layer_1" xmlns="http://www.w3.org/2000/svg" xmlns:xlink="http://www.w3.org/1999/xlink" x="0px" y="0px"
	 viewBox="0 0 127.2 100" enable-background="new 0 0 127.2 100" xml:space="preserve">
<path fill="#3354A8" d="M5.3,47.3c-0.3,0-0.5-0.1-0.7-0.3c-0.4-0.4-0.4-1,0-1.4l5.2-5.2c0.4-0.4,1-0.4,1.4,0c0.4,0.4,0.4,1,0,1.4
	L6,47C5.8,47.2,5.6,47.3,5.3,47.3z"/>
<path fill="#3354A8" d="M125.6,45.3H67.5c-0.3,0-0.6-0.2-0.8-0.4L37.3,15.5L36,16.9c-0.4,0.4-1,0.4-1.4,0c-0.4-0.4-0.4-1,0-1.4l2-2
	c0,0,0,0,0,0c0.2-0.2,0.5-0.3,0.7-0.3h57.8c0.3,0,0.5,0.1,0.7,0.3l30.5,30.2c0.3,0.3,0.4,0.7,0.2,1.1
	C126.4,45.1,126,45.3,125.6,45.3z M67.9,43.3h55.3L94.7,15.1h-55L67.9,43.3z"/>
<g>
	<g>
		<circle fill="#FFFFFF" cx="15.5" cy="20.8" r="14.5"/>
		<path fill="#3354A8" d="M15.5,36.3C6.9,36.3,0,29.3,0,20.8C0,12.3,6.9,5.4,15.5,5.4c8.5,0,15.5,6.9,15.5,15.5
			C30.9,29.3,24,36.3,15.5,36.3z M15.5,7.4C8,7.4,2,13.4,2,20.8s6,13.5,13.5,13.5s13.5-6,13.5-13.5S22.9,7.4,15.5,7.4z"/>
	</g>
	<path fill="#3354A8" d="M15.5,16.7c3.1,0,6.1,1.4,8.2,3.7l1.2-1.2c-2.3-2.6-5.7-4.2-9.4-4.2s-7.1,1.6-9.4,4.2l1.2,1.2
		C9.3,18,12.3,16.7,15.5,16.7z"/>
	<path fill="#3354A8" d="M17.3,22.2c0.1,0,0.2,0.1,0.3,0.1C17.5,22.3,17.4,22.2,17.3,22.2z"/>
	<path fill="#3354A8" d="M15.5,20.2c2.2,0,4.3,1,5.7,2.7l1.4-1.4c-1.7-2-4.2-3.3-7-3.3s-5.3,1.3-7,3.3l1.4,1.4
		C11.2,21.2,13.2,20.2,15.5,20.2z"/>
	<path fill="#3354A8" d="M15.5,23.8c1.3,0,2.4,0.6,3.1,1.7l1.4-1.4c-0.3-0.3-0.6-0.6-0.9-0.9c-0.4-0.4-0.9-0.7-1.5-0.9
		c-0.1,0-0.2-0.1-0.3-0.1c-0.6-0.2-1.2-0.3-1.8-0.3c-1.6,0-3,0.7-4.1,1.7c-0.1,0.2-0.3,0.3-0.4,0.5l1.4,1.4
		C13,24.5,14.2,23.8,15.5,23.8z"/>
	<path fill="#3354A8" d="M15.5,25.5c-0.8,0-1.6,0.5-1.9,1.2l1.9,1.9l1.9-1.9C17,26,16.3,25.5,15.5,25.5z"/>
</g>
<path fill="#3354A8" d="M80.4,22.8h-35c-0.3,0-0.5-0.2-0.5-0.5s0.2-0.5,0.5-0.5h35c0.3,0,0.5,0.2,0.5,0.5S80.7,22.8,80.4,22.8z"/>
<path fill="#3354A8" d="M89.8,36.9H59.6c-0.3,0-0.5-0.2-0.5-0.5s0.2-0.5,0.5-0.5h30.3c0.3,0,0.5,0.2,0.5,0.5S90.1,36.9,89.8,36.9z"
	/>
<path fill="#3354A8" d="M109.4,28.8H86.3c-0.3,0-0.5-0.2-0.5-0.5s0.2-0.5,0.5-0.5h23.1c0.3,0,0.5,0.2,0.5,0.5S109.7,28.8,109.4,28.8
	z"/>
<path fill="#3354A8" d="M58.8,22.7c-0.1,0-0.3,0-0.4-0.1l-4.7-4.7c-0.2-0.2-0.2-0.5,0-0.7s0.5-0.2,0.7,0l4.7,4.7
	c0.2,0.2,0.2,0.5,0,0.7C59.1,22.7,58.9,22.7,58.8,22.7z"/>
<path fill="#3354A8" d="M78.1,19.4c-0.1,0-0.3,0-0.4-0.1L73,14.5c-0.2-0.2-0.2-0.5,0-0.7s0.5-0.2,0.7,0l4.7,4.7
	c0.2,0.2,0.2,0.5,0,0.7C78.3,19.3,78.2,19.4,78.1,19.4z"/>
<path fill="#3354A8" d="M72.3,27.7c-0.1,0-0.3,0-0.4-0.1l-4.9-4.9c-0.2-0.2-0.2-0.5,0-0.7s0.5-0.2,0.7,0l4.9,4.9
	c0.2,0.2,0.2,0.5,0,0.7C72.6,27.6,72.4,27.7,72.3,27.7z"/>
<path fill="#3354A8" d="M69,36.9c-0.1,0-0.3,0-0.4-0.1l-4.4-4.4c-0.2-0.2-0.2-0.5,0-0.7s0.5-0.2,0.7,0l4.4,4.4
	c0.2,0.2,0.2,0.5,0,0.7C69.2,36.9,69.1,36.9,69,36.9z"/>
<path fill="#3354A8" d="M84.8,36.9c-0.1,0-0.3,0-0.4-0.1l-4.4-4.4c-0.2-0.2-0.2-0.5,0-0.7s0.5-0.2,0.7,0l4.4,4.4
	c0.2,0.2,0.2,0.5,0,0.7C85,36.9,84.9,36.9,84.8,36.9z"/>
<path fill="#3354A8" d="M80.3,41.3c-0.1,0-0.3,0-0.4-0.1l-4.4-4.4c-0.2-0.2-0.2-0.5,0-0.7s0.5-0.2,0.7,0l4.4,4.4
	c0.2,0.2,0.2,0.5,0,0.7C80.5,41.2,80.4,41.3,80.3,41.3z"/>
<path fill="#3354A8" d="M100.1,44.1c-0.1,0-0.3,0-0.4-0.1l-4.4-4.4c-0.2-0.2-0.2-0.5,0-0.7s0.5-0.2,0.7,0l4.4,4.4
	c0.2,0.2,0.2,0.5,0,0.7C100.3,44.1,100.2,44.1,100.1,44.1z"/>
<path fill="#3354A8" d="M111.6,44.1c-0.1,0-0.3,0-0.4-0.1l-4.4-4.4c-0.2-0.2-0.2-0.5,0-0.7s0.5-0.2,0.7,0l4.4,4.4
	c0.2,0.2,0.2,0.5,0,0.7C111.9,44.1,111.7,44.1,111.6,44.1z"/>
<path fill="#3354A8" d="M94.3,28.8c-0.1,0-0.3,0-0.4-0.1l-4.2-4.2c-0.2-0.2-0.2-0.5,0-0.7s0.5-0.2,0.7,0l4.2,4.2
	c0.2,0.2,0.2,0.5,0,0.7C94.6,28.8,94.5,28.8,94.3,28.8z"/>
<path fill="#3354A8" d="M106.4,33.6c-0.1,0-0.3,0-0.4-0.1l-4.8-4.8c-0.2-0.2-0.2-0.5,0-0.7s0.5-0.2,0.7,0l4.8,4.8
	c0.2,0.2,0.2,0.5,0,0.7C106.6,33.6,106.5,33.6,106.4,33.6z"/>
<g>
	<rect x="84.8" y="3.6" fill="#FFFFFF" width="9.6" height="16.4"/>
	<path fill="#3354A8" d="M94.3,21h-9.6c-0.6,0-1-0.4-1-1V3.6c0-0.6,0.4-1,1-1h9.6c0.6,0,1,0.4,1,1V20C95.3,20.5,94.9,21,94.3,21z
		 M85.8,19h7.6V4.6h-7.6V19z"/>
</g>
<path fill="#3354A8" d="M94.3,8.2h-9.6c-0.3,0-0.5-0.2-0.5-0.5s0.2-0.5,0.5-0.5h9.6c0.3,0,0.5,0.2,0.5,0.5S94.6,8.2,94.3,8.2z"/>
<path fill="#3354A8" d="M94.3,12.2h-9.6c-0.3,0-0.5-0.2-0.5-0.5s0.2-0.5,0.5-0.5h9.6c0.3,0,0.5,0.2,0.5,0.5S94.6,12.2,94.3,12.2z"/>
<path fill="#3354A8" d="M94.3,16.2h-9.6c-0.3,0-0.5-0.2-0.5-0.5s0.2-0.5,0.5-0.5h9.6c0.3,0,0.5,0.2,0.5,0.5S94.6,16.2,94.3,16.2z"/>
<path fill="#3354A8" d="M87.3,20.4c-0.3,0-0.5-0.2-0.5-0.5v-4.1c0-0.3,0.2-0.5,0.5-0.5s0.5,0.2,0.5,0.5v4.1
	C87.8,20.1,87.6,20.4,87.3,20.4z"/>
<path fill="#3354A8" d="M91.3,20.4c-0.3,0-0.5-0.2-0.5-0.5v-4.1c0-0.3,0.2-0.5,0.5-0.5s0.5,0.2,0.5,0.5v4.1
	C91.8,20.1,91.6,20.4,91.3,20.4z"/>
<path fill="#3354A8" d="M87.3,12.2c-0.3,0-0.5-0.2-0.5-0.5v-4c0-0.3,0.2-0.5,0.5-0.5s0.5,0.2,0.5,0.5v4C87.8,12,87.6,12.2,87.3,12.2
	z"/>
<path fill="#3354A8" d="M91.3,12.2c-0.3,0-0.5-0.2-0.5-0.5v-4c0-0.3,0.2-0.5,0.5-0.5s0.5,0.2,0.5,0.5v4C91.8,12,91.6,12.2,91.3,12.2
	z"/>
<path fill="#3354A8" d="M89.6,16.2c-0.3,0-0.5-0.2-0.5-0.5v-4c0-0.3,0.2-0.5,0.5-0.5s0.5,0.2,0.5,0.5v4C90.1,16,89.8,16.2,89.6,16.2
	z"/>
<path fill="#3354A8" d="M89.6,8.1c-0.3,0-0.5-0.2-0.5-0.5v-4c0-0.3,0.2-0.5,0.5-0.5s0.5,0.2,0.5,0.5v4C90.1,7.8,89.8,8.1,89.6,8.1z"
	/>
<path fill="#3354A8" d="M46.5,90.5H24.9c-0.6,0-1-0.4-1-1V51c0-0.6,0.4-1,1-1h21.6c0.6,0,1,0.4,1,1v38.5
	C47.5,90,47.1,90.5,46.5,90.5z M25.9,88.5h19.6V52H25.9V88.5z"/>
<path fill="#3354A8" d="M35.5,39.8c-0.3,0-0.5-0.2-0.5-0.5V27c0-0.3,0.2-0.5,0.5-0.5S36,26.7,36,27v12.4
	C36,39.6,35.8,39.8,35.5,39.8z"/>
<path fill="#3354A8" d="M42.7,32.6H31.7c-0.3,0-0.5-0.2-0.5-0.5s0.2-0.5,0.5-0.5h11.1c0.3,0,0.5,0.2,0.5,0.5S43,32.6,42.7,32.6z"/>
<path fill="#3354A8" d="M67.5,93.3c-0.6,0-1-0.4-1-1v-48c0-0.6,0.4-1,1-1s1,0.4,1,1v48C68.5,92.9,68,93.3,67.5,93.3z"/>
<path fill="#3354A8" d="M120.6,88.8c-0.6,0-1-0.4-1-1V44.3c0-0.6,0.4-1,1-1s1,0.4,1,1v43.4C121.6,88.3,121.1,88.8,120.6,88.8z"/>
<path fill="#3354A8" d="M7.3,88.8c-0.6,0-1-0.4-1-1V44.3c0-0.6,0.4-1,1-1s1,0.4,1,1v43.4C8.3,88.3,7.8,88.8,7.3,88.8z"/>
<path fill="#3354A8" d="M114.1,73.3H74.7c-0.3,0-0.5-0.2-0.5-0.5V51c0-0.3,0.2-0.5,0.5-0.5h39.4c0.3,0,0.5,0.2,0.5,0.5v21.8
	C114.6,73,114.4,73.3,114.1,73.3z M75.2,72.3h38.4V51.5H75.2V72.3z"/>
<path fill="#3354A8" d="M115.8,76.6h-43c-0.3,0-0.5-0.2-0.5-0.5v-3.4c0-0.3,0.2-0.5,0.5-0.5h43c0.3,0,0.5,0.2,0.5,0.5v3.4
	C116.3,76.4,116.1,76.6,115.8,76.6z M73.4,75.6h42v-2.4h-42V75.6z"/>
<path fill="#3354A8" d="M42.6,85H28.8c-0.3,0-0.5-0.2-0.5-0.5V54.7c0-0.3,0.2-0.5,0.5-0.5h13.7c0.3,0,0.5,0.2,0.5,0.5v29.7
	C43.1,84.7,42.9,85,42.6,85z M29.3,84h12.7V55.2H29.3V84z"/>
<rect x="93.4" y="51" fill="#3354A8" width="2" height="21.8"/>
<path fill="#3354A8" d="M84.8,73.3c-0.3,0-0.5-0.2-0.5-0.5V51c0-0.3,0.2-0.5,0.5-0.5s0.5,0.2,0.5,0.5v21.8
	C85.3,73,85.1,73.3,84.8,73.3z"/>
<path fill="#3354A8" d="M104,73.3c-0.3,0-0.5-0.2-0.5-0.5V51c0-0.3,0.2-0.5,0.5-0.5s0.5,0.2,0.5,0.5v21.8
	C104.5,73,104.3,73.3,104,73.3z"/>
<path fill="#3354A8" d="M114.1,62.4H74.7c-0.3,0-0.5-0.2-0.5-0.5s0.2-0.5,0.5-0.5h39.4c0.3,0,0.5,0.2,0.5,0.5S114.4,62.4,114.1,62.4
	z"/>
<path fill="#3354A8" d="M38.8,70.2c-0.3,0-0.5-0.2-0.5-0.5V66c0-0.3,0.2-0.5,0.5-0.5s0.5,0.2,0.5,0.5v3.6
	C39.3,70,39.1,70.2,38.8,70.2z"/>
<circle fill="#3354A8" cx="35.7" cy="59.4" r="1"/>
<path fill="#FFFFFF" d="M94.6,90.9c-0.2,0-0.3,0-0.5,0c0.8-1.1,0.8-2.4,0.1-3.1c-0.8-0.7-2.3-0.4-3.4,0.7c0,0,0,0.1-0.1,0.1
	c-0.1,0.1-0.2,0.1-0.3,0.2c-0.4-0.5-0.8-0.8-1.3-0.7c-0.4,0.1-0.6,0.3-0.8,0.7c-0.2-0.9-0.7-1.5-1.4-1.5c-0.5,0-1,0.5-1.2,1.1
	c-0.8-0.6-2.1-0.4-3,0.5c0-0.5-0.2-0.9-0.5-1.2c-0.6-0.6-1.6-0.5-2.5,0c-0.1-0.4-0.2-0.7-0.5-1c-0.8-0.7-2.3-0.4-3.3,0.7
	c-0.9-0.3-2,0-2.9,1c0,0,0,0.1-0.1,0.1c-0.1,0.1-0.2,0.1-0.3,0.2c-0.4-0.5-0.8-0.8-1.3-0.7c-0.4,0.1-0.6,0.3-0.8,0.7
	c-0.2-0.9-0.7-1.5-1.4-1.5c-0.8,0-1.4,1-1.3,2.1c0,0.2,0,0.5,0.1,0.7c-0.2,0-0.4,0-0.6,0c-1.6,0.1-2.9,1-2.9,2.1c0,1.1,1.4,2,3,1.9
	c0.2,0,0.4,0,0.7-0.1c0.4,0.8,1.4,1.4,2.7,1.4c0.3,0,0.6-0.1,0.9-0.1c0.6,0.4,1.4,0.7,2.3,0.7c1.1,0,2-0.5,2.5-1.1
	c0.1,0,0.3,0,0.4,0c0.2,0,0.4,0,0.7-0.1c0.4,0.8,1.4,1.4,2.7,1.4c1.1,0,2-0.5,2.4-1.2c0,0,0,0,0.1,0.1c0.8,0.7,2.3,0.4,3.3-0.7
	c0.5,0.7,1.4,1.1,2.5,1.1c0.3,0,0.6-0.1,0.9-0.1c0.6,0.4,1.4,0.7,2.3,0.7c1.1,0,2-0.5,2.5-1.1c0.1,0,0.3,0,0.4,0
	c1.6-0.1,2.9-1,2.9-2.1C97.6,91.7,96.3,90.8,94.6,90.9z"/>
<path fill="#FFFFFF" d="M123.6,89.9c-0.5-0.4-1.2-0.5-2-0.4c0.1-0.7,0-1.3-0.5-1.7c-0.6-0.6-1.7-0.6-2.6-0.1
	c-0.4-0.4-0.9-0.7-1.3-0.6c-0.5,0.1-0.8,0.4-1,1c-0.2,0-0.3-0.1-0.5,0c-0.1,0-0.2,0.1-0.3,0.1c-0.1-0.3-0.2-0.6-0.5-0.8
	c-0.1-0.1-0.2-0.1-0.2-0.2c0.4-0.8,0.3-1.7-0.3-2.2c-0.9-0.8-2.6-0.5-3.7,0.6c0,0-0.1,0.1-0.1,0.1c-0.1,0.1-0.2,0.1-0.3,0.2
	c-0.4-0.5-0.9-0.8-1.4-0.7c-0.5,0.1-0.9,0.5-1.1,1.1c-0.3,0.2-0.7,0.4-1,0.7c-0.9-0.3-2.2,0-3.2,0.9c0,0-0.1,0.1-0.1,0.1
	c-0.3,0.2-0.5,0.4-0.8,0.7c0,0,0,0,0,0c-0.1,0-0.2,0-0.3,0c-1.7,0-3,0.9-3,2c0,0.9,0.8,1.6,2,1.9c-0.2,0.2-0.2,0.5-0.2,0.8
	c0,1.1,1.5,2,3.3,2c1.2,0,2.2-0.4,2.8-1c0.2,0,0.3,0,0.5,0c0.3,0,0.5,0,0.7-0.1c0.4,0.8,1.5,1.5,2.9,1.5c0.9,0,1.7-0.3,2.3-0.7
	c0.4,0.1,0.9,0.2,1.4,0.2c0.3,0,0.7,0,1-0.1c0.6,0.4,1.5,0.7,2.5,0.7c1.6,0,2.9-0.7,3.2-1.6c0.6-0.1,1.2-0.5,1.7-0.9
	C124.3,92.2,124.5,90.6,123.6,89.9z"/>
<g>
	<path fill="#3354A8" d="M95,90.4c0.5-1.1,0.3-2.2-0.4-2.9c-1-0.9-2.8-0.6-4,0.7c-0.4-0.4-1-0.6-1.5-0.5c-0.2,0-0.4,0.1-0.5,0.2
		c-0.4-0.6-0.9-1-1.6-1c0,0,0,0,0,0c-0.6,0-1.1,0.4-1.4,0.9c-0.7-0.3-1.7-0.1-2.5,0.3c-0.1-0.3-0.3-0.5-0.5-0.7c0,0,0,0-0.1,0
		c0.1-0.1,0.1-0.2,0.2-0.4c0.1-0.4-0.1-0.9-0.4-1.3c-0.4-0.4-0.9-0.6-1.5-0.6c0,0,0,0,0,0c-0.7,0-1.3,0.3-1.8,0.7
		c-0.1,0.1-0.1,0.1-0.2,0.2c-0.9-0.2-2.1,0.1-3.1,0.9c-0.2,0-0.4,0-0.5,0c0,0,0,0,0,0c-0.5-0.7-1.4-1-2.2-0.8
		c-0.8,0.2-1.4,0.8-1.6,1.6c-0.1,0-0.1,0-0.2,0c-0.2,0-0.4,0.1-0.5,0.2c-0.4-0.6-0.9-1-1.6-1h0c-1.1,0-1.8,1.2-1.8,2.6
		c0,0,0,0.1,0,0.1h0c-1.9,0.1-3.4,1.2-3.4,2.6c0,1.4,1.5,2.4,3.4,2.4l0.2,0c0.1,0,0.2,0,0.4,0c0.5,0.8,1.6,1.3,2.8,1.3l0.1,0
		c0.3,0,0.5,0,0.8-0.1c0.6,0.4,1.4,0.6,2.3,0.6l0.1,0c1.1,0,2.1-0.4,2.7-1.1c0.1,0,0.1,0,0.2,0c0.1,0,0.2,0,0.4,0
		c0.5,0.8,1.6,1.3,2.8,1.3l0.1,0c1,0,1.9-0.4,2.5-1c0.9,0.5,2.3,0.3,3.3-0.6c0.6,0.5,1.5,0.9,2.4,0.9l0.1,0c0.3,0,0.5,0,0.8-0.1
		c0.6,0.4,1.4,0.6,2.2,0.6l0.2,0c1.1,0,2.1-0.4,2.7-1.1c0.1,0,0.1,0,0.2,0c1.9-0.1,3.4-1.2,3.4-2.6C98.1,91.5,96.7,90.5,95,90.4z
		 M80.8,86.1C80.8,86.1,80.8,86.1,80.8,86.1c0.3,0,0.6,0.1,0.8,0.3c0.1,0.2,0.2,0.4,0.1,0.4c0,0-0.1,0.1-0.1,0.1
		c-0.5-0.1-1-0.1-1.5,0.1c-0.1-0.2-0.2-0.3-0.3-0.4c0-0.1,0-0.1,0-0.2C80.1,86.2,80.4,86.1,80.8,86.1z M73.3,87
		c0.3-0.1,0.6,0,0.8,0.2c-0.5,0.2-0.9,0.5-1.3,0.9c-0.1-0.1-0.2-0.2-0.3-0.2C72.6,87.4,72.9,87.1,73.3,87z M94.7,94.4
		c-0.1,0-0.2,0-0.3,0c-0.2,0-0.3,0.1-0.4,0.2c-0.4,0.5-1.2,0.9-2.1,0.9l-0.1,0c-0.7,0-1.4-0.2-1.8-0.6c-0.1-0.1-0.3-0.1-0.4-0.1
		c-0.3,0.1-0.5,0.1-0.8,0.1l-0.1,0c-0.8,0-1.6-0.3-2-0.9c-0.1-0.1-0.2-0.2-0.4-0.2c-0.2,0-0.3,0.1-0.4,0.2c-0.5,0.6-1.2,0.9-1.8,0.9
		c-0.2,0-0.5,0-0.8-0.2c0,0-0.1-0.1-0.1-0.1c-0.1-0.1-0.3-0.2-0.4-0.1c-0.1,0-0.3,0.1-0.4,0.2c-0.4,0.6-1.1,0.9-2,1l-0.1,0
		c-0.8,0-1.5-0.3-1.9-0.7c0-0.2,0-0.3-0.1-0.5c-0.2-0.3-0.3-0.7,0-1c0.3-0.4,0.2-0.7,0.1-0.8c-0.1-0.2-0.4-0.3-0.6-0.2
		c-0.2,0.1-0.4,0.3-0.4,0.5c-0.3,0.4-0.3,0.9-0.2,1.4c-0.1,0-0.1,0-0.2,0c-0.1,0-0.2,0-0.3,0c-0.2,0-0.3,0.1-0.4,0.2
		c-0.4,0.5-1.2,0.9-2.1,0.9l-0.1,0c-0.7,0-1.4-0.2-1.8-0.6c-0.1-0.1-0.3-0.1-0.4-0.1c-0.3,0.1-0.5,0.1-0.8,0.1l-0.1,0
		c-1,0-1.8-0.4-2.1-1.1c-0.1-0.2-0.3-0.3-0.5-0.3c-0.2,0-0.4,0.1-0.6,0.1l-0.1,0c-1.3,0-2.3-0.6-2.4-1.4c0-0.8,1.1-1.6,2.4-1.6
		l0.1,0c0.1,0,0.3,0,0.4,0c0.2,0,0.3,0,0.4-0.2c0.1-0.1,0.1-0.3,0.1-0.5c-0.1-0.2-0.1-0.4-0.1-0.6c0-0.9,0.4-1.5,0.8-1.6
		c0.4,0,0.7,0.5,0.9,1.1c0,0,0,0,0,0.1c-0.1,0.3-0.1,0.6,0.1,0.8c0.2,0.4,0.5,0.6,0.8,0.6c0,0,0,0,0.1,0c0.2,0,0.5-0.2,0.5-0.4
		c0-0.3-0.2-0.5-0.4-0.6c0,0,0,0-0.1-0.1c0-0.1,0-0.1,0-0.1c0.1-0.1,0.1-0.3,0.1-0.4c0.1-0.1,0.2-0.2,0.4-0.3c0.2,0,0.5,0.2,0.7,0.5
		c0.1,0.1,0.2,0.2,0.4,0.2c0.1,0,0.3,0,0.4-0.1c0.1-0.1,0.1-0.1,0.2-0.2c0,0,0.1-0.1,0.2-0.2c0.7-0.7,1.6-1.1,2.3-0.9
		c0.2,0.1,0.4,0,0.5-0.1c0.9-0.9,2.1-1.2,2.7-0.7c0.2,0.2,0.3,0.4,0.3,0.7c0,0.2,0.1,0.3,0.3,0.4c0.2,0.1,0.3,0.1,0.5,0
		c0.4-0.2,0.7-0.3,1.1-0.3c0.2,0,0.5,0,0.8,0.3c0.3,0.3,0.4,0.6,0.4,0.9c0,0.2,0.1,0.4,0.3,0.4c0.2,0.1,0.4,0,0.5-0.1
		c0.8-0.7,1.8-0.9,2.4-0.5C85.6,89,85.8,89,86,89s0.3-0.2,0.3-0.3c0.1-0.5,0.4-0.8,0.7-0.8c0.4,0,0.7,0.5,0.9,1.1
		c0,0.2,0.2,0.4,0.4,0.4c0.2,0,0.4-0.1,0.5-0.3c0.1-0.1,0.2-0.4,0.5-0.4c0.2,0,0.5,0.2,0.7,0.5c0.1,0.1,0.2,0.2,0.4,0.2
		c0.1,0,0.3,0,0.4-0.1c0.1-0.1,0.1-0.1,0.2-0.2c0,0,0.1-0.1,0.2-0.2c0.5-0.6,1.2-0.9,1.9-0.9c0.2,0,0.5,0,0.8,0.3
		c0.5,0.5,0.5,1.4-0.1,2.3c-0.2,0.1-0.5,0.1-0.8,0c-0.3-0.1-0.5-0.5-0.5-0.8c0-0.3-0.2-0.5-0.5-0.5c-0.3,0-0.5,0.2-0.5,0.5
		c0,0.7,0.4,1.4,1.1,1.7c0.2,0.1,0.5,0.2,0.8,0.2c0.3,0,0.5-0.1,0.8-0.2c0,0,0,0,0,0c0.1,0,0.3,0,0.4,0l0.1,0c1.3,0,2.4,0.6,2.4,1.4
		C97.2,93.6,96.1,94.4,94.7,94.4z"/>
	<path fill="#3354A8" d="M71.3,92.3c-0.4,0-0.7,0-1-0.1c-0.2-0.1-0.4-0.3-0.4-0.5c0,0,0-0.1,0.2-0.2c0.3,0.1,0.5-0.1,0.6-0.3
		c0.1-0.3-0.1-0.5-0.3-0.6c-0.3-0.1-0.7,0-1,0.2c-0.3,0.2-0.5,0.6-0.5,1c0,0.6,0.4,1.1,1,1.4c0.5,0.2,0.9,0.2,1.4,0.2c0,0,0,0,0,0
		c0.3,0,0.5-0.2,0.5-0.5S71.5,92.3,71.3,92.3z"/>
	<path fill="#3354A8" d="M78.2,88.6c-0.3-0.1-0.6-0.2-0.9-0.1c-0.6,0.1-1.1,0.3-1.5,0.5c-0.3,0.2-0.6,0.3-0.8,0.6
		c-0.2,0.3-0.3,0.7-0.2,1.1c0.1,0.4,0.3,0.8,0.6,1c0.1,0.1,0.2,0.1,0.3,0.1c0.2,0,0.3-0.1,0.4-0.2c0.2-0.2,0.1-0.5-0.1-0.7
		c-0.1-0.1-0.2-0.2-0.2-0.3c0-0.1,0-0.3,0.1-0.4c0.1-0.1,0.3-0.2,0.5-0.3c0.5-0.2,0.8-0.4,1.2-0.4c0.2,0,0.3,0,0.4,0.1
		c0,0.3,0.2,0.5,0.5,0.5c0.3,0,0.5-0.2,0.5-0.5C78.8,89.2,78.6,88.8,78.2,88.6z"/>
	<path fill="#3354A8" d="M81.5,91.8c-0.3,0-0.5,0.1-0.6,0.4c0,0.2-0.3,0.4-0.5,0.4c-0.2,0-0.4-0.3-0.4-0.5c0-0.3-0.2-0.5-0.5-0.5
		c-0.3,0-0.5,0.2-0.5,0.5c-0.1,0.8,0.5,1.5,1.3,1.6c0.1,0,0.1,0,0.2,0c0.7,0,1.3-0.5,1.5-1.2C82,92.1,81.8,91.8,81.5,91.8z"/>
	<path fill="#3354A8" d="M85.7,90.1c-0.4-0.1-0.7,0-0.9,0.1c-0.2,0.1-0.5,0.2-0.7,0.4c-0.3,0.3-0.5,0.7-0.3,1.1
		c0.1,0.2,0.3,0.3,0.5,0.3c0.1,0,0.1,0,0.2,0c0.3-0.1,0.4-0.4,0.3-0.7c0.1-0.1,0.2-0.1,0.4-0.2c0,0,0.1,0,0.2-0.1
		c0,0.2,0.1,0.3,0.2,0.4c0.2,0.2,0.5,0.1,0.7-0.1c0.1-0.2,0.2-0.4,0.1-0.7C86.2,90.4,86,90.2,85.7,90.1z"/>
	<path fill="#3354A8" d="M92.2,91.8c-0.2-0.1-0.5,0-0.7,0.3l-0.5,1.1c0,0-0.1,0.1-0.1,0.1c0,0,0,0-0.1,0c-0.4,0-0.7-0.2-1-0.5
		c-0.3-0.3-0.4-0.7-0.4-1.1c0-0.3-0.2-0.5-0.5-0.5c-0.3,0-0.5,0.2-0.5,0.5c0,0.6,0.2,1.3,0.6,1.8c0.5,0.5,1.1,0.8,1.7,0.8
		c0,0,0.1,0,0.1,0c0.3,0,0.5-0.1,0.7-0.2c0.2-0.2,0.3-0.4,0.4-0.5l0.5-1.1C92.6,92.2,92.4,91.9,92.2,91.8z"/>
</g>
<g>
	<path fill="#3354A8" d="M124,89.5c-0.4-0.4-1.1-0.6-1.7-0.6c0-0.6-0.3-1.1-0.7-1.5c-0.7-0.6-1.8-0.7-2.9-0.3
		c-0.5-0.4-1-0.6-1.5-0.5c-0.5,0.1-1,0.4-1.3,0.9c-0.1,0-0.2,0-0.3,0c-0.1-0.2-0.2-0.4-0.4-0.5c0.3-1,0.1-1.9-0.6-2.4
		c-1-0.9-3.1-0.6-4.4,0.6c-0.5-0.4-1-0.6-1.6-0.5c-0.7,0.1-1.2,0.6-1.4,1.3c-0.2,0.1-0.5,0.3-0.7,0.5c-0.1,0-0.2,0-0.3,0
		c-0.4-0.7-0.9-1.2-1.5-1.4c-0.9-0.3-1.9,0-2.3,0.7c-0.4,0.6-0.3,1.3-0.3,1.9c0,0.1,0,0.3,0.2,0.5c0,0,0,0,0,0c0,0,0,0,0,0
		c-1.9,0-3.5,1.1-3.5,2.5c0,0.9,0.7,1.8,1.8,2.2c0,0.1-0.1,0.3-0.1,0.5c0,1.4,1.6,2.5,3.8,2.5c1.2,0,2.3-0.4,3-1c0.2,0,0.5,0,0.7,0
		c0.6,0.9,1.8,1.4,3.2,1.4c0.9,0,1.7-0.2,2.3-0.6c0.7,0.2,1.4,0.2,2.2,0.1c0.7,0.4,1.6,0.7,2.6,0.7c1.7,0,3.1-0.7,3.6-1.7
		c0.6-0.2,1.2-0.5,1.6-1c0.8-0.7,1.2-1.7,1.2-2.6C124.7,90.4,124.4,89.9,124,89.5z M103.2,86.1c0.2-0.3,0.7-0.5,1.1-0.3
		c0.3,0.1,0.5,0.3,0.7,0.6c-0.7,0.2-1.4,0.5-2,1.1c0,0,0,0,0,0c0,0,0,0,0,0c0,0,0,0,0,0C103.1,86.9,103,86.4,103.2,86.1z
		 M122.8,92.9c0,0-0.1,0.1-0.2,0.1c-0.1,0-0.3,0-0.4,0.1c-0.4,0-1.2-0.1-1.4-0.6c-0.1-0.2,0-0.4,0.1-0.6c0.1-0.2,0.3-0.3,0.5-0.3
		c0.3,0,0.5-0.3,0.4-0.6c0-0.3-0.3-0.5-0.6-0.4c-0.5,0.1-0.9,0.4-1.2,0.8c-0.3,0.5-0.3,1-0.1,1.5c0.2,0.5,0.6,0.8,1.2,1
		c-0.1,0.1-0.1,0.1-0.1,0.2c-0.2,0.6-1.2,1.3-2.7,1.3c-0.9,0-1.7-0.2-2.2-0.6c-0.1-0.1-0.2-0.1-0.3-0.1c0,0-0.1,0-0.1,0
		c-0.8,0.2-1.4,0.1-2.1-0.1c-0.2-0.1-0.3,0-0.5,0.1c-0.5,0.4-1.2,0.6-2,0.6c-1.1,0-2.1-0.5-2.5-1.2c-0.1-0.2-0.3-0.3-0.5-0.3
		c-0.3,0-0.7,0.1-1.1,0c-0.1,0-0.3,0-0.4,0.2c-0.5,0.5-1.4,0.8-2.4,0.8c-1.5,0-2.8-0.7-2.8-1.5c0-0.2,0.1-0.3,0.2-0.5
		c0.1-0.1,0.1-0.3,0-0.5c-0.1-0.2-0.2-0.3-0.3-0.3c-1-0.2-1.6-0.8-1.6-1.4c0-0.7,0.8-1.3,1.9-1.5c-0.1,0.5,0,1.1,0.3,1.5
		c0.1,0.1,0.3,0.2,0.4,0.2c0.1,0,0.2,0,0.3-0.1c0.2-0.2,0.3-0.5,0.1-0.7c-0.2-0.3-0.2-0.7,0-1c0.1,0,0.2-0.1,0.3-0.2
		c0.2-0.2,0.4-0.4,0.6-0.6c0,0,0.1-0.1,0.2-0.2c0.8-0.7,1.9-1.1,2.7-0.8c0.2,0.1,0.4,0,0.5-0.1c0.3-0.2,0.6-0.4,0.9-0.6
		c0.1-0.1,0.2-0.2,0.3-0.3c0.1-0.4,0.4-0.7,0.7-0.8l0.1,0c0.3,0,0.6,0.2,0.9,0.5c0.1,0.1,0.2,0.2,0.3,0.2c0.1,0,0.3,0,0.4-0.1
		c0.1-0.1,0.2-0.1,0.3-0.2c0,0,0.1-0.1,0.2-0.2c0.9-0.9,2.4-1.2,3.1-0.6c0.4,0.4,0.5,1,0.2,1.7c-0.1,0.2,0,0.5,0.2,0.7
		c0,0,0.1,0,0.1,0.1c0.2,0.1,0.3,0.3,0.3,0.5c0,0.1,0.1,0.3,0.3,0.3c0.1,0.1,0.3,0.1,0.4,0c0.1,0,0.1-0.1,0.3-0.1c0.1,0,0.1,0,0.2,0
		c0.2,0.1,0.5-0.1,0.6-0.3c0.1-0.2,0.3-0.6,0.7-0.6c0.3,0,0.5,0.2,0.8,0.4c0.1,0.2,0.4,0.2,0.6,0.1c0.8-0.4,1.7-0.3,2.1,0
		c0.4,0.4,0.4,0.9,0.3,1.2c0,0.2,0,0.3,0.1,0.5s0.3,0.2,0.5,0.1c0.2,0,0.4-0.1,0.5-0.1c0.3,0,0.7,0.1,1,0.3c0.3,0.3,0.4,0.6,0.4,0.9
		C123.7,91.7,123.4,92.4,122.8,92.9z"/>
	<path fill="#3354A8" d="M105.2,89.4c-0.8,0.2-1.3,1-1.3,1.8c0,0.8,0.7,1.5,1.4,1.7c0,0,0.1,0,0.1,0c0.2,0,0.4-0.2,0.5-0.4
		c0.1-0.3-0.1-0.5-0.4-0.6c-0.3-0.1-0.6-0.4-0.6-0.8c0-0.3,0.2-0.7,0.6-0.8c0.1,0,0.3,0,0.4,0.1c-0.1,0.2-0.1,0.5,0.2,0.7
		c0.2,0.1,0.5,0.1,0.7-0.2c0.3-0.4,0.1-1.1-0.3-1.4C106.1,89.4,105.7,89.3,105.2,89.4z"/>
	<path fill="#3354A8" d="M111.3,88.4c0,0,0.1,0.1,0,0.5c0,0.3,0.2,0.5,0.4,0.6c0.3,0,0.5-0.2,0.6-0.4c0.1-0.8-0.1-1.3-0.5-1.5
		c-0.3-0.2-0.6-0.2-0.8-0.1c-0.9,0.1-2.1,0.6-2.4,1.7c-0.1,0.3,0.1,0.5,0.3,0.6c0,0,0.1,0,0.1,0c0.2,0,0.4-0.1,0.5-0.4
		c0.2-0.6,0.9-0.9,1.6-1C111.3,88.4,111.3,88.4,111.3,88.4z"/>
	<path fill="#3354A8" d="M115.2,91.9c-0.2-0.1-0.5,0-0.7,0.2c-0.3,0.6-1,0.9-1.7,0.9c-0.7-0.1-1.2-0.6-1.4-1.3
		c-0.1-0.3-0.3-0.4-0.6-0.4c-0.3,0.1-0.4,0.3-0.4,0.6c0.2,1.1,1.1,1.9,2.2,2.1c0.1,0,0.2,0,0.3,0c1,0,1.9-0.5,2.3-1.4
		C115.5,92.3,115.4,92,115.2,91.9z"/>
	<path fill="#3354A8" d="M118.6,89.7c-0.7-0.2-1.6,0-2.1,0.6c-0.2,0.2-0.2,0.5,0,0.7c0.2,0.2,0.5,0.2,0.7,0c0.2-0.3,0.6-0.4,1-0.3
		c-0.1,0.1-0.2,0.3-0.4,0.4c-0.2,0.2-0.3,0.5-0.1,0.7c0.1,0.1,0.3,0.2,0.4,0.2c0.1,0,0.2,0,0.3-0.1c0.3-0.2,0.6-0.5,0.8-0.9
		c0.1-0.1,0.1-0.4,0.1-0.6C119.2,90.2,119.1,89.9,118.6,89.7z"/>
</g>
<path fill="#3354A8" d="M67.5,44.8H7.3c-0.3,0-0.5-0.2-0.5-0.5s0.2-0.5,0.5-0.5h60.2c0.3,0,0.5,0.2,0.5,0.5S67.7,44.8,67.5,44.8z"/>
<g>
	<rect x="4.7" y="87" fill="#FFFFFF" width="58" height="4.4"/>
	<path fill="#3354A8" d="M62.7,92h-58c-0.3,0-0.5-0.2-0.5-0.5V87c0-0.3,0.2-0.5,0.5-0.5h58c0.3,0,0.5,0.2,0.5,0.5v4.4
		C63.2,91.7,63,92,62.7,92z M5.2,91h57v-3.4h-57V91z"/>
</g>
<g>
	<rect x="1.8" y="91.5" fill="#FFFFFF" width="63.9" height="4.4"/>
	<path fill="#3354A8" d="M65.7,96.4H1.8c-0.3,0-0.5-0.2-0.5-0.5v-4.4c0-0.3,0.2-0.5,0.5-0.5h63.9c0.3,0,0.5,0.2,0.5,0.5v4.4
		C66.2,96.2,66,96.4,65.7,96.4z M2.3,95.4h62.9V92H2.3V95.4z"/>
</g>
<path fill="#3354A8" d="M56.8,59.5c-1.2,0-2.9-0.4-4.3-1.4c-0.1-0.1-0.2-0.3-0.2-0.5s0.2-0.3,0.3-0.4c0.2-0.1,0.9-1.1,0.9-4.6
	c0-1.8,1.5-3.3,3.3-3.3s3.3,1.5,3.3,3.3c0,3.5,0.6,4.5,0.9,4.6c0.2,0.1,0.3,0.2,0.3,0.4s0,0.4-0.2,0.5
	C59.4,59.4,57.4,59.5,56.8,59.5z M53.6,57.6c1.1,0.6,2.3,0.9,3.2,0.9c0.4,0,1.8-0.1,3.2-0.9c-0.6-0.8-0.9-2.5-0.9-5
	c0-1.3-1-2.3-2.3-2.3s-2.3,1-2.3,2.3C54.5,55.1,54.2,56.8,53.6,57.6z"/>
<path fill="#3354A8" d="M56.8,53.1c-0.9,0-1.8-0.1-2.7-0.4c-0.3-0.1-0.4-0.4-0.3-0.6c0.1-0.3,0.4-0.4,0.6-0.3c1.5,0.5,3.2,0.5,4.7,0
	c0.3-0.1,0.5,0.1,0.6,0.3s-0.1,0.5-0.3,0.6C58.5,53,57.7,53.1,56.8,53.1z"/>
<path fill="#3354A8" d="M15.8,59.5c-1.2,0-2.9-0.4-4.3-1.4c-0.1-0.1-0.2-0.3-0.2-0.5s0.2-0.3,0.3-0.4c0.2-0.1,0.9-1.1,0.9-4.6
	c0-1.8,1.5-3.3,3.3-3.3s3.3,1.5,3.3,3.3c0,3.5,0.6,4.5,0.9,4.6c0.2,0.1,0.3,0.2,0.3,0.4s0,0.4-0.2,0.5
	C18.4,59.4,16.4,59.5,15.8,59.5z M12.6,57.6c1.1,0.6,2.3,0.9,3.2,0.9c0.4,0,1.8-0.1,3.2-0.9c-0.6-0.8-0.9-2.5-0.9-5
	c0-1.3-1-2.3-2.3-2.3s-2.3,1-2.3,2.3C13.5,55.1,13.2,56.8,12.6,57.6z"/>
<path fill="#3354A8" d="M15.8,53.1c-0.9,0-1.8-0.1-2.7-0.4c-0.3-0.1-0.4-0.4-0.3-0.6c0.1-0.3,0.4-0.4,0.6-0.3c1.5,0.5,3.2,0.5,4.7,0
	c0.3-0.1,0.5,0.1,0.6,0.3s-0.1,0.5-0.3,0.6C17.5,53,16.7,53.1,15.8,53.1z"/>
<path fill="#3354A8" d="M76.6,58.3c-0.1,0-0.2,0-0.3-0.1c-0.2-0.1-0.3-0.4-0.2-0.7l3.1-5.2c0.1-0.2,0.4-0.3,0.7-0.2
	c0.2,0.1,0.3,0.4,0.2,0.7L77,58.1C76.9,58.2,76.7,58.3,76.6,58.3z"/>
<path fill="#3354A8" d="M78.1,60.2c-0.1,0-0.2,0-0.2-0.1c-0.2-0.1-0.3-0.4-0.2-0.7l2.2-3.8c0.1-0.2,0.4-0.3,0.7-0.2
	c0.2,0.1,0.3,0.4,0.2,0.7l-2.2,3.8C78.4,60.1,78.3,60.2,78.1,60.2z"/>
<path fill="#3354A8" d="M87.2,68.9c-0.1,0-0.2,0-0.3-0.1c-0.2-0.1-0.3-0.4-0.2-0.7l3.1-5.2c0.1-0.2,0.4-0.3,0.7-0.2s0.3,0.4,0.2,0.7
	l-3.1,5.2C87.6,68.8,87.4,68.9,87.2,68.9z"/>
<path fill="#3354A8" d="M88.8,70.7c-0.1,0-0.2,0-0.2-0.1c-0.2-0.1-0.3-0.4-0.2-0.7l2.2-3.8c0.1-0.2,0.4-0.3,0.7-0.2
	c0.2,0.1,0.3,0.4,0.2,0.7l-2.2,3.8C89.1,70.7,88.9,70.7,88.8,70.7z"/>
<path fill="#3354A8" d="M107.6,58c-0.1,0-0.2,0-0.3-0.1c-0.2-0.1-0.3-0.4-0.2-0.7l3.1-5.2c0.1-0.2,0.4-0.3,0.7-0.2
	c0.2,0.1,0.3,0.4,0.2,0.7l-3.1,5.2C107.9,58,107.7,58,107.6,58z"/>
<path fill="#3354A8" d="M109.1,59.9c-0.1,0-0.2,0-0.2-0.1c-0.2-0.1-0.3-0.4-0.2-0.7l2.2-3.8c0.1-0.2,0.4-0.3,0.7-0.2
	c0.2,0.1,0.3,0.4,0.2,0.7l-2.2,3.8C109.4,59.8,109.3,59.9,109.1,59.9z"/>
<path fill="#3354A8" d="M35.5,39.9c-3,0-5.8-1.8-7.1-4.5c-0.1-0.2,0-0.5,0.2-0.7c0.3-0.1,0.5,0,0.7,0.2c1.1,2.4,3.5,3.9,6.2,3.9
	c3.8,0,6.8-3.1,6.8-6.8s-3.1-6.8-6.8-6.8c-0.2,0-0.5,0-0.7,0c-0.3,0-0.5-0.2-0.5-0.4c0-0.3,0.2-0.5,0.4-0.5c0.3,0,0.5,0,0.8,0
	c4.3,0,7.8,3.5,7.8,7.8S39.9,39.9,35.5,39.9z"/>
</svg>
