<?xml version="1.0" encoding="UTF-8" standalone="no"?>
<svg width="1274px" height="706px" viewBox="0 0 1274 706" version="1.1" xmlns="http://www.w3.org/2000/svg" xmlns:xlink="http://www.w3.org/1999/xlink" xmlns:sketch="http://www.bohemiancoding.com/sketch/ns">
    <!-- Generator: Sketch 3.2.2 (9983) - http://www.bohemiancoding.com/sketch -->
    <title>Fill 1</title>
    <desc>Created with Sketch.</desc>
    <defs></defs>
    <g id="Page-1" stroke="none" stroke-width="1" fill="none" fill-rule="evenodd" sketch:type="MSPage">
        <g id="home" sketch:type="MSArtboardGroup" transform="translate(-83.000000, -179.000000)" fill="#112C65">
            <g id="map" sketch:type="MSLayerGroup" transform="translate(83.704511, 179.146637)">
                <path d="M720.974877,323.562914 L720.974877,347.873005 L727.53072,354.434767 L727.53072,366.502251 L732.736599,371.716105 L732.736599,379.047341 L750.524663,396.851392 L750.524663,402.617145 L755.235119,402.617145 L760.988847,396.851392 L779.720575,396.851392 L779.720575,408.791516 L768.100403,420.421196 L768.100403,431.201801 L735.680306,463.655057 L735.680306,490.27092 L740.715801,495.309652 L740.715801,520.060201 L735.352645,525.425297 L726.715499,525.425297 L715.991808,536.160795 L722.272415,542.446607 L722.272415,559.207887 L712.09133,559.207887 L712.09133,565.249589 L716.253937,569.418019 L687.736938,597.957568 L678.318649,597.957568 L673.608193,602.67259 L660.008948,602.67259 L660.008948,595.341354 L664.182039,591.159658 L657.893568,584.863232 L657.893568,571.798084 L651.633931,565.533499 L651.633931,543.494684 L635.413397,527.256116 L635.413397,509.974777 L640.123853,505.259755 L640.123853,469.126287 L623.119554,452.104978 L631.751457,443.462982 L631.751457,431.549392 L610.823089,431.549392 L610.823089,421.270272 L599.640672,421.270272 L589.370464,431.549392 L561.508788,431.549392 L549.346009,419.370466 L549.346009,409.685699 L528.155512,388.474732 L537.052166,379.570053 L537.052166,359.147135 L532.863346,354.957479 L532.863346,343.959298 L550.114046,326.691226 L557.977912,326.691226 L557.977912,305.727022 L571.058142,292.63534 L587.281297,292.63534 L595.651071,284.256027 L631.751457,284.256027 L636.724042,289.231078 L631.232442,294.728842 L631.232442,302.439508 L643.785793,302.439508 L652.858073,311.519309 L658.957811,311.519309 L663.65516,316.218411 L663.65516,302.439508 L669.948874,302.439508 L678.918924,311.415828 L700.81979,311.415828 L704.704539,307.526001 L712.675878,307.526001 L720.974877,323.562914 Z M938.885216,425.136219 L945.68746,425.136219 L961.124229,440.584085 L961.124229,449.748793 L972.241113,460.876989 L972.241113,467.030132 L967.071932,472.201533 L954.812166,459.927086 L954.812166,450.796871 L938.738424,434.712198 L938.885216,425.136219 Z M981.617463,437.877657 L981.617463,447.307702 L986.152292,451.844948 L986.152292,460.571852 L992.600662,467.030132 L1002.1972,467.030132 L1014.01397,455.20145 L1014.01397,443.462982 L1016.82923,440.650419 L1010.9156,434.733425 L1010.9156,426.704355 L1016.82923,426.704355 L1020.14778,423.37704 L1010.73998,413.962916 L989.641227,437.352292 L981.617463,437.877657 Z M976.736623,472.201533 L971.902967,477.038609 L976.558376,481.697911 L996.965107,481.697911 L1001.27713,486.012276 L1028.00903,486.012276 L1032.87152,481.148665 L1007.08066,481.148665 L1001.20111,475.266164 L981.617463,475.266164 L976.736623,472.201533 Z M1062.54188,448.668876 L1062.54188,454.986528 L1070.21702,454.986528 L1070.21702,458.825941 L1064.66513,464.382078 L1074.75185,464.382078 L1086.0994,475.743769 L1080.67858,481.169892 L1093.5858,481.169892 L1093.5858,486.012276 L1103.70398,486.012276 L1103.70398,479.110884 L1112.07637,479.110884 L1121.64932,488.694823 L1133.35075,488.694823 L1119.8249,475.16003 L1119.8249,470.346833 L1113.11965,470.346833 L1098.55315,455.771922 L1090.44812,455.771922 L1085.17147,450.491734 L1078.23816,457.430273 L1078.23816,448.668876 L1062.54188,448.668876 Z M560.738129,186.477027 L556.509991,190.756898 L553.340853,190.756898 L553.340853,197.440714 L557.304241,201.452596 L553.340853,201.452596 L553.340853,206.931786 L560.738129,206.931786 L567.802502,199.780978 L567.802502,186.477027 L560.738129,186.477027 Z M571.962487,172.037438 L568.067252,175.982985 L572.360922,180.326537 L572.360922,189.820262 L577.247004,189.820262 L580.746425,193.362499 L576.982254,197.172725 L573.548366,197.172725 L573.548366,205.997803 L579.493449,205.997803 L569.91526,215.69053 L572.623051,215.69053 L576.355766,211.914797 L593.75588,211.914797 L593.75588,207.467765 L596.993171,204.193518 L596.993171,200.648627 L592.437371,200.648627 L592.437371,194.50079 L580.549828,182.465146 L579.095013,180.995184 L582.793651,177.251292 L582.793651,172.037438 L577.642819,172.037438 L577.642819,169.766161 L582.597054,164.751309 L582.597054,162.010387 L578.041255,162.010387 L574.672899,165.419956 L572.227237,165.419956 L571.962487,172.037438 Z M320.434122,410.473747 L320.434122,432.990167 L302.646057,450.796871 L302.646057,471.219789 L329.330775,497.933826 L329.330775,515.209858 L340.316595,526.210692 L340.316595,597.957568 L334.822374,603.457985 L334.822374,634.616401 L329.294077,640.151312 L329.294077,647.710737 L333.516973,647.710737 L333.516973,639.665747 L336.133019,639.665747 L336.133019,654.516607 L329.068646,661.587814 L329.068646,693.794307 L340.44766,705.187838 L360.20169,705.187838 L348.754523,693.73328 L348.754523,684.894935 L362.065426,671.57241 L362.065426,666.562865 L354.442719,666.562865 L354.442719,659.756995 L361.134869,653.062565 L361.134869,639.665747 L372.233405,639.665747 L372.233405,625.717029 L386.36215,625.717029 L394.472417,617.597745 L381.130058,604.240726 L399.439759,604.240726 L406.76626,596.909491 L406.76626,586.436675 L419.062725,574.127735 L419.062725,563.392237 L434.890065,547.551673 L445.485314,547.551673 L455.886587,537.142538 L455.886587,508.9267 L472.922341,491.87355 L472.922341,473.838656 L459.611438,473.838656 L450.195769,464.413919 L434.496872,464.413919 L434.496872,452.890373 L422.465157,452.890373 L414.614398,445.033771 L414.614398,429.323222 L408.86067,423.560122 L387.782889,423.560122 L369.546584,405.307653 L353.921083,405.307653 L348.390164,399.770089 L342.932641,399.770089 L342.932641,408.900304 L338.224807,408.900304 L338.224807,396.851392 L333.779102,401.306385 L327.760623,401.306385 L320.434122,410.473747 Z M246.13894,327.723383 L246.13894,359.147135 L257.12476,370.142663 L270.207611,370.142663 L280.671795,359.669847 L286.949782,359.669847 L286.949782,378.524629 L298.45986,378.524629 L298.45986,402.09178 L305.002596,408.637621 L320.434122,408.637621 L320.434122,414.658097 L299.505754,414.658097 L293.489896,408.637621 L286.949782,408.637621 L286.949782,400.518337 L281.977197,395.545939 L272.821036,395.545939 L258.563848,381.273511 L236.718029,381.273511 L219.150153,363.687036 L219.150153,353.909401 L203.605912,338.350093 L203.605912,331.390328 L187.720903,315.49139 L184.397109,315.49139 L193.382886,324.49159 L193.382886,331.91304 L205.894297,344.436903 L200.093385,344.436903 L190.174429,334.508027 L184.397109,334.508027 L184.397109,323.562914 L176.703627,315.86286 L176.703627,302.439508 L170.270985,302.439508 L158.569553,290.730227 L158.569553,282.159871 L152.123804,275.709551 L152.123804,228.745065 L156.14224,228.745065 L159.80418,232.406703 L159.80418,225.598179 L148.031973,213.817257 L138.875812,213.817257 L138.875812,207.794128 L121.085127,189.990077 L115.855656,189.990077 L115.855656,171.658007 L108.004897,171.658007 L98.3270994,161.970587 L75.5638295,161.970587 L70.4654233,156.865521 L65.0996456,156.865521 L65.0996456,161.185192 L69.8101011,161.185192 L69.8101011,164.324118 L59.3459172,164.324118 L52.2815445,171.395325 L49.9276274,169.041794 L49.9276274,163.278694 L55.6839771,157.518248 L55.6839771,153.328591 L50.7113927,158.303642 L44.173899,164.849483 L44.173899,171.135295 L28.4776231,186.845845 L21.1485003,186.845845 L11.470703,196.533265 L4.40895158,196.533265 L17.8797535,183.048885 L25.3373194,183.048885 L35.4738423,172.902434 L22.1970157,172.902434 L17.5861692,177.519281 L17.5861692,164.849483 L7.54663399,164.849483 L7.54663399,156.472823 L0.222753755,156.472823 L0.222753755,153.328591 L7.54663399,145.997355 L16.9649238,145.997355 L16.9649238,137.095329 L0.222753755,137.095329 L0.222753755,129.238728 L4.93058801,124.523706 L8.59252812,124.523706 L15.6569008,131.592259 L15.6569008,124.523706 L1.92397003,110.776644 L1.92397003,105.671577 L8.59252812,105.671577 L19.8430986,94.4107141 L41.557853,94.4107141 L47.4426459,100.303828 L89.1683171,100.303828 L103.622102,114.769952 L110.623564,114.769952 L110.623564,107.242367 L117.163679,100.696526 L133.64372,100.696526 L137.698854,104.756168 L143.06201,104.756168 L137.504878,99.1894169 L143.586268,99.1894169 L152.577287,108.19227 L185.443003,108.19227 L185.443003,118.243201 L197.477339,118.243201 L197.477339,113.525525 L207.417265,123.478282 L207.417265,109.335869 L217.359813,109.335869 L222.854034,114.833632 L245.090425,114.833632 L255.947802,103.96812 L251.633161,99.6484483 L260.002935,91.2691349 L268.113202,99.3857656 L263.667497,103.840758 L272.296778,112.477448 L277.531492,107.242367 L280.671795,110.3866 L276.745105,114.313574 L283.547349,121.119444 L283.547349,129.238728 L257.777461,155.032048 L257.777461,170.089871 L264.451262,170.089871 L264.451262,176.895742 L274.912824,176.895742 L290.087464,192.083579 L303.167694,192.083579 L303.167694,201.508316 L312.061726,210.412995 L318.080204,204.389866 L311.802218,198.106708 L311.802218,192.083579 L321.348951,182.526173 L311.802218,172.968768 L319.12872,165.634878 L313.631878,160.137115 L313.631878,149.138934 L333.516973,149.138934 L340.578724,156.210141 L347.118839,156.210141 L347.118839,165.374849 L354.969598,173.228797 L367.001313,161.185192 L367.001313,169.041794 L375.11158,177.158424 L375.11158,186.845845 L390.545727,186.845845 L390.545727,195.225158 L394.994053,199.674844 L394.994053,208.31684 L385.837892,208.31684 L380.6058,213.554574 L357.061387,213.554574 L341.624618,229.005094 L341.624618,233.977493 L356.406064,219.185006 L366.477055,219.185006 L366.477055,229.790489 L370.925382,234.240175 L370.925382,240.786016 L357.061387,240.786016 L357.061387,246.549116 L348.164733,246.549116 L343.129238,251.590502 L343.129238,259.118086 L331.522172,270.739807 L328.381868,273.878732 L328.381868,282.685237 L325.141956,282.685237 L325.141956,274.828636 L321.220508,278.758263 L321.220508,283.210602 L324.751384,286.742226 L324.751384,293.158052 L307.943682,309.983013 L307.943682,318.298646 L311.540089,326.677959 L311.540089,337.150774 L305.262103,337.150774 L298.197731,330.079568 L298.197731,323.562914 L291.513445,316.871138 L274.912824,316.871138 L280.087248,322.053151 L269.680732,322.053151 L263.882442,316.244944 L255.032972,316.244944 L246.13894,327.723383 Z M451.7633,130.809518 L451.7633,139.711543 L446.009571,145.474643 L446.009571,163.801406 L436.067024,163.801406 L428.481015,156.210141 L422.465157,156.210141 L410.333834,144.068362 L418.313036,136.081746 L411.68904,129.450997 L405.19873,129.450997 L405.19873,115.098968 L416.18455,104.100788 L402.580062,90.4837401 L402.580062,93.6253193 L397.34797,93.6253193 L397.34797,74.2478253 L382.70021,59.5853535 L362.817736,59.5853535 L356.799258,65.6084825 L336.308645,45.0980035 L341.802866,39.5975865 L362.293479,39.5975865 L367.21888,34.6676422 L362.817736,30.2551031 L354.442719,30.2551031 L365.955419,18.7342105 L376.419603,18.7342105 L381.654316,13.4964763 L407.290518,13.4964763 L414.879148,21.0903949 L414.879148,10.3575504 L427.697249,10.3575504 L430.834932,7.21331789 L448.10136,7.21331789 L454.738462,0.571955787 L488.387943,0.571955787 L488.387943,7.21331789 L507.224523,7.21331789 L516.380684,16.3780261 L490.482353,16.3780261 L488.519008,18.3415131 L508.794675,18.3415131 L508.794675,28.1616015 L519.520988,17.4234503 L534.433498,17.4234503 L540.320912,11.5356426 L549.605516,11.5356426 L556.604357,18.5378618 L552.221562,22.9238672 L542.803273,22.9238672 L525.539466,40.2052062 L525.539466,50.1579626 L531.293195,50.1579626 L531.293195,56.9664864 L519.785738,56.9664864 L519.785738,70.5835341 L511.413342,78.9601941 L506.440758,73.9851426 L501.992431,73.9851426 L501.992431,82.1893342 L516.121176,82.1893342 L516.121176,91.2691349 L495.845509,111.562038 L481.064063,111.562038 L468.835752,123.804645 L458.565543,123.804645 L451.7633,130.809518 Z M509.84319,127.145226 L509.84319,134.476462 L517.201147,141.842192 L530.2473,141.842192 L543.345879,128.731936 L536.527908,121.907492 L526.595845,121.907492 L521.618018,126.885197 L517.950836,123.215599 L509.84319,123.215599 L509.84319,127.145226 Z M752.616451,522.021035 L752.616451,536.160795 L746.603216,542.183924 L746.603216,556.063654 L756.957305,566.427682 L767.814683,555.562169 L767.814683,535.112717 L778.790018,524.127804 L778.790018,508.9267 L772.247281,502.375552 L752.616451,522.021035 Z M1265.90145,114.226013 L1255.78852,114.226013 L1255.78852,121.557249 L1249.85654,115.62168 L1249.85654,105.496456 L1234.85491,105.496456 L1226.83376,97.4647324 L1206.60266,97.4647324 L1206.60266,107.940201 L1197.53038,107.940201 L1189.16323,99.5635408 L1171.02653,99.5635408 L1166.48908,104.100788 L1157.76805,95.3712307 L1128.46991,95.3712307 L1128.46991,81.7568364 L1121.14603,81.7568364 L1115.91132,86.9919173 L1107.54154,78.6152572 L1090.79675,78.6152572 L1090.79675,89.085419 L1070.56565,89.085419 L1060.44747,99.2106438 L1049.63466,88.3875851 L1054.86675,83.1498508 L1043.35667,71.6316116 L1031.49796,71.6316116 L1031.49796,80.7724396 L1024.53844,80.7724396 L1018.24211,74.4680543 L998.750205,74.4680543 L981.963473,91.2691349 L975.646167,88.4326922 L998.708264,65.3457998 L998.708264,56.9664864 L971.499289,56.9664864 L971.499289,45.6207156 L961.205489,45.6207156 L946.062305,60.7820192 L939.409474,54.124737 L924.706667,54.124737 L914.292287,64.5444849 L900.936822,64.5444849 L891.065049,74.4229471 L891.065049,90.3643389 L886.063631,95.3712307 L886.063631,84.5269451 L879.413422,77.8696628 L873.263879,77.8696628 L867.683155,83.4549873 L872.611178,88.3902384 L872.611178,97.9900978 L865.898058,91.2691349 L865.898058,79.7455889 L857.960796,87.6924045 L857.960796,115.098968 L850.812542,122.257736 L845.58045,122.257736 L854.996119,112.830345 L854.996119,83.4602941 L843.008966,83.4602941 L835.208011,91.2691349 L835.208011,109.593245 L822.903683,97.2816505 L803.555952,97.2816505 L811.044973,104.772088 L775.626122,104.772088 L762.454147,117.959291 L754.535235,110.036356 L754.535235,118.895928 L743.593976,118.895928 L724.791473,137.713562 L718.956485,131.873515 L718.956485,121.907492 L712.675878,121.907492 L718.086217,116.494636 L725.239714,123.656057 L731.86371,123.656057 L740.673861,114.836286 L729.420669,103.575422 L712.854125,103.575422 L707.792417,98.5154633 L699.771274,98.5154633 L695.239066,93.9755629 L675.702603,93.9755629 L668.030091,101.657042 L659.657695,101.657042 L639.42659,121.907492 L639.42659,131.873515 L631.751457,131.873515 L631.751457,141.316826 L624.220495,141.316826 L614.312025,151.232436 L619.546738,156.472823 L612.220236,163.801406 L612.220236,172.881207 L626.170734,172.881207 L632.435614,166.611315 L641.156641,175.340872 L647.049297,181.241947 L654.008818,174.276874 L654.008818,168.763191 L660.354958,162.405738 L663.914668,158.844928 L659.101982,154.029078 L659.101982,142.017314 L669.67626,131.430404 L672.913552,128.193304 L686.869292,128.193304 L669.421995,145.649765 L669.421995,157.168004 L674.132451,157.168004 L674.132451,163.628937 L680.586063,157.168004 L698.376749,157.168004 L691.750131,163.801406 L680.586063,163.801406 L680.586063,174.101753 L669.421995,174.101753 L669.421995,187.896575 L663.497883,187.896575 L663.497883,193.131656 L658.368021,187.997403 L653.938044,192.431169 L646.401839,192.431169 L637.332181,183.354022 L632.626968,183.354022 L632.626968,174.101753 L627.219249,179.514609 L627.219249,196.623479 L624.427577,199.414815 L609.389245,199.414815 L609.389245,208.977527 L595.921064,222.4566 L590.418979,222.4566 L585.708524,227.174275 L579.430538,227.174275 L579.430538,231.639882 L584.384773,231.639882 L590.90916,238.169803 L590.90916,249.924191 L587.281297,253.556642 L580.4109,253.556642 L576.292855,249.430666 L564.258519,249.430666 L557.686949,256.011001 L564.258519,256.011001 L564.258519,263.833108 L557.571612,270.524884 L557.571612,276.924791 L564.575695,283.937623 L570.536506,283.937623 L570.536506,288.445683 L575.768598,283.210602 L585.708524,283.210602 L591.205366,277.710185 L591.205366,268.938175 L601.997211,258.136343 L601.997211,249.430666 L610.823089,249.430666 L614.15999,252.771247 L619.654211,247.27083 L627.567881,247.27083 L634.270516,253.98118 L634.270516,259.643452 L639.077959,259.643452 L649.804272,270.37895 L649.804272,282.159871 L655.689064,276.266757 L655.689064,270.641632 L661.576479,270.641632 L661.576479,267.4974 L653.938044,262.785031 L638.136916,246.968347 L638.136916,239.740592 L643.578711,245.187942 L648.677118,250.295662 L659.48469,250.295662 L659.48469,257.547297 L664.454653,262.522348 L664.454653,272.735134 L669.948874,272.735134 L669.948874,279.020946 L675.440474,284.518709 L675.440474,270.116267 L682.89804,262.652363 L696.63097,262.652363 L696.63097,252.962289 L706.63905,242.948505 L706.63905,237.121725 L712.332489,237.121725 L712.332489,243.932902 L717.433516,249.037969 L722.400858,244.062917 L730.642189,244.062917 L737.968691,251.394153 L745.334512,256.804356 L739.18759,262.957499 L726.631618,262.957499 L723.839946,260.166164 L711.281352,260.166164 L700.81979,270.641632 L690.355606,270.641632 L690.355606,276.224303 L703.435836,289.318639 L708.494922,284.256027 L725.871444,284.256027 L725.871444,294.317571 L712.675878,307.526001 L720.974877,323.562914 L724.191198,323.562914 L724.191198,337.323243 L735.703898,348.846789 L735.703898,361.065515 L742.327894,361.065515 L753.140709,371.888574 L753.140709,392.162904 L764.118666,392.162904 L778.790018,377.476552 L788.719459,377.476552 L807.556038,358.624423 L807.556038,343.611708 L798.14037,343.611708 L792.208394,337.67614 L785.233145,344.657132 L774.76634,344.657132 L774.76634,331.390328 L767.093828,331.390328 L767.093828,317.948402 L772.850178,317.948402 L786.627671,331.737918 L801.626684,331.737918 L812.439499,342.560977 L831.975963,342.560977 L847.242347,357.846989 L853.250341,351.83182 L853.250341,380.618131 L860.576842,387.949367 L860.576842,406.804149 L870.757927,416.995708 L887.219619,400.518337 L887.219619,385.290699 L899.214635,373.286895 L899.214635,362.601811 L912.816502,348.987417 L930.342437,366.526132 L930.342437,383.067183 L935.713457,377.680861 L943.881392,385.855865 L943.881392,410.707243 L954.631297,421.466621 L954.631297,429.970642 L971.95015,447.307702 L971.95015,440.915755 L965.07451,434.038244 L965.07451,420.917375 L951.965446,407.799159 L951.965446,390.746009 L969.001201,407.799159 L979.758969,397.026514 L979.758969,378.285827 L966.854365,365.369266 L976.626529,355.586325 L984.542821,363.50926 L984.542821,352.81887 L993.824803,343.529454 L1005.95088,343.529454 L1030.63818,318.821358 L1030.63818,298.411706 L1020.50952,288.273215 L1026.4415,282.334993 L1021.73104,277.619971 L1014.05591,277.619971 L1006.38078,269.941145 L1018.93937,269.941145 L1027.31176,261.564485 L1027.31176,276.224303 L1032.89511,270.641632 L1038.47059,270.641632 L1038.47059,279.020946 L1042.65941,279.020946 L1042.65941,292.985584 L1047.01861,297.347709 L1055.91527,288.445683 L1055.91527,274.130802 L1045.46943,274.130802 L1045.46943,262.978726 L1060.79873,247.642301 L1071.56436,247.642301 L1097.42337,221.761419 L1097.42337,194.179734 L1092.76796,189.520432 L1088.00508,194.288522 L1075.20795,194.288522 L1101.9582,167.513458 L1122.669,167.513458 L1130.55908,159.614403 L1130.55908,164.647828 L1143.52659,164.647828 L1149.67089,158.492031 L1164.04866,144.102855 L1173.46695,144.102855 L1173.46695,155.074502 L1147.30387,181.26052 L1147.30387,208.560949 L1153.65001,208.560949 L1169.06581,193.131656 L1169.06581,184.18983 L1172.68843,180.560033 L1172.68843,168.69951 L1184.97441,156.401183 L1203.3942,156.401183 L1217.76411,142.017314 L1231.57305,142.017314 L1220.55578,130.984639 L1239.56536,130.984639 L1239.56536,121.031883 L1251.24845,132.730551 L1260.67198,132.730551 L1272.53069,120.859415 L1265.90145,114.226013 Z M793.605541,264.252339 L788.719459,264.252339 L788.719459,285.797629 L777.2487,285.797629 L771.172553,279.716126 L771.172553,268.654265 L762.692685,260.166164 L762.692685,242.709703 L782.695738,230.138079 L782.695738,246.450942 L793.605541,257.374828 L793.605541,264.252339 Z M1092.19128,257.969181 L1092.19128,272.735134 L1078.93542,286.001938 L1068.46862,286.001938 L1060.09884,294.381251 L1060.09884,302.439508 L1070.75176,291.778304 L1075.79512,296.824997 L1083.12162,296.824997 L1083.12162,292.285096 L1092.19128,292.285096 L1097.772,284.256027 L1097.772,274.130802 L1101.9582,274.130802 L1101.9582,266.454629 L1092.19128,257.969181 Z M1096.37748,234.502858 L1096.37748,246.461555 L1091.40489,251.43926 L1091.40489,257.969181 L1096.28049,253.086997 L1103.30292,260.113097 L1113.89555,249.51292 L1108.71064,244.3256 L1102.65022,244.3256 L1096.37748,234.502858 Z M1004.02948,547.357977 L1004.02948,563.729214 L998.448756,563.729214 L1013.1935,578.487206 L1013.1935,593.576869 L1004.96528,601.818208 L1004.96528,609.815438 L1023.56332,609.815438 L1042.13515,591.223338 L1058.44743,591.223338 L1063.1107,586.55077 L1073.09519,586.55077 L1084.80449,598.268011 L1089.66698,593.401748 L1089.66698,603.00426 L1096.94367,610.290389 L1096.94367,620.479295 L1117.04634,620.479295 L1121.26399,624.700792 L1131.90904,614.039588 L1131.90904,602.67259 L1147.07058,587.500673 L1147.07058,563.729214 L1137.38491,554.03118 L1137.38491,547.357977 L1119.83014,529.787422 L1119.83014,517.831378 L1112.85752,510.855693 L1112.85752,502.375552 L1105.58082,495.092076 L1105.58082,515.037389 L1097.3159,523.310568 L1087.355,513.339239 L1087.355,502.375552 L1066.11994,502.375552 L1054.56268,513.944205 L1048.67789,508.053744 L1026.10073,530.655071 L1017.98784,530.655071 L1004.02948,547.357977 Z M1111.39484,637.113214 L1117.74622,649.093138 L1124.72147,649.093138 L1135.17255,638.625629 L1135.17255,629.556442 L1129.69405,635.043592 L1117.74622,635.043592 L1117.54962,629.556442 L1111.39484,629.556442 L1111.39484,637.113214 Z M1195.12928,660.412375 L1203.63798,651.377681 L1203.63798,644.569157 L1208.34582,644.569157 L1217.59897,635.308928 L1208.87007,626.571411 L1208.87007,635.141766 L1202.07045,635.141766 L1202.07045,639.665747 L1197.36,639.665747 L1186.01768,651.019478 L1195.12928,660.412375 Z M1211.22661,622.047431 L1216.88597,625.878884 L1216.88597,632.26287 L1222.73145,632.26287 L1225.39206,629.601549 L1225.39206,622.047431 L1229.53631,622.047431 L1229.53631,613.148059 L1226.92027,613.148059 L1224.56897,615.504243 L1220.05511,610.98557 L1220.05511,606.336882 L1211.3236,597.599364 L1208.61057,600.316406 L1214.6238,606.336882 L1214.6238,618.12311 L1211.22661,622.047431 Z M1024.16884,334.181663 L1017.6261,340.735465 L1017.6261,350.003654 L1025.56861,350.003654 L1025.56861,344.312195 L1030.80332,339.071807 L1024.16884,334.181663 Z M1040.565,479.110884 L1031.93048,487.755534 L1031.93048,491.995604 L1036.24774,491.995604 L1043.98578,484.247791 L1043.98578,479.110884 L1040.565,479.110884 Z M1123.58645,470.346833 L1123.58645,474.886734 L1133.35075,474.886734 L1140.06649,468.165771 L1140.06649,460.574506 L1133.39531,453.895996 L1129.33756,457.958292 L1135.23546,463.864673 L1129.78842,469.317329 L1123.58645,470.346833 Z" id="Fill-1" sketch:type="MSShapeGroup"></path>
            </g>
        </g>
    </g>
</svg>