<?xml version="1.0" encoding="utf-8"?>
<!-- Generator: Adobe Illustrator 18.1.1, SVG Export Plug-In . SVG Version: 6.00 Build 0)  -->
<svg version="1.2" baseProfile="tiny" id="Layer_1" xmlns="http://www.w3.org/2000/svg" xmlns:xlink="http://www.w3.org/1999/xlink"
	 x="0px" y="0px" viewBox="0 0 100 100" xml:space="preserve">
<g>
	<path fill="#3354A8" d="M99.3,45.2c-0.1-0.1-0.3-0.1-0.4-0.1C96.5,20.6,75.7,1.4,50.6,1.4C23.8,1.4,2,23.2,2,50
		c0,26.8,21.8,48.6,48.6,48.6c21.4,0,39.7-14,46.1-33.3c0.5-0.6,0.7-1.4,0.7-2.2c0-0.1,0-0.1,0-0.2c1.1-4.1,1.8-8.5,1.8-12.9
		c0-1.3-0.1-2.5-0.2-3.8c0.1-0.1,0.2-0.2,0.3-0.3C99.5,45.7,99.5,45.4,99.3,45.2z M80,13.9c-0.4,0.6-1,1-1.4,1.1
		c-0.2,0.1-0.4,0.2-0.6,0.3c-0.9,0.5-1.8,0.9-2.4,1.8c-0.3,0.4-0.4,0.9-0.6,1.3c-0.1,0.2-0.1,0.5-0.2,0.7c-0.1,0.2-0.4,1-1,1.1
		c-0.2,0-0.5-0.1-0.8-0.1l-1.6-0.5c-0.3-0.1-0.6-0.2-0.7-0.4c-0.2-0.2-0.3-0.6-0.3-1l0-0.1c-0.2-1.4-0.6-2.7-1.3-3.9L69,13.9
		c-0.4-0.7-0.8-1.4-0.7-2c0.1-0.7,0.9-1.2,1.6-1.6l2.5-1.5C75.1,10.3,77.7,12,80,13.9z M4,50c0-0.6,0-1.2,0-1.8
		c0.6,0.6,1.3,1.2,2.1,1.5c0.5,0.2,0.9,0.3,1.4,0.4c1,0.3,1.9,0.5,2.4,1.2c0.2,0.3,0.4,0.7,0.5,1.1c0.2,0.5,0.4,1,0.8,1.5
		c0.2,0.3,0.5,0.5,0.8,0.7c0.3,0.2,0.6,0.4,0.7,0.7c0.1,0.2,0.2,0.5,0.3,0.9c0,0.2,0.1,0.3,0.1,0.5c0.4,1.4,1.6,2.6,3,3
		c0.4,0.8,0.6,1.8,0.7,2.8c0.1,0.9,0.3,1.8,0.6,2.6c0.4,1.1,1.2,1.9,1.9,2.7l1.5,1.7c-0.1,0.1-0.2,0.3-0.1,0.5
		c0.1,0.3,0.4,0.4,0.6,0.3l0.1,0c0.3-0.1,0.8,0.2,1.3,0.5c0.4,0.4,0.7,0.8,0.6,1.2c0,0.2-0.1,0.5,0.1,0.8c0.3,0.5,0.8,0.5,1,0.5
		c0.9,0,2,0,2.8-0.7c0.1-0.1,0.2-0.2,0.3-0.3c0.1-0.1,0.2-0.2,0.3-0.3c0.1,0,0.2-0.1,0.5,0c0.4,0.2,0.7,0.6,0.8,1
		c0.1,0.5,0,0.9-0.1,1.4c0,0.4-0.1,0.7-0.1,1.1c-1.4,1.1-3.1,1.8-4.9,2c-0.4,0-0.8,0.1-1.2,0.4c-0.3,0.3-0.3,0.6-0.4,0.8
		c-0.1,0.5-0.4,1.5,0.2,2.3c0.1,0.2,0.3,0.3,0.4,0.4c0.1,0.1,0.2,0.2,0.3,0.3c0.2,0.3,0.2,0.7,0.2,1.3c0,0.5-0.1,1,0.1,1.5
		c0.3,0.7,0.9,1.1,1.4,1.5c0.3,0.2,0.5,0.4,0.7,0.6c0.3,0.3,0.5,0.8,0.8,1.2l1.7,3.1C13.8,82.9,4,67.6,4,50z M29.6,91.6
		c0-0.1,0-0.2,0-0.3l-2.2-4.1c-0.2-0.5-0.5-1-0.9-1.4c-0.3-0.3-0.6-0.5-0.9-0.7c-0.5-0.3-0.9-0.6-1-1c-0.1-0.3-0.1-0.7-0.1-1.1
		c0-0.6,0.1-1.3-0.4-1.9c-0.1-0.2-0.3-0.3-0.4-0.4c-0.1-0.1-0.2-0.2-0.3-0.3c-0.3-0.3-0.1-0.9,0-1.5c0-0.1,0.1-0.3,0.1-0.4
		c0.1-0.1,0.3-0.1,0.6-0.1c2-0.2,4-1,5.6-2.3c0.1-0.1,0.2-0.3,0.2-0.4c0-0.4,0-0.8,0.1-1.2c0.1-0.6,0.1-1.1,0-1.7
		c-0.1-0.7-0.7-1.5-1.4-1.8c-0.5-0.2-1-0.2-1.4,0.1c-0.2,0.1-0.4,0.3-0.5,0.5c-0.1,0.1-0.1,0.2-0.2,0.2c-0.5,0.4-1.3,0.4-2,0.4
		c-0.1,0-0.1,0-0.1,0c0,0,0-0.1,0-0.2c0.1-0.7-0.2-1.4-1-2.1c-0.3-0.3-0.8-0.6-1.2-0.7c0,0,0,0,0,0l-2-2.2c-0.7-0.7-1.3-1.5-1.7-2.4
		c-0.3-0.7-0.4-1.5-0.5-2.4c-0.2-1.2-0.4-2.4-1-3.3c-0.1-0.1-0.2-0.2-0.3-0.2c-1.2-0.3-2.2-1.2-2.5-2.4c0-0.1-0.1-0.3-0.1-0.4
		c-0.1-0.4-0.2-0.8-0.4-1.2c-0.3-0.4-0.6-0.7-1-0.9c-0.2-0.2-0.4-0.3-0.6-0.5c-0.3-0.3-0.4-0.7-0.6-1.2c-0.2-0.5-0.4-0.9-0.7-1.3
		c-0.7-1-1.9-1.2-2.9-1.5C7.4,49,7,48.9,6.6,48.8c-1-0.4-1.9-1.2-2.4-2.1c0.5-6.4,2.2-12.3,4.9-17.7c0.1,0.2,0.3,0.3,0.5,0.3
		c1.6-0.2,3.2,0.3,4.3,1.4c0.1,0.1,0.3,0.3,0.4,0.4c0.5,0.5,1.1,1.2,2,1.3c0.9,0.1,1.6-0.3,2.3-0.6l0.2-0.1c3.6-1.9,7.9-2,11.6-2.2
		l10.7-0.4c0.6,1.6,0.6,3.5,0.1,5.1l-0.1,0.2c-0.2,0.5-0.3,1.1-0.2,1.7c0.2,1.5,1.8,1.9,3.1,2.2c0.9,0.2,1.9,0.4,2.5,1
		c1,1,0.3,2.8-0.5,4.6c-1.4,2.9-2.3,6.1-3.2,9.1c-0.3,0.9-0.6,2-0.6,3c-0.2-0.4-0.2-0.9-0.3-1.6c-0.2-1.2-0.3-2.5-1.3-3.2
		c-0.6-0.5-1.4-0.5-2.1-0.6c-1.1-0.1-4.4-0.4-5.5,2c-0.1,0.3-0.2,0.7-0.3,1c-0.1,0.5-0.2,0.8-0.5,1.1c-0.5,0.6-1.6,0.3-2.6,0.1
		l-0.4-0.1c-2.3-0.5-4.8,0-6.6,1.5c-0.1,0.1-0.2,0.2-0.2,0.4c-0.1,2.1-0.7,4.1-1.6,6.1c-0.3,0.6-0.6,1.2-0.5,1.9
		c0.1,0.6,0.5,1.1,0.8,1.4l2,2.5c0.4,0.5,0.8,1,1.4,1.3c1.2,0.6,2.7,0.3,3.9-0.1c1.6-0.4,2.5-0.6,3.2,0.1c0.2,0.3,0.4,0.7,0.5,1.1
		c0.2,0.5,0.3,1.1,0.7,1.5c1.3,1.4,3.2,0.6,4.8-0.1l0.4-0.2c1.6-0.7,3.5-0.8,5.3-0.4c-0.3,1.5,0.8,2.9,2.2,4
		c1.1,0.8,2.4,1.8,2.4,3.1c0,0.2-0.1,0.4-0.1,0.6c-0.1,0.3-0.1,0.7-0.1,1c0,0.6,0.3,1.1,0.8,1.5c0.9,0.8,2.5,0.9,3.4,0.9
		c0,0.9,0.3,1.8,0.6,2.6c0.3,0.8,0.6,1.6,0.5,2.4c-0.1,0.8-0.6,1.6-1.1,2.2L48,95.5c-0.2,0.2-0.1,0.5,0.1,0.7
		c0.1,0.1,0.2,0.1,0.3,0.1c0.2,0,0.3-0.1,0.4-0.2l3.9-5.6c0.5-0.7,1.1-1.6,1.3-2.7c0.1-1-0.2-2-0.6-2.9c-0.3-0.9-0.7-1.8-0.4-2.6
		c0-0.2,0-0.3-0.1-0.5c-0.1-0.1-0.3-0.2-0.4-0.2c-1.1,0.1-2.5,0-3.3-0.6c-0.3-0.2-0.4-0.5-0.4-0.8c0-0.2,0-0.5,0.1-0.8
		c0.1-0.3,0.1-0.5,0.1-0.8c0.1-1.8-1.5-3-2.9-4c-1.1-0.8-2.2-2.1-1.7-3.2c0.1-0.1,0.1-0.3,0-0.4s-0.2-0.2-0.3-0.3
		c-2.1-0.7-4.4-0.6-6.4,0.2l-0.4,0.2c-1.6,0.7-2.9,1.1-3.6,0.3c-0.3-0.3-0.4-0.7-0.5-1.1c-0.2-0.5-0.3-1-0.7-1.4
		c-1.1-1.3-2.7-0.9-4.2-0.5c-1.2,0.3-2.3,0.6-3.2,0.2c-0.4-0.2-0.8-0.7-1.1-1.1l-2-2.5c-0.2-0.3-0.5-0.6-0.6-1
		c-0.1-0.4,0.2-0.9,0.4-1.4c0.9-1.9,1.5-4,1.7-6.2c1.6-1.2,3.7-1.6,5.6-1.2l0.4,0.1c1.1,0.3,2.6,0.6,3.5-0.3c0.4-0.5,0.6-1,0.7-1.6
		c0.1-0.3,0.1-0.6,0.2-0.8c0.5-1.1,2-1.6,4.5-1.4c0.6,0.1,1.2,0.1,1.5,0.4c0.6,0.5,0.8,1.5,0.9,2.5c0.2,1.3,0.4,2.8,1.8,3.2
		c0.2,0,0.4,0,0.5-0.1c0.1-0.1,0.2-0.3,0.1-0.5c-0.3-1.3,0.1-2.7,0.4-3.9c0.8-3,1.7-6.1,3.1-9c0.7-1.4,1.9-4,0.3-5.7
		c-0.8-0.8-1.9-1-3-1.3c-1.4-0.3-2.2-0.5-2.3-1.3c-0.1-0.4,0.1-0.8,0.2-1.2l0.1-0.2c0.6-2,0.5-4.2-0.2-6.1c-0.1-0.2-0.3-0.3-0.5-0.3
		l-11,0.4c-3.9,0.1-8.3,0.3-12.1,2.3l-0.2,0.1c-0.6,0.3-1.2,0.6-1.7,0.5c-0.5-0.1-1-0.5-1.4-1c-0.1-0.1-0.3-0.3-0.4-0.4
		c-1.4-1.3-3.3-1.9-5.2-1.7C17.3,13.5,32.8,3.4,50.6,3.4c7.5,0,14.5,1.8,20.8,4.9l-2,1.1c-0.9,0.5-1.8,1.2-2.1,2.2
		c-0.2,1,0.3,1.9,0.8,2.7l0.2,0.3c0.6,1.1,1,2.3,1.2,3.5l0,0.1c0.1,0.5,0.1,1.1,0.6,1.6c0.3,0.4,0.8,0.5,1.1,0.6l1.6,0.5
		c0.3,0.1,0.6,0.2,1,0.2c0.1,0,0.1,0,0.2,0c0.8-0.1,1.5-0.7,1.9-1.7c0.1-0.2,0.2-0.5,0.3-0.8c0.1-0.4,0.3-0.8,0.5-1.1
		c0.4-0.7,1.2-1.1,2-1.5c0.2-0.1,0.4-0.2,0.6-0.3c0.7-0.4,1.3-0.9,1.6-1.4c7.1,6,12.3,14.1,14.8,23.4c-0.2-0.1-0.4-0.1-0.6,0
		c-0.5,0.4-1.4,0.2-1.7,0.1C93,38,92.8,38,92.6,37.9c-0.5-0.2-1.1-0.4-1.7-0.4c-0.8,0-1.5,0.2-2.2,0.5l-0.3,0.1
		c-0.6,0.2-1.3,0.5-2,0.3c-0.3-0.1-0.6-0.3-0.7-0.6c-0.1-0.1-0.1-0.3,0-0.5c0.1-0.1,0.2-0.2,0.3-0.4c0.3-0.3,0.7-0.8,0.4-1.4
		c-0.1-0.3-0.3-0.4-0.4-0.6L86,34.7c-0.4-0.5-0.3-1.4,0.1-1.9c0.3-0.4,0.7-0.8,1.1-1.2c0.3-0.2,0.5-0.5,0.8-0.7
		c1.2-1.2,1.8-2.8,2.4-4.2c0.1-0.3,0-0.7-0.2-0.8c-0.2-0.1-0.5-0.2-0.7-0.1c-0.2,0.1-0.3,0.4-0.2,0.6c0,0.1,0,0.1,0.1,0.2
		c-0.5,1.3-1.1,2.6-2.1,3.6c-0.2,0.2-0.5,0.5-0.7,0.7c-0.5,0.4-0.9,0.8-1.3,1.4c-0.6,0.9-0.8,2.3,0,3.2c0,0.1,0.1,0.1,0.1,0.1
		c0.1,0.1,0.2,0.1,0.2,0.2c0,0.1-0.1,0.3-0.3,0.5c-0.1,0.2-0.3,0.4-0.4,0.6c-0.2,0.4-0.2,0.9,0,1.3c0.2,0.5,0.7,1,1.3,1.2
		c0.3,0.1,0.5,0.1,0.8,0.1c0.6,0,1.2-0.2,1.8-0.4l0.3-0.1c0.6-0.2,1.2-0.5,1.8-0.4c0.5,0,0.9,0.2,1.4,0.4c0.2,0.1,0.5,0.2,0.7,0.2
		c1.1,0.3,2.1,0.2,2.7-0.3c0,0,0.1-0.1,0.1-0.1c0.6,2.5,1,5,1.3,7.6c-1.5,0.5-3.3,0.3-4.9,0c-2.7-0.5-5.5-0.8-7.3,0.9c0,0,0,0,0,0
		c-0.4-0.4-1-0.4-1.4,0c-0.4,0.4-0.4,1,0,1.4c-0.5,0.3-1.2,0.3-1.9,0.3c-1.1,0-2.3,0-3,1.1c-0.6,1-0.2,2.1,0.1,3.1
		c0.4,1,0.5,1.7,0.1,2.1c-0.2,0.2-0.6,0.3-1.1,0.4c-0.6,0.1-1.2,0.3-1.6,0.8c-0.5,0.6-0.5,1.4-0.5,2c0,0.4,0,0.8-0.1,1.1
		c-0.1,0.4-0.5,0.8-0.8,1.1c-0.4,0.4-0.9,0.9-1.1,1.6c-0.5,1.8,1.3,3.3,3.1,4c1.5,0.6,3,1.4,3,2.6c0,0.4-0.1,0.8-0.3,1.2L79.3,70
		c-1.8,4.9-1.1,10.6,2,14.9c0,0,0.1,0.1,0.1,0.1c-8.2,7.2-19,11.7-30.8,11.7C43.1,96.6,35.9,94.8,29.6,91.6z M97.2,50
		c0,3.5-0.4,7-1.2,10.3c-0.6-0.5-1.4-0.8-2.2-0.8c-2,0-3.6,1.6-3.6,3.6s1.6,3.6,3.6,3.6c0.1,0,0.2,0,0.2,0
		c-2.6,6.8-6.7,12.7-12,17.6c0,0,0,0,0,0c-2.8-4-3.5-9.3-1.8-13.9l0.1-0.2c0.2-0.5,0.4-1,0.4-1.5c0-2.1-2.5-3.1-3.6-3.5
		c-1.1-0.4-2.8-1.5-2.5-2.8c0.1-0.4,0.5-0.8,0.8-1.2c0.4-0.4,0.8-0.9,1-1.5c0.2-0.5,0.1-1,0.1-1.4c0-0.6,0-1,0.2-1.3
		c0.2-0.3,0.6-0.4,1.1-0.5c0.5-0.1,1.1-0.3,1.6-0.7c0.9-0.9,0.5-2.1,0.1-3.2c-0.3-0.8-0.6-1.6-0.2-2.2c0.3-0.5,1-0.6,2.1-0.6
		c0.8,0,1.8,0,2.5-0.5c0,0,0,0,0,0c0.4,0.4,0.9,0.9,1.3,1.3c0.2,0.2,0.5,0.3,0.7,0.3c0.2,0,0.5-0.1,0.7-0.3c0.4-0.4,0.5-1,0.1-1.4
		c-0.4-0.5-0.9-0.9-1.3-1.4c1.6-1.4,4.1-1.1,6.4-0.6c1.7,0.3,3.6,0.5,5.2,0.1C97.2,48.1,97.2,49.1,97.2,50z"/>
	<path fill="#3354A8" d="M76.3,32c1.7,0,3.6-0.6,5.5-1.8c0.7-0.5,1.5-1,1.8-1.9c0.5-1.2,0-2.5-0.6-3.6c-0.2-0.5-0.6-1.2-1.2-1.5
		c-0.6-0.3-1.4-0.2-2.1-0.1c-0.9,0.2-1.9,0.4-2.8,0.9c-1,0.6-1.7,1.5-1.9,2.5c0,0.2,0,0.4,0,0.7c0,0.4,0,0.7-0.2,1
		c-0.1,0.2-0.4,0.3-0.7,0.4c-0.1,0-0.2,0.1-0.3,0.1c-0.7,0.3-1.3,0.9-1.1,1.7c0.1,0.5,0.5,0.8,0.8,0.9C74.3,31.8,75.2,32,76.3,32
		C76.3,32,76.3,32,76.3,32z M73.6,30.1c0-0.1,0.2-0.4,0.5-0.5c0.1,0,0.2-0.1,0.3-0.1c0.4-0.1,0.9-0.3,1.2-0.7
		c0.4-0.5,0.4-1.1,0.4-1.6c0-0.2,0-0.4,0-0.5c0.1-0.7,0.6-1.4,1.4-1.8c0.8-0.4,1.6-0.6,2.5-0.8c0.3-0.1,0.6-0.1,0.9-0.1
		c0.2,0,0.4,0,0.5,0.1c0.3,0.2,0.6,0.6,0.8,1.1c0.5,0.9,0.9,1.9,0.5,2.8c-0.2,0.6-0.8,1-1.4,1.4c-1.7,1.1-3.5,1.7-5,1.7h0
		c-0.9,0-1.6-0.2-2.3-0.6C73.6,30.3,73.6,30.2,73.6,30.1z"/>
	<path fill="#3354A8" d="M56.7,4.5c0-0.3-0.2-0.5-0.5-0.5c0,0,0,0,0,0c-0.3,0-0.5,0.2-0.5,0.4c-0.1,2-1.9,3.8-3.8,3.9
		c-0.2,0-0.4,0-0.6,0c-0.9,0-1.9,0-2.5,0.8c-0.3,0.3-0.4,0.7-0.5,1c-0.4,1.5-0.5,3-0.4,4.5c0,0.2,0,0.3,0,0.5
		c-0.1,0.1-0.3,0.3-0.5,0.3c-1,0.2-1.9-0.7-2.9-1.6c-1.5-1.4-2.8-1.9-3.9-1.5c-0.5,0.2-0.9,0.5-1.3,0.8c-0.3,0.3-0.6,0.5-0.9,0.6
		c-0.5,0.2-1.2,0.1-1.9-0.1c-2-0.5-3.9-1.3-5.6-2.4c-0.8-0.5-1.2-1-1.2-1.4c0-0.3-0.2-0.5-0.5-0.5c-0.3,0-0.5,0.2-0.5,0.5
		c-0.1,1.3,1.2,2.1,1.6,2.4c1.8,1.1,3.8,2,5.9,2.5c0.8,0.2,1.7,0.4,2.5,0c0.5-0.2,0.8-0.5,1.2-0.8c0.3-0.3,0.6-0.5,0.9-0.6
		c0.8-0.3,1.7,0.1,2.9,1.3c0.8,0.8,1.9,1.9,3.3,1.9c0.1,0,0.3,0,0.4,0c0.6-0.1,1.1-0.5,1.3-1c0.1-0.3,0.1-0.6,0.1-0.9
		c-0.1-1.4,0-2.8,0.4-4.1c0.1-0.2,0.1-0.5,0.3-0.7c0.3-0.4,1-0.4,1.8-0.4c0.2,0,0.4,0,0.6,0C54.4,9.2,56.6,7,56.7,4.5z"/>
	<circle fill="#3354A8" cx="16" cy="46.4" r="3.6"/>
	<path fill="#3354A8" d="M90.3,53.9c-0.3-0.5-0.9-0.6-1.4-0.3c-0.5,0.3-0.6,0.9-0.3,1.4c0.3,0.4,0.5,0.8,0.8,1.2
		c0.2,0.3,0.5,0.5,0.9,0.5c0.2,0,0.3,0,0.5-0.1c0.5-0.3,0.6-0.9,0.4-1.4C90.9,54.7,90.6,54.3,90.3,53.9z"/>
	<path fill="#3354A8" d="M27.9,39.9c0.2,0,0.3,0,0.4-0.1c0.8-0.4,1.7-0.8,2.5-1.2c0.5-0.2,0.7-0.8,0.5-1.3c-0.2-0.5-0.8-0.7-1.3-0.5
		c-0.9,0.4-1.8,0.8-2.7,1.2c-0.5,0.2-0.7,0.8-0.4,1.3C27.2,39.7,27.5,39.9,27.9,39.9z"/>
	<path fill="#3354A8" d="M35.9,36.8c0.1,0,0.2,0,0.3,0c0.9-0.2,1.8-0.5,2.7-0.7c0.5-0.1,0.9-0.6,0.8-1.2c-0.1-0.5-0.6-0.9-1.2-0.8
		c-1,0.2-1.9,0.4-2.9,0.7c-0.5,0.1-0.8,0.7-0.7,1.2C35.1,36.5,35.5,36.8,35.9,36.8z"/>
	<path fill="#3354A8" d="M64.6,35.5c-0.9-0.3-1.9-0.5-2.8-0.8c-0.5-0.1-1.1,0.2-1.2,0.7c-0.1,0.5,0.2,1.1,0.7,1.2
		c0.9,0.2,1.8,0.5,2.7,0.7c0.1,0,0.2,0,0.3,0c0.4,0,0.8-0.3,1-0.7C65.4,36.2,65.1,35.6,64.6,35.5z"/>
	<path fill="#3354A8" d="M47.2,33.2c-1,0-2,0.1-2.9,0.2c-0.6,0-1,0.5-0.9,1.1c0,0.5,0.5,0.9,1,0.9c0,0,0.1,0,0.1,0
		c0.9-0.1,1.9-0.1,2.8-0.2c0.6,0,1-0.5,1-1S47.8,33.1,47.2,33.2z"/>
	<path fill="#3354A8" d="M72.7,38.7c-0.9-0.4-1.8-0.8-2.7-1.2c-0.5-0.2-1.1,0-1.3,0.5c-0.2,0.5,0,1.1,0.5,1.3
		c0.9,0.4,1.7,0.8,2.6,1.2c0.1,0.1,0.3,0.1,0.4,0.1c0.4,0,0.7-0.2,0.9-0.6C73.4,39.5,73.2,38.9,72.7,38.7z"/>
	<path fill="#3354A8" d="M77.8,41.6c-0.5-0.3-1.1-0.2-1.4,0.3c-0.3,0.5-0.2,1.1,0.3,1.4c0.8,0.5,1.6,1,2.3,1.6
		c0.2,0.1,0.4,0.2,0.6,0.2c0.3,0,0.6-0.1,0.8-0.4c0.3-0.4,0.2-1.1-0.2-1.4C79.5,42.7,78.7,42.1,77.8,41.6z"/>
	<path fill="#3354A8" d="M56,33.6c-1-0.1-1.9-0.2-2.9-0.3c-0.6,0-1,0.4-1.1,0.9c0,0.6,0.4,1,0.9,1.1c0.9,0.1,1.9,0.2,2.8,0.3
		c0,0,0.1,0,0.1,0c0.5,0,0.9-0.4,1-0.9C56.9,34.2,56.5,33.7,56,33.6z"/>
	<path fill="#3354A8" d="M21.7,43.7c0.2,0,0.4-0.1,0.6-0.2c0.4-0.3,0.8-0.6,1.2-0.9c0.5-0.3,0.6-0.9,0.3-1.4
		c-0.3-0.5-0.9-0.6-1.4-0.3c-0.4,0.3-0.8,0.6-1.2,0.9c-0.4,0.3-0.5,1-0.2,1.4C21.1,43.6,21.4,43.7,21.7,43.7z"/>
</g>
</svg>
