<?xml version="1.0" encoding="utf-8"?>
<!-- Generator: Adobe Illustrator 18.1.1, SVG Export Plug-In . SVG Version: 6.00 Build 0)  -->
<!DOCTYPE svg PUBLIC "-//W3C//DTD SVG 1.1//EN" "http://www.w3.org/Graphics/SVG/1.1/DTD/svg11.dtd">
<svg version="1.1" id="Layer_1" xmlns="http://www.w3.org/2000/svg" xmlns:xlink="http://www.w3.org/1999/xlink" x="0px" y="0px"
	 viewBox="0 0 100 100" enable-background="new 0 0 100 100" xml:space="preserve">
<g>
	<path fill="#3354A8" d="M81,30.1c0.7-0.5,1.5-1,1.8-1.9c0.5-1.2,0-2.5-0.6-3.6c-0.2-0.5-0.6-1.2-1.2-1.5c-0.6-0.3-1.4-0.2-2.1-0.1
		c-0.9,0.2-1.9,0.4-2.8,0.9c-1,0.6-1.7,1.5-1.9,2.5c0,0.2,0,0.4,0,0.7c0,0.4,0,0.7-0.2,1c-0.1,0.2-0.4,0.3-0.7,0.4
		c-0.1,0-0.2,0.1-0.3,0.1c-0.7,0.3-1.3,0.9-1.1,1.7c0.1,0.5,0.5,0.8,0.8,0.9c0.8,0.5,1.8,0.7,2.8,0.7C77.2,31.9,79.2,31.2,81,30.1z
		 M72.9,30c0-0.1,0.2-0.4,0.5-0.5c0.1,0,0.2-0.1,0.3-0.1c0.4-0.1,0.9-0.3,1.2-0.7c0.4-0.5,0.4-1.1,0.4-1.6c0-0.2,0-0.4,0-0.5
		c0.1-0.7,0.6-1.4,1.4-1.8c0.8-0.4,1.7-0.6,2.5-0.8c0.3-0.1,0.6-0.1,0.9-0.1c0.2,0,0.4,0,0.5,0.1c0.3,0.2,0.6,0.6,0.8,1.1
		c0.5,0.9,0.9,1.9,0.5,2.8c-0.2,0.6-0.8,1-1.4,1.4c-2.7,1.7-5.4,2.1-7.3,1.1C72.9,30.2,72.9,30.1,72.9,30z"/>
	<path fill="#3354A8" d="M98.8,45.5c0-0.1,0-0.1,0-0.1C96.4,20.4,75.4,0.8,49.9,0.8c-27.1,0-49.1,22-49.1,49.1
		c0,27.1,22,49.1,49.1,49.1C76.9,99,99,76.9,99,49.9C99,48.4,98.9,46.9,98.8,45.5z M85.8,35.3c-0.1-0.3-0.3-0.4-0.4-0.6l-0.1-0.1
		c-0.4-0.5-0.3-1.4,0.1-1.9c0.3-0.4,0.7-0.8,1.1-1.2c0.3-0.2,0.5-0.5,0.8-0.7c1.1-1.2,1.8-2.8,2.4-4.2c2,3.5,3.6,7.2,4.7,11.2
		c0,0-0.1,0-0.1,0c-0.5,0.4-1.4,0.2-1.7,0.1c-0.2-0.1-0.4-0.1-0.6-0.2c-0.5-0.2-1.1-0.4-1.7-0.4c-0.8,0-1.5,0.2-2.2,0.5l-0.3,0.1
		c-0.6,0.2-1.3,0.5-2,0.3c-0.3-0.1-0.6-0.3-0.7-0.6c-0.1-0.1-0.1-0.3,0-0.5c0.1-0.1,0.2-0.2,0.3-0.4C85.6,36.3,86,35.9,85.8,35.3z
		 M79,14.2c-0.4,0.4-0.8,0.6-1,0.8c-0.2,0.1-0.4,0.2-0.6,0.3c-0.9,0.5-1.8,0.9-2.4,1.8c-0.3,0.4-0.4,0.9-0.6,1.3
		c-0.1,0.2-0.1,0.5-0.2,0.7c-0.1,0.2-0.5,1-1,1.1c-0.2,0-0.5-0.1-0.8-0.2l-1.6-0.5c-0.3-0.1-0.6-0.2-0.7-0.4c-0.2-0.2-0.3-0.6-0.3-1
		l0-0.1c-0.2-1.4-0.6-2.7-1.3-3.9l-0.2-0.3c-0.4-0.7-0.8-1.4-0.7-2c0.1-0.7,0.9-1.2,1.6-1.6l2-1.2C74,10.5,76.6,12.2,79,14.2z
		 M8.9,29c1.6-0.2,3.2,0.3,4.3,1.4c0.1,0.1,0.3,0.3,0.4,0.4c0.5,0.5,1.1,1.2,2,1.3c0.9,0.1,1.6-0.3,2.3-0.6l0.2-0.1
		c3.6-1.9,7.9-2,11.6-2.2l10.7-0.4c0.6,1.6,0.6,3.5,0.1,5.1l-0.1,0.2c-0.2,0.5-0.3,1.1-0.2,1.7c0.2,1.5,1.8,1.9,3.1,2.2
		c0.9,0.2,1.9,0.4,2.5,1c1,1,0.3,2.8-0.5,4.6c-1.4,2.9-2.3,6.1-3.2,9.1c-0.3,0.9-0.5,2-0.6,3c-0.2-0.4-0.2-0.9-0.3-1.6
		c-0.2-1.2-0.3-2.5-1.3-3.2c-0.6-0.5-1.4-0.5-2.1-0.6c-1.1-0.1-4.4-0.4-5.5,2c-0.1,0.3-0.2,0.7-0.3,1c-0.1,0.5-0.2,0.8-0.5,1.1
		C31,54.9,30,54.7,29,54.4l-0.4-0.1c-2.3-0.5-4.8,0-6.6,1.5c-0.1,0.1-0.2,0.2-0.2,0.4c-0.1,2.1-0.7,4.1-1.6,6.1
		c-0.3,0.6-0.6,1.2-0.5,1.9c0.1,0.6,0.5,1.1,0.8,1.4l2,2.5c0.4,0.5,0.8,1,1.4,1.3c1.2,0.6,2.7,0.3,3.9-0.1c1.6-0.4,2.5-0.6,3.2,0.1
		c0.2,0.3,0.4,0.7,0.5,1.1c0.2,0.5,0.3,1.1,0.7,1.5c1.3,1.4,3.2,0.6,4.8-0.1l0.4-0.2c1.6-0.7,3.5-0.8,5.3-0.4
		c-0.3,1.5,0.8,2.9,2.2,4c1.1,0.8,2.5,1.8,2.4,3.1c0,0.2-0.1,0.4-0.1,0.6c-0.1,0.3-0.1,0.7-0.1,1c0,0.6,0.3,1.1,0.8,1.5
		c0.9,0.8,2.5,0.9,3.4,0.9c0,0.9,0.3,1.8,0.6,2.6c0.3,0.8,0.6,1.6,0.5,2.4c-0.1,0.8-0.6,1.6-1.1,2.2l-3.9,5.6
		c-0.1,0.2-0.1,0.4,0,0.5c-6.7-0.4-13-2.2-18.7-5.1l-1.9-3.7c-0.2-0.5-0.5-1-0.9-1.4c-0.3-0.3-0.6-0.5-0.9-0.7c-0.5-0.3-0.9-0.6-1-1
		c-0.1-0.3-0.1-0.7-0.1-1.1c0-0.6,0.1-1.3-0.4-1.9c-0.1-0.2-0.3-0.3-0.4-0.4c-0.1-0.1-0.2-0.2-0.3-0.3c-0.3-0.3-0.1-0.9,0-1.5
		c0-0.1,0.1-0.3,0.1-0.4c0.1-0.1,0.3-0.1,0.6-0.1c2-0.2,4-1,5.6-2.3c0.1-0.1,0.2-0.3,0.2-0.4c0-0.4,0-0.8,0.1-1.2
		c0.1-0.6,0.1-1.1,0-1.7c-0.1-0.7-0.7-1.5-1.4-1.8c-0.5-0.2-1-0.2-1.4,0.1c-0.2,0.1-0.4,0.3-0.5,0.5c-0.1,0.1-0.1,0.2-0.2,0.2
		c-0.5,0.4-1.3,0.4-2,0.4c-0.1,0-0.1,0-0.1,0c0,0,0-0.1,0-0.2c0.1-0.7-0.2-1.4-1-2.1c-0.3-0.3-0.8-0.6-1.2-0.7c0,0,0,0,0,0l-2-2.2
		c-0.7-0.7-1.3-1.5-1.7-2.4c-0.3-0.7-0.4-1.5-0.5-2.4c-0.2-1.2-0.4-2.4-1-3.3c-0.1-0.1-0.2-0.2-0.3-0.2c-1.2-0.3-2.2-1.2-2.5-2.4
		c0-0.1-0.1-0.3-0.1-0.4c-0.1-0.4-0.2-0.8-0.4-1.2c-0.3-0.4-0.6-0.7-1-0.9c-0.2-0.2-0.4-0.3-0.6-0.5c-0.3-0.3-0.4-0.7-0.6-1.2
		c-0.2-0.5-0.4-0.9-0.7-1.3c-0.7-1-1.9-1.2-2.9-1.5c-0.5-0.1-0.9-0.2-1.3-0.4c-0.8-0.3-1.4-0.8-2-1.5C4.3,40.7,6,34.5,8.9,29
		C8.8,29,8.8,29,8.9,29z M3.8,49.9c0-0.4,0-0.9,0-1.3c0.5,0.4,1,0.8,1.6,1c0.5,0.2,0.9,0.3,1.4,0.4c1,0.3,1.9,0.5,2.4,1.2
		c0.2,0.3,0.4,0.7,0.5,1.1c0.2,0.5,0.4,1,0.8,1.5c0.2,0.3,0.5,0.5,0.8,0.7c0.3,0.2,0.6,0.4,0.7,0.7c0.1,0.2,0.2,0.5,0.3,0.9
		c0,0.2,0.1,0.3,0.1,0.5c0.4,1.4,1.6,2.6,3,3c0.4,0.8,0.6,1.8,0.7,2.8c0.1,0.9,0.3,1.8,0.6,2.6c0.4,1.1,1.2,1.9,1.9,2.7l1.5,1.6
		C20,69.3,20,69.5,20,69.7c0.1,0.3,0.3,0.4,0.6,0.3l0.1,0c0.3,0,0.8,0.2,1.3,0.5c0.4,0.4,0.7,0.8,0.6,1.2c0,0.2-0.1,0.5,0.1,0.8
		c0.3,0.5,0.8,0.5,1,0.5c0.7,0,2,0.1,2.8-0.7c0.1-0.1,0.2-0.2,0.3-0.3c0.1-0.1,0.2-0.2,0.3-0.3c0.1,0,0.2-0.1,0.5,0
		c0.4,0.2,0.7,0.6,0.8,1c0.1,0.5,0,0.9-0.1,1.4c0,0.4-0.1,0.7-0.1,1.1c-1.4,1.1-3.1,1.8-4.9,2c-0.4,0-0.8,0.1-1.2,0.4
		c-0.3,0.3-0.3,0.6-0.4,0.8c-0.1,0.5-0.4,1.5,0.2,2.3c0.1,0.2,0.3,0.3,0.4,0.4c0.1,0.1,0.2,0.2,0.3,0.3c0.2,0.3,0.2,0.7,0.2,1.3
		c0,0.5-0.1,1,0.1,1.5c0.3,0.7,0.9,1.1,1.4,1.5c0.3,0.2,0.5,0.4,0.7,0.6c0.3,0.3,0.5,0.8,0.8,1.2l1.2,2.3C13.2,81.9,3.8,67,3.8,49.9
		z M48.1,95.9l3.9-5.5c0.5-0.7,1.1-1.6,1.3-2.7c0.1-1-0.2-2-0.6-2.9c-0.3-0.9-0.7-1.8-0.4-2.6c0-0.2,0-0.3-0.1-0.5
		c-0.1-0.1-0.3-0.2-0.4-0.2c-1.1,0.1-2.5,0-3.3-0.6c-0.3-0.2-0.4-0.5-0.4-0.8c0-0.2,0-0.5,0.1-0.8c0.1-0.3,0.1-0.5,0.1-0.8
		c0.1-1.8-1.5-3-2.9-4c-1.1-0.8-2.2-2.1-1.7-3.2c0.1-0.1,0.1-0.3,0-0.4s-0.2-0.2-0.3-0.3C41.3,70,39,70.1,37,70.9l-0.4,0.2
		c-1.6,0.7-2.9,1.1-3.6,0.3c-0.3-0.3-0.4-0.7-0.5-1.1c-0.2-0.5-0.3-1-0.7-1.4c-1.1-1.3-2.7-0.9-4.2-0.5c-1.2,0.3-2.3,0.6-3.2,0.2
		c-0.4-0.2-0.8-0.7-1.1-1.1l-2-2.5c-0.2-0.3-0.5-0.6-0.6-1c-0.1-0.4,0.2-0.9,0.4-1.4c0.9-1.9,1.5-4,1.7-6.2c1.6-1.2,3.7-1.6,5.6-1.2
		l0.4,0.1c1.1,0.3,2.6,0.6,3.5-0.3c0.4-0.5,0.6-1,0.7-1.6c0.1-0.3,0.1-0.6,0.2-0.8c0.5-1.1,2-1.6,4.5-1.4c0.6,0.1,1.2,0.1,1.5,0.4
		c0.6,0.5,0.8,1.5,0.9,2.5c0.2,1.3,0.4,2.8,1.8,3.2c0.2,0,0.4,0,0.5-0.1c0.1-0.1,0.2-0.3,0.1-0.5c-0.3-1.3,0.1-2.7,0.4-3.9
		c0.8-3,1.7-6.1,3.1-9c0.7-1.4,1.9-4,0.3-5.7c-0.8-0.8-1.9-1-3-1.3c-1.4-0.3-2.2-0.5-2.3-1.3c-0.1-0.4,0.1-0.8,0.2-1.2l0.1-0.2
		c0.6-2,0.5-4.2-0.2-6.1c-0.1-0.2-0.2-0.3-0.5-0.3l-11,0.4c-3.9,0.1-8.3,0.3-12.1,2.3l-0.2,0.1c-0.6,0.3-1.2,0.6-1.7,0.5
		c-0.5-0.1-1-0.5-1.4-1c-0.1-0.1-0.3-0.3-0.4-0.4c-1.2-1.1-2.9-1.8-4.6-1.7C17.1,13.6,32.4,3.8,49.9,3.8c1.7,0,3.4,0.1,5.1,0.3
		c0,0.1,0,0.1,0,0.2c-0.1,2-1.9,3.8-3.8,3.9c-0.2,0-0.4,0-0.6,0c-0.9,0-1.9,0-2.5,0.8c-0.3,0.3-0.4,0.7-0.5,1
		c-0.4,1.5-0.5,3-0.4,4.5c0,0.2,0,0.3,0,0.5c-0.1,0.1-0.3,0.3-0.5,0.3c-1,0.2-1.9-0.7-2.9-1.6c-1.5-1.4-2.8-1.9-3.9-1.5
		c-0.5,0.2-0.9,0.5-1.3,0.8c-0.3,0.3-0.6,0.5-0.9,0.6c-0.5,0.2-1.2,0.1-1.9-0.1c-2-0.5-3.9-1.3-5.6-2.4c-0.8-0.5-1.2-1-1.2-1.4
		c0-0.3-0.2-0.5-0.5-0.5c-0.3,0-0.5,0.2-0.5,0.5c-0.1,1.3,1.2,2.1,1.6,2.4c1.8,1.1,3.8,2,5.9,2.5c0.8,0.2,1.7,0.4,2.5,0
		c0.5-0.2,0.8-0.5,1.2-0.8c0.3-0.3,0.6-0.5,1-0.6c0.8-0.3,1.7,0.1,2.9,1.3c0.8,0.8,1.9,1.9,3.3,1.9c0.1,0,0.3,0,0.4,0
		c0.6-0.1,1.1-0.5,1.3-1c0.1-0.3,0.1-0.6,0.1-0.9c-0.1-1.4,0-2.8,0.4-4.1c0.1-0.2,0.1-0.5,0.3-0.7c0.3-0.4,1-0.4,1.8-0.4
		c0.2,0,0.4,0,0.6,0C53.7,9,55.9,6.8,56,4.3c0,0,0-0.1,0-0.1c5,0.7,9.8,2.1,14.2,4.3l-1.4,0.8c-0.9,0.5-1.8,1.2-2.1,2.2
		c-0.2,1,0.3,1.9,0.8,2.7l0.2,0.3c0.6,1.1,1,2.3,1.2,3.5l0,0.1c0.1,0.5,0.1,1.2,0.6,1.6c0.3,0.4,0.8,0.5,1.1,0.6l1.6,0.5
		c0.3,0.1,0.6,0.2,1,0.2c0.1,0,0.1,0,0.2,0c0.8-0.1,1.5-0.7,1.9-1.7c0.1-0.2,0.2-0.5,0.3-0.8c0.1-0.4,0.3-0.8,0.5-1.1
		c0.4-0.7,1.2-1.1,2-1.5c0.2-0.1,0.4-0.2,0.6-0.3c0.5-0.3,1-0.6,1.3-1c3.6,3.1,6.8,6.7,9.3,10.8c-0.1,0-0.2,0-0.3,0.1
		c-0.2,0.1-0.3,0.4-0.2,0.6c0,0.1,0,0.1,0.1,0.2c-0.5,1.3-1.1,2.6-2.1,3.6c-0.2,0.2-0.5,0.5-0.7,0.7c-0.5,0.4-0.9,0.8-1.3,1.4
		c-0.6,0.9-0.8,2.3,0,3.2c0,0.1,0.1,0.1,0.2,0.2c0.1,0.1,0.2,0.1,0.2,0.2c0,0.1-0.1,0.3-0.3,0.5c-0.1,0.2-0.3,0.4-0.4,0.6
		c-0.2,0.4-0.2,0.9,0,1.3c0.2,0.5,0.7,1,1.3,1.2c0.3,0.1,0.5,0.1,0.8,0.1c0.6,0,1.2-0.2,1.8-0.4l0.3-0.1c0.6-0.2,1.2-0.5,1.8-0.4
		c0.5,0,0.9,0.2,1.4,0.4c0.2,0.1,0.5,0.2,0.7,0.2c0.9,0.3,1.8,0.2,2.4-0.1c0.6,2.4,1,4.9,1.2,7.4c-1.4,0.3-3,0.1-4.4-0.2
		c-2.7-0.5-5.5-0.8-7.3,0.9c0,0,0,0,0,0c-0.4-0.4-1-0.4-1.4,0c-0.4,0.4-0.4,1,0,1.4c-0.5,0.3-1.2,0.3-1.9,0.3c-1.1,0-2.3,0-3,1.1
		c-0.6,1-0.2,2.1,0.1,3.1c0.4,1,0.5,1.7,0.1,2.1c-0.2,0.2-0.6,0.3-1.1,0.5c-0.6,0.1-1.2,0.3-1.6,0.8c-0.5,0.6-0.5,1.4-0.5,2
		c0,0.4,0,0.8-0.1,1.1c-0.1,0.4-0.5,0.8-0.8,1.1c-0.4,0.5-0.9,0.9-1.1,1.6c-0.5,1.8,1.3,3.3,3.1,4c1.5,0.6,3,1.4,3,2.6
		c0,0.4-0.1,0.8-0.3,1.2l-0.1,0.2c-1.8,4.8-1.1,10.3,1.8,14.6C72.2,91.6,61.6,96,49.9,96C49.3,96,48.7,95.9,48.1,95.9z M81.1,83.7
		c-2.6-4-3.2-9.1-1.6-13.5l0.1-0.2c0.2-0.5,0.4-1,0.4-1.5c0-2.1-2.5-3.1-3.6-3.5c-1.1-0.4-2.8-1.5-2.5-2.8c0.1-0.4,0.5-0.8,0.8-1.2
		c0.4-0.4,0.8-0.9,1-1.5c0.1-0.5,0.1-1,0.1-1.4c0-0.6,0-1,0.2-1.3c0.2-0.3,0.6-0.4,1.1-0.5c0.5-0.1,1.1-0.3,1.6-0.7
		c0.9-0.9,0.5-2.1,0.1-3.2c-0.3-0.8-0.6-1.6-0.2-2.2c0.3-0.5,1-0.6,2.1-0.6c0.8,0,1.8,0,2.5-0.5c0,0,0,0,0,0
		c0.4,0.4,0.9,0.9,1.3,1.3c0.2,0.2,0.5,0.3,0.7,0.3c0.2,0,0.5-0.1,0.7-0.3c0.4-0.4,0.4-1,0.1-1.4c-0.4-0.5-0.9-0.9-1.3-1.4
		c1.6-1.4,4.1-1.1,6.4-0.6c1.5,0.3,3.2,0.5,4.7,0.2c0.1,0.9,0.1,1.8,0.1,2.7c0,3.4-0.4,6.8-1.1,10c-0.5-0.3-1.1-0.5-1.8-0.5
		c-2,0-3.6,1.6-3.6,3.6c0,1.9,1.5,3.4,3.3,3.6C90.2,73.2,86.2,79,81.1,83.7z"/>
	<circle fill="#3354A8" cx="15.3" cy="46.2" r="3.6"/>
	<path fill="#3354A8" d="M90,56.4c0.5-0.3,0.6-0.9,0.4-1.4c-0.3-0.4-0.5-0.9-0.8-1.3c-0.3-0.5-0.9-0.6-1.4-0.3
		c-0.5,0.3-0.6,0.9-0.3,1.4c0.3,0.4,0.5,0.8,0.8,1.2c0.2,0.3,0.5,0.5,0.9,0.5C89.7,56.6,89.9,56.5,90,56.4z"/>
	<path fill="#3354A8" d="M35.2,36.7c0.1,0,0.2,0,0.3,0c0.9-0.2,1.8-0.5,2.7-0.7c0.5-0.1,0.9-0.6,0.8-1.2c-0.1-0.5-0.6-0.9-1.2-0.8
		c-1,0.2-1.9,0.4-2.9,0.7c-0.5,0.1-0.8,0.7-0.7,1.2C34.4,36.4,34.8,36.7,35.2,36.7z"/>
	<path fill="#3354A8" d="M27.2,39.8c0.2,0,0.3,0,0.4-0.1c0.8-0.4,1.7-0.8,2.5-1.2c0.5-0.2,0.7-0.8,0.5-1.3c-0.2-0.5-0.8-0.7-1.3-0.5
		c-0.9,0.4-1.8,0.8-2.7,1.2c-0.5,0.2-0.7,0.8-0.4,1.3C26.5,39.6,26.8,39.8,27.2,39.8z"/>
	<path fill="#3354A8" d="M72,38.6c-0.9-0.4-1.8-0.8-2.7-1.2c-0.5-0.2-1.1,0-1.3,0.5c-0.2,0.5,0,1.1,0.5,1.3c0.9,0.4,1.7,0.8,2.6,1.2
		c0.1,0.1,0.3,0.1,0.4,0.1c0.4,0,0.7-0.2,0.9-0.6C72.7,39.4,72.5,38.8,72,38.6z"/>
	<path fill="#3354A8" d="M55.3,33.5c-1-0.1-1.9-0.2-2.9-0.3c-0.6,0-1,0.4-1.1,0.9c0,0.6,0.4,1,0.9,1.1c0.9,0.1,1.9,0.2,2.8,0.3
		c0,0,0.1,0,0.1,0c0.5,0,0.9-0.4,1-0.9C56.2,34.1,55.8,33.6,55.3,33.5z"/>
	<path fill="#3354A8" d="M63.8,35.4c-0.9-0.3-1.9-0.5-2.8-0.8c-0.5-0.1-1.1,0.2-1.2,0.7c-0.1,0.5,0.2,1.1,0.7,1.2
		c0.9,0.2,1.8,0.5,2.7,0.7c0.1,0,0.2,0,0.3,0c0.4,0,0.8-0.3,1-0.7C64.7,36.1,64.4,35.5,63.8,35.4z"/>
	<path fill="#3354A8" d="M77.1,41.4c-0.5-0.3-1.1-0.2-1.4,0.3c-0.3,0.5-0.2,1.1,0.3,1.4c0.8,0.5,1.6,1,2.3,1.6
		c0.2,0.1,0.4,0.2,0.6,0.2c0.3,0,0.6-0.1,0.8-0.4c0.3-0.4,0.2-1.1-0.2-1.4C78.7,42.5,77.9,42,77.1,41.4z"/>
	<path fill="#3354A8" d="M46.5,33c-1,0-2,0.1-2.9,0.2c-0.6,0-1,0.5-0.9,1.1c0,0.5,0.5,0.9,1,0.9c0,0,0.1,0,0.1,0
		c0.9-0.1,1.9-0.1,2.8-0.2c0.6,0,1-0.5,1-1C47.5,33.4,47.1,33,46.5,33z"/>
	<path fill="#3354A8" d="M21,43.6c0.2,0,0.4-0.1,0.6-0.2c0.4-0.3,0.8-0.6,1.2-0.9c0.5-0.3,0.6-0.9,0.3-1.4c-0.3-0.5-0.9-0.6-1.4-0.3
		c-0.4,0.3-0.8,0.6-1.2,0.9c-0.4,0.3-0.5,1-0.2,1.4C20.4,43.5,20.7,43.6,21,43.6z"/>
</g>
</svg>
