<?xml version="1.0" encoding="utf-8"?>
<!-- Generator: Adobe Illustrator 18.1.1, SVG Export Plug-In . SVG Version: 6.00 Build 0)  -->
<!DOCTYPE svg PUBLIC "-//W3C//DTD SVG 1.1//EN" "http://www.w3.org/Graphics/SVG/1.1/DTD/svg11.dtd">
<svg version="1.1" id="Layer_1" xmlns="http://www.w3.org/2000/svg" xmlns:xlink="http://www.w3.org/1999/xlink" x="0px" y="0px"
	 viewBox="0 0 100 100" enable-background="new 0 0 100 100" xml:space="preserve">
<path fill="none" stroke="#3354A8" stroke-linecap="round" stroke-linejoin="round" stroke-miterlimit="10" d="M2.5,45.5
	c0.4,1.6,1.6,3,3.2,3.6c1.4,0.5,3.1,0.6,4,1.7c0.6,0.8,0.7,1.8,1.3,2.5c0.5,0.5,1.2,0.8,1.5,1.4c0.3,0.4,0.3,1,0.5,1.4
	c0.4,1.3,1.5,2.4,2.9,2.7c0.9,1.6,0.8,3.9,1.5,5.6c0.4,1,1.1,1.8,1.8,2.6c0.7,0.7,1.3,1.5,2,2.2c-0.2,0-0.4,0.1-0.5,0.1
	c1-0.4,2.9,1.1,2.7,2.2c0,0.2-0.1,0.4,0,0.5c0.1,0.2,0.4,0.2,0.6,0.2c0.8,0,1.8,0,2.4-0.5c0.2-0.2,0.4-0.5,0.6-0.7
	c0.8-0.5,1.9,0.4,2,1.3c0.2,1-0.2,1.9-0.1,2.9c-1.5,1.2-3.4,2-5.4,2.2c-0.3,0-0.7,0.1-0.9,0.3c-0.2,0.2-0.2,0.4-0.3,0.6
	c-0.2,0.6-0.3,1.4,0.1,1.9c0.2,0.3,0.5,0.4,0.7,0.7c0.6,0.8,0,2,0.4,2.9c0.3,0.9,1.4,1.3,2,1.9c0.4,0.4,0.6,0.8,0.8,1.3
	c0.7,1.4,1.4,2.7,2.2,4.1"/>
<path fill="none" stroke="#3354A8" stroke-linecap="round" stroke-linejoin="round" stroke-miterlimit="10" d="M8.8,28.5
	c1.7-0.2,3.5,0.3,4.8,1.5c0.7,0.6,1.2,1.4,2.1,1.6c0.8,0.1,1.5-0.3,2.2-0.7c3.6-1.9,7.8-2.1,11.9-2.2c0.7,0,1.5-0.1,2.2-0.1
	c2.9-0.1,5.8-0.2,8.8-0.3c0.7,1.8,0.8,3.9,0.2,5.8c-0.2,0.5-0.4,1.1-0.3,1.6c0.3,2.1,3.9,1.3,5.4,2.9c1.3,1.3,0.4,3.5-0.4,5.1
	c-1.4,2.9-2.3,6-3.1,9c-0.4,1.3-0.8,2.8-0.4,4.1c-2.1-0.6-0.8-4.3-2.5-5.6c-0.5-0.4-1.2-0.4-1.8-0.5c-1.9-0.1-4.2,0-5,1.7
	c-0.3,0.7-0.3,1.6-0.9,2.2c-0.8,0.9-2.3,0.4-3.5,0.1c-2.1-0.5-4.5,0-6.2,1.4c-0.1,2.1-0.7,4.3-1.6,6.2c-0.3,0.5-0.6,1.1-0.5,1.7
	c0.1,0.5,0.4,0.8,0.7,1.2c0.7,0.8,1.3,1.7,2,2.5c0.4,0.5,0.7,0.9,1.3,1.2c2.2,1.2,5.6-1.8,7.3,0.2c0.6,0.7,0.6,1.9,1.2,2.5
	c1.1,1.2,3.1,0.2,4.6-0.4c1.9-0.8,4.1-0.9,6.1-0.2c-0.7,1.4,0.6,2.9,1.8,3.8s2.7,2,2.7,3.5c0,0.5-0.2,1-0.2,1.6
	c0.1,1.7,2.5,2.1,4.3,1.9c-0.5,1.9,1.2,3.7,1,5.6c-0.1,0.9-0.7,1.7-1.2,2.5c-1.3,1.9-2.6,3.7-3.9,5.6"/>
<path fill="none" stroke="#3354A8" stroke-linecap="round" stroke-linejoin="round" stroke-miterlimit="10" d="M71.9,8
	c-1,0.6-2,1.2-3,1.7c-0.8,0.5-1.7,1-1.8,1.9c-0.2,0.9,0.4,1.8,0.9,2.7c0.6,1.1,1.1,2.4,1.2,3.7c0.1,0.5,0.1,1.1,0.5,1.4
	c0.2,0.3,0.6,0.4,0.9,0.5c0.5,0.2,1.1,0.3,1.6,0.5c0.3,0.1,0.7,0.2,1,0.2c0.7-0.1,1.2-0.7,1.5-1.4c0.3-0.6,0.4-1.4,0.8-1.9
	c0.6-1,1.8-1.4,2.8-2s2-1.5,1.9-2.6"/>
<path fill="none" stroke="#3354A8" stroke-linecap="round" stroke-linejoin="round" stroke-miterlimit="10" d="M98.3,45.4
	c-1.7,1.8-4.6,1.6-7,1.1s-5.3-0.8-7.1,0.9c-0.4,0.4-0.7,0.9-1.2,1.2c-1.5,0.9-3.9-0.2-4.8,1.2c-1,1.6,1.5,4,0.2,5.3
	c-0.7,0.7-2,0.5-2.7,1.2c-0.7,0.8-0.1,2-0.4,3c-0.3,1.1-1.6,1.6-1.9,2.7c-0.4,1.5,1.3,2.8,2.8,3.4s3.3,1.5,3.3,3.1
	c0,0.5-0.2,1-0.4,1.5c-1.8,4.7-1,10.3,1.9,14.4"/>
<path fill="none" stroke="#3354A8" stroke-linecap="round" stroke-linejoin="round" stroke-miterlimit="10" d="M80.8,29.6
	c0.7-0.4,1.3-0.9,1.6-1.6c0.4-1-0.1-2.2-0.6-3.2c-0.2-0.5-0.5-1.1-1-1.3c-0.5-0.3-1.2-0.2-1.7,0c-0.9,0.2-1.8,0.4-2.7,0.8
	s-1.5,1.2-1.6,2.2c-0.1,0.6,0.1,1.4-0.3,1.9c-0.3,0.4-0.8,0.5-1.3,0.7s-0.9,0.6-0.8,1.1c0.1,0.3,0.3,0.5,0.6,0.6
	C75.4,32.1,78.4,31.1,80.8,29.6z"/>
<path fill="none" stroke="#3354A8" stroke-linecap="round" stroke-linejoin="round" stroke-miterlimit="10" d="M89,26.1
	c0-0.2,0.2,0.1,0.2,0.2c-0.6,1.4-1.2,2.9-2.3,4.1c-0.6,0.7-1.4,1.2-1.9,2s-0.7,1.9-0.1,2.6c0.2,0.2,0.3,0.3,0.4,0.5
	c0.2,0.5-0.5,0.9-0.7,1.4c-0.3,0.7,0.3,1.6,1,1.8s1.6,0,2.3-0.3c0.7-0.3,1.5-0.6,2.3-0.6s1.5,0.4,2.2,0.6c0.7,0.2,1.6,0.3,2.2-0.2"
	/>
<path fill="none" stroke="#3354A8" stroke-linecap="round" stroke-linejoin="round" stroke-miterlimit="10" d="M28.5,9.7
	c-0.1,0.8,0.7,1.5,1.4,1.9c1.8,1.1,3.7,1.9,5.7,2.5c0.7,0.2,1.5,0.3,2.2,0.1c0.8-0.3,1.3-1.2,2.2-1.5c1.2-0.4,2.5,0.5,3.4,1.4
	s2.1,1.9,3.3,1.7c0.4-0.1,0.8-0.3,0.9-0.6c0.1-0.2,0.1-0.5,0-0.7c-0.1-1.4,0-2.9,0.4-4.3c0.1-0.3,0.2-0.6,0.4-0.9
	c0.6-0.8,1.8-0.6,2.8-0.6c2.3-0.1,4.2-2.2,4.3-4.4"/>
<circle fill="none" stroke="#3354A8" stroke-width="3" stroke-linecap="round" stroke-miterlimit="10" cx="49.9" cy="49.9" r="47.6"/>
<circle fill="#3354A8" cx="15.3" cy="46.2" r="3.6"/>
<circle fill="#3354A8" cx="93.1" cy="63" r="3.6"/>
<g>
	<g>
		<path fill="none" stroke="#3354A8" stroke-width="2" stroke-linecap="round" stroke-miterlimit="10" d="M89.5,55.6
			c-0.2-0.4-0.5-0.9-0.8-1.3"/>
		
			<path fill="none" stroke="#3354A8" stroke-width="2" stroke-linecap="round" stroke-miterlimit="10" stroke-dasharray="2.8733,5.7465" d="
			M85.3,49.7c-13.6-15.3-40.9-21.2-60.7-9.5"/>
		<path fill="none" stroke="#3354A8" stroke-width="2" stroke-linecap="round" stroke-miterlimit="10" d="M22.2,41.7
			c-0.4,0.3-0.8,0.6-1.2,0.9"/>
	</g>
</g>
</svg>
