<?xml version="1.0" encoding="utf-8"?>
<!-- Generator: Adobe Illustrator 18.1.1, SVG Export Plug-In . SVG Version: 6.00 Build 0)  -->
<!DOCTYPE svg PUBLIC "-//W3C//DTD SVG 1.1//EN" "http://www.w3.org/Graphics/SVG/1.1/DTD/svg11.dtd">
<svg version="1.1" id="Layer_1" xmlns="http://www.w3.org/2000/svg" xmlns:xlink="http://www.w3.org/1999/xlink" x="0px" y="0px"
	 viewBox="0 0 100 100" enable-background="new 0 0 100 100" xml:space="preserve">
<path fill="#3354A8" d="M49.8,90.7c-0.3,0-0.5-0.2-0.5-0.5c0-0.3,0.2-0.5,0.5-0.5c1,0,2,0,2.9-0.1c0.3,0,0.5,0.2,0.5,0.5
	c0,0.3-0.2,0.5-0.5,0.5C51.8,90.7,50.8,90.7,49.8,90.7L49.8,90.7z M46.9,90.6C46.8,90.6,46.8,90.6,46.9,90.6c-1-0.1-2-0.2-3-0.4
	c-0.3-0.1-0.5-0.3-0.4-0.6c0.1-0.3,0.3-0.4,0.6-0.4c1,0.2,1.9,0.3,2.9,0.4c0.3,0,0.5,0.3,0.5,0.5C47.3,90.4,47.1,90.6,46.9,90.6z
	 M55.7,90.2c-0.2,0-0.4-0.2-0.5-0.4c-0.1-0.3,0.1-0.5,0.4-0.6c1-0.2,1.9-0.4,2.8-0.7c0.3-0.1,0.5,0.1,0.6,0.3
	c0.1,0.3-0.1,0.5-0.3,0.6C57.8,89.8,56.8,90,55.7,90.2C55.8,90.2,55.8,90.2,55.7,90.2z M41,89.5c0,0-0.1,0-0.1,0
	c-1-0.3-1.9-0.6-2.9-1c-0.3-0.1-0.4-0.4-0.3-0.6c0.1-0.3,0.4-0.4,0.6-0.3c0.9,0.4,1.8,0.7,2.8,0.9c0.3,0.1,0.4,0.4,0.3,0.6
	C41.4,89.4,41.2,89.5,41,89.5z M61.5,88.6c-0.2,0-0.4-0.1-0.5-0.3c-0.1-0.3,0-0.5,0.3-0.6c0.9-0.4,1.8-0.8,2.7-1.2
	c0.2-0.1,0.5,0,0.7,0.2c0.1,0.2,0,0.5-0.2,0.7c-0.9,0.4-1.8,0.9-2.8,1.2C61.6,88.6,61.5,88.6,61.5,88.6z M35.5,87.4
	c-0.1,0-0.2,0-0.2-0.1c-0.9-0.4-1.8-0.9-2.6-1.5c-0.2-0.1-0.3-0.5-0.2-0.7c0.1-0.2,0.5-0.3,0.7-0.2c0.8,0.5,1.7,1,2.6,1.4
	c0.2,0.1,0.3,0.4,0.2,0.7C35.8,87.3,35.7,87.4,35.5,87.4z M66.8,85.9c-0.2,0-0.3-0.1-0.4-0.2c-0.1-0.2-0.1-0.5,0.2-0.7
	c0.8-0.5,1.6-1.1,2.4-1.7c0.2-0.2,0.5-0.1,0.7,0.1c0.2,0.2,0.1,0.5-0.1,0.7c-0.8,0.6-1.6,1.2-2.5,1.7C66.9,85.9,66.9,85.9,66.8,85.9
	z M30.4,84.3c-0.1,0-0.2,0-0.3-0.1c-0.8-0.6-1.6-1.3-2.3-1.9c-0.2-0.2-0.2-0.5,0-0.7c0.2-0.2,0.5-0.2,0.7,0c0.7,0.7,1.5,1.3,2.3,1.9
	c0.2,0.2,0.3,0.5,0.1,0.7C30.7,84.2,30.6,84.3,30.4,84.3z M71.5,82.3c-0.1,0-0.3-0.1-0.4-0.2c-0.2-0.2-0.2-0.5,0-0.7
	c0.7-0.7,1.4-1.4,2.1-2.1c0.2-0.2,0.5-0.2,0.7,0c0.2,0.2,0.2,0.5,0,0.7c-0.7,0.7-1.4,1.5-2.1,2.1C71.7,82.3,71.6,82.3,71.5,82.3z
	 M26,80.3c-0.1,0-0.3-0.1-0.4-0.2c-0.7-0.7-1.3-1.5-1.9-2.3c-0.2-0.2-0.1-0.5,0.1-0.7s0.5-0.1,0.7,0.1c0.6,0.8,1.2,1.5,1.9,2.2
	c0.2,0.2,0.2,0.5,0,0.7C26.3,80.2,26.1,80.3,26,80.3z M75.5,77.9c-0.1,0-0.2,0-0.3-0.1c-0.2-0.2-0.3-0.5-0.1-0.7
	c0.6-0.8,1.1-1.6,1.7-2.4c0.1-0.2,0.5-0.3,0.7-0.2c0.2,0.1,0.3,0.5,0.2,0.7c-0.5,0.9-1.1,1.7-1.7,2.5C75.8,77.9,75.7,77.9,75.5,77.9
	z M22.4,75.5c-0.2,0-0.3-0.1-0.4-0.2c-0.5-0.9-1-1.7-1.5-2.6c-0.1-0.2,0-0.5,0.2-0.7c0.2-0.1,0.5,0,0.7,0.2c0.4,0.9,0.9,1.7,1.4,2.6
	c0.1,0.2,0.1,0.5-0.2,0.7C22.6,75.5,22.5,75.5,22.4,75.5z M78.6,72.9c-0.1,0-0.2,0-0.2-0.1c-0.2-0.1-0.3-0.4-0.2-0.7
	c0.4-0.9,0.8-1.8,1.2-2.7c0.1-0.3,0.4-0.4,0.6-0.3c0.3,0.1,0.4,0.4,0.3,0.6c-0.4,0.9-0.8,1.9-1.2,2.8C79,72.8,78.8,72.9,78.6,72.9z
	 M19.8,70.2c-0.2,0-0.4-0.1-0.5-0.3c-0.4-0.9-0.7-1.9-1-2.9c-0.1-0.3,0.1-0.5,0.3-0.6c0.3-0.1,0.5,0.1,0.6,0.3
	c0.3,0.9,0.6,1.9,0.9,2.8c0.1,0.3,0,0.5-0.3,0.6C19.9,70.2,19.8,70.2,19.8,70.2z M80.8,67.3c0,0-0.1,0-0.1,0
	c-0.3-0.1-0.4-0.4-0.3-0.6c0.3-0.9,0.5-1.9,0.7-2.9c0-0.3,0.3-0.5,0.6-0.4c0.3,0,0.5,0.3,0.4,0.6c-0.2,1-0.4,2-0.7,2.9
	C81.2,67.2,81,67.3,80.8,67.3z M18.1,64.5c-0.2,0-0.4-0.2-0.5-0.4c-0.2-1-0.3-2-0.4-3c0-0.3,0.2-0.5,0.5-0.5c0.3,0,0.5,0.2,0.5,0.5
	c0.1,1,0.2,1.9,0.4,2.9C18.7,64.2,18.5,64.5,18.1,64.5C18.2,64.5,18.2,64.5,18.1,64.5z M81.9,61.5C81.9,61.5,81.8,61.5,81.9,61.5
	c-0.3,0-0.5-0.3-0.5-0.5c0.1-1,0.1-2,0.1-2.9l0-0.1c0-0.3,0.2-0.5,0.5-0.5s0.5,0.2,0.5,0.5l0,0.1c0,1,0,2-0.1,3
	C82.3,61.3,82.1,61.5,81.9,61.5z M17.6,58.6c-0.3,0-0.5-0.2-0.5-0.5h0.5L17.1,58c0-1,0-2,0.1-3c0-0.3,0.3-0.5,0.5-0.5
	c0.3,0,0.5,0.3,0.5,0.5c-0.1,0.9-0.1,1.9-0.1,2.9C18.1,58.3,17.9,58.6,17.6,58.6z M81.9,55.4c-0.3,0-0.5-0.2-0.5-0.5
	c-0.1-1-0.2-1.9-0.4-2.9c-0.1-0.3,0.1-0.5,0.4-0.6c0.3-0.1,0.5,0.1,0.6,0.4c0.2,1,0.3,2,0.4,3C82.4,55.2,82.2,55.4,81.9,55.4
	C81.9,55.4,81.9,55.4,81.9,55.4z M18.1,52.7C18.1,52.7,18.1,52.7,18.1,52.7c-0.4-0.1-0.5-0.3-0.5-0.6c0.2-1,0.4-2,0.7-2.9
	c0.1-0.3,0.4-0.4,0.6-0.3c0.3,0.1,0.4,0.4,0.3,0.6c-0.3,0.9-0.5,1.9-0.7,2.9C18.6,52.5,18.3,52.7,18.1,52.7z M80.7,49.6
	c-0.2,0-0.4-0.1-0.5-0.4c-0.3-0.9-0.6-1.9-0.9-2.8c-0.1-0.3,0-0.5,0.3-0.6c0.3-0.1,0.5,0,0.6,0.3c0.4,0.9,0.7,1.9,1,2.9
	c0.1,0.3-0.1,0.5-0.3,0.6C80.8,49.6,80.8,49.6,80.7,49.6z M19.7,47c-0.1,0-0.1,0-0.2,0c-0.3-0.1-0.4-0.4-0.3-0.6
	c0.4-0.9,0.8-1.9,1.2-2.8c0.1-0.2,0.4-0.4,0.7-0.2c0.2,0.1,0.3,0.4,0.2,0.7c-0.4,0.9-0.8,1.8-1.2,2.7C20.1,46.8,19.9,47,19.7,47z
	 M78.6,44.1c-0.2,0-0.4-0.1-0.4-0.3c-0.4-0.9-0.9-1.7-1.4-2.6c-0.1-0.2-0.1-0.5,0.2-0.7c0.2-0.1,0.5-0.1,0.7,0.2
	c0.5,0.9,1,1.7,1.5,2.6c0.1,0.2,0,0.5-0.2,0.7C78.7,44,78.7,44.1,78.6,44.1z M22.4,41.6c-0.1,0-0.2,0-0.3-0.1
	c-0.2-0.1-0.3-0.5-0.2-0.7c0.5-0.9,1.1-1.7,1.7-2.5c0.2-0.2,0.5-0.3,0.7-0.1c0.2,0.2,0.3,0.5,0.1,0.7c-0.6,0.8-1.1,1.6-1.7,2.4
	C22.7,41.6,22.5,41.6,22.4,41.6z M75.4,39c-0.2,0-0.3-0.1-0.4-0.2c-0.6-0.8-1.2-1.5-1.9-2.2c-0.2-0.2-0.2-0.5,0-0.7
	c0.2-0.2,0.5-0.2,0.7,0c0.7,0.7,1.3,1.5,1.9,2.3c0.2,0.2,0.1,0.5-0.1,0.7C75.6,39,75.5,39,75.4,39z M25.9,36.9c-0.1,0-0.2,0-0.3-0.1
	c-0.2-0.2-0.2-0.5,0-0.7c0.7-0.7,1.4-1.5,2.1-2.1c0.2-0.2,0.5-0.2,0.7,0c0.2,0.2,0.2,0.5,0,0.7c-0.7,0.7-1.4,1.4-2.1,2.1
	C26.2,36.8,26.1,36.9,25.9,36.9z M71.4,34.6c-0.1,0-0.2,0-0.3-0.1c-0.7-0.7-1.5-1.3-2.3-1.9c-0.2-0.2-0.3-0.5-0.1-0.7
	c0.2-0.2,0.5-0.3,0.7-0.1c0.8,0.6,1.6,1.2,2.3,1.9c0.2,0.2,0.2,0.5,0,0.7C71.7,34.6,71.5,34.6,71.4,34.6z M30.3,32.9
	c-0.2,0-0.3-0.1-0.4-0.2c-0.2-0.2-0.1-0.5,0.1-0.7c0.8-0.6,1.6-1.2,2.5-1.7c0.2-0.1,0.5-0.1,0.7,0.2c0.1,0.2,0.1,0.5-0.2,0.7
	c-0.8,0.5-1.6,1.1-2.4,1.7C30.5,32.8,30.4,32.9,30.3,32.9z M66.7,31.1c-0.1,0-0.2,0-0.3-0.1c-0.8-0.5-1.7-1-2.6-1.4
	c-0.2-0.1-0.3-0.4-0.2-0.7c0.1-0.2,0.4-0.3,0.7-0.2c0.9,0.4,1.8,0.9,2.6,1.5c0.2,0.1,0.3,0.5,0.2,0.7C67,31,66.8,31.1,66.7,31.1z
	 M35.4,29.7c-0.2,0-0.4-0.1-0.4-0.3c-0.1-0.2,0-0.5,0.2-0.7c0.9-0.5,1.8-0.9,2.8-1.2c0.3-0.1,0.5,0,0.6,0.3s0,0.5-0.3,0.6
	c-0.9,0.4-1.8,0.8-2.7,1.2C35.5,29.7,35.4,29.7,35.4,29.7z M61.3,28.4c-0.1,0-0.1,0-0.2,0c-0.9-0.3-1.8-0.7-2.8-0.9
	c-0.3-0.1-0.4-0.4-0.3-0.6c0.1-0.3,0.3-0.4,0.6-0.3c1,0.3,1.9,0.6,2.9,0.9c0.3,0.1,0.4,0.4,0.3,0.6C61.7,28.3,61.5,28.4,61.3,28.4z
	 M40.9,27.6c-0.2,0-0.4-0.1-0.5-0.4c-0.1-0.3,0.1-0.5,0.3-0.6c1-0.3,2-0.5,2.9-0.7c0.3,0,0.5,0.1,0.6,0.4c0.1,0.3-0.1,0.5-0.4,0.6
	c-1,0.2-1.9,0.4-2.8,0.7C41,27.6,40.9,27.6,40.9,27.6z M55.6,26.8C55.6,26.8,55.5,26.8,55.6,26.8c-1-0.2-2-0.3-3-0.4
	c-0.3,0-0.5-0.3-0.5-0.5c0-0.3,0.3-0.5,0.5-0.5c1,0.1,2,0.2,3,0.4c0.3,0,0.5,0.3,0.4,0.6C56.1,26.7,55.8,26.8,55.6,26.8z M46.7,26.5
	c-0.3,0-0.5-0.2-0.5-0.5c0-0.3,0.2-0.5,0.5-0.5c1-0.1,2-0.1,3-0.1c0,0,0,0,0,0c0.3,0,0.5,0.2,0.5,0.5c0,0.3-0.2,0.5-0.5,0.5
	C48.7,26.3,47.7,26.4,46.7,26.5C46.8,26.5,46.7,26.5,46.7,26.5z"/>
<g>
	<circle fill="#FFFFFF" cx="77.7" cy="74.1" r="20.4"/>
	<path fill="#3354A8" d="M77.7,95.5c-11.8,0-21.4-9.6-21.4-21.4s9.6-21.4,21.4-21.4S99,62.4,99,74.1S89.5,95.5,77.7,95.5z
		 M77.7,54.8c-10.7,0-19.4,8.7-19.4,19.4S67,93.5,77.7,93.5S97,84.8,97,74.1S88.4,54.8,77.7,54.8z"/>
</g>
<g>
	<circle fill="#FFFFFF" cx="21.9" cy="74.1" r="20.4"/>
	<path fill="#3354A8" d="M21.9,95.5c-11.8,0-21.4-9.6-21.4-21.4s9.6-21.4,21.4-21.4s21.4,9.6,21.4,21.4S33.7,95.5,21.9,95.5z
		 M21.9,54.8c-10.7,0-19.4,8.7-19.4,19.4s8.7,19.4,19.4,19.4c10.7,0,19.4-8.7,19.4-19.4S32.6,54.8,21.9,54.8z"/>
</g>
<g>
	<circle fill="#FFFFFF" cx="49.8" cy="25.8" r="20.4"/>
	<path fill="#3354A8" d="M49.8,47.2c-11.8,0-21.4-9.6-21.4-21.4S38,4.5,49.8,4.5c11.8,0,21.4,9.6,21.4,21.4S61.6,47.2,49.8,47.2z
		 M49.8,6.5c-10.7,0-19.4,8.7-19.4,19.4s8.7,19.4,19.4,19.4c10.7,0,19.4-8.7,19.4-19.4S60.5,6.5,49.8,6.5z"/>
</g>
<path fill="#3354A8" d="M51.7,16.6v7.1h7.1v3.8h-7.1v7.1h-3.8v-7.1h-7.1v-3.8h7.1v-7.1H51.7 M51.7,14.6h-3.8c-1.1,0-2,0.9-2,2v5.1
	h-5.1c-1.1,0-2,0.9-2,2v3.8c0,1.1,0.9,2,2,2h5.1v5.1c0,1.1,0.9,2,2,2h3.8c1.1,0,2-0.9,2-2v-5.1h5.1c1.1,0,2-0.9,2-2v-3.8
	c0-1.1-0.9-2-2-2h-5.1v-5.1C53.7,15.5,52.8,14.6,51.7,14.6L51.7,14.6z"/>
<path fill="#3354A8" d="M21.9,79.5c-2.4,0-4.4-2-4.4-4.4s2-4.4,4.4-4.4c2.4,0,4.4,2,4.4,4.4S24.3,79.5,21.9,79.5z M21.9,71.8
	c-1.8,0-3.4,1.5-3.4,3.4c0,1.8,1.5,3.4,3.4,3.4s3.4-1.5,3.4-3.4C25.2,73.3,23.7,71.8,21.9,71.8z"/>
<path fill="#3354A8" d="M23.3,74.1c-0.1,0.2-0.4,0.3-0.6,0.3c-0.4,0-0.8-0.4-0.8-0.8c0-0.1,0-0.1,0-0.2c-0.9,0-1.7,0.8-1.7,1.7
	c0,1,0.8,1.7,1.7,1.7s1.7-0.8,1.7-1.7C23.6,74.7,23.5,74.4,23.3,74.1z"/>
<path fill="#3354A8" d="M34.6,77.2c-0.3,0-0.6-0.1-0.8-0.4c-3.3-4.3-6.9-6.7-10.7-7c-5.5-0.4-10.6,3.4-13.9,6.6
	c-0.4,0.4-1,0.4-1.4,0c-0.4-0.4-0.4-1,0-1.4c3.6-3.5,9.2-7.6,15.4-7.1c4.5,0.3,8.6,2.9,12.2,7.8c0.3,0.4,0.2,1.1-0.2,1.4
	C35,77.2,34.8,77.2,34.6,77.2z"/>
<path fill="#3354A8" d="M21.7,82.2c-0.2,0-0.4,0-0.5,0c-6.1-0.3-10.5-4.9-12-7.3c-0.3-0.5-0.1-1.1,0.3-1.4c0.5-0.3,1.1-0.1,1.4,0.3
	c1.5,2.4,5.5,6.2,10.4,6.4c4,0.2,7.6-2,11-6.4c0.3-0.4,1-0.5,1.4-0.2c0.4,0.3,0.5,1,0.2,1.4C30.2,79.8,26.1,82.2,21.7,82.2z"/>
<path fill="#3354A8" d="M10.1,74.9c-0.1,0-0.2,0-0.3-0.1c-0.2-0.2-0.2-0.5,0-0.7c0.3-0.4,0.7-1,0.6-1.5c-0.1-0.3-0.3-0.6-0.6-0.8
	c-0.2-0.1-0.3-0.4-0.2-0.7c0.1-0.2,0.4-0.3,0.7-0.2c0.8,0.5,1,1.1,1.1,1.5c0.1,0.9-0.3,1.8-0.8,2.4C10.4,74.9,10.3,74.9,10.1,74.9z"
	/>
<path fill="#3354A8" d="M12.2,72.6c-0.1,0-0.2,0-0.3-0.1c-0.2-0.2-0.3-0.5-0.1-0.7c0.4-0.5,0.9-1.4,0.7-2.2c-0.1-0.5-0.4-0.9-1-1.2
	c-0.2-0.1-0.3-0.4-0.2-0.7c0.1-0.2,0.4-0.3,0.7-0.2c0.8,0.4,1.4,1.1,1.5,1.9c0.2,1.1-0.3,2.3-0.9,3.1C12.5,72.6,12.3,72.6,12.2,72.6
	z"/>
<path fill="#3354A8" d="M15.1,71c-0.1,0-0.2,0-0.3-0.1c-0.2-0.2-0.3-0.5-0.1-0.7c0.4-0.5,0.9-1.4,0.7-2.2c-0.1-0.5-0.4-0.9-1-1.2
	c-0.2-0.1-0.3-0.4-0.2-0.7c0.1-0.2,0.4-0.3,0.7-0.2c0.8,0.4,1.4,1.1,1.5,1.9c0.2,1.1-0.3,2.3-0.9,3.1C15.4,71,15.3,71,15.1,71z"/>
<path fill="#3354A8" d="M17.5,69.6c-0.1,0-0.3-0.1-0.4-0.2c-0.2-0.2-0.2-0.5,0-0.7c0.5-0.5,1.2-1.5,1.1-2.3c0-0.5-0.3-1-0.9-1.4
	c-0.2-0.2-0.3-0.5-0.1-0.7c0.2-0.2,0.5-0.3,0.7-0.1c0.8,0.5,1.2,1.3,1.3,2.1c0.1,1.2-0.6,2.4-1.4,3.1C17.8,69.5,17.7,69.6,17.5,69.6
	z"/>
<path fill="#3354A8" d="M20.9,69c-0.1,0-0.3-0.1-0.4-0.2c-0.2-0.2-0.2-0.5,0-0.7c0.5-0.5,1.2-1.5,1.1-2.3c0-0.5-0.3-1-0.9-1.4
	c-0.2-0.2-0.3-0.5-0.1-0.7c0.2-0.2,0.5-0.3,0.7-0.1c0.8,0.5,1.2,1.3,1.3,2.1c0.1,1.2-0.6,2.4-1.4,3.1C21.1,68.9,21,69,20.9,69z"/>
<path fill="#3354A8" d="M24.5,68.9c-0.2,0-0.3-0.1-0.4-0.2c-0.2-0.2-0.1-0.5,0.1-0.7c0.6-0.4,1.2-1.1,1.3-1.8c0-0.4-0.1-0.8-0.5-1.2
	c-0.2-0.2-0.2-0.5,0-0.7c0.2-0.2,0.5-0.2,0.7,0c0.6,0.6,0.8,1.2,0.8,2c-0.1,1.1-1,2-1.7,2.6C24.7,68.9,24.6,68.9,24.5,68.9z"/>
<path fill="#3354A8" d="M27.6,69.8c-0.2,0-0.4-0.1-0.5-0.3c-0.1-0.3,0-0.5,0.3-0.7c0.5-0.2,1.2-0.7,1.3-1.2c0.1-0.3,0-0.5-0.2-0.8
	c-0.1-0.2-0.1-0.5,0.1-0.7c0.2-0.2,0.5-0.1,0.7,0.1c0.3,0.5,0.4,1.1,0.3,1.7c-0.3,0.9-1.2,1.5-1.9,1.8
	C27.8,69.8,27.7,69.8,27.6,69.8z"/>
<path fill="#3354A8" d="M29.9,71.5c-0.2,0-0.4-0.1-0.5-0.4c-0.1-0.3,0.1-0.5,0.3-0.6c0.6-0.2,1.3-0.6,1.5-1.1c0.1-0.3,0.1-0.5,0-0.8
	c-0.1-0.3,0-0.5,0.2-0.7c0.3-0.1,0.5,0,0.7,0.2c0.3,0.6,0.3,1.1,0,1.7c-0.4,0.9-1.4,1.4-2.1,1.6C30,71.5,30,71.5,29.9,71.5z"/>
<path fill="#3354A8" d="M32,73c0,0-0.1,0-0.1,0c-0.3,0-0.5-0.2-0.5-0.5s0.3-0.5,0.5-0.5c0.6,0,1.5-0.2,1.9-0.6
	c0.2-0.2,0.3-0.5,0.3-0.8c0-0.3,0.2-0.5,0.5-0.5c0.3,0,0.5,0.2,0.5,0.5c0,0.6-0.2,1.1-0.6,1.5C33.8,72.8,32.8,73,32,73z"/>
<path fill="#3354A8" d="M77.5,83.1L77.5,83.1c-7.5,0-13.8-7.5-14.4-12.6c0-0.3,0.1-0.6,0.3-0.9c0.2-0.2,0.6-0.3,0.9-0.2
	c8.3,2,17.2,1.7,25.9-0.9c0.4-0.1,0.8,0,1,0.3c0.3,0.3,0.3,0.7,0.2,1C87.3,80.8,81.6,83.1,77.5,83.1z M65.4,71.7
	c1.4,4.2,6.5,9.4,12.1,9.4c4.5,0,8.4-3.5,11.3-10.1C80.9,73,73,73.3,65.4,71.7z"/>
<path fill="#3354A8" d="M76.2,77.6c-3.8,0-7.5-0.5-9.8-1.4c-0.3-0.1-0.4-0.4-0.3-0.6c0.1-0.3,0.4-0.4,0.6-0.3
	c5,1.8,15.6,1.9,20.9-0.6c0.2-0.1,0.5,0,0.7,0.2c0.1,0.2,0,0.5-0.2,0.7C85,77,80.5,77.6,76.2,77.6z"/>
<path fill="#3354A8" d="M77.9,82.6c-0.3,0-0.5-0.2-0.5-0.5l-0.6-10c0-0.3,0.2-0.5,0.5-0.5c0.3,0,0.5,0.2,0.5,0.5l0.6,10
	C78.4,82.3,78.2,82.6,77.9,82.6C77.9,82.6,77.9,82.6,77.9,82.6z"/>
<path fill="#3354A8" d="M80.4,82.1C80.4,82.1,80.4,82.1,80.4,82.1c-0.3,0-0.5-0.3-0.5-0.5l0.8-10.3c0-0.3,0.3-0.5,0.5-0.5
	c0.3,0,0.5,0.3,0.5,0.5l-0.8,10.3C80.9,81.9,80.7,82.1,80.4,82.1z"/>
<path fill="#3354A8" d="M83.1,80.8c0,0-0.1,0-0.1,0c-0.3-0.1-0.4-0.3-0.4-0.6l2-9.5c0.1-0.3,0.3-0.4,0.6-0.4
	c0.3,0.1,0.4,0.3,0.4,0.6l-2,9.5C83.6,80.6,83.4,80.8,83.1,80.8z"/>
<path fill="#3354A8" d="M74.5,82.1c-0.2,0-0.5-0.2-0.5-0.4l-1.3-10c0-0.3,0.2-0.5,0.4-0.6c0.3,0,0.5,0.2,0.6,0.4l1.3,10
	C75,81.9,74.8,82.1,74.5,82.1C74.5,82.1,74.5,82.1,74.5,82.1z"/>
<path fill="#3354A8" d="M71.4,80.8c-0.2,0-0.4-0.1-0.5-0.4l-2.6-8.9c-0.1-0.3,0.1-0.5,0.3-0.6c0.3-0.1,0.5,0.1,0.6,0.3l2.6,8.9
	c0.1,0.3-0.1,0.5-0.3,0.6C71.5,80.8,71.5,80.8,71.4,80.8z"/>
<polygon fill="#3354A8" points="84.2,76.3 80.8,76.6 81.1,72.1 85,71.4 "/>
</svg>
