<?xml version="1.0" encoding="utf-8"?>
<!-- Generator: Adobe Illustrator 18.1.1, SVG Export Plug-In . SVG Version: 6.00 Build 0)  -->
<!DOCTYPE svg PUBLIC "-//W3C//DTD SVG 1.1//EN" "http://www.w3.org/Graphics/SVG/1.1/DTD/svg11.dtd">
<svg version="1.1" id="Layer_1" xmlns="http://www.w3.org/2000/svg" xmlns:xlink="http://www.w3.org/1999/xlink" x="0px" y="0px"
	 viewBox="0 0 32 32" enable-background="new 0 0 32 32" xml:space="preserve">
<path fill="#FFFFFF" d="M29.5,0H2.4C1.1,0,0,1,0,2.3v27.4C0,31,1.1,32,2.4,32h27.2c1.3,0,2.4-1,2.4-2.3V2.3C31.9,1,30.8,0,29.5,0z
	 M9.5,27.3H4.7V12h4.7L9.5,27.3L9.5,27.3z M7.1,9.9c-1.5,0-2.8-1.2-2.8-2.8c0-1.5,1.2-2.8,2.8-2.8c1.5,0,2.8,1.2,2.8,2.8
	C9.9,8.7,8.6,9.9,7.1,9.9z M27.2,27.3h-4.7v-7.4c0-1.8,0-4-2.5-4s-2.8,1.9-2.8,3.9v7.6h-4.7V12h4.4v2.1H17c0.6-1.2,2.2-2.5,4.5-2.5
	c4.8,0,5.7,3.2,5.7,7.3V27.3z"/>
</svg>
