<?xml version="1.0" encoding="utf-8"?>
<!-- Generator: Adobe Illustrator 18.1.1, SVG Export Plug-In . SVG Version: 6.00 Build 0)  -->
<!DOCTYPE svg PUBLIC "-//W3C//DTD SVG 1.1//EN" "http://www.w3.org/Graphics/SVG/1.1/DTD/svg11.dtd">
<svg version="1.1" id="Layer_1" xmlns="http://www.w3.org/2000/svg" xmlns:xlink="http://www.w3.org/1999/xlink" x="0px" y="0px"
	 viewBox="0 0 116.9 100" enable-background="new 0 0 116.9 100" xml:space="preserve">
<g>
	
		<rect x="82" y="33.9" transform="matrix(-0.3973 0.9177 -0.9177 -0.3973 176.6388 -45.7854)" fill="#FFFFFF" width="42.7" height="2.4"/>
	<path fill="#3354A8" d="M96,55.7c-0.1,0-0.1,0-0.2,0l-2.2-0.9c-0.1-0.1-0.2-0.2-0.3-0.3c0-0.1,0-0.3,0-0.4l17-39.2
		c0.1-0.3,0.4-0.4,0.7-0.3l2.2,0.9c0.1,0.1,0.2,0.2,0.3,0.3c0,0.1,0,0.3,0,0.4l-17,39.2C96.3,55.5,96.2,55.7,96,55.7z M94.5,54
		l1.2,0.5l16.6-38.2l-1.2-0.5L94.5,54z"/>
</g>
<g>
	<polygon fill="#FFFFFF" points="105.7,89.8 112,35.6 76.5,35.6 82.8,89.8 	"/>
	<path fill="#3354A8" d="M105.7,90.8H82.8c-0.5,0-0.9-0.4-1-0.9l-6.3-54.3c0-0.3,0.1-0.6,0.2-0.8c0.2-0.2,0.5-0.3,0.7-0.3H112
		c0.3,0,0.6,0.1,0.7,0.3c0.2,0.2,0.3,0.5,0.2,0.8l-6.3,54.3C106.6,90.4,106.2,90.8,105.7,90.8z M83.7,88.8h21.1l6.1-52.3H77.7
		L83.7,88.8z"/>
</g>
<g>
	<path fill="#FFFFFF" d="M5.3,84.9c0,11.1,0.5,9,40.3,9c38.9,0,40.3,3,40.3-9C72.3,83.5,16.4,82.6,5.3,84.9z"/>
	<path fill="#3354A8" d="M73.2,95.3C73.2,95.3,73.2,95.3,73.2,95.3c-2.5,0-5.4-0.1-8.9-0.1c-5-0.1-11.1-0.2-18.7-0.2l-1.1,0
		c-5.7,0-10.7,0-14.8,0.1c-3.1,0-5.8,0-8.2,0c-15.5,0-17.1-1-17.1-10.2c0-0.5,0.3-0.9,0.8-1c6-1.3,23.8-1.5,33.8-1.5
		c18.8,0,39.5,0.6,47.1,1.4c0.5,0.1,0.9,0.5,0.9,1c0,4.2-0.1,6.8-2.2,8.5C82.7,95,79.1,95.3,73.2,95.3z M44.5,93l1.1,0
		c7.6,0,13.7,0.1,18.7,0.2c3.4,0.1,6.4,0.1,8.9,0.1c0,0,0,0,0,0c5.2,0,8.8-0.2,10.3-1.5c1.2-0.9,1.4-2.6,1.5-6
		c-8.2-0.8-27.9-1.3-46-1.3c-16,0-27.7,0.5-32.6,1.3c0,6.8,0.6,7.3,15.1,7.3c2.4,0,5.1,0,8.2,0C33.8,93,38.7,93,44.5,93z"/>
</g>
<g>
	<ellipse fill="#FFFFFF" cx="19.9" cy="79.2" rx="13.5" ry="7.9"/>
	<path fill="#3354A8" d="M19.9,87.6c-7.7,0-14-3.8-14-8.4s6.3-8.4,14-8.4s14,3.8,14,8.4S27.7,87.6,19.9,87.6z M19.9,71.8
		c-7.2,0-13,3.3-13,7.4s5.9,7.4,13,7.4s13-3.3,13-7.4S27.1,71.8,19.9,71.8z"/>
</g>
<g>
	<ellipse fill="#FFFFFF" cx="34.6" cy="79.2" rx="13.5" ry="7.9"/>
	<path fill="#3354A8" d="M34.6,87.6c-7.7,0-14-3.8-14-8.4s6.3-8.4,14-8.4s14,3.8,14,8.4S42.3,87.6,34.6,87.6z M34.6,71.8
		c-7.2,0-13,3.3-13,7.4s5.9,7.4,13,7.4s13-3.3,13-7.4S41.8,71.8,34.6,71.8z"/>
</g>
<g>
	<ellipse fill="#FFFFFF" cx="56.9" cy="79.2" rx="13.5" ry="7.9"/>
	<path fill="#3354A8" d="M56.9,87.6c-7.7,0-14-3.8-14-8.4s6.3-8.4,14-8.4s14,3.8,14,8.4S64.6,87.6,56.9,87.6z M56.9,71.8
		c-7.2,0-13,3.3-13,7.4s5.9,7.4,13,7.4c7.2,0,13-3.3,13-7.4S64.1,71.8,56.9,71.8z"/>
</g>
<g>
	<ellipse fill="#FFFFFF" cx="74.5" cy="79.2" rx="11.5" ry="7.9"/>
	<path fill="#3354A8" d="M74.5,87.6c-6.6,0-12-3.8-12-8.4s5.4-8.4,12-8.4s12,3.8,12,8.4S81.1,87.6,74.5,87.6z M74.5,71.8
		c-6,0-11,3.3-11,7.4s4.9,7.4,11,7.4s11-3.3,11-7.4S80.6,71.8,74.5,71.8z"/>
</g>
<g>
	<path fill="#FFFFFF" d="M43.3,74.4c2.8,3,4.9,6.8,6.5,6.8c2,0,4.6-1.8,5.4-1.9c1.8-0.2,3.4-1.5,4.8-0.4c1.6,1.3,2.4,4.1,4.4,3.8
		c0.3-1,1-2,1.9-2.5c1.1,1.1,2.7,1.7,4.2,1.5c-0.3-1.1,1.1-2.3,2.1-1.8c0.4,0.2,0.8,0.6,1.2,0.8c1.7,0.8,3.3-1.8,5.2-1.7
		c1.1,0,1.9,0.9,2.9,1.1c0.7,0.1,1.7,0.2,2.4,0.3c2.2,0.2,4.4-0.7,4.9-2.4c0.6-2,0.2-5.1-2.7-4.9"/>
	<path fill="#3354A8" d="M64.2,83.6c-1.6,0-2.6-1.4-3.4-2.5c-0.4-0.6-0.8-1.2-1.3-1.5c-0.5-0.4-1.1-0.3-2.3,0.1
		c-0.6,0.2-1.2,0.4-1.8,0.5c-0.2,0-0.7,0.3-1.1,0.5c-1.2,0.6-2.9,1.4-4.4,1.4c-1.5,0-2.8-1.6-4.6-3.9c-0.8-1.1-1.7-2.2-2.6-3.2
		l1.5-1.4c1,1.1,1.9,2.3,2.8,3.3c1,1.3,2.5,3.1,3,3.1c1.1,0,2.5-0.7,3.6-1.2c0.7-0.4,1.3-0.6,1.7-0.7c0.5-0.1,1-0.2,1.5-0.4
		c1.2-0.4,2.8-0.9,4.1,0.2c0.7,0.5,1.2,1.2,1.7,1.9c0.6,0.9,1,1.4,1.4,1.6c0.4-1,1.2-1.8,2.1-2.3c0.4-0.2,0.9-0.2,1.2,0.2
		c0.7,0.7,1.6,1.1,2.5,1.2c0.1-0.5,0.4-0.9,0.9-1.3c0.8-0.7,1.8-0.8,2.7-0.4c0.3,0.2,0.6,0.4,0.8,0.5c0.1,0.1,0.3,0.2,0.4,0.3
		c0.4,0.2,0.9-0.1,1.8-0.7c0.9-0.6,1.8-1.2,3-1.1c0.8,0,1.4,0.4,2,0.7c0.4,0.2,0.7,0.4,1.1,0.4c0.5,0.1,1,0.1,1.5,0.2
		c0.3,0,0.6,0.1,0.8,0.1c1.8,0.2,3.5-0.5,3.9-1.8c0.3-1,0.3-2.3-0.3-3.1c-0.3-0.4-0.8-0.6-1.4-0.5l-0.2-2c1.7-0.1,2.6,0.6,3.1,1.3
		c1.1,1.4,1.1,3.4,0.6,4.9c-0.7,2.1-3.2,3.4-6,3.1c-0.2,0-0.5-0.1-0.8-0.1c-0.6-0.1-1.2-0.1-1.7-0.2c-0.6-0.1-1.2-0.4-1.7-0.7
		c-0.4-0.2-0.8-0.4-1.2-0.5c-0.5,0-1.2,0.4-1.8,0.8c-1,0.7-2.3,1.5-3.7,0.8c-0.3-0.2-0.6-0.4-0.8-0.6c-0.1-0.1-0.3-0.2-0.4-0.3
		c-0.1-0.1-0.3,0-0.5,0.2c-0.2,0.2-0.3,0.3-0.2,0.5c0.1,0.3,0,0.6-0.1,0.8c-0.2,0.2-0.4,0.4-0.7,0.4c-1.6,0.2-3.1-0.3-4.3-1.2
		c-0.4,0.4-0.8,0.9-0.9,1.5c-0.1,0.4-0.4,0.7-0.8,0.7C64.5,83.6,64.4,83.6,64.2,83.6z"/>
</g>
<g>
	<path fill="#FFFFFF" d="M6.2,73c-3-0.1-4.9,2.4-4.3,4.5c1.9,1.8,5-0.9,7.4-0.2c2.3,0.7,3.5,4.4,5.9,3.8c1.1-0.3,1.8-1.5,2.9-1.5
		c0.6,0,1.2,0.3,1.9,0.5c2.8,0.6,5.9-2.9,8-1c1.2,1.1,1,3.4,2.4,4c2.5,1.1,3.9-4.2,6.5-3.8c1,0.2,1.8,1.3,2.9,1.2
		c0.7-0.1,1.3-0.7,1.9-1.1c1.8-1.4,7.6-1.6,6.2-4.8"/>
	<path fill="#3354A8" d="M31.1,84.3c-0.3,0-0.7-0.1-1.1-0.2c-1.2-0.5-1.6-1.7-2-2.7c-0.2-0.6-0.4-1.2-0.8-1.5
		c-0.6-0.6-1.5-0.3-3.2,0.4c-1.3,0.5-2.8,1.2-4.4,0.8c-0.3-0.1-0.5-0.2-0.8-0.2c-0.3-0.1-0.6-0.2-0.8-0.2c-0.3,0-0.6,0.3-1,0.6
		c-0.5,0.3-1,0.7-1.6,0.9c-1.9,0.5-3.3-0.9-4.3-2.1c-0.7-0.7-1.4-1.5-2.1-1.7c-0.8-0.3-1.8,0-2.9,0.3c-1.6,0.4-3.4,1-4.9-0.4
		C1,78.2,1,78,0.9,77.8c-0.4-1.3-0.1-2.6,0.8-3.8c1-1.4,2.7-2.1,4.5-2l-0.1,2c-1.2,0-2.2,0.4-2.9,1.3c-0.4,0.5-0.6,1.1-0.5,1.7
		c0.6,0.3,1.5,0.1,2.8-0.2c1.3-0.3,2.7-0.7,4.1-0.3c1.2,0.4,2.2,1.4,3,2.3c1.1,1.2,1.7,1.7,2.3,1.5c0.3-0.1,0.6-0.3,1-0.6
		c0.5-0.4,1.2-0.9,2.1-1c0.6,0,1.1,0.1,1.6,0.3c0.2,0.1,0.4,0.1,0.6,0.2c0.9,0.2,2.1-0.3,3.2-0.7c1.6-0.7,3.7-1.5,5.3,0
		c0.7,0.7,1,1.6,1.3,2.3c0.3,0.8,0.5,1.4,0.9,1.5c0.5,0.2,1.1-0.3,2.1-1.5c1-1.2,2.3-2.7,4.2-2.4c0.7,0.1,1.2,0.4,1.6,0.7
		c0.4,0.2,0.7,0.5,1,0.4c0.3,0,0.6-0.3,0.9-0.6c0.1-0.1,0.3-0.2,0.4-0.4c0.7-0.5,1.8-0.9,2.9-1.3c1.3-0.4,2.8-0.9,3.1-1.6
		c0-0.1,0.1-0.3-0.1-0.8l1.8-0.8c0.4,0.9,0.4,1.7,0.1,2.4c-0.7,1.5-2.5,2.1-4.3,2.7c-0.9,0.3-1.8,0.6-2.3,0.9
		c-0.1,0.1-0.2,0.2-0.4,0.3c-0.5,0.4-1.1,1-2,1c-0.9,0.1-1.6-0.4-2.2-0.7c-0.3-0.2-0.7-0.4-0.9-0.5c-0.7-0.1-1.4,0.6-2.3,1.7
		C33.5,83.1,32.5,84.3,31.1,84.3z"/>
</g>
<g>
	<circle fill="#FFFFFF" cx="95.7" cy="33.8" r="1.5"/>
	<path fill="#3354A8" d="M95.7,35.7c-1.1,0-2-0.9-2-2s0.9-2,2-2c1.1,0,2,0.9,2,2S96.8,35.7,95.7,35.7z M95.7,32.8c-0.5,0-1,0.4-1,1
		c0,0.5,0.4,1,1,1s1-0.4,1-1C96.7,33.2,96.2,32.8,95.7,32.8z"/>
</g>
<g>
	<path fill="#FFFFFF" d="M86.7,73c0-11.1-24.1-16-40.3-16.3S6.2,61,6.2,73C19.7,74.4,75.6,75.3,86.7,73z"/>
	<path fill="#3354A8" d="M53.2,75.4C53.2,75.4,53.2,75.4,53.2,75.4C34.3,75.4,13.7,74.8,6,74c-0.5-0.1-0.9-0.5-0.9-1
		c0-12.7,23.8-17.3,39.8-17.3c0.5,0,1,0,1.5,0c16,0.3,41.3,5.3,41.3,17.3c0,0.5-0.3,0.9-0.8,1C80.9,75.2,63.2,75.4,53.2,75.4z
		 M7.2,72.1c8.2,0.8,27.9,1.3,45.9,1.3c0,0,0,0,0,0c15.9,0,27.6-0.5,32.5-1.3C85,67,78.2,63.7,72.4,61.8c-7.2-2.4-16.9-3.9-25.9-4.1
		c-0.5,0-1,0-1.5,0c-8.9,0-18.3,1.4-25.1,3.7C14.3,63.3,7.9,66.6,7.2,72.1z"/>
</g>
<g>
	<rect x="72.5" y="34.2" fill="#FFFFFF" width="42.7" height="4.4"/>
	<path fill="#3354A8" d="M115.1,39.1H72.5c-0.3,0-0.5-0.2-0.5-0.5v-4.4c0-0.3,0.2-0.5,0.5-0.5h42.7c0.3,0,0.5,0.2,0.5,0.5v4.4
		C115.6,38.9,115.4,39.1,115.1,39.1z M73,38.1h41.7v-3.4H73V38.1z"/>
</g>
<g>
	<circle fill="#FFFFFF" cx="84" cy="18" r="1.5"/>
	<path fill="#3354A8" d="M84,19.9c-1.1,0-2-0.9-2-2s0.9-2,2-2c1.1,0,2,0.9,2,2S85,19.9,84,19.9z M84,17c-0.5,0-1,0.4-1,1
		c0,0.5,0.4,1,1,1s1-0.4,1-1C84.9,17.4,84.5,17,84,17z"/>
</g>
<g>
	<circle fill="#FFFFFF" cx="87.3" cy="10.4" r="1.1"/>
	<path fill="#3354A8" d="M87.3,12c-0.9,0-1.6-0.7-1.6-1.6s0.7-1.6,1.6-1.6s1.6,0.7,1.6,1.6S88.2,12,87.3,12z M87.3,9.8
		c-0.3,0-0.6,0.3-0.6,0.6c0,0.3,0.3,0.6,0.6,0.6c0.3,0,0.6-0.3,0.6-0.6C87.9,10.1,87.6,9.8,87.3,9.8z"/>
</g>
<circle fill="#3354A8" cx="93.8" cy="4.8" r="1.1"/>
<g>
	<circle fill="#FFFFFF" cx="95.7" cy="21.2" r="1.1"/>
	<path fill="#3354A8" d="M95.7,22.8c-0.9,0-1.6-0.7-1.6-1.6s0.7-1.6,1.6-1.6s1.6,0.7,1.6,1.6S96.6,22.8,95.7,22.8z M95.7,20.7
		c-0.3,0-0.6,0.3-0.6,0.6s0.3,0.6,0.6,0.6c0.3,0,0.6-0.3,0.6-0.6S96,20.7,95.7,20.7z"/>
</g>
<g>
	<circle fill="#FFFFFF" cx="88.4" cy="28.4" r="1.1"/>
	<path fill="#3354A8" d="M88.4,30c-0.9,0-1.6-0.7-1.6-1.6s0.7-1.6,1.6-1.6s1.6,0.7,1.6,1.6S89.3,30,88.4,30z M88.4,27.8
		c-0.3,0-0.6,0.3-0.6,0.6c0,0.3,0.3,0.6,0.6,0.6c0.3,0,0.6-0.3,0.6-0.6C89,28.1,88.7,27.8,88.4,27.8z"/>
</g>
<g>
	<path fill="#FFFFFF" d="M85.5,58.9c1.3-3.9,5-6.8,9.3-6.8c5.4,0,9.8,4.4,9.8,9.8s-4.4,9.8-9.8,9.8c-1.1,0-2.1-0.2-3.1-0.5"/>
	<path fill="#3354A8" d="M94.9,72.3c-1.1,0-2.2-0.2-3.3-0.5c-0.3-0.1-0.4-0.4-0.3-0.6c0.1-0.3,0.4-0.4,0.6-0.3
		c0.9,0.3,1.9,0.5,3,0.5c5.1,0,9.3-4.2,9.3-9.3s-4.2-9.3-9.3-9.3c-4,0-7.6,2.6-8.9,6.4c-0.1,0.3-0.4,0.4-0.6,0.3
		c-0.3-0.1-0.4-0.4-0.3-0.6c1.4-4.3,5.3-7.1,9.8-7.1c5.7,0,10.3,4.6,10.3,10.3S100.6,72.3,94.9,72.3z"/>
</g>
<path fill="#3354A8" d="M19.4,67.7h-1.2c-0.5,0-1-0.3-1.2-0.8c-0.2-0.5-0.1-1,0.3-1.4l7.3-6.9l0.7,0.7L18,66.2
	c-0.1,0.1-0.1,0.2-0.1,0.3c0,0.1,0.1,0.2,0.3,0.2h1.2c0.3,0,0.5-0.1,0.7-0.3l8.9-8.7l0.7,0.7l-8.9,8.7
	C20.4,67.5,19.9,67.7,19.4,67.7z"/>
<path fill="#3354A8" d="M40.5,67.7h-1.2c-0.5,0-1-0.3-1.2-0.8c-0.2-0.5-0.1-1,0.3-1.4l9.4-9.1l0.7,0.7l-9.4,9.1
	C39,66.3,39,66.5,39,66.5c0,0.1,0.1,0.2,0.3,0.2h1.2c0.3,0,0.5-0.1,0.7-0.3l10-9.8l0.7,0.7l-10,9.8C41.5,67.5,41,67.7,40.5,67.7z"/>
<path fill="#3354A8" d="M67,69h-1.2c-0.5,0-1-0.3-1.2-0.8c-0.2-0.5-0.1-1,0.3-1.4l6.5-6.5l0.7,0.7l-6.5,6.5
	c-0.1,0.1-0.1,0.3-0.1,0.3c0,0.1,0.1,0.2,0.3,0.2H67c0.3,0,0.5-0.1,0.7-0.3l6.9-6.8l0.7,0.7l-6.9,6.8C68,68.8,67.5,69,67,69z"/>
<path fill="#3354A8" d="M64.1,58.8L62.3,58c3.3-7,2.8-12.7-1.1-15.7c-3.2-2.4-8.3-2.6-11-0.3c-1.9,1.7-3.4,0.8-4.4,0
	c-3.8-3.2-8.5-1.3-11.4,1.9c-3.1,3.4-4.6,8.9-0.6,12.8l-1.4,1.4c-4.7-4.6-3.3-11.3,0.5-15.5c3.4-3.8,9.3-6.1,14.1-2.1
	c0.8,0.6,1,0.7,1.8,0c3.3-2.9,9.5-2.8,13.5,0.2C64.7,42.4,69.4,47.6,64.1,58.8z"/>
<path fill="#3354A8" d="M48.6,42.2l-0.9-0.4l5.2-12l-2.1-0.7l-3.2,12.6l-1-0.2l3.4-13.2c0-0.1,0.1-0.2,0.2-0.3
	c0.1-0.1,0.3-0.1,0.4,0l3.2,1.1c0.1,0,0.2,0.1,0.3,0.3c0.1,0.1,0.1,0.3,0,0.4L48.6,42.2z"/>
<path fill="#3354A8" d="M35.6,52.6c-0.1,0-0.3-0.1-0.4-0.2c-2.2-2.4-0.1-5.9,1.7-8.2c1.3-1.8,3.8-2.3,6-1.3c0.2,0.1,0.3,0.4,0.2,0.6
	l-2.2,6.6c0,0.1-0.1,0.2-0.3,0.3c-0.1,0.1-3.2,1.5-4.9,2.1C35.7,52.6,35.7,52.6,35.6,52.6z M40.7,43.4c-1.1,0-2.2,0.5-2.9,1.4
	c-2.4,3.2-3,5.3-2,6.7c1.4-0.6,3.6-1.6,4.3-1.9l2-6C41.6,43.5,41.1,43.4,40.7,43.4z"/>
<circle fill="#3354A8" cx="25.9" cy="81.7" r="0.9"/>
<circle fill="#3354A8" cx="36.8" cy="82.6" r="0.9"/>
<circle fill="#3354A8" cx="32.5" cy="86.2" r="0.9"/>
<circle fill="#3354A8" cx="41.3" cy="83.6" r="0.9"/>
<circle fill="#3354A8" cx="47.4" cy="80.8" r="0.9"/>
<circle fill="#3354A8" cx="53.7" cy="84.5" r="0.9"/>
<circle fill="#3354A8" cx="56.9" cy="81.7" r="0.9"/>
<circle fill="#3354A8" cx="60.5" cy="84.5" r="0.9"/>
<circle fill="#3354A8" cx="69" cy="83.3" r="0.9"/>
<circle fill="#3354A8" cx="75.5" cy="84.5" r="0.9"/>
<circle fill="#3354A8" cx="79.6" cy="82.4" r="0.9"/>
<circle fill="#3354A8" cx="18.4" cy="82.6" r="0.9"/>
<circle fill="#3354A8" cx="23.4" cy="84.5" r="0.9"/>
<circle fill="#3354A8" cx="14.3" cy="84.5" r="0.9"/>
<circle fill="#3354A8" cx="9.2" cy="80.8" r="0.9"/>
</svg>
