<?xml version="1.0" encoding="utf-8"?>
<!-- Generator: Adobe Illustrator 18.1.1, SVG Export Plug-In . SVG Version: 6.00 Build 0)  -->
<!DOCTYPE svg PUBLIC "-//W3C//DTD SVG 1.1//EN" "http://www.w3.org/Graphics/SVG/1.1/DTD/svg11.dtd">
<svg version="1.1" id="Layer_1" xmlns:sketch="http://www.bohemiancoding.com/sketch/ns"
	 xmlns="http://www.w3.org/2000/svg" xmlns:xlink="http://www.w3.org/1999/xlink" x="0px" y="0px" viewBox="0 0 100 100"
	 enable-background="new 0 0 100 100" xml:space="preserve">
<title>Fill 28</title>
<desc>Created with Sketch.</desc>
<rect x="7.5" y="32.8" fill="#FFFFFF" width="85" height="5"/>
<rect x="7.5" y="79.8" fill="#FFFFFF" width="85" height="5"/>
<rect y="90" fill="#FFFFFF" width="100" height="10"/>
<polygon fill="#FFFFFF" points="31.2,44.8 31.2,42.2 28.8,42.2 18.8,42.2 16.2,42.2 16.2,44.8 18.8,44.8 18.8,72.8 16.2,72.8 
	16.2,75.2 18.8,75.2 28.8,75.2 31.2,75.2 31.2,72.8 28.8,72.8 28.8,44.8 "/>
<polygon fill="#FFFFFF" points="57.5,44.8 57.5,42.2 55,42.2 45,42.2 42.5,42.2 42.5,44.8 45,44.8 45,72.8 42.5,72.8 42.5,75.2 
	45,75.2 55,75.2 57.5,75.2 57.5,72.8 55,72.8 55,44.8 "/>
<polygon fill="#FFFFFF" points="83.8,44.8 83.8,42.2 81.2,42.2 71.2,42.2 68.8,42.2 68.8,44.8 71.2,44.8 71.2,72.8 68.8,72.8 
	68.8,75.2 71.2,75.2 81.2,75.2 83.8,75.2 83.8,72.8 81.2,72.8 81.2,44.8 "/>
<path fill="#FFFFFF" d="M50,0L0,27.7h100L50,0z M50,21.8c-3,0-5.2-2.3-5.2-5.2c0-3,2.2-5.2,5.2-5.2s5.2,2.3,5.2,5.2
	C55.2,19.3,53,21.8,50,21.8z"/>
</svg>
