<?xml version="1.0" encoding="UTF-8" standalone="no"?>
<svg width="40px" height="40px" viewBox="0 0 40 40" version="1.1" xmlns="http://www.w3.org/2000/svg" xmlns:xlink="http://www.w3.org/1999/xlink" xmlns:sketch="http://www.bohemiancoding.com/sketch/ns">
    <!-- Generator: Sketch 3.2.2 (9983) - http://www.bohemiancoding.com/sketch -->
    <title>Fill 28</title>
    <desc>Created with Sketch.</desc>
    <defs></defs>
    <g id="Page-1" stroke="none" stroke-width="1" fill="none" fill-rule="evenodd" sketch:type="MSPage">
        <g id="Artboard-1" sketch:type="MSArtboardGroup" transform="translate(-886.000000, -35.000000)" fill="#FFFFFF">
            <path d="M887.655223,35 L922.410357,35 L922.410357,38.3116077 L887.655223,38.3116077 L887.655223,35 Z M923.237209,54.960917 C923.521439,54.960917 923.79503,54.9244087 924.06558,54.8787733 L924.06558,74.7529831 L919.09991,74.7529831 L919.09991,58.190381 L909.170089,58.190381 L909.170089,74.7529831 L887.655223,74.7529831 L887.655223,54.8772521 C887.924254,54.9228875 888.200885,54.960917 888.482075,54.960917 C890.348572,54.960917 891.979476,53.9249938 892.826087,52.3962084 C893.674218,53.9249938 895.303602,54.960917 897.171619,54.960917 C899.038115,54.960917 900.669019,53.9249938 901.51563,52.3962084 C902.362241,53.9249938 903.993146,54.960917 905.859642,54.960917 C907.727658,54.960917 909.357043,53.9249938 910.203654,52.3962084 C911.051785,53.9249938 912.682689,54.960917 914.549185,54.960917 C916.415682,54.960917 918.046586,53.9249938 918.893197,52.3962084 C919.742848,53.9249938 921.370712,54.960917 923.237209,54.960917 L923.237209,54.960917 Z M904.204418,58.190381 L892.619374,58.190381 L892.619374,68.1282465 L904.205938,68.1282465 L904.204418,58.190381 L904.204418,58.190381 Z M922.410357,39.9696933 L887.655223,39.9696933 C887.655223,39.9696933 886,50.4475775 886,50.7350804 C886,52.1071843 887.111082,53.2206877 888.482075,53.2206877 C889.853068,53.2206877 890.96567,52.1071843 890.96567,50.7350804 L890.96567,43.281301 L894.688023,43.281301 L894.688023,50.7350804 C894.688023,52.1071843 895.800625,53.2206877 897.171619,53.2206877 C898.541092,53.2206877 899.653694,52.1071843 899.653694,50.7350804 L899.653694,43.281301 L903.377567,43.281301 L903.377567,50.7350804 C903.377567,52.1071843 904.490169,53.2206877 905.859642,53.2206877 C907.230635,53.2206877 908.343237,52.1071843 908.343237,50.7350804 L908.343237,43.281301 L912.06559,43.281301 L912.06559,50.7350804 C912.06559,52.1071843 913.178192,53.2206877 914.549185,53.2206877 C915.918659,53.2206877 917.031261,52.1071843 917.031261,50.7350804 L917.04798,43.281301 L920.755133,43.281301 L920.755133,50.7350804 C920.755133,52.1071843 921.867735,53.2206877 923.237209,53.2206877 C924.608202,53.2206877 925.720804,52.1071843 925.720804,50.7350804 C925.720804,50.4475775 922.410357,39.9696933 922.410357,39.9696933 L922.410357,39.9696933 Z" id="Fill-28" sketch:type="MSShapeGroup"></path>
        </g>
    </g>
</svg>