<?xml version="1.0" encoding="utf-8"?>
<!-- Generator: Adobe Illustrator 18.1.1, SVG Export Plug-In . SVG Version: 6.00 Build 0)  -->
<!DOCTYPE svg PUBLIC "-//W3C//DTD SVG 1.1//EN" "http://www.w3.org/Graphics/SVG/1.1/DTD/svg11.dtd">
<svg version="1.1" id="Layer_1" xmlns="http://www.w3.org/2000/svg" xmlns:xlink="http://www.w3.org/1999/xlink" x="0px" y="0px"
	 viewBox="0 0 100 100" enable-background="new 0 0 100 100" xml:space="preserve">
<g>
	
		<polyline fill="none" stroke="#3354A8" stroke-width="3" stroke-linecap="round" stroke-linejoin="round" stroke-miterlimit="10" points="
		50,9.8 13.4,9.8 6.8,22.5 2,22.5 2,32.1 7.1,32.1 20.4,98.5 50,98.5 	"/>
	
		<line fill="none" stroke="#3354A8" stroke-width="3" stroke-linecap="round" stroke-linejoin="round" stroke-miterlimit="10" x1="7.1" y1="32.1" x2="92.9" y2="32.1"/>
	
		<line fill="none" stroke="#3354A8" stroke-width="3" stroke-linecap="round" stroke-linejoin="round" stroke-miterlimit="10" x1="6.8" y1="22.5" x2="93.2" y2="22.5"/>
	
		<polyline fill="none" stroke="#3354A8" stroke-width="3" stroke-linecap="round" stroke-linejoin="round" stroke-miterlimit="10" points="
		40.4,9.8 45.8,1.5 50,1.5 	"/>
	
		<polyline fill="none" stroke="#3354A8" stroke-width="3" stroke-linecap="round" stroke-linejoin="round" stroke-miterlimit="10" points="
		59.6,9.8 54.2,1.5 50,1.5 	"/>
	
		<line fill="none" stroke="#3354A8" stroke-width="2" stroke-linecap="round" stroke-linejoin="round" stroke-miterlimit="10" x1="21" y1="32.1" x2="29.1" y2="98.5"/>
	
		<polyline fill="none" stroke="#3354A8" stroke-width="3" stroke-linecap="round" stroke-linejoin="round" stroke-miterlimit="10" points="
		50,98.5 79.6,98.5 92.9,32.1 98,32.1 98,22.5 93.2,22.5 86.6,9.8 50,9.8 	"/>
	
		<line fill="none" stroke="#3354A8" stroke-width="2" stroke-linecap="round" stroke-linejoin="round" stroke-miterlimit="10" x1="49.7" y1="33.2" x2="50" y2="98.5"/>
	
		<line fill="none" stroke="#3354A8" stroke-width="2" stroke-linecap="round" stroke-linejoin="round" stroke-miterlimit="10" x1="39.9" y1="98.5" x2="35.1" y2="32.1"/>
	
		<line fill="none" stroke="#3354A8" stroke-width="2" stroke-linecap="round" stroke-linejoin="round" stroke-miterlimit="10" x1="78.5" y1="32.1" x2="70.3" y2="98.5"/>
	
		<line fill="none" stroke="#3354A8" stroke-width="2" stroke-linecap="round" stroke-linejoin="round" stroke-miterlimit="10" x1="59.6" y1="98.5" x2="64.3" y2="32.1"/>
	
		<line fill="none" stroke="#3354A8" stroke-linecap="round" stroke-linejoin="round" stroke-miterlimit="10" x1="50" y1="22.5" x2="50" y2="9.8"/>
	
		<line fill="none" stroke="#3354A8" stroke-linecap="round" stroke-linejoin="round" stroke-miterlimit="10" x1="64.3" y1="22.5" x2="62" y2="9.8"/>
	
		<line fill="none" stroke="#3354A8" stroke-linecap="round" stroke-linejoin="round" stroke-miterlimit="10" x1="78.5" y1="22.5" x2="74.4" y2="9.8"/>
	
		<line fill="none" stroke="#3354A8" stroke-linecap="round" stroke-linejoin="round" stroke-miterlimit="10" x1="35" y1="22.5" x2="37.4" y2="9.8"/>
	
		<line fill="none" stroke="#3354A8" stroke-linecap="round" stroke-linejoin="round" stroke-miterlimit="10" x1="20.9" y1="22.5" x2="24.9" y2="9.8"/>
</g>
</svg>
