<?xml version="1.0" encoding="utf-8"?>
<!-- Generator: Adobe Illustrator 18.1.1, SVG Export Plug-In . SVG Version: 6.00 Build 0)  -->
<!DOCTYPE svg PUBLIC "-//W3C//DTD SVG 1.1//EN" "http://www.w3.org/Graphics/SVG/1.1/DTD/svg11.dtd">
<svg version="1.1" id="Layer_1" xmlns="http://www.w3.org/2000/svg" xmlns:xlink="http://www.w3.org/1999/xlink" x="0px" y="0px"
	 viewBox="0 0 100 100" enable-background="new 0 0 100 100" xml:space="preserve">
<g>
	<path fill="#3354A8" d="M99,7.5C99,6.7,98.3,6,97.5,6h-96C0.7,6,0,6.7,0,7.5v85C0,93.3,0.7,94,1.5,94h96c0.8,0,1.5-0.7,1.5-1.5V7.5
		z M96,91H3V9h93V91z"/>
	<path fill="#3354A8" d="M7.7,82H12v4.5c0,0.3,0.2,0.5,0.5,0.5s0.5-0.2,0.5-0.5V82h75.1c0.3,0,0.5-0.2,0.5-0.5S88.4,81,88.1,81H13
		V17.7c0-0.3-0.2-0.5-0.5-0.5S12,17.4,12,17.7V81H7.7c-0.3,0-0.5,0.2-0.5,0.5S7.4,82,7.7,82z"/>
	<path fill="#3354A8" d="M19.9,73.8c0.2,0,0.5-0.1,0.7-0.3l8.5-8.1L45,61.1c0.2-0.1,0.4-0.2,0.5-0.3l11-13.3l14.8-6.7
		c0.1-0.1,0.3-0.1,0.4-0.2L87,23.8v7.5c0,0.6,0.4,1,1,1s1-0.4,1-1v-10c0,0-0.1,0-0.1-0.1c0-0.1,0-0.2-0.1-0.3c0,0,0-0.1,0-0.1
		c0,0,0,0,0,0c0-0.1-0.1-0.2-0.2-0.3c0,0,0,0,0,0c-0.1-0.1-0.2-0.1-0.3-0.2c0,0-0.1,0-0.1,0c-0.1,0-0.2,0-0.3-0.1c0,0,0,0-0.1,0
		c0,0,0,0,0,0c0,0,0,0,0,0l-10.4,0.7c-0.6,0-1,0.5-0.9,1.1c0,0.6,0.5,1,1.1,0.9l7.9-0.5L70.3,39l-14.8,6.7c-0.1,0.1-0.3,0.2-0.4,0.3
		L44.2,59.2l-15.9,4.3c-0.2,0-0.3,0.1-0.4,0.2l-8.7,8.3c-0.4,0.4-0.4,1,0,1.4C19.4,73.7,19.6,73.8,19.9,73.8z"/>
	<path fill="#3354A8" d="M24.9,31.8c-1.3,0-2.4-0.4-3.2-1l-0.3,1.5c0.8,0.6,1.7,1,3.7,1V36h1v-2.7c2-0.4,3.5-2.1,3.5-3.8
		c0-2-1.2-3.2-3.5-4.1c-2-0.8-2.8-1.4-2.8-2.6c0-0.9,0.6-1.9,2.4-1.9c1.4,0,2.4,0.5,2.8,0.8l0.5-1.5c-0.7-0.4-2-0.7-3-0.8V17h-1v2.4
		c-2,0.3-3.6,1.8-3.6,3.6c0,2,1.3,3,3.6,3.9c1.7,0.7,2.5,1.4,2.5,2.7C27.6,30.9,26.5,31.8,24.9,31.8z"/>
</g>
</svg>
