<?xml version="1.0" encoding="utf-8"?>
<!-- Generator: Adobe Illustrator 18.1.1, SVG Export Plug-In . SVG Version: 6.00 Build 0)  -->
<svg version="1.2" baseProfile="tiny" id="Layer_1" xmlns="http://www.w3.org/2000/svg" xmlns:xlink="http://www.w3.org/1999/xlink"
	 x="0px" y="0px" viewBox="0 0 100 100" xml:space="preserve">
<g>
	<path fill="#3354A8" d="M99,8c0-0.6-0.4-1-1-1H1C0.4,7,0,7.4,0,8v85c0,0.6,0.4,1,1,1h97c0.6,0,1-0.4,1-1V8z M97,92H2V9h95V92z"/>
	<path fill="#3354A8" d="M8,82h4v5c0,0.3,0.2,0.5,0.5,0.5S13,87.3,13,87v-5h76c0.3,0,0.5-0.2,0.5-0.5S89.3,81,89,81H13V17
		c0-0.3-0.2-0.5-0.5-0.5S12,16.7,12,17v64H8c-0.3,0-0.5,0.2-0.5,0.5S7.7,82,8,82z"/>
	<path fill="#3354A8" d="M20.1,73.8c0.2,0,0.5-0.1,0.7-0.3l8.6-8.2l16.1-4.4c0.2-0.1,0.4-0.2,0.5-0.3L57,47.1l15-6.7
		c0.1-0.1,0.2-0.1,0.3-0.2L88,22.9V31c0,0.6,0.4,1,1,1s1-0.4,1-1V21c0-0.3-0.2-0.6-0.4-0.8c-0.2-0.3-0.5-0.6-0.9-0.5l-10.5,0.7
		c-0.6,0-1,0.5-0.9,1.1c0,0.6,0.5,1,1.1,0.9l8-0.5L71,38.7l-15,6.7c-0.1,0.1-0.3,0.2-0.4,0.3l-11,13.4l-16,4.4
		c-0.2,0-0.3,0.1-0.4,0.2l-8.8,8.4c-0.4,0.4-0.4,1,0,1.4C19.5,73.7,19.8,73.8,20.1,73.8z"/>
</g>
</svg>
