<?xml version="1.0" encoding="utf-8"?>
<!-- Generator: Adobe Illustrator 18.1.1, SVG Export Plug-In . SVG Version: 6.00 Build 0)  -->
<!DOCTYPE svg PUBLIC "-//W3C//DTD SVG 1.1//EN" "http://www.w3.org/Graphics/SVG/1.1/DTD/svg11.dtd">
<svg version="1.1" id="Layer_1" xmlns="http://www.w3.org/2000/svg" xmlns:xlink="http://www.w3.org/1999/xlink" x="0px" y="0px"
	 viewBox="0 0 100 100" enable-background="new 0 0 100 100" xml:space="preserve">
<g>
	
		<polyline fill="none" stroke="#3354A8" stroke-width="3" stroke-linecap="round" stroke-linejoin="round" stroke-miterlimit="10" points="
		50,7.8 18.6,7.8 12.9,15.5 8.8,15.5 8.8,23.1 13.2,23.1 24.6,98.5 50,98.5 	"/>
	
		<line fill="none" stroke="#3354A8" stroke-width="3" stroke-linecap="round" stroke-linejoin="round" stroke-miterlimit="10" x1="13.2" y1="23.1" x2="86.8" y2="23.1"/>
	
		<line fill="none" stroke="#3354A8" stroke-width="3" stroke-linecap="round" stroke-linejoin="round" stroke-miterlimit="10" x1="12.9" y1="15.5" x2="87.1" y2="15.5"/>
	
		<polyline fill="none" stroke="#3354A8" stroke-width="3" stroke-linecap="round" stroke-linejoin="round" stroke-miterlimit="10" points="
		41.8,7.8 46.4,1.5 50,1.5 	"/>
	
		<polyline fill="none" stroke="#3354A8" stroke-width="3" stroke-linecap="round" stroke-linejoin="round" stroke-miterlimit="10" points="
		58.2,7.8 53.6,1.5 50,1.5 	"/>
	
		<line fill="none" stroke="#3354A8" stroke-width="2" stroke-linecap="round" stroke-linejoin="round" stroke-miterlimit="10" x1="25.1" y1="23.1" x2="32.1" y2="98.5"/>
	
		<polyline fill="none" stroke="#3354A8" stroke-width="3" stroke-linecap="round" stroke-linejoin="round" stroke-miterlimit="10" points="
		50,98.5 75.4,98.5 86.8,23.1 91.2,23.1 91.2,15.5 87.1,15.5 81.4,7.8 50,7.8 	"/>
	
		<line fill="none" stroke="#3354A8" stroke-width="2" stroke-linecap="round" stroke-linejoin="round" stroke-miterlimit="10" x1="49.7" y1="24.2" x2="50" y2="98.5"/>
	
		<line fill="none" stroke="#3354A8" stroke-width="2" stroke-linecap="round" stroke-linejoin="round" stroke-miterlimit="10" x1="41.3" y1="98.5" x2="37.2" y2="23.1"/>
	
		<line fill="none" stroke="#3354A8" stroke-width="2" stroke-linecap="round" stroke-linejoin="round" stroke-miterlimit="10" x1="74.5" y1="23.1" x2="67.4" y2="98.5"/>
	
		<line fill="none" stroke="#3354A8" stroke-width="2" stroke-linecap="round" stroke-linejoin="round" stroke-miterlimit="10" x1="58.2" y1="98.5" x2="62.3" y2="23.1"/>
	
		<line fill="none" stroke="#3354A8" stroke-linecap="round" stroke-linejoin="round" stroke-miterlimit="10" x1="50" y1="15.5" x2="50" y2="7.8"/>
	
		<line fill="none" stroke="#3354A8" stroke-linecap="round" stroke-linejoin="round" stroke-miterlimit="10" x1="62.3" y1="15.5" x2="60.3" y2="7.8"/>
	
		<line fill="none" stroke="#3354A8" stroke-linecap="round" stroke-linejoin="round" stroke-miterlimit="10" x1="74.5" y1="15.5" x2="70.9" y2="7.8"/>
	
		<line fill="none" stroke="#3354A8" stroke-linecap="round" stroke-linejoin="round" stroke-miterlimit="10" x1="37.1" y1="15.5" x2="39.2" y2="7.8"/>
	
		<line fill="none" stroke="#3354A8" stroke-linecap="round" stroke-linejoin="round" stroke-miterlimit="10" x1="25" y1="15.5" x2="28.5" y2="7.8"/>
</g>
</svg>
