<?xml version="1.0" encoding="utf-8"?>
<!-- Generator: Adobe Illustrator 18.1.1, SVG Export Plug-In . SVG Version: 6.00 Build 0)  -->
<!DOCTYPE svg PUBLIC "-//W3C//DTD SVG 1.1//EN" "http://www.w3.org/Graphics/SVG/1.1/DTD/svg11.dtd">
<svg version="1.1" id="Layer_1" xmlns="http://www.w3.org/2000/svg" xmlns:xlink="http://www.w3.org/1999/xlink" x="0px" y="0px"
	 viewBox="0 0 150 150" enable-background="new 0 0 150 150" xml:space="preserve">
<rect x="3.2" y="10.5" fill="none" stroke="#3655A6" stroke-width="3" stroke-linecap="round" stroke-linejoin="round" stroke-miterlimit="10" width="143.6" height="127.5"/>
<line fill="none" stroke="#3555A6" stroke-linecap="round" stroke-linejoin="round" stroke-miterlimit="10" x1="19.4" y1="25.5" x2="19.4" y2="128.6"/>
<line fill="none" stroke="#3555A6" stroke-linecap="round" stroke-linejoin="round" stroke-miterlimit="10" x1="132.8" y1="121.6" x2="12.2" y2="121.6"/>
<polyline fill="none" stroke="#3655A6" stroke-width="2" stroke-linecap="round" stroke-linejoin="round" stroke-miterlimit="10" points="
	117,31.7 132.5,30.7 107.1,58.6 84.5,68.8 67.8,89.1 43.6,95.7 30.5,108.1 "/>
<line fill="none" stroke="#3655A6" stroke-width="2" stroke-linecap="round" stroke-linejoin="round" stroke-miterlimit="10" x1="132.5" y1="45.7" x2="132.5" y2="30.7"/>
<g>
	<path fill="#3655A6" d="M37.5,52.4V49c-2,0-4-0.6-5.2-1.5l0.8-2.3c1.2,0.8,3,1.5,4.9,1.5c2.4,0,4-1.4,4-3.3c0-1.9-1.3-3-3.8-4
		c-3.4-1.4-5.6-2.9-5.6-5.8c0-2.8,2-4.9,5.1-5.4v-3.4h2.1v3.3c2,0.1,3.4,0.6,4.4,1.2l-0.8,2.2c-0.7-0.4-2.1-1.1-4.3-1.1
		c-2.6,0-3.6,1.6-3.6,2.9c0,1.8,1.2,2.6,4.2,3.9c3.5,1.4,5.2,3.2,5.2,6.2c0,2.7-1.9,5.2-5.3,5.7v3.5H37.5z"/>
</g>
</svg>
