<?xml version="1.0" encoding="UTF-8" standalone="no"?>
<svg width="774px" height="366px" viewBox="0 0 774 366" version="1.1" xmlns="http://www.w3.org/2000/svg" xmlns:xlink="http://www.w3.org/1999/xlink" xmlns:sketch="http://www.bohemiancoding.com/sketch/ns">
    <!-- Generator: Sketch 3.3.1 (12002) - http://www.bohemiancoding.com/sketch -->
    <title>Group</title>
    <desc>Created with Sketch.</desc>
    <defs></defs>
    <g id="Page-1" stroke="none" stroke-width="1" fill="none" fill-rule="evenodd" sketch:type="MSPage">
        <g id="developers-copy-17" sketch:type="MSArtboardGroup" transform="translate(-333.000000, -1798.000000)">
            <g id="Group" sketch:type="MSLayerGroup" transform="translate(333.000000, 1798.000000)">
                <path d="M67.9616406,240.646028 L134.463691,96.4143073" id="Line-Copy-17" stroke="#E0F0FF" stroke-width="2" stroke-linecap="square" stroke-dasharray="1,4" sketch:type="MSShapeGroup"></path>
                <path d="M132.736365,93.8233183 L389.244275,156.870717" id="Line-Copy-3" stroke="#5AA3E8" stroke-width="2" stroke-linecap="square" stroke-dasharray="1,4" sketch:type="MSShapeGroup"></path>
                <path d="M67.9616406,244.10068 L387.516949,156.870717" id="Line-Copy-7" stroke="#5AA3E8" stroke-width="2" stroke-linecap="square" stroke-dasharray="1,4" sketch:type="MSShapeGroup"></path>
                <path d="M133.600028,94.6869813 L387.516949,38.5488865" id="Line-Copy-8" stroke="#E0F0FF" stroke-width="2" stroke-linecap="square" stroke-dasharray="1,4" sketch:type="MSShapeGroup"></path>
                <path d="M383.198634,156.870717 L707.935921,243.237017" id="Line-Copy-9" stroke="#5AA3E8" stroke-width="2" stroke-linecap="square" stroke-dasharray="1,4" sketch:type="MSShapeGroup"></path>
                <path d="M384.494129,156.870717 L384.494129,38.5488865" id="Line-Copy-10" stroke="#5AA3E8" stroke-width="2" stroke-linecap="square" stroke-dasharray="1,4" sketch:type="MSShapeGroup"></path>
                <path d="M384.92596,156.870717 L640.570208,92.9596553" id="Line-Copy-11" stroke="#5AA3E8" stroke-width="2" stroke-linecap="square" stroke-dasharray="1,4" sketch:type="MSShapeGroup"></path>
                <path d="M384.494129,157.73438 L384.494129,346.012913" id="Line-Copy-12" stroke="#5AA3E8" stroke-width="2" stroke-linecap="square" stroke-dasharray="1,4" sketch:type="MSShapeGroup"></path>
                <path d="M386.653286,38.5488865 L638.842882,93.8233183" id="Line-Copy-13" stroke="#E0F0FF" stroke-width="2" stroke-linecap="square" stroke-dasharray="1,4" sketch:type="MSShapeGroup"></path>
                <path d="M639.706545,93.8233183 L708.799584,243.237017" id="Line-Copy-14" stroke="#E0F0FF" stroke-width="2" stroke-linecap="square" stroke-dasharray="1,4" sketch:type="MSShapeGroup"></path>
                <path d="M707.935921,243.237017 L383.198634,348.603902" id="Line-Copy-15" stroke="#E0F0FF" stroke-width="2" stroke-linecap="square" stroke-dasharray="1,4" sketch:type="MSShapeGroup"></path>
                <path d="M68.8253036,240.646028 L384.062297,348.603902" id="Line-Copy-16" stroke="#E0F0FF" stroke-width="2" stroke-linecap="square" stroke-dasharray="1,4" sketch:type="MSShapeGroup"></path>
                <ellipse id="Oval-11" stroke="#5AA3E8" stroke-width="2" stroke-linecap="round" stroke-dasharray="3,8" fill="#E1F1FF" sketch:type="MSShapeGroup" cx="386.434262" cy="152.995934" rx="109.619143" ry="49.2359577"></ellipse>
                <ellipse id="Oval-6-Copy" stroke="#5AA3E8" stroke-width="2" stroke-linecap="round" stroke-dasharray="3,8" fill="#E1F1FF" sketch:type="MSShapeGroup" cx="387.516949" cy="349.469394" rx="45.5438287" ry="14.5629865"></ellipse>
                <path d="M398.042945,334.923016 L471.35165,334.923016 L471.35165,257.2704 L304.333117,257.2704 L304.333117,334.923016 L380.448856,334.923016 L389.245901,348.362892 L398.042945,334.923016 Z" id="Rectangle-17-Copy" stroke="#C5C5C5" stroke-width="2" fill="#FFFFFF" sketch:type="MSShapeGroup"></path>
                <rect id="Rectangle-18-Copy-3" opacity="0.483791978" fill="#BEBEBE" sketch:type="MSShapeGroup" x="367.259806" y="297.862561" width="90.8053244" height="2.3630964"></rect>
                <rect id="Rectangle-18-Copy-4" opacity="0.483791978" fill="#BEBEBE" sketch:type="MSShapeGroup" x="367.259806" y="304.771865" width="90.8053244" height="2.3630964"></rect>
                <rect id="Rectangle-18-Copy-5" opacity="0.483791978" fill="#BEBEBE" sketch:type="MSShapeGroup" x="367.259806" y="311.534834" width="90.8053244" height="2.3630964"></rect>
                <path d="M334.723904,295.086759 C338.849954,295.086759 342.195096,290.9459 342.195096,285.837649 C342.195096,278.754915 338.849954,276.589864 334.723904,276.589864 C330.596602,276.589864 327.251461,278.754915 327.251461,285.837649 C327.251461,290.9459 330.596602,295.086759 334.723904,295.086759" id="Fill-10-Copy" stroke="#BEBEBE" stroke-width="2" fill="#FFFFFF" sketch:type="MSShapeGroup"></path>
                <path d="M351.357347,308.934022 L347.587962,299.953559 C347.415261,299.543311 347.112408,299.201879 346.73572,298.995431 L340.885164,295.774322 C340.756264,295.70286 340.599832,295.717417 340.483446,295.810054 C338.829021,297.133434 336.884259,297.83218 334.858152,297.83218 C332.832045,297.83218 330.886031,297.133434 329.231606,295.810054 C329.11522,295.717417 328.958788,295.70286 328.829888,295.774322 L322.979332,298.995431 C322.602644,299.201879 322.299791,299.543311 322.12709,299.953559 L318.357705,308.934022 C318.097402,309.553364 318.151215,310.261373 318.500371,310.829103 C318.849527,311.398157 319.440214,311.735619 320.079708,311.735619 L349.635343,311.735619 C350.276089,311.735619 350.866776,311.398157 351.215932,310.829103 C351.563837,310.261373 351.61765,309.553364 351.357347,308.934022" id="Fill-9-Copy" stroke="#BEBEBE" stroke-width="2" fill="#FFFFFF" sketch:type="MSShapeGroup"></path>
                <text id="12,141-BITS-Copy" sketch:type="MSTextLayer" font-family="Brandon Text" font-size="15.5459339" font-weight="normal" fill="#BEBEBE">
                    <tspan x="365.061712" y="288.306064">12,141 BITS</tspan>
                </text>
                <ellipse id="Oval-6-Copy-2" stroke="#5AA3E8" stroke-width="2" stroke-linecap="round" stroke-dasharray="3,8" fill="#E1F1FF" sketch:type="MSShapeGroup" cx="706.294962" cy="244.533974" rx="36.435063" ry="11.6503892"></ellipse>
                <path d="M714.715758,232.896872 L773.362722,232.896872 L773.362722,170.774779 L639.747896,170.774779 L639.747896,232.896872 L700.640487,232.896872 L707.678123,243.648773 L714.715758,232.896872 Z" id="Rectangle-17-Copy-2" stroke="#C5C5C5" stroke-width="2" fill="#FFFFFF" sketch:type="MSShapeGroup"></path>
                <rect id="Rectangle-18-Copy-6" opacity="0.483791978" fill="#BEBEBE" sketch:type="MSShapeGroup" x="690.089247" y="203.248508" width="72.6442595" height="1.89047712"></rect>
                <rect id="Rectangle-18-Copy-7" opacity="0.483791978" fill="#BEBEBE" sketch:type="MSShapeGroup" x="690.089247" y="208.775951" width="72.6442595" height="1.89047712"></rect>
                <rect id="Rectangle-18-Copy-8" opacity="0.483791978" fill="#BEBEBE" sketch:type="MSShapeGroup" x="690.089247" y="214.186326" width="72.6442595" height="1.89047712"></rect>
                <path d="M664.060525,201.027866 C667.361366,201.027866 670.037479,197.715179 670.037479,193.628579 C670.037479,187.962391 667.361366,186.23035 664.060525,186.23035 C660.758684,186.23035 658.082571,187.962391 658.082571,193.628579 C658.082571,197.715179 660.758684,201.027866 664.060525,201.027866" id="Fill-10-Copy-2" stroke="#BEBEBE" stroke-width="2" fill="#FFFFFF" sketch:type="MSShapeGroup"></path>
                <path d="M677.36728,212.105676 L674.351771,204.921306 C674.213611,204.593108 673.971329,204.319962 673.669978,204.154804 L668.989533,201.577917 C668.886413,201.520747 668.761267,201.532392 668.668159,201.606502 C667.344619,202.665206 665.788809,203.224203 664.167923,203.224203 C662.547038,203.224203 660.990226,202.665206 659.666687,201.606502 C659.573578,201.532392 659.448433,201.520747 659.345313,201.577917 L654.664868,204.154804 C654.363517,204.319962 654.121235,204.593108 653.983074,204.921306 L650.967566,212.105676 C650.759324,212.60115 650.802374,213.167557 651.081699,213.621742 C651.361024,214.076985 651.833574,214.346954 652.345169,214.346954 L675.989677,214.346954 C676.502273,214.346954 676.974823,214.076985 677.254148,213.621742 C677.532472,213.167557 677.575522,212.60115 677.36728,212.105676" id="Fill-9-Copy-2" stroke="#BEBEBE" stroke-width="2" fill="#FFFFFF" sketch:type="MSShapeGroup"></path>
                <text id="BOB" sketch:type="MSTextLayer" font-family="Brandon Text" font-size="12.4367472" font-weight="normal" fill="#BEBEBE">
                    <tspan x="688.330771" y="195.00331">BOB</tspan>
                </text>
                <ellipse id="Oval-6-Copy-3" stroke="#5AA3E8" stroke-width="2" stroke-linecap="round" stroke-dasharray="3,8" fill="#E1F1FF" sketch:type="MSShapeGroup" cx="67.1843439" cy="244.533974" rx="36.435063" ry="11.6503892"></ellipse>
                <path d="M75.6051405,232.896872 L134.252104,232.896872 L134.252104,170.774779 L0.63727796,170.774779 L0.63727796,232.896872 L61.5298691,232.896872 L68.5675048,243.648773 L75.6051405,232.896872 Z" id="Rectangle-17-Copy-3" stroke="#C5C5C5" stroke-width="2" fill="#FFFFFF" sketch:type="MSShapeGroup"></path>
                <rect id="Rectangle-18-Copy-9" opacity="0.483791978" fill="#BEBEBE" sketch:type="MSShapeGroup" x="50.9786292" y="203.248508" width="72.6442595" height="1.89047712"></rect>
                <rect id="Rectangle-18-Copy-10" opacity="0.483791978" fill="#BEBEBE" sketch:type="MSShapeGroup" x="50.9786292" y="208.775951" width="72.6442595" height="1.89047712"></rect>
                <rect id="Rectangle-18-Copy-11" opacity="0.483791978" fill="#BEBEBE" sketch:type="MSShapeGroup" x="50.9786292" y="214.186326" width="72.6442595" height="1.89047712"></rect>
                <path d="M24.9499077,201.027866 C28.2507479,201.027866 30.9268613,197.715179 30.9268613,193.628579 C30.9268613,187.962391 28.2507479,186.23035 24.9499077,186.23035 C21.6480663,186.23035 18.9719529,187.962391 18.9719529,193.628579 C18.9719529,197.715179 21.6480663,201.027866 24.9499077,201.027866" id="Fill-10-Copy-3" stroke="#BEBEBE" stroke-width="2" fill="#FFFFFF" sketch:type="MSShapeGroup"></path>
                <path d="M38.2566618,212.105676 L35.2411536,204.921306 C35.1029928,204.593108 34.860711,204.319962 34.5593604,204.154804 L29.8789152,201.577917 C29.7757952,201.520747 29.6506496,201.532392 29.5575413,201.606502 C28.2340015,202.665206 26.6781914,203.224203 25.0573057,203.224203 C23.43642,203.224203 21.8796088,202.665206 20.556069,201.606502 C20.4629606,201.532392 20.337815,201.520747 20.2346951,201.577917 L15.5542498,204.154804 C15.2528992,204.319962 15.0106174,204.593108 14.8724566,204.921306 L11.8569484,212.105676 C11.6487061,212.60115 11.6917562,213.167557 11.9710812,213.621742 C12.2504061,214.076985 12.7229559,214.346954 13.2345511,214.346954 L36.8790591,214.346954 C37.3916555,214.346954 37.8642052,214.076985 38.1435302,213.621742 C38.421854,213.167557 38.4649041,212.60115 38.2566618,212.105676" id="Fill-9-Copy-3" stroke="#BEBEBE" stroke-width="2" fill="#FFFFFF" sketch:type="MSShapeGroup"></path>
                <text id="ALICE" sketch:type="MSTextLayer" font-family="Brandon Text" font-size="12.4367472" font-weight="normal" fill="#BEBEBE">
                    <tspan x="49.2201535" y="195.00331">ALICE</tspan>
                </text>
                <ellipse id="Oval-6-Copy-4" stroke="#5AA3E8" stroke-width="2" stroke-linecap="round" stroke-dasharray="3,8" fill="#E1F1FF" sketch:type="MSShapeGroup" cx="639.022258" cy="95.7935377" rx="26.6256229" ry="8.50478411"></ellipse>
                <path d="M645.175917,87.2984533 L688.033313,87.2984533 L688.033313,41.9493253 L590.39171,41.9493253 L590.39171,87.2984533 L634.890142,87.2984533 L640.033029,95.1473409 L645.175917,87.2984533 Z" id="Rectangle-17-Copy-4" stroke="#C5C5C5" stroke-width="1.5" fill="#FFFFFF" sketch:type="MSShapeGroup"></path>
                <rect id="Rectangle-18-Copy-12" opacity="0.483791978" fill="#BEBEBE" sketch:type="MSShapeGroup" x="627.17962" y="65.6551472" width="53.0861896" height="1.3800483"></rect>
                <rect id="Rectangle-18-Copy-13" opacity="0.483791978" fill="#BEBEBE" sketch:type="MSShapeGroup" x="627.17962" y="69.6901807" width="53.0861896" height="1.3800483"></rect>
                <rect id="Rectangle-18-Copy-14" opacity="0.483791978" fill="#BEBEBE" sketch:type="MSShapeGroup" x="627.17962" y="73.6397548" width="53.0861896" height="1.3800483"></rect>
                <path d="M608.158631,64.0340787 C610.570784,64.0340787 612.526405,61.6158172 612.526405,58.632599 C612.526405,54.496282 610.570784,53.2318922 608.158631,53.2318922 C605.745747,53.2318922 603.790126,54.496282 603.790126,58.632599 C603.790126,61.6158172 605.745747,64.0340787 608.158631,64.0340787" id="Fill-10-Copy-4" stroke="#BEBEBE" stroke-width="2" fill="#FFFFFF" sketch:type="MSShapeGroup"></path>
                <path d="M617.882798,72.1208805 L615.679157,66.8762903 C615.578193,66.6367054 615.401141,66.4373089 615.180924,66.3167437 L611.760598,64.4356159 C611.685241,64.3938818 611.593789,64.4023832 611.525748,64.456483 C610.558546,65.2293375 609.421608,65.6374046 608.237114,65.6374046 C607.052621,65.6374046 605.914951,65.2293375 604.947749,64.456483 C604.879708,64.4023832 604.788256,64.3938818 604.712899,64.4356159 L601.292574,66.3167437 C601.072356,66.4373089 600.895304,66.6367054 600.79434,66.8762903 L598.590699,72.1208805 C598.438522,72.4825764 598.469982,72.8960535 598.674104,73.2276081 C598.878226,73.5599355 599.223551,73.7570134 599.597409,73.7570134 L616.876088,73.7570134 C617.250678,73.7570134 617.596003,73.5599355 617.800125,73.2276081 C618.003515,72.8960535 618.034975,72.4825764 617.882798,72.1208805" id="Fill-9-Copy-4" stroke="#BEBEBE" stroke-width="2" fill="#FFFFFF" sketch:type="MSShapeGroup"></path>
                <text id="12,141-BITS-Copy-2" sketch:type="MSTextLayer" font-family="Brandon Text" font-size="9.07882542" font-weight="normal" fill="#BEBEBE">
                    <tspan x="625.89458" y="60.1461532">12,141 BITS</tspan>
                </text>
                <ellipse id="Oval-6-Copy-5" stroke="#5AA3E8" stroke-width="2" stroke-linecap="round" stroke-dasharray="3,8" fill="#E1F1FF" sketch:type="MSShapeGroup" cx="133.779405" cy="95.7935377" rx="26.6256229" ry="8.50478411"></ellipse>
                <path d="M139.933064,87.2984533 L182.79046,87.2984533 L182.79046,41.9493253 L85.1488563,41.9493253 L85.1488563,87.2984533 L129.647288,87.2984533 L134.790176,95.1473409 L139.933064,87.2984533 Z" id="Rectangle-17-Copy-5" stroke="#C5C5C5" stroke-width="1.5" fill="#FFFFFF" sketch:type="MSShapeGroup"></path>
                <rect id="Rectangle-18-Copy-15" opacity="0.483791978" fill="#BEBEBE" sketch:type="MSShapeGroup" x="121.936767" y="65.6551472" width="53.0861896" height="1.3800483"></rect>
                <rect id="Rectangle-18-Copy-16" opacity="0.483791978" fill="#BEBEBE" sketch:type="MSShapeGroup" x="121.936767" y="69.6901807" width="53.0861896" height="1.3800483"></rect>
                <rect id="Rectangle-18-Copy-17" opacity="0.483791978" fill="#BEBEBE" sketch:type="MSShapeGroup" x="121.936767" y="73.6397548" width="53.0861896" height="1.3800483"></rect>
                <path d="M102.915778,64.0340787 C105.327931,64.0340787 107.283552,61.6158172 107.283552,58.632599 C107.283552,54.496282 105.327931,53.2318922 102.915778,53.2318922 C100.502894,53.2318922 98.5472727,54.496282 98.5472727,58.632599 C98.5472727,61.6158172 100.502894,64.0340787 102.915778,64.0340787" id="Fill-10-Copy-5" stroke="#BEBEBE" stroke-width="2" fill="#FFFFFF" sketch:type="MSShapeGroup"></path>
                <path d="M112.639945,72.1208805 L110.436304,66.8762903 C110.33534,66.6367054 110.158288,66.4373089 109.93807,66.3167437 L106.517745,64.4356159 C106.442388,64.3938818 106.350936,64.4023832 106.282895,64.456483 C105.315693,65.2293375 104.178755,65.6374046 102.994261,65.6374046 C101.809768,65.6374046 100.672098,65.2293375 99.7048959,64.456483 C99.6368552,64.4023832 99.5454027,64.3938818 99.4700458,64.4356159 L96.0497204,66.3167437 C95.8295027,66.4373089 95.6524505,66.6367054 95.5514869,66.8762903 L93.3478463,72.1208805 C93.1956692,72.4825764 93.2271289,72.8960535 93.431251,73.2276081 C93.6353731,73.5599355 93.9806979,73.7570134 94.3545559,73.7570134 L111.633235,73.7570134 C112.007825,73.7570134 112.353149,73.5599355 112.557271,73.2276081 C112.760662,72.8960535 112.792122,72.4825764 112.639945,72.1208805" id="Fill-9-Copy-5" stroke="#BEBEBE" stroke-width="2" fill="#FFFFFF" sketch:type="MSShapeGroup"></path>
                <text id="12,141-BITS" sketch:type="MSTextLayer" font-family="Brandon Text" font-size="9.07882542" font-weight="normal" fill="#BEBEBE">
                    <tspan x="120.651727" y="60.1461532">12,141 BITS</tspan>
                </text>
                <ellipse id="Oval-6" stroke="#5AA3E8" stroke-width="2" stroke-linecap="round" stroke-dasharray="3,8" fill="#E1F1FF" sketch:type="MSShapeGroup" cx="386.456194" cy="42.453477" rx="20.7866705" ry="6.64072184"></ellipse>
                <path d="M391.260367,35.8203289 L424.719211,35.8203289 L424.719211,0.41073577 L348.49024,0.41073577 L348.49024,35.8203289 L383.230244,35.8203289 L387.245305,41.9489124 L391.260367,35.8203289 Z" id="Rectangle-17" stroke="#C5C5C5" fill="#FFFFFF" sketch:type="MSShapeGroup"></path>
                <rect id="Rectangle-18" opacity="0.483791978" fill="#BEBEBE" sketch:type="MSShapeGroup" x="377.210626" y="18.9207611" width="41.4444814" height="1.07757196"></rect>
                <rect id="Rectangle-18-Copy" opacity="0.483791978" fill="#BEBEBE" sketch:type="MSShapeGroup" x="377.210626" y="22.0714037" width="41.4444814" height="1.07757196"></rect>
                <rect id="Rectangle-18-Copy-2" opacity="0.483791978" fill="#BEBEBE" sketch:type="MSShapeGroup" x="377.210626" y="25.1553177" width="41.4444814" height="1.07757196"></rect>
                <path d="M362.360907,17.6549953 C364.244078,17.6549953 365.770835,15.7667637 365.770835,13.4374016 C365.770835,10.2076746 364.244078,9.2204113 362.360907,9.2204113 C360.477164,9.2204113 358.950407,10.2076746 358.950407,13.4374016 C358.950407,15.7667637 360.477164,17.6549953 362.360907,17.6549953" id="Fill-10" stroke="#BEBEBE" stroke-width="2" fill="#FFFFFF" sketch:type="MSShapeGroup"></path>
                <path d="M369.952581,23.9693474 L368.232195,19.8742564 C368.153372,19.6871833 368.015147,19.5314901 367.843223,19.4373501 L365.172969,17.9685244 C365.114137,17.9359374 365.04274,17.9425755 364.989621,17.9848178 C364.234524,18.5882795 363.346915,18.9069073 362.422179,18.9069073 C361.497443,18.9069073 360.609262,18.5882795 359.854165,17.9848178 C359.801046,17.9425755 359.729649,17.9359374 359.670818,17.9685244 L357.000564,19.4373501 C356.828639,19.5314901 356.690414,19.6871833 356.611592,19.8742564 L354.891206,23.9693474 C354.772401,24.2517675 354.796961,24.5746195 354.95632,24.8335045 C355.115678,25.0929931 355.385274,25.2468758 355.677146,25.2468758 L369.166641,25.2468758 C369.459083,25.2468758 369.728679,25.0929931 369.888038,24.8335045 C370.046825,24.5746195 370.071386,24.2517675 369.952581,23.9693474" id="Fill-9" stroke="#BEBEBE" stroke-width="2" fill="#FFFFFF" sketch:type="MSShapeGroup"></path>
                <text id="SATOSHI" sketch:type="MSTextLayer" font-family="Brandon Text" font-size="7.08785494" font-weight="normal" fill="#BEBEBE">
                    <tspan x="376.207393" y="14.8109987">SATOSHI</tspan>
                </text>
            </g>
        </g>
    </g>
</svg>