<?xml version="1.0" encoding="UTF-8" standalone="no"?>
<svg width="41px" height="41px" viewBox="0 0 41 41" version="1.1" xmlns="http://www.w3.org/2000/svg" xmlns:xlink="http://www.w3.org/1999/xlink" xmlns:sketch="http://www.bohemiancoding.com/sketch/ns">
    <!-- Generator: Sketch 3.2.2 (9983) - http://www.bohemiancoding.com/sketch -->
    <title>Fill 7 + Fill 8</title>
    <desc>Created with Sketch.</desc>
    <defs></defs>
    <g id="Page-1" stroke="none" stroke-width="1" fill="none" fill-rule="evenodd" sketch:type="MSPage">
        <g id="Artboard-1" sketch:type="MSArtboardGroup" transform="translate(-19.000000, -29.000000)" fill="#FFFFFF">
            <g id="Fill-7-+-Fill-8" sketch:type="MSLayerGroup" transform="translate(19.000000, 29.000000)">
                <path d="M20.0756102,21.2615254 C25.0868791,21.2615254 29.1497004,16.5017549 29.1497004,10.6300021 C29.1497004,2.48864961 25.0868791,0 20.0756102,0 C15.0628213,0 11,2.48864961 11,10.6300021 C11,16.5017549 15.0628213,21.2615254 20.0756102,21.2615254" id="Fill-7" sketch:type="MSShapeGroup"></path>
                <path d="M40.2776555,37.1784642 L35.6995718,26.8557403 C35.489819,26.3841747 35.1219915,25.9917104 34.6644871,25.7544064 L27.5587297,22.0518556 C27.4021751,21.9697119 27.2121816,21.9864448 27.0708264,22.0929274 C25.061455,23.6141069 22.6994556,24.4172896 20.2386596,24.4172896 C17.7778637,24.4172896 15.4143444,23.6141069 13.404973,22.0929274 C13.2636178,21.9864448 13.0736243,21.9697119 12.9170696,22.0518556 L5.8113122,25.7544064 C5.35380782,25.9917104 4.98598038,26.3841747 4.77622754,26.8557403 L0.198143833,37.1784642 C-0.118005374,37.8903762 -0.0526476049,38.7042072 0.371417917,39.3567932 C0.79548344,40.0109004 1.51289895,40.3988011 2.28959243,40.3988011 L38.1862069,40.3988011 C38.9644203,40.3988011 39.6818359,40.0109004 40.1059014,39.3567932 C40.528447,38.7042072 40.5938047,37.8903762 40.2776555,37.1784642" id="Fill-8" sketch:type="MSShapeGroup"></path>
            </g>
        </g>
    </g>
</svg>