<?xml version="1.0" encoding="utf-8"?>
<!-- Generator: Adobe Illustrator 18.1.1, SVG Export Plug-In . SVG Version: 6.00 Build 0)  -->
<!DOCTYPE svg PUBLIC "-//W3C//DTD SVG 1.1//EN" "http://www.w3.org/Graphics/SVG/1.1/DTD/svg11.dtd">
<svg version="1.1" id="Layer_1" xmlns:sketch="http://www.bohemiancoding.com/sketch/ns"
	 xmlns="http://www.w3.org/2000/svg" xmlns:xlink="http://www.w3.org/1999/xlink" x="0px" y="0px" viewBox="-29 30 41 41"
	 enable-background="new -29 30 41 41" xml:space="preserve">
<title>Fill 7 + Fill 8</title>
<desc>Created with Sketch.</desc>
<g id="Page-1" sketch:type="MSPage">
	<g id="Artboard-1" transform="translate(-19.000000, -29.000000)" sketch:type="MSArtboardGroup">
		<g id="Fill-7-_x2B_-Fill-8" transform="translate(19.000000, 29.000000)" sketch:type="MSLayerGroup">
			<path id="Fill-7" sketch:type="MSShapeGroup" fill="#FFFFFF" d="M-8.9,51.9c4.5,0,8.1-4.9,8.1-11c0-8.4-3.6-11-8.1-11
				c-4.5,0-8.1,2.6-8.1,11C-17.1,47-13.4,51.9-8.9,51.9"/>
			<path id="Fill-8" sketch:type="MSShapeGroup" fill="#FFFFFF" d="M11.3,67.8l-4.6-9.3c-0.2-0.5-0.6-0.9-1-1.1l-7.1-3.7
				c-0.2-0.1-0.3-0.1-0.5,0c-2,1.5-4.4,2.3-6.8,2.3s-4.8-0.8-6.8-2.3c-0.1-0.1-0.3-0.1-0.5,0l-7.1,3.7c-0.5,0.2-0.8,0.6-1,1.1
				l-4.6,9.3c-0.3,0.7-0.3,1.5,0.2,2.2c0.4,0.7,1.1,1,1.9,1H9.2c0.8,0,1.5-0.4,1.9-1C11.5,69.3,11.6,68.5,11.3,67.8"/>
		</g>
	</g>
</g>
</svg>
