<?xml version="1.0" encoding="UTF-8" standalone="no"?>
<svg width="47px" height="47px" viewBox="0 0 47 47" version="1.1" xmlns="http://www.w3.org/2000/svg" xmlns:xlink="http://www.w3.org/1999/xlink" xmlns:sketch="http://www.bohemiancoding.com/sketch/ns">
    <!-- Generator: Sketch 3.2.2 (9983) - http://www.bohemiancoding.com/sketch -->
    <title>Fill 24</title>
    <desc>Created with Sketch.</desc>
    <defs></defs>
    <g id="Page-1" stroke="none" stroke-width="1" fill="none" fill-rule="evenodd" sketch:type="MSPage">
        <g id="Artboard-1" sketch:type="MSArtboardGroup" transform="translate(-308.000000, -29.000000)" fill="#FFFFFF">
            <path d="M308,53.9321315 L308,75.9679373 L326.812398,75.9679373 L326.812398,65.8292761 L331.154889,65.8292761 L331.154889,75.7610569 L336.42607,75.7610569 L336.42607,71.4165683 L340.561848,71.4165683 L340.561848,75.7610569 L345.833028,75.7610569 L345.833028,70.7959271 L349.657218,70.7959271 L349.657218,75.7610569 L354.929918,75.7610569 L354.929918,70.4856065 L349.968807,70.4856065 L349.968807,65.5189555 L344.696107,65.5189555 L344.696107,70.4856065 L341.232145,70.4856065 L341.232145,60.2435051 L336.42607,60.2435051 L336.42607,55.8990165 L341.3887,55.8990165 L341.3887,60.8641463 L346.65988,60.8641463 L346.65988,57.5540598 L349.657218,57.5540598 L349.657218,65.0017545 L354.929918,65.0017545 L354.929918,57.2437392 L351.622511,57.2437392 L351.622511,52.5874088 L354.929918,52.5874088 L354.929918,29 L336.116,29 L336.116,29.0349871 L331.154889,29.0349871 L331.154889,34.7926514 L326.812398,34.7926514 L326.812398,29 L308,29 L308,50.9323656 L311.307407,50.9323656 L311.307407,53.9321315 L308,53.9321315 L308,53.9321315 Z M311.307407,60.4503855 L323.504991,60.4503855 L323.504991,72.6578508 L311.307407,72.6578508 L311.307407,60.4503855 Z M331.464959,60.8641463 L335.962485,60.8641463 L335.962485,65.5189555 L331.464959,65.5189555 L331.464959,60.8641463 Z M331.464959,50.9323656 L335.650896,50.9323656 L335.650896,55.5871748 L331.464959,55.5871748 L331.464959,50.9323656 Z M349.657218,52.2770882 L346.814915,52.2770882 L346.814915,50.622045 L336.42607,50.622045 L336.42607,47.8291595 L349.657218,47.8291595 L349.657218,52.2770882 L349.657218,52.2770882 Z M339.424927,32.3100865 L351.622511,32.3100865 L351.622511,44.5175518 L339.424927,44.5175518 L339.424927,32.3100865 Z M331.464959,35.3463607 L336.116,35.3463607 L336.116,45.6569152 L331.464959,45.6569152 L331.464959,35.3463607 Z M326.826077,45.9657146 L331.154889,45.9657146 L331.154889,50.622045 L326.826077,50.622045 L326.826077,45.9657146 Z M311.307407,32.3100865 L323.504991,32.3100865 L323.504991,44.5175518 L311.307407,44.5175518 L311.307407,32.3100865 Z M321.554897,47.8291595 L321.554897,50.9323656 L326.192259,50.9323656 L326.192259,55.8974954 L331.154889,55.8974954 L331.154889,60.5538257 L326.812398,60.5538257 L326.812398,57.1387778 L313.27118,57.1387778 L313.27118,55.8974954 L321.541218,55.8974954 L321.541218,50.622045 L313.27118,50.622045 L313.27118,47.8276383 L321.554897,47.8291595 L321.554897,47.8291595 Z" id="Fill-24" sketch:type="MSShapeGroup"></path>
        </g>
    </g>
</svg>