<?xml version="1.0" encoding="utf-8"?>
<!-- Generator: Adobe Illustrator 18.1.1, SVG Export Plug-In . SVG Version: 6.00 Build 0)  -->
<!DOCTYPE svg PUBLIC "-//W3C//DTD SVG 1.1//EN" "http://www.w3.org/Graphics/SVG/1.1/DTD/svg11.dtd">
<svg version="1.1" id="Layer_1" xmlns="http://www.w3.org/2000/svg" xmlns:xlink="http://www.w3.org/1999/xlink" x="0px" y="0px"
	 viewBox="0 0 100 100" enable-background="new 0 0 100 100" xml:space="preserve">
<circle fill="#E5EDFC" cx="50" cy="50" r="50"/>
<g>
	<path fill="#4683E8" d="M47.2,34.8c-6.9,4.4-10.4,9.8-10.4,16c0,1.9,0.3,2.9,1,2.9l0.7-0.2c0.5-0.2,1-0.3,1.3-0.3
		c2,0,3.6,0.7,5,2.2s2,3.2,2,5.3c0,2-0.7,3.8-2.2,5.2c-1.4,1.4-3.2,2.1-5.2,2.1c-2.8,0-5.2-1.2-7-3.5c-1.8-2.3-2.8-5.3-2.8-8.8
		c0-4,0.8-7.6,2.3-10.9c1.6-3.3,4-6.3,7.2-9c3.2-2.7,5.3-4,6.1-4c0.6,0,1.1,0.3,1.5,0.9c0.4,0.6,0.6,1.1,0.6,1.5L47.2,34.8z
		 M70.1,34.8c-6.9,4.4-10.4,9.8-10.4,16c0,1.9,0.3,2.9,1,2.9l0.7-0.2c0.5-0.2,1-0.3,1.3-0.3c1.9,0,3.6,0.7,4.9,2.2
		c1.4,1.4,2,3.2,2,5.3c0,2-0.7,3.8-2.2,5.2c-1.4,1.4-3.2,2.1-5.2,2.1c-2.8,0-5.2-1.2-7-3.5c-1.8-2.3-2.8-5.3-2.8-8.8
		c0-4,0.8-7.7,2.4-11c1.6-3.3,4-6.3,7.2-8.9c3.2-2.6,5.2-3.9,6.1-3.9c0.6,0,1.1,0.3,1.5,0.9c0.4,0.6,0.6,1.1,0.6,1.5L70.1,34.8z"/>
</g>
</svg>
