<?xml version="1.0" encoding="utf-8"?>
<!-- Generator: Adobe Illustrator 18.1.1, SVG Export Plug-In . SVG Version: 6.00 Build 0)  -->
<!DOCTYPE svg PUBLIC "-//W3C//DTD SVG 1.1//EN" "http://www.w3.org/Graphics/SVG/1.1/DTD/svg11.dtd">
<svg version="1.1" id="Layer_1" xmlns:sketch="http://www.bohemiancoding.com/sketch/ns"
	 xmlns="http://www.w3.org/2000/svg" xmlns:xlink="http://www.w3.org/1999/xlink" x="0px" y="0px" viewBox="52.6 52.5 45 45"
	 enable-background="new 52.6 52.5 45 45" xml:space="preserve">
<path fill="#7A7D8C" d="M88.8,82.3H86c-3.1,0-5.4-1.6-7.6-3.8c-0.2,0.2-0.5,0.6-0.7,0.8c-1,1.3-2,2.6-3.1,3.9
	c3,2.9,6.6,5.1,11.3,5.1h2.9v5.2l7.9-7.9l-7.9-8.1v4.6H88.8z M65,71.3c0.4-0.5,0.7-1,1.1-1.3c0.8-1.1,1.8-2.3,2.7-3.5
	c-2.9-2.7-6.3-4.6-11-4.6h-4.5v6c0,0,1.3,0,4.5,0C60.9,67.8,62.9,69.2,65,71.3z M86.1,67.7h2.9v4.7l7.9-8.1l-7.9-7.9v5.2h-2.9
	c-8,0-12.5,6-16.6,11.3c-3.6,4.8-6.7,9.3-11.7,9.3h-4.5v6.2h4.5c8,0,12.5-6.4,16.6-11.7C78,71.9,81.1,67.7,86.1,67.7z"/>
</svg>
