<?xml version="1.0" encoding="utf-8"?>
<!-- Generator: Adobe Illustrator 18.1.1, SVG Export Plug-In . SVG Version: 6.00 Build 0)  -->
<!DOCTYPE svg PUBLIC "-//W3C//DTD SVG 1.1//EN" "http://www.w3.org/Graphics/SVG/1.1/DTD/svg11.dtd">
<svg version="1.1" id="Layer_1" xmlns="http://www.w3.org/2000/svg" xmlns:xlink="http://www.w3.org/1999/xlink" x="0px" y="0px"
	 viewBox="0 0 100 100" enable-background="new 0 0 100 100" xml:space="preserve">
<path fill="#B5B5B5" d="M44.6,68c4.9,0,9.4-1.4,13.2-3.9l1.1-0.8l17.3,17.3l5.4-5.5L64.3,57.8l0.8-1.1c2.4-3.8,3.8-8.2,3.8-13
	c0-13.4-10.9-24.3-24.3-24.3c-13.4,0-24.3,10.9-24.3,24.3S31.2,68,44.6,68z M31.1,30.1c3.6-3.6,8.4-5.6,13.6-5.6
	c5.1,0,9.9,2,13.6,5.6c3.6,3.6,5.6,8.4,5.6,13.6c0,5.1-2,9.9-5.6,13.6c-3.6,3.6-8.4,5.6-13.6,5.6c-5.1,0-9.9-2-13.6-5.6
	c-3.6-3.6-5.6-8.4-5.6-13.6C25.5,38.5,27.5,33.7,31.1,30.1z"/>
</svg>
