<?xml version="1.0" encoding="utf-8"?>
<!-- Generator: Adobe Illustrator 18.1.1, SVG Export Plug-In . SVG Version: 6.00 Build 0)  -->
<!DOCTYPE svg PUBLIC "-//W3C//DTD SVG 1.1//EN" "http://www.w3.org/Graphics/SVG/1.1/DTD/svg11.dtd">
<svg version="1.1" id="Layer_1" xmlns="http://www.w3.org/2000/svg" xmlns:xlink="http://www.w3.org/1999/xlink" x="0px" y="0px"
	 viewBox="0 0 100 100" enable-background="new 0 0 100 100" xml:space="preserve">
<path fill="none" stroke="#3354A8" stroke-width="3" stroke-linecap="round" stroke-linejoin="round" stroke-miterlimit="10" d="
	M49.9,98.6L49.9,98.6C100.4,78,94.2,44.7,94.2,13.2C75.1,11.2,64,7.7,49.9,1.9l0,0c0,0,0,0,0,0C35.9,7.7,24.7,11.2,5.6,13.2
	C5.6,44.7-0.6,78,49.9,98.6C49.9,98.6,49.9,98.6,49.9,98.6z"/>
<circle fill="none" stroke="#3354A8" stroke-width="2" stroke-linecap="round" stroke-linejoin="round" stroke-miterlimit="10" cx="50" cy="49.5" r="24"/>
<path id="Imported-Layers-3_4_" fill="#3354A8" d="M59.5,49c0.8-0.9,1.3-2,1.3-3.3c0-3.9-2.6-6.3-6.8-6.3h0c0,0,0-4.8,0-5h-2.7l0,5
	h-2.7c0,0,0-4.8,0-5h-2.7c0,0.3,0,5,0,5l-6.2,0V42h0.7c1.5,0,2.7,1.1,2.7,2.5l0,10.1c0,1.3,0,2.5-1.8,2.5c-0.1,0-1.2,0-1.6,0v2.6
	l6.2,0l0,5h2.7l0-5h2.7l0,5.1h2.7l0-5.1h1.4c4.3,0,6.8-2.4,6.8-6.3C62.1,51.5,61.1,49.9,59.5,49L59.5,49z M48.5,43.3h4.1
	c1.5,0,2.7,1.1,2.7,2.5c0,1.4-1.2,2.5-2.7,2.5h-4.1V43.3L48.5,43.3z M54,55.8h-5.5v-5H54c1.5,0,2.7,1.1,2.7,2.5S55.5,55.8,54,55.8
	L54,55.8z"/>
<line fill="none" stroke="#3354A8" stroke-linecap="round" stroke-linejoin="round" stroke-miterlimit="10" x1="49.5" y1="10.8" x2="54.8" y2="5.5"/>
<line fill="none" stroke="#3354A8" stroke-linecap="round" stroke-linejoin="round" stroke-miterlimit="10" x1="49.5" y1="17.9" x2="61" y2="6.3"/>
<line fill="none" stroke="#3354A8" stroke-linecap="round" stroke-linejoin="round" stroke-miterlimit="10" x1="49.5" y1="25" x2="66.2" y2="8.2"/>
<line fill="none" stroke="#3354A8" stroke-linecap="round" stroke-linejoin="round" stroke-miterlimit="10" x1="55.2" y1="26.4" x2="71.7" y2="9.8"/>
<line fill="none" stroke="#3354A8" stroke-linecap="round" stroke-linejoin="round" stroke-miterlimit="10" x1="60.7" y1="28" x2="77.4" y2="11.2"/>
<line fill="none" stroke="#3354A8" stroke-linecap="round" stroke-linejoin="round" stroke-miterlimit="10" x1="65" y1="30.7" x2="84.5" y2="11.2"/>
<line fill="none" stroke="#3354A8" stroke-linecap="round" stroke-linejoin="round" stroke-miterlimit="10" x1="68.5" y1="34.2" x2="90.1" y2="12.7"/>
<line fill="none" stroke="#3354A8" stroke-linecap="round" stroke-linejoin="round" stroke-miterlimit="10" x1="71.4" y1="38.5" x2="94.5" y2="15.4"/>
<line fill="none" stroke="#3354A8" stroke-linecap="round" stroke-linejoin="round" stroke-miterlimit="10" x1="73.2" y1="43.8" x2="94.6" y2="22.4"/>
<line fill="none" stroke="#3354A8" stroke-linecap="round" stroke-linejoin="round" stroke-miterlimit="10" x1="74.3" y1="49.8" x2="94.4" y2="29.6"/>
<line fill="none" stroke="#3354A8" stroke-linecap="round" stroke-linejoin="round" stroke-miterlimit="10" x1="71.8" y1="59.4" x2="94.6" y2="36.5"/>
<line fill="none" stroke="#3354A8" stroke-linecap="round" stroke-linejoin="round" stroke-miterlimit="10" x1="49.5" y1="81.6" x2="59.6" y2="71.5"/>
<line fill="none" stroke="#3354A8" stroke-linecap="round" stroke-linejoin="round" stroke-miterlimit="10" x1="49.5" y1="88.7" x2="94" y2="44.2"/>
<line fill="none" stroke="#3354A8" stroke-linecap="round" stroke-linejoin="round" stroke-miterlimit="10" x1="49.5" y1="95.8" x2="93.1" y2="52.2"/>
<line fill="none" stroke="#3354A8" stroke-linecap="round" stroke-linejoin="round" stroke-miterlimit="10" x1="57.2" y1="95.2" x2="90.7" y2="61.7"/>
</svg>
