<?xml version="1.0" encoding="utf-8"?>
<!-- Generator: Adobe Illustrator 18.1.1, SVG Export Plug-In . SVG Version: 6.00 Build 0)  -->
<!DOCTYPE svg PUBLIC "-//W3C//DTD SVG 1.1//EN" "http://www.w3.org/Graphics/SVG/1.1/DTD/svg11.dtd">
<svg version="1.1" id="Layer_1" xmlns="http://www.w3.org/2000/svg" xmlns:xlink="http://www.w3.org/1999/xlink" x="0px" y="0px"
	 viewBox="0 0 100 100" enable-background="new 0 0 100 100" xml:space="preserve">
<g>
	<path fill="#3354A8" d="M95.8,22.5c-0.1-3-0.1-6.2-0.1-9.3c0-0.8-0.6-1.4-1.3-1.5c-18.6-2-29.8-5.5-43.9-11.2
		c-0.4-0.1-0.8-0.1-1.1,0C35.3,6.3,24.1,9.8,5.4,11.8c-0.8,0.1-1.3,0.7-1.3,1.5c0,3.1-0.1,6.2-0.1,9.3C3.4,51.3,2.9,81,49.3,100
		c0.2,0.1,0.4,0.1,0.6,0.1s0.4,0,0.6-0.1C97,81,96.4,51.3,95.8,22.5z M50,72.4c-12.7,0-23-10.3-23-23c0-12.7,10.3-23,23-23
		s23,10.3,23,23C73,62.1,62.7,72.4,50,72.4z M70.3,10.5L55.7,25.2c-1.6-0.4-3.3-0.6-5-0.6L65.9,9.3C67.3,9.7,68.8,10.2,70.3,10.5z
		 M76,11.9L60.9,27c-1.3-0.6-2.7-1.2-4.1-1.6l14.6-14.6C72.9,11.2,74.4,11.6,76,11.9z M81.9,13.1L65.3,29.7
		c-1.1-0.8-2.2-1.6-3.4-2.2l15.3-15.3C78.7,12.5,80.3,12.8,81.9,13.1z M88.1,14L68.9,33.2c-0.9-1-1.8-2-2.9-2.8l17.1-17.1
		C84.7,13.5,86.4,13.8,88.1,14z M74.9,48.4c-0.1-1.7-0.3-3.4-0.7-5l18.7-18.7c0,1.9,0.1,3.7,0.1,5.6L74.9,48.4z M92.8,22.6
		c0,0.3,0,0.5,0,0.8L73.9,42.3c-0.4-1.4-1-2.8-1.6-4.1l20.5-20.5C92.8,19.4,92.8,21,92.8,22.6z M75,49.8l18-18c0,1.9,0,3.8-0.1,5.7
		L74,56.4C74.6,54.3,74.9,52.1,75,49.8z M92.7,16.4L71.8,37.3c-0.7-1.2-1.4-2.3-2.3-3.4l19.8-19.8c1.1,0.1,2.2,0.3,3.4,0.4
		C92.7,15.2,92.7,15.8,92.7,16.4z M49.9,97C5.9,78.8,6.4,51.5,7,22.6c0.1-2.6,0.1-5.3,0.1-8c18-2,29.1-5.5,42.8-11
		c1.5,0.6,2.9,1.2,4.4,1.7l-5.1,5.1c-0.2,0.2-0.2,0.5,0,0.7c0.1,0.1,0.2,0.1,0.4,0.1s0.3,0,0.4-0.1l5.3-5.3c0.1-0.1,0.1-0.1,0.1-0.2
		c1.4,0.5,2.8,1.1,4.2,1.6L49.1,17.5c-0.2,0.2-0.2,0.5,0,0.7c0.1,0.1,0.2,0.1,0.4,0.1s0.3,0,0.4-0.1L60.5,7.6c1.4,0.5,2.8,1,4.3,1.4
		L49.2,24.5C35.8,24.9,25,36,25,49.5c0,13.8,11.2,25,25,25c2.4,0,4.8-0.4,7-1l-7.8,7.8c-0.2,0.2-0.2,0.5,0,0.7
		c0.1,0.1,0.2,0.1,0.4,0.1s0.3,0,0.4-0.1l9.3-9.3c6.4-2.5,11.6-7.7,14.1-14.1L92.8,39c-0.1,2-0.2,4.1-0.4,6.1L49.2,88.3
		c-0.2,0.2-0.2,0.5,0,0.7c0.1,0.1,0.2,0.1,0.4,0.1s0.3,0,0.4-0.1l42.4-42.4c-0.3,2.3-0.6,4.5-1,6.7L49.1,95.4
		c-0.2,0.2-0.2,0.5,0,0.7c0.1,0.1,0.2,0.1,0.4,0.1s0.3,0,0.4-0.1l41-41c-0.7,2.8-1.5,5.6-2.6,8.3L58.8,92.8
		C56.1,94.3,53.1,95.6,49.9,97z M61.9,91.2L87.1,66C82.7,75.3,75,83.8,61.9,91.2z"/>
	<path fill="#3354A8" d="M59.5,49c0.8-0.9,1.3-1.8,1.3-3c0-3.9-2.6-6-6.8-6h0c0,0,0-5,0-6h-2.7l0,6h-2.7c0,0,0-5,0-6H46
		c0,1,0,5.5,0,5.5l-6,0V42h0.3c1.5,0,2.7,1.1,2.7,2.5l0,10.1c0,1.3,0.2,2.5-1.6,2.5c-0.1,0-1.4,0-1.4,0v2.6l6,0.2L45.8,65h2.7l0-5
		h2.7l0,5h2.7l0-5h1.4c4.3,0,6.8-2.5,6.8-6.5C62.1,51.7,61.1,49.9,59.5,49z M48,43h4.6c1.5,0,2.7,1.1,2.7,2.5S54.1,48,52.6,48H48V43
		z M54,56h-6v-5h6c1.5,0,2.7,1.1,2.7,2.5C56.7,54.9,55.5,56,54,56z"/>
</g>
</svg>
