<?xml version="1.0" encoding="utf-8"?>
<!-- Generator: Adobe Illustrator 18.1.1, SVG Export Plug-In . SVG Version: 6.00 Build 0)  -->
<!DOCTYPE svg PUBLIC "-//W3C//DTD SVG 1.1//EN" "http://www.w3.org/Graphics/SVG/1.1/DTD/svg11.dtd">
<svg version="1.1" id="Layer_1" xmlns="http://www.w3.org/2000/svg" xmlns:xlink="http://www.w3.org/1999/xlink" x="0px" y="0px"
	 viewBox="0 0 150 150" enable-background="new 0 0 150 150" xml:space="preserve">
<path fill="none" stroke="#3354A8" stroke-width="3" stroke-linecap="round" stroke-linejoin="round" stroke-miterlimit="10" d="
	M74.9,147.9L74.9,147.9c75.8-30.9,66.4-80.8,66.4-128.1c-28.6-3-45.3-8.2-66.4-16.9l0,0l0,0c-21,8.7-37.8,13.9-66.5,16.9
	C8.4,67.1-0.9,117,74.9,147.9L74.9,147.9z"/>
<circle fill="none" stroke="#3354A8" stroke-width="2" stroke-linecap="round" stroke-linejoin="round" stroke-miterlimit="10" cx="75" cy="74.2" r="36"/>
<path id="Imported-Layers-3_4_" fill="#3354A8" d="M89.2,73.5c1.2-1.4,1.9-3,1.9-4.9c0-5.9-3.9-9.5-10.2-9.5l0,0c0,0,0-7.2,0-7.5
	h-4.1v7.5h-4.1c0,0,0-7.2,0-7.5h-4c0,0.5,0,7.5,0,7.5h-9.3V63h1.1c2.2,0,4,1.6,4,3.8v15.1c0,2,0,3.8-2.7,3.8c-0.1,0-1.8,0-2.4,0v3.9
	h9.3V97h4v-7.5H77v7.7H81v-7.7h2.1c6.4,0,10.2-3.6,10.2-9.4C93.1,77.2,91.6,74.9,89.2,73.5L89.2,73.5z M72.8,64.9h6.1
	c2.2,0,4.1,1.7,4.1,3.8c0,2.1-1.8,3.8-4.1,3.8h-6.1V64.9L72.8,64.9z M81,83.7h-8.2v-7.5H81c2.2,0,4.1,1.7,4.1,3.8
	C85.1,82.1,83.2,83.7,81,83.7L81,83.7z"/>
<line fill="none" stroke="#3354A8" stroke-linecap="round" stroke-linejoin="round" stroke-miterlimit="10" x1="74.2" y1="16.2" x2="84" y2="6.5"/>
<line fill="none" stroke="#3354A8" stroke-linecap="round" stroke-linejoin="round" stroke-miterlimit="10" x1="74.2" y1="26.8" x2="91.5" y2="9.5"/>
<line fill="none" stroke="#3354A8" stroke-linecap="round" stroke-linejoin="round" stroke-miterlimit="10" x1="74.2" y1="37.5" x2="99.3" y2="12.3"/>
<line fill="none" stroke="#3354A8" stroke-linecap="round" stroke-linejoin="round" stroke-miterlimit="10" x1="82.8" y1="39.6" x2="107.5" y2="14.7"/>
<line fill="none" stroke="#3354A8" stroke-linecap="round" stroke-linejoin="round" stroke-miterlimit="10" x1="91.1" y1="42" x2="116.1" y2="16.8"/>
<line fill="none" stroke="#3354A8" stroke-linecap="round" stroke-linejoin="round" stroke-miterlimit="10" x1="97.5" y1="46.1" x2="124.8" y2="18.7"/>
<line fill="none" stroke="#3354A8" stroke-linecap="round" stroke-linejoin="round" stroke-miterlimit="10" x1="102.8" y1="51.3" x2="135.1" y2="19"/>
<line fill="none" stroke="#3354A8" stroke-linecap="round" stroke-linejoin="round" stroke-miterlimit="10" x1="107.1" y1="57.8" x2="141.8" y2="23.1"/>
<line fill="none" stroke="#3354A8" stroke-linecap="round" stroke-linejoin="round" stroke-miterlimit="10" x1="109.8" y1="65.7" x2="141.9" y2="33.6"/>
<line fill="none" stroke="#3354A8" stroke-linecap="round" stroke-linejoin="round" stroke-miterlimit="10" x1="111.5" y1="74.7" x2="141.6" y2="44.4"/>
<line fill="none" stroke="#3354A8" stroke-linecap="round" stroke-linejoin="round" stroke-miterlimit="10" x1="107.7" y1="89.1" x2="141.9" y2="54.8"/>
<line fill="none" stroke="#3354A8" stroke-linecap="round" stroke-linejoin="round" stroke-miterlimit="10" x1="74.2" y1="122.4" x2="89.4" y2="107.2"/>
<line fill="none" stroke="#3354A8" stroke-linecap="round" stroke-linejoin="round" stroke-miterlimit="10" x1="74.2" y1="133" x2="141" y2="66.3"/>
<line fill="none" stroke="#3354A8" stroke-linecap="round" stroke-linejoin="round" stroke-miterlimit="10" x1="74.2" y1="143.7" x2="139.6" y2="78.3"/>
<line fill="none" stroke="#3354A8" stroke-linecap="round" stroke-linejoin="round" stroke-miterlimit="10" x1="85.8" y1="142.8" x2="136" y2="92.6"/>
</svg>
