<?xml version="1.0" encoding="utf-8"?>
<!-- Generator: Adobe Illustrator 18.1.1, SVG Export Plug-In . SVG Version: 6.00 Build 0)  -->
<svg version="1.2" baseProfile="tiny" id="Layer_1" xmlns="http://www.w3.org/2000/svg" xmlns:xlink="http://www.w3.org/1999/xlink"
	 x="0px" y="0px" viewBox="0 0 100 100" xml:space="preserve">
<g>
	<path fill="#3354A8" d="M96.4,22.1c-0.1-3-0.1-6.2-0.1-9.3c0-0.5-0.4-0.9-0.9-1c-18.7-2-29.9-5.5-44-11.2c-0.2-0.1-0.5-0.1-0.8,0
		c-14.1,5.8-25.3,9.3-44,11.2c-0.5,0.1-0.9,0.5-0.9,1c0,3.1-0.1,6.2-0.1,9.3C5,50.6,4.4,80.2,50.6,99c0.1,0,0.2,0.1,0.4,0.1
		c0.1,0,0.3,0,0.4-0.1C97.5,80.2,96.9,50.6,96.4,22.1z M51,72c-12.7,0-23-10.3-23-23s10.3-23,23-23s23,10.3,23,23S63.7,72,51,72z
		 M71.7,9.7l-15,15c-1.6-0.4-3.3-0.6-5-0.6L67.3,8.4C68.7,8.9,70.2,9.3,71.7,9.7z M77.4,11L61.9,26.5c-1.3-0.6-2.7-1.2-4.1-1.6
		l15-15C74.3,10.3,75.9,10.7,77.4,11z M83.4,12.2L66.3,29.3c-1.1-0.8-2.2-1.6-3.4-2.2l15.8-15.7C80.2,11.6,81.7,11.9,83.4,12.2z
		 M89.5,13.1L69.9,32.7c-0.9-1-1.8-2-2.9-2.8l17.5-17.5C86.2,12.6,87.8,12.9,89.5,13.1z M76,47.9c-0.1-1.7-0.3-3.4-0.7-5l19.1-19.1
		c0,1.9,0.1,3.7,0.1,5.6L76,47.9z M94.4,22.1c0,0.1,0,0.2,0,0.3L74.9,41.9c-0.4-1.4-1-2.8-1.6-4.1l21-21
		C94.3,18.6,94.3,20.4,94.4,22.1z M76,49.3l18.5-18.5c0,1.9,0,3.8-0.1,5.7L75,56C75.6,53.8,76,51.6,76,49.3z M94.3,15.4L72.8,36.9
		c-0.7-1.2-1.4-2.3-2.3-3.4l20.2-20.2c1.1,0.1,2.3,0.3,3.5,0.4C94.3,14.3,94.3,14.9,94.3,15.4z M50.9,97C6.4,78.7,7,49.9,7.5,22.1
		c0.1-2.8,0.1-5.6,0.1-8.4c18.2-2,29.4-5.5,43.3-11.1c1.6,0.7,3.2,1.3,4.8,1.9L50.2,10c-0.2,0.2-0.2,0.5,0,0.7
		c0.1,0.1,0.2,0.1,0.4,0.1s0.3,0,0.4-0.1l5.9-5.9c1.4,0.5,2.8,1,4.1,1.5L50.2,17c-0.2,0.2-0.2,0.5,0,0.7c0.1,0.1,0.2,0.1,0.4,0.1
		s0.3,0,0.4-0.1L61.9,6.7c1.4,0.5,2.8,1,4.3,1.4l-16,16C36.8,24.5,26.1,35.5,26.1,49c0,13.8,11.2,25,25,25c2.4,0,4.8-0.4,7-1
		l-7.8,7.8c-0.2,0.2-0.2,0.5,0,0.7c0.1,0.1,0.2,0.1,0.4,0.1s0.3,0,0.4-0.1l9.3-9.3c6.4-2.5,11.6-7.7,14.1-14.1L94.4,38
		c-0.1,2-0.2,4.1-0.4,6.1L50.2,87.9c-0.2,0.2-0.2,0.5,0,0.7c0.1,0.1,0.2,0.1,0.4,0.1s0.3,0,0.4-0.1l42.9-42.9
		c-0.3,2.3-0.6,4.5-1,6.7L50.2,95c-0.2,0.2-0.2,0.5,0,0.7c0.1,0.1,0.2,0.1,0.4,0.1s0.3,0,0.4-0.1l41.5-41.5
		c-0.6,2.8-1.5,5.5-2.5,8.2L58.7,93.5C56.3,94.7,53.7,95.9,50.9,97z M61.7,91.9l27.1-27.1C84.2,74.9,76.1,84.1,61.7,91.9z"/>
	<path fill="#3354A8" d="M60.5,48.6c0.8-0.9,1.3-2,1.3-3.3c0-3.9-2.6-6.3-6.8-6.3h0l0-5h-2.7l0,5h-2.7l0-5H47v5l-6,0v3h0.3
		c1.5,0,2.7,0.9,2.7,2.3l0,9.9c0,1.3,0.2,2.4-1.6,2.4c-0.1,0-1.4-0.1-1.4-0.1v2.6l6-0.1L46.8,64h2.7l0-5h2.7l0,5H55l0-5h1.4
		c4.3,0,6.8-2.3,6.8-6.2C63.2,50.9,62.1,49.4,60.5,48.6z M50,43h3.6c1.5,0,2.7,1.1,2.7,2.5S55.1,48,53.6,48H50V43z M55,55h-5v-5h5
		c1.5,0,2.7,1.1,2.7,2.5S56.5,55,55,55z"/>
</g>
</svg>
