<?xml version="1.0" encoding="utf-8"?>
<!-- Generator: Adobe Illustrator 18.1.1, SVG Export Plug-In . SVG Version: 6.00 Build 0)  -->
<!DOCTYPE svg PUBLIC "-//W3C//DTD SVG 1.1//EN" "http://www.w3.org/Graphics/SVG/1.1/DTD/svg11.dtd">
<svg version="1.1" id="Layer_1" xmlns="http://www.w3.org/2000/svg" xmlns:xlink="http://www.w3.org/1999/xlink" x="0px" y="0px"
	 viewBox="0 0 130 100" enable-background="new 0 0 130 100" xml:space="preserve">
<g>
	<polyline fill="#FFFFFF" points="113.2,50.5 113.6,36.9 116.9,37.3 114.4,50.6 	"/>
	<path fill="#3354A8" d="M114.9,50.7l-1-0.2l2.4-12.8l-2.3-0.2l-0.4,13l-1,0l0.4-13.6c0-0.1,0.1-0.3,0.2-0.4
		c0.1-0.1,0.2-0.1,0.4-0.1l3.3,0.4c0.1,0,0.3,0.1,0.3,0.2s0.1,0.3,0.1,0.4L114.9,50.7z"/>
</g>
<path fill="#3354A8" d="M103.5,41.3c-0.1,0-0.2,0-0.3-0.1c-0.2-0.2-0.2-0.5-0.1-0.7l3.8-4.7c0.2-0.2,0.5-0.2,0.7-0.1
	c0.2,0.2,0.2,0.5,0.1,0.7l-3.8,4.7C103.8,41.2,103.7,41.3,103.5,41.3z"/>
<path fill="#3354A8" d="M43,70.6c-0.1,0-0.3-0.1-0.4-0.2l-7.2-9.1c-0.2-0.2-0.1-0.5,0.1-0.7c0.2-0.2,0.5-0.1,0.7,0.1l7.2,9.1
	c0.2,0.2,0.1,0.5-0.1,0.7C43.2,70.6,43.1,70.6,43,70.6z"/>
<path fill="#3354A8" d="M32.8,40.3c-0.1,0-0.3-0.1-0.4-0.2c-0.2-0.2-0.2-0.5,0-0.7l7.7-7.3c0.2-0.2,0.5-0.2,0.7,0
	c0.2,0.2,0.2,0.5,0,0.7l-7.7,7.3C33,40.3,32.9,40.3,32.8,40.3z"/>
<path fill="#3354A8" d="M102.9,88.4H33.2c-0.3,0-0.6-0.1-0.7-0.3s-0.3-0.5-0.3-0.8l2.5-26.2l-3-21.1c0-0.1,0-0.2,0-0.3l4-26.5
	c0.1-0.5,0.6-0.9,1.1-0.8c0.5,0.1,0.9,0.6,0.8,1.1l-4,26.4l3,21.1c0,0.1,0,0.2,0,0.2l-2.4,25.2H102l4.3-50.3l-3.2-22.7
	c-0.1-0.5,0.3-1.1,0.9-1.1c0.5-0.1,1.1,0.3,1.1,0.9l3.2,22.8c0,0.1,0,0.1,0,0.2l-4.4,51.3C103.9,88,103.4,88.4,102.9,88.4z"/>
<g>
	<path fill="#FFFFFF" d="M84,76.6c-16.2,3-35.3-4.2-37.2,0.4c-3.3,8.1,15,14.2,26.7,15.6c11.6,1.4,28.2-3,41.3-13.3
		s3.8-16.6-8.8-11.1C93.3,73.5,89.9,75.4,84,76.6z"/>
	<path fill="#3354A8" d="M77.9,93.8c-1.6,0-3.1-0.1-4.5-0.3c-8.5-1-23.3-5-27.1-11.5c-1.1-1.8-1.2-3.6-0.4-5.5
		c0.8-2,3.3-2.2,5.4-2.2c2.3,0,5.3,0.4,8.7,0.8c4.5,0.6,9.7,1.2,14.9,1.2c3.3,0,6.2-0.2,8.9-0.7c4.4-0.8,7.4-2.2,14.1-5.1
		c2.2-0.9,4.7-2.1,7.8-3.4c3.2-1.4,6.3-2.1,9-2.1c3.8,0,6.5,1.4,7.3,3.8c0.6,1.8,0.6,5.6-6.5,11.2C104.6,88.5,90.2,93.8,77.9,93.8z
		 M51.3,76.4c-2.1,0-3.3,0.3-3.6,1c-0.5,1.2-0.4,2.5,0.3,3.7c2.9,5,15.3,9.3,25.6,10.5c1.3,0.2,2.8,0.2,4.3,0.2
		c11.9,0,25.8-5.1,36.3-13.3c4.4-3.4,6.6-6.8,5.8-8.9c-0.5-1.5-2.5-2.4-5.4-2.4c-2.5,0-5.3,0.7-8.3,1.9c-3.1,1.3-5.6,2.4-7.7,3.4
		c-6.8,3-9.9,4.3-14.5,5.2c-2.8,0.5-5.8,0.8-9.2,0.8c-5.4,0-10.6-0.6-15.2-1.2C56.4,76.7,53.5,76.4,51.3,76.4z"/>
</g>
<path fill="#3354A8" d="M84.4,85c-0.2,0-0.5-0.2-0.5-0.4c0-0.3,0.2-0.5,0.4-0.6c5.5-0.8,12.1-4.4,15.5-7.4c0.2-0.2,0.5-0.2,0.7,0
	c0.2,0.2,0.2,0.5,0,0.7C97,80.5,90.2,84.2,84.4,85C84.5,85,84.4,85,84.4,85z"/>
<path fill="#3354A8" d="M63.3,85.4C63.3,85.4,63.2,85.4,63.3,85.4c-4.7-0.5-12.1-2.9-16.5-6.6c-0.2-0.2-0.2-0.5-0.1-0.7
	c0.2-0.2,0.5-0.2,0.7-0.1c4.3,3.6,11.4,5.9,15.9,6.4c0.3,0,0.5,0.3,0.4,0.5C63.8,85.2,63.5,85.4,63.3,85.4z"/>
<g>
	<path fill="#FFFFFF" d="M20.2,24.5c0,0-7.3,0-7.3,0v3.1c-0.6,5.3-10,4.8-10,12.3s0,12.5,0,12.5c1.7,0.8,1.5,3.6,0,4.4V89
		c-1.8,1.1-1.5,3.9,0,4.8c1.7,0,17.3,0,17.3,0"/>
	<path fill="#3354A8" d="M20.2,94.8H2.9c-0.2,0-0.4-0.1-0.5-0.2c-1-0.7-1.7-1.9-1.7-3.3c0-1.2,0.4-2.2,1.2-2.9V56.9
		c0-0.4,0.2-0.7,0.5-0.9c0.4-0.2,0.7-0.8,0.7-1.4c0-0.3-0.1-0.9-0.6-1.2c-0.4-0.2-0.6-0.5-0.6-0.9V39.9c0-4.7,3.4-6.7,6-8.3
		c2-1.2,3.7-2.2,4-4v-3.1c0-0.6,0.4-1,1-1h7.3c0.6,0,1,0.4,1,1s-0.4,1-1,1h-6.3v2.1c0,0,0,0.1,0,0.1c-0.3,2.9-2.7,4.2-4.9,5.6
		c-2.6,1.5-5.1,3-5.1,6.6v12c0.8,0.6,1.2,1.5,1.2,2.6c0,1.2-0.4,2.2-1.2,2.9V89c0,0.3-0.2,0.7-0.5,0.8c-0.7,0.4-0.8,1.2-0.8,1.5
		c0,0.6,0.2,1.1,0.6,1.5h17c0.6,0,1,0.4,1,1S20.7,94.8,20.2,94.8z"/>
</g>
<g>
	<path fill="#FFFFFF" d="M20.2,24.5c0,0,7.3,0,7.3,0v3.1c0.6,5.3,10,4.8,10,12.3s0,12.5,0,12.5c-1.7,0.8-1.5,3.6,0,4.4V89
		c1.8,1.1,1.5,3.9,0,4.8c-1.7,0-17.3,0-17.3,0"/>
	<path fill="#3354A8" d="M37.5,94.8H20.2c-0.6,0-1-0.4-1-1s0.4-1,1-1h17c0.3-0.3,0.6-0.9,0.6-1.5c0-0.3-0.1-1.1-0.8-1.5
		c-0.3-0.2-0.5-0.5-0.5-0.8V57.4c-0.8-0.6-1.2-1.7-1.2-2.9c0-1.1,0.5-2,1.2-2.6v-12c0-3.6-2.5-5-5.1-6.6c-2.3-1.3-4.6-2.7-4.9-5.6
		c0,0,0-0.1,0-0.1v-2.1h-6.3c-0.6,0-1-0.4-1-1s0.4-1,1-1h7.3c0.6,0,1,0.4,1,1v3.1c0.2,1.8,2,2.9,4,4c2.7,1.6,6,3.6,6,8.3v12.5
		c0,0.4-0.2,0.7-0.6,0.9c-0.6,0.3-0.6,0.9-0.6,1.2c0,0.6,0.3,1.2,0.7,1.4c0.3,0.2,0.5,0.5,0.5,0.9v31.6c0.8,0.7,1.2,1.7,1.2,2.9
		c0,1.4-0.7,2.6-1.7,3.3C37.8,94.8,37.7,94.8,37.5,94.8z"/>
</g>
<g>
	<rect x="8.7" y="18.3" fill="#FFFFFF" width="23.4" height="7"/>
	<path fill="#3354A8" d="M32.1,25.8H8.7c-0.3,0-0.5-0.2-0.5-0.5v-7c0-0.3,0.2-0.5,0.5-0.5h23.4c0.3,0,0.5,0.2,0.5,0.5v7
		C32.6,25.6,32.4,25.8,32.1,25.8z M9.2,24.8h22.4v-6H9.2V24.8z"/>
</g>
<path fill="#3354A8" d="M10.9,25.8c-0.3,0-0.5-0.2-0.5-0.5v-7c0-0.3,0.2-0.5,0.5-0.5s0.5,0.2,0.5,0.5v7
	C11.4,25.6,11.2,25.8,10.9,25.8z"/>
<path fill="#3354A8" d="M13.6,25.8c-0.3,0-0.5-0.2-0.5-0.5v-7c0-0.3,0.2-0.5,0.5-0.5s0.5,0.2,0.5,0.5v7
	C14.1,25.6,13.9,25.8,13.6,25.8z"/>
<path fill="#3354A8" d="M16.3,25.8c-0.3,0-0.5-0.2-0.5-0.5v-7c0-0.3,0.2-0.5,0.5-0.5s0.5,0.2,0.5,0.5v7
	C16.8,25.6,16.6,25.8,16.3,25.8z"/>
<path fill="#3354A8" d="M19,25.8c-0.3,0-0.5-0.2-0.5-0.5v-7c0-0.3,0.2-0.5,0.5-0.5s0.5,0.2,0.5,0.5v7C19.5,25.6,19.3,25.8,19,25.8z"
	/>
<path fill="#3354A8" d="M21.7,25.8c-0.3,0-0.5-0.2-0.5-0.5v-7c0-0.3,0.2-0.5,0.5-0.5s0.5,0.2,0.5,0.5v7C22.2,25.6,22,25.8,21.7,25.8
	z"/>
<path fill="#3354A8" d="M24.4,25.8c-0.3,0-0.5-0.2-0.5-0.5v-7c0-0.3,0.2-0.5,0.5-0.5s0.5,0.2,0.5,0.5v7
	C24.9,25.6,24.7,25.8,24.4,25.8z"/>
<path fill="#3354A8" d="M27.1,25.8c-0.3,0-0.5-0.2-0.5-0.5v-7c0-0.3,0.2-0.5,0.5-0.5s0.5,0.2,0.5,0.5v7
	C27.6,25.6,27.4,25.8,27.1,25.8z"/>
<path fill="#3354A8" d="M29.8,25.8c-0.3,0-0.5-0.2-0.5-0.5v-7c0-0.3,0.2-0.5,0.5-0.5s0.5,0.2,0.5,0.5v7
	C30.3,25.6,30.1,25.8,29.8,25.8z"/>
<path fill="#3354A8" d="M37.5,57.4H2.9c-0.3,0-0.5-0.2-0.5-0.5s0.2-0.5,0.5-0.5h34.6c0.3,0,0.5,0.2,0.5,0.5S37.7,57.4,37.5,57.4z"/>
<path fill="#3354A8" d="M34.7,48.8h-7.2c-0.3,0-0.5-0.2-0.5-0.5s0.2-0.5,0.5-0.5h7.2c0.3,0,0.5,0.2,0.5,0.5S35,48.8,34.7,48.8z"/>
<path fill="#3354A8" d="M18.6,52.8h-7.3c-0.3,0-0.5-0.2-0.5-0.5s0.2-0.5,0.5-0.5h7.3c0.3,0,0.5,0.2,0.5,0.5S18.9,52.8,18.6,52.8z"/>
<path fill="#3354A8" d="M10.1,45.8H6.6c-0.3,0-0.5-0.2-0.5-0.5s0.2-0.5,0.5-0.5h3.4c0.3,0,0.5,0.2,0.5,0.5S10.3,45.8,10.1,45.8z"/>
<path fill="#3354A8" d="M27.6,44.2h-3.4c-0.3,0-0.5-0.2-0.5-0.5s0.2-0.5,0.5-0.5h3.4c0.3,0,0.5,0.2,0.5,0.5S27.9,44.2,27.6,44.2z"/>
<path fill="#3354A8" d="M37.5,89.5H2.9c-0.3,0-0.5-0.2-0.5-0.5s0.2-0.5,0.5-0.5h34.6c0.3,0,0.5,0.2,0.5,0.5S37.7,89.5,37.5,89.5z"/>
<path fill="#3354A8" d="M16.8,82.6c-0.1,0-0.2,0-0.3-0.1c-0.2-0.1-0.3-0.4-0.2-0.6l3.9-7.7l-3.6-1c-0.2,0-0.3-0.2-0.3-0.3
	c-0.1-0.2,0-0.3,0.1-0.5l7.7-9.5c0.2-0.2,0.4-0.2,0.6-0.1c0.2,0.1,0.3,0.4,0.2,0.6l-2.9,7l4,1.1c0.2,0,0.3,0.2,0.3,0.3
	s0,0.3-0.1,0.5l-9.1,10.2C17.1,82.6,16.9,82.6,16.8,82.6z M17.6,72.4l3.5,1c0.1,0,0.3,0.1,0.3,0.3s0.1,0.3,0,0.4L19,78.9l6-6.7
	l-3.8-1c-0.1,0-0.3-0.1-0.3-0.3c-0.1-0.1-0.1-0.3,0-0.4l1.8-4.2L17.6,72.4z"/>
<path fill="#3354A8" d="M37.5,41.3C37.5,41.3,37.5,41.3,37.5,41.3c-0.3,0-0.5-0.2-0.5-0.5c0,0-0.4-1-4.9-1.4c-3-0.2-5.3,0.2-7.6,0.5
	c-1.7,0.3-3.4,0.6-5.5,0.6c-1.5,0-3.1-0.3-4.9-0.5c-3.6-0.5-7.7-1.1-11,0.4c-0.3,0.1-0.5,0-0.7-0.2c-0.1-0.3,0-0.5,0.2-0.7
	c3.6-1.6,7.8-1,11.6-0.4c1.7,0.3,3.3,0.5,4.8,0.5c1.9,0,3.6-0.3,5.3-0.6c2.3-0.4,4.7-0.8,7.8-0.6c5.5,0.4,5.9,1.9,5.9,2.4
	C38,41.1,37.7,41.3,37.5,41.3z"/>
<g>
	<path fill="#FFFFFF" d="M113.9,50c6.8-0.5,9.7,5.6,8.4,14.7c-1.1,7.8,7.3,7.7,5.2,17.4s-10.8,12.8-19.9,11.5s-16.4-6.8-15.8-16.6
		s8.8-7.3,9.9-15.2C103.1,52.6,107,47.5,113.9,50z"/>
	<path fill="#3354A8" d="M111.4,94.8c-1.3,0-2.6-0.1-4-0.3c-10.9-1.6-17.3-8.4-16.6-17.7c0.4-5.8,3.2-7.7,5.7-9.4
		c2-1.4,3.8-2.6,4.2-5.8c1.6-10.9,6.2-13.2,9.8-13.2c1.1,0,2.3,0.2,3.5,0.6c2.9-0.2,5.2,0.8,6.9,2.7c2.3,2.7,3.2,7.4,2.3,13.1
		c-0.5,3.2,0.9,4.9,2.4,6.8c1.9,2.4,4,5,2.8,10.7C126.6,90.2,120.5,94.8,111.4,94.8z M110.6,50.4c-5.1,0-7.1,6.2-7.9,11.5
		c-0.6,4.1-3,5.7-5.1,7.2c-2.3,1.6-4.5,3.1-4.8,7.9c-0.6,8.3,5,14.1,14.9,15.6c1.3,0.2,2.5,0.3,3.7,0.3c8,0,13.5-4,15-11
		c1.1-4.7-0.6-6.8-2.4-9c-1.6-2-3.4-4.2-2.8-8.3c0.8-5.2,0.1-9.3-1.9-11.5c-1.3-1.5-3.1-2.2-5.4-2c-0.1,0-0.3,0-0.4-0.1
		C112.5,50.6,111.5,50.4,110.6,50.4z"/>
</g>
<circle fill="#3354A8" cx="119" cy="74.9" r="0.6"/>
<circle fill="#3354A8" cx="113.1" cy="87.2" r="0.6"/>
<circle fill="#3354A8" cx="115.9" cy="89.5" r="0.6"/>
<circle fill="#3354A8" cx="110.4" cy="92.8" r="0.6"/>
<circle fill="#3354A8" cx="66.2" cy="85.2" r="0.6"/>
<circle fill="#3354A8" cx="69" cy="85.5" r="0.6"/>
<circle fill="#3354A8" cx="72.7" cy="85.2" r="0.6"/>
<circle fill="#3354A8" cx="124.1" cy="81.2" r="0.6"/>
<circle fill="#3354A8" cx="118.8" cy="62.3" r="0.6"/>
<circle fill="#3354A8" cx="117.4" cy="57.7" r="0.6"/>
<circle fill="#3354A8" cx="117.2" cy="82.1" r="1.3"/>
<circle fill="#3354A8" cx="124.7" cy="74.3" r="1.3"/>
<circle fill="#3354A8" cx="120.5" cy="87" r="1.3"/>
<circle fill="#3354A8" cx="113" cy="67.6" r="1.3"/>
<circle fill="#3354A8" cx="106.7" cy="88.2" r="1.3"/>
<g>
	<polygon fill="#FFFFFF" points="105.6,4.1 97.9,6.1 89.8,4.1 83.4,6.1 77.6,4.1 71.5,6.1 63.9,4.1 55.7,6.1 46.6,4.1 40.1,6.1 
		34.8,4.1 36.3,13.3 67.9,15.3 104.6,13.3 	"/>
	<path fill="#3354A8" d="M67.9,15.8C67.9,15.8,67.9,15.8,67.9,15.8l-31.6-2c-0.2,0-0.4-0.2-0.5-0.4l-1.5-9.2c0-0.2,0-0.4,0.2-0.5
		s0.3-0.1,0.5-0.1l5.2,1.9l6.4-2c0.1,0,0.2,0,0.3,0l9,2l8.1-2c0.1,0,0.2,0,0.2,0l7.4,2l5.9-2c0.1,0,0.2,0,0.3,0l5.7,1.9l6.2-2
		c0.1,0,0.2,0,0.3,0l7.9,2l7.6-2c0.2,0,0.3,0,0.5,0.1c0.1,0.1,0.2,0.3,0.2,0.4l-1,9.2c0,0.2-0.2,0.4-0.5,0.4L67.9,15.8
		C67.9,15.8,67.9,15.8,67.9,15.8z M36.7,12.8l31.2,2l36.3-2l0.9-8.1l-7,1.8c-0.1,0-0.2,0-0.2,0l-7.9-2l-6.2,2c-0.1,0-0.2,0-0.3,0
		l-5.7-1.9l-5.9,1.9c-0.1,0-0.2,0-0.3,0l-7.4-2l-8.1,2c-0.1,0-0.2,0-0.2,0l-8.9-2l-6.4,2c-0.1,0-0.2,0-0.3,0l-4.5-1.7L36.7,12.8z"/>
</g>
<path fill="#3354A8" d="M39.2,11.4c-0.2,0-0.4-0.1-0.5-0.4L37,5.3C37,5,37.1,4.8,37.4,4.7C37.6,4.6,37.9,4.7,38,5l1.7,5.7
	c0.1,0.3-0.1,0.5-0.3,0.6C39.3,11.4,39.3,11.4,39.2,11.4z"/>
<path fill="#3354A8" d="M45.7,10.1c-0.2,0-0.4-0.2-0.5-0.4l-1-4.6c-0.1-0.3,0.1-0.5,0.4-0.6c0.3-0.1,0.5,0.1,0.6,0.4l1,4.6
	c0.1,0.3-0.1,0.5-0.4,0.6C45.8,10.1,45.8,10.1,45.7,10.1z"/>
<path fill="#3354A8" d="M52.5,9.7c0,0-0.1,0-0.1,0C52.1,9.6,52,9.4,52,9.1l0.8-3.3c0.1-0.3,0.3-0.4,0.6-0.4c0.3,0.1,0.4,0.3,0.4,0.6
	L53,9.3C53,9.6,52.8,9.7,52.5,9.7z"/>
<path fill="#3354A8" d="M82.2,10.2C82.2,10.2,82.2,10.2,82.2,10.2c-0.3,0-0.5-0.3-0.5-0.5l0.4-3.9c0-0.3,0.3-0.5,0.5-0.4
	c0.3,0,0.5,0.3,0.4,0.5l-0.4,3.9C82.7,10,82.5,10.2,82.2,10.2z"/>
<path fill="#3354A8" d="M95.4,10.2C95.4,10.2,95.4,10.2,95.4,10.2c-0.4-0.1-0.5-0.3-0.5-0.6l0.8-3.9c0.1-0.3,0.3-0.4,0.6-0.4
	c0.3,0.1,0.4,0.3,0.4,0.6l-0.8,3.9C95.9,10,95.7,10.2,95.4,10.2z"/>
<path fill="#3354A8" d="M67.5,10.2C67.5,10.2,67.4,10.2,67.5,10.2c-0.4-0.1-0.5-0.3-0.5-0.6l0.8-4.3c0-0.3,0.3-0.5,0.6-0.4
	c0.3,0,0.5,0.3,0.4,0.6L68,9.8C67.9,10,67.7,10.2,67.5,10.2z"/>
<path fill="#3354A8" d="M61,10.1c-0.2,0-0.4-0.2-0.5-0.4l-0.9-4.4c-0.1-0.3,0.1-0.5,0.4-0.6c0.3-0.1,0.5,0.1,0.6,0.4l0.9,4.4
	c0.1,0.3-0.1,0.5-0.4,0.6C61.1,10.1,61,10.1,61,10.1z"/>
<path fill="#3354A8" d="M75.5,11c-0.2,0-0.4-0.2-0.5-0.4L74,5.2c0-0.3,0.1-0.5,0.4-0.6C74.7,4.5,75,4.7,75,5l0.9,5.4
	C76,10.7,75.8,11,75.5,11C75.5,11,75.5,11,75.5,11z"/>
<path fill="#3354A8" d="M88.4,9c-0.3,0-0.5-0.2-0.5-0.5v-4c0-0.3,0.2-0.5,0.5-0.5s0.5,0.2,0.5,0.5v4C88.9,8.8,88.7,9,88.4,9z"/>
<path fill="#3354A8" d="M102.1,11.2c-0.2,0-0.4-0.2-0.5-0.4l-0.9-5.4c0-0.3,0.1-0.5,0.4-0.6c0.3,0,0.5,0.1,0.6,0.4l0.9,5.4
	C102.7,10.9,102.5,11.2,102.1,11.2C102.2,11.2,102.2,11.2,102.1,11.2z"/>
<path fill="#3354A8" d="M41.7,13.8C41.6,13.8,41.6,13.8,41.7,13.8c-0.3,0-0.5-0.3-0.5-0.6l0.5-4.6c0-0.3,0.3-0.5,0.5-0.4
	c0.3,0,0.5,0.3,0.4,0.5l-0.5,4.6C42.1,13.6,41.9,13.8,41.7,13.8z"/>
<path fill="#3354A8" d="M48.9,14.6c-0.3,0-0.5-0.2-0.5-0.5V8.6c0-0.3,0.2-0.5,0.5-0.5s0.5,0.2,0.5,0.5v5.5
	C49.4,14.4,49.2,14.6,48.9,14.6z"/>
<path fill="#3354A8" d="M56.8,14.5c-0.3,0-0.5-0.2-0.5-0.5V9.5c0-0.3,0.2-0.5,0.5-0.5s0.5,0.2,0.5,0.5V14
	C57.3,14.3,57.1,14.5,56.8,14.5z"/>
<path fill="#3354A8" d="M71.7,15.5c-0.3,0-0.5-0.2-0.5-0.5V9.5c0-0.3,0.2-0.5,0.5-0.5s0.5,0.2,0.5,0.5V15
	C72.2,15.3,71.9,15.5,71.7,15.5z"/>
<path fill="#3354A8" d="M91.7,14.5c-0.2,0-0.5-0.2-0.5-0.4l-0.8-4.5c0-0.3,0.1-0.5,0.4-0.6c0.3,0,0.5,0.1,0.6,0.4l0.8,4.5
	C92.3,14.2,92.1,14.4,91.7,14.5C91.8,14.5,91.8,14.5,91.7,14.5z"/>
<path fill="#3354A8" d="M99,14c-0.3,0-0.5-0.2-0.5-0.5V8c0-0.3,0.2-0.5,0.5-0.5s0.5,0.2,0.5,0.5v5.5C99.5,13.8,99.3,14,99,14z"/>
<path fill="#3354A8" d="M85.2,14.8C85.2,14.8,85.1,14.8,85.2,14.8c-0.4-0.1-0.5-0.3-0.5-0.6l0.8-3.8c0.1-0.3,0.3-0.4,0.6-0.4
	c0.3,0.1,0.4,0.3,0.4,0.6l-0.8,3.8C85.6,14.7,85.4,14.8,85.2,14.8z"/>
<path fill="#3354A8" d="M64,15.5C64,15.5,64,15.5,64,15.5c-0.3,0-0.5-0.3-0.5-0.6l0.5-4.3c0-0.3,0.3-0.5,0.6-0.4
	c0.3,0,0.5,0.3,0.4,0.6l-0.5,4.3C64.5,15.3,64.3,15.5,64,15.5z"/>
<path fill="#3354A8" d="M78.3,15.1C78.3,15.1,78.3,15.1,78.3,15.1c-0.3,0-0.5-0.3-0.5-0.5L78.4,9c0-0.3,0.3-0.5,0.5-0.4
	c0.3,0,0.5,0.3,0.4,0.5l-0.5,5.5C78.8,14.9,78.6,15.1,78.3,15.1z"/>
<path fill="#3354A8" d="M73.5,22.3c-0.1,0-0.3-0.1-0.4-0.2l-5.6-6.5c-0.2-0.2-0.2-0.5,0.1-0.7c0.2-0.2,0.5-0.2,0.7,0.1l5.6,6.5
	c0.2,0.2,0.2,0.5-0.1,0.7C73.7,22.3,73.6,22.3,73.5,22.3z"/>
<g>
	<path fill="#3354A8" d="M68.1,55.4C68.1,55.4,68.1,55.4,68.1,55.4c-4.9,0-8.7-1.7-9.7-4.3c-0.6-1.4-0.2-2.8,0.9-3.9
		c0.8-0.8,1.7-1.2,2.6-1.2c1.4,0,2.8,0.9,4.6,2c2.8,1.7,6.6,4.1,12.5,4.1c0.2,0,0.5,0.2,0.5,0.4c0,0.2-0.1,0.5-0.3,0.6
		C75.3,54.6,71.6,55.4,68.1,55.4z M61.9,47c-0.7,0-1.3,0.3-1.9,0.9c-0.9,0.9-1.1,1.8-0.7,2.8c0.7,1.8,3.8,3.7,8.8,3.7c0,0,0,0,0,0
		c2.6,0,5.4-0.5,8.4-1.4c-4.8-0.5-8-2.6-10.5-4.1C64.4,47.8,63.1,47,61.9,47z"/>
	<path fill="#3354A8" d="M79.1,53.1c-0.2,0-0.4-0.1-0.5-0.3c-0.1-0.3,0-0.5,0.3-0.6c2.7-1.1,4.7-3,4.9-4.8c0.1-1.1-0.5-2.1-1.8-3
		c-2.3-1.5-4.9,0.4-7.6,2.5c-2,1.5-4,3-6.1,3.3c-0.3,0-0.5-0.2-0.6-0.4c0-0.3,0.2-0.5,0.4-0.6c1.8-0.2,3.8-1.7,5.6-3.1
		c2.9-2.2,5.9-4.4,8.8-2.5c2,1.3,2.3,2.9,2.2,3.9c-0.2,2.2-2.4,4.5-5.5,5.7C79.2,53.1,79.1,53.1,79.1,53.1z"/>
</g>
<path fill="#3354A8" d="M61.3,66.7c-11.5,0-19.8-4.1-21.3-10.4c-1-4.4,1.3-9.1,6.5-13.5c5-4.2,12.1-7.5,20.1-9.3
	c4.3-1,8.5-1.5,12.5-1.5c11.5,0,19.8,4.1,21.3,10.4c1,4.4-1.3,9.1-6.5,13.5c-5,4.2-12.1,7.5-20.1,9.3C69.6,66.2,65.4,66.7,61.3,66.7
	z M79.1,34c-3.9,0-8,0.5-12.1,1.4c-7.6,1.8-14.5,4.9-19.2,8.9c-4.6,3.8-6.6,7.9-5.8,11.5c1.2,5.4,8.8,8.8,19.3,8.8
	c3.9,0,8-0.5,12.1-1.4c7.6-1.8,14.5-4.9,19.2-8.9c4.6-3.8,6.6-7.9,5.8-11.5C97.2,37.5,89.6,34,79.1,34z"/>
<path fill="#3354A8" d="M61.2,63.3c-9.7,0-16.3-3-17.5-7.9c-1.6-6.9,9-15.3,23.6-18.7c4.1-0.9,8.1-1.4,11.9-1.4
	c9.7,0,16.3,3,17.5,7.9c1.6,6.9-9,15.3-23.6,18.7C69,62.9,65,63.3,61.2,63.3z M79.2,36.4c-3.7,0-7.7,0.5-11.7,1.4
	C53.4,41,43.2,48.8,44.7,55.2c1,4.3,7.5,7.1,16.5,7.1c3.7,0,7.7-0.5,11.7-1.4c14.1-3.2,24.3-11.1,22.8-17.5
	C94.7,39.1,88.2,36.4,79.2,36.4z"/>
</svg>
