<?xml version="1.0" encoding="UTF-8" standalone="no"?>
<svg width="60px" height="529px" viewBox="0 0 60 529" version="1.1" xmlns="http://www.w3.org/2000/svg" xmlns:xlink="http://www.w3.org/1999/xlink" xmlns:sketch="http://www.bohemiancoding.com/sketch/ns">
    <!-- Generator: Sketch 3.3.1 (12002) - http://www.bohemiancoding.com/sketch -->
    <title>timeline copy 2</title>
    <desc>Created with Sketch.</desc>
    <defs></defs>
    <g id="Page-1" stroke="none" stroke-width="1" fill="none" fill-rule="evenodd" sketch:type="MSPage">
        <g id="timeline-copy-2" sketch:type="MSArtboardGroup">
            <path d="M30,13.5 L30,513.75592" id="Line" stroke="#B2B5B9" stroke-linecap="square" stroke-dasharray="1,3" sketch:type="MSShapeGroup"></path>
            <path d="M30,517 C37.7319865,517 44,510.731986 44,503 C44,495.268014 37.7319865,489 30,489 C22.2680135,489 16,495.268014 16,503 C16,510.731986 22.2680135,517 30,517 Z M30,425.5 C40.9076238,425.5 49.75,416.657624 49.75,405.75 C49.75,394.842376 40.9076238,386 30,386 C19.0923762,386 10.25,394.842376 10.25,405.75 C10.25,416.657624 19.0923762,425.5 30,425.5 Z M30,323 C42.7025492,323 53,312.702549 53,300 C53,287.297451 42.7025492,277 30,277 C17.2974508,277 7,287.297451 7,300 C7,312.702549 17.2974508,323 30,323 Z M30,29 C37.1797017,29 43,23.1797017 43,16 C43,8.82029825 37.1797017,3 30,3 C22.8202983,3 17,8.82029825 17,16 C17,23.1797017 22.8202983,29 30,29 Z M30,214 C37.4558441,214 43.5,207.955844 43.5,200.5 C43.5,193.044156 37.4558441,187 30,187 C22.5441559,187 16.5,193.044156 16.5,200.5 C16.5,207.955844 22.5441559,214 30,214 Z M30,124 C38.836556,124 46,116.836556 46,108 C46,99.163444 38.836556,92 30,92 C21.163444,92 14,99.163444 14,108 C14,116.836556 21.163444,124 30,124 Z" id="Oval-1-Copy" stroke="#91BEE7" stroke-linecap="round" fill="#EFF8FF" sketch:type="MSShapeGroup"></path>
            <g id="ios7-star" sketch:type="MSLayerGroup" transform="translate(23.000000, 10.000000)" fill="#91BDE7">
                <path d="M13.1087073,4.70315285 L8.43445537,4.70315285 L7,0.497836538 L5.56554463,4.70315285 L0.891292735,4.70315285 L4.71468898,7.29083649 L3.22569158,11.4961528 L7,8.88996683 L10.7743084,11.4961528 L9.28258392,7.29083649 L13.1087073,4.70315285 L13.1087073,4.70315285 Z" id="Shape" sketch:type="MSShapeGroup"></path>
            </g>
        </g>
    </g>
</svg>