<?xml version="1.0" encoding="UTF-8" standalone="no"?>
<svg width="82px" height="21px" viewBox="0 0 82 21" version="1.1" xmlns="http://www.w3.org/2000/svg" xmlns:xlink="http://www.w3.org/1999/xlink" xmlns:sketch="http://www.bohemiancoding.com/sketch/ns">
    <!-- Generator: Sketch 3.3.1 (12002) - http://www.bohemiancoding.com/sketch -->
    <title>Forbes_com Copy</title>
    <desc>Created with Sketch.</desc>
    <defs></defs>
    <g id="Page-1" stroke="none" stroke-width="1" fill="none" fill-rule="evenodd" sketch:type="MSPage">
        <g id="press-copy-2" sketch:type="MSArtboardGroup" transform="translate(-1110.000000, -915.000000)" fill="#4B4B4B">
            <g id="Forbes_com-Copy" sketch:type="MSLayerGroup" transform="translate(1110.000000, 914.786646)">
                <path d="M49.5863846,6.12284615 C48.2806154,6.12284615 47.2553846,6.40284615 46.2296154,6.96176923 C46.2296154,3.97869231 46.2296154,1.27453846 46.3227692,0.341923077 L40.075,1.46084615 L40.075,2.02030769 L40.7281538,2.11346154 C41.5670769,2.29976923 41.8470769,2.76607692 42.0333846,3.885 C42.2202308,6.12284615 42.1265385,18.0583846 42.0333846,20.0162308 C43.7117692,20.3893846 45.4833077,20.6693846 47.2553846,20.6693846 C52.1973846,20.6693846 55.1804615,17.5920769 55.1804615,12.7432308 C55.1804615,8.92015385 52.7568462,6.12284615 49.5863846,6.12284615 L49.5863846,6.12284615 Z M47.4416923,19.6430769 C47.0685385,19.6430769 46.6022308,19.6430769 46.3227692,19.5504615 C46.2296154,18.2446923 46.1359231,12.7432308 46.2296154,7.89492308 C46.7885385,7.70807692 47.1616923,7.61492308 47.628,7.61492308 C49.679,7.61492308 50.7984615,10.0390769 50.7984615,13.0232308 C50.7984615,16.7526154 49.4000769,19.6430769 47.4416923,19.6430769 L47.4416923,19.6430769 Z" id="Fill-2" sketch:type="MSShapeGroup"></path>
                <path d="M16.5770769,0.715076923 L0.166384615,0.715076923 L0.166384615,1.554 L1.099,1.64715385 C2.31107692,1.834 2.77738462,2.57976923 2.96369231,4.35130769 C3.24369231,7.70807692 3.15053846,13.769 2.96369231,16.66 C2.77738462,18.431 2.31107692,19.271 1.099,19.3636154 L0.166384615,19.5504615 L0.166384615,20.2962308 L10.703,20.2962308 L10.703,19.5504615 L9.58407692,19.3636154 C8.372,19.271 7.90569231,18.431 7.71938462,16.66 C7.62569231,15.4473846 7.53253846,13.489 7.53253846,11.0648462 L9.77092308,11.158 C11.1698462,11.158 11.8219231,12.2769231 12.1019231,13.8626923 L12.9408462,13.8626923 L12.9408462,7.24230769 L12.1019231,7.24230769 C11.8219231,8.82753846 11.1698462,9.94592308 9.77092308,9.94592308 L7.53253846,10.0390769 C7.53253846,6.86915385 7.62569231,3.885 7.71938462,2.11346154 L10.9824615,2.11346154 C13.5003077,2.11346154 14.8060769,3.69869231 15.7381538,6.496 L16.6707692,6.216 L16.5770769,0.715076923" id="Fill-3" sketch:type="MSShapeGroup"></path>
                <path d="M21.8922308,5.93653846 C26.5547692,5.93653846 28.8857692,9.107 28.8857692,13.3026923 C28.8857692,17.3120769 26.2753077,20.6693846 21.6127692,20.6693846 C16.9502308,20.6693846 14.6192308,17.4989231 14.6192308,13.3026923 C14.6192308,9.29330769 17.2302308,5.93653846 21.8922308,5.93653846 L21.8922308,5.93653846 Z M21.6127692,6.86915385 C19.5612308,6.86915385 19.0017692,9.66646154 19.0017692,13.3026923 C19.0017692,16.8457692 19.9343846,19.7367692 21.7996154,19.7367692 C23.9437692,19.7367692 24.5032308,16.9394615 24.5032308,13.3026923 C24.5032308,9.75961538 23.5711538,6.86915385 21.6127692,6.86915385 L21.6127692,6.86915385 Z" id="Fill-4" sketch:type="MSShapeGroup"></path>
                <path d="M56.3930769,13.3958462 C56.3930769,9.57330769 58.8172308,5.93653846 63.5734615,5.93653846 C67.4891538,5.93653846 69.3543846,8.82753846 69.3543846,12.6500769 L60.6819231,12.6500769 C60.5893077,16.1005385 62.2676923,18.6178462 65.6244615,18.6178462 C67.1165385,18.6178462 67.8623077,18.2446923 68.7949231,17.5920769 L69.1675385,18.0583846 C68.2349231,19.3636154 66.1839231,20.6693846 63.5734615,20.6693846 C59.3772308,20.6693846 56.3930769,17.6852308 56.3930769,13.3958462 L56.3930769,13.3958462 Z M60.6819231,11.6248462 L65.065,11.5311538 C65.065,9.66646154 64.7855385,6.86915385 63.2003077,6.86915385 C61.6150769,6.86915385 60.7756154,9.47961538 60.6819231,11.6248462 L60.6819231,11.6248462 Z" id="Fill-5" sketch:type="MSShapeGroup"></path>
                <path d="M80.4499231,6.68284615 C79.331,6.216 77.8394615,5.93653846 76.1610769,5.93653846 C72.7111538,5.93653846 70.5664615,7.98753846 70.5664615,10.4122308 C70.5664615,12.8369231 72.1511538,13.8626923 74.3895385,14.6084615 C76.72,15.4473846 77.3731538,16.1005385 77.3731538,17.2189231 C77.3731538,18.3383846 76.5342308,19.3636154 75.0421538,19.3636154 C73.2706154,19.3636154 71.9648462,18.3383846 70.9390769,15.5405385 L70.2864615,15.7273846 L70.3801538,19.8299231 C71.4990769,20.2962308 73.5500769,20.6693846 75.3216154,20.6693846 C78.9583846,20.6693846 81.2899231,18.8041538 81.2899231,15.9142308 C81.2899231,13.9553077 80.2636154,12.8369231 77.8394615,11.9043077 C75.2284615,10.8785385 74.2963846,10.2259231 74.2963846,9.01330769 C74.2963846,7.80123077 75.1358462,6.96176923 76.2542308,6.96176923 C77.9326154,6.96176923 79.0515385,7.98753846 79.891,10.5053846 L80.5436154,10.3190769 L80.4499231,6.68284615" id="Fill-6" sketch:type="MSShapeGroup"></path>
                <path d="M41.0076154,6.30969231 C39.4229231,5.37707692 36.6250769,5.84284615 35.133,9.20015385 L35.2266923,5.93653846 L28.9789231,7.14861538 L28.9789231,7.70807692 L29.6315385,7.80123077 C30.471,7.89492308 30.8436154,8.36069231 30.9373077,9.57330769 C31.1236154,11.8111538 31.0304615,15.7273846 30.9373077,17.6852308 C30.8436154,18.8041538 30.471,19.3636154 29.6315385,19.4573077 L28.9789231,19.5504615 L28.9789231,20.2962308 L37.6508462,20.2962308 L37.6508462,19.5504615 L36.5319231,19.4573077 C35.5993077,19.3636154 35.3198462,18.8041538 35.2266923,17.6852308 C35.0398462,15.9142308 35.0398462,12.3706154 35.133,10.1327692 C35.5993077,9.47961538 37.6508462,8.92015385 39.5155385,10.1327692 L41.0076154,6.30969231" id="Fill-7" sketch:type="MSShapeGroup"></path>
            </g>
        </g>
    </g>
</svg>