<?xml version="1.0" encoding="UTF-8" standalone="no"?>
<svg width="170px" height="25px" viewBox="0 0 170 25" version="1.1" xmlns="http://www.w3.org/2000/svg" xmlns:xlink="http://www.w3.org/1999/xlink" xmlns:sketch="http://www.bohemiancoding.com/sketch/ns">
    <!-- Generator: Sketch 3.3.1 (12002) - http://www.bohemiancoding.com/sketch -->
    <title>The_New_York_Times Copy</title>
    <desc>Created with Sketch.</desc>
    <defs>
        <path id="path-1" d="M0.0174334792,0.011661473 L169.614678,0.011661473 L169.614678,23.9060196 L0.0174334792,23.9060196 L0.0174334792,0.011661473 Z"></path>
        <path id="path-3" d="M0.0174334792,0.011661473 L169.614678,0.011661473 L169.614678,23.9060196 L0.0174334792,23.9060196"></path>
    </defs>
    <g id="Page-1" stroke="none" stroke-width="1" fill="none" fill-rule="evenodd" sketch:type="MSPage">
        <g id="press-copy-2" sketch:type="MSArtboardGroup" transform="translate(-253.000000, -913.000000)">
            <g id="The_New_York_Times-Copy" sketch:type="MSLayerGroup" transform="translate(253.000000, 913.333637)">
                <g id="Group-3" transform="translate(0.000000, -0.000000)">
                    <mask id="mask-2" sketch:name="Clip 2" fill="white">
                        <use xlink:href="#path-1"></use>
                    </mask>
                    <g id="Clip-2"></g>
                    <path d="M10.4850755,0.0274044615 C10.9598473,0.0693857641 11.7048379,0.303781371 12.266196,0.797353214 C12.862421,1.3783861 12.9984021,2.25999346 12.7894909,3.06142819 C12.6035338,3.77540187 12.3954943,4.14652825 11.6693899,4.64010009 C10.9354404,5.13687884 10.0480763,5.09489754 10.0480763,5.09489754 L10.0480763,8.18839478 L11.5479366,9.40643563 L10.0477857,10.6206865 L10.0480763,14.8348513 C10.0480763,14.8348513 11.5508422,13.9704446 12.4829522,12.0349316 C12.4829522,12.0349316 12.5213059,11.9296868 12.6090544,11.7302757 C12.6918634,12.2486281 12.6445025,13.2984522 12.0598998,14.6456439 C11.6194139,15.6604836 10.8183455,16.6368404 9.81359601,17.1933842 C8.03305667,18.1840263 6.69794272,18.2784843 5.26636351,17.9808252 C3.59013449,17.6344794 2.06790119,16.689317 1.02886583,15.0409678 C0.298693611,13.882692 -0.0281841247,12.5320019 0.00174334792,11.0792739 C0.0604360613,8.22687764 2.17511709,5.76688992 4.61609474,4.84971507 C4.91333556,4.73805646 5.03159266,4.66458918 5.4531923,4.62581479 C5.25880901,4.75904712 5.03420768,4.93047077 4.75846815,5.11238975 C3.9725088,5.63045068 3.29899538,6.66278258 3.01163354,7.45722042 L7.74947207,5.33629003 L7.74947207,11.9827465 L3.92863454,13.9036827 C4.36418096,14.5092047 5.68680092,15.4263795 6.81823372,15.5555303 C8.74318039,15.7692268 9.87257928,14.9258108 9.87257928,14.9258108 L9.87228872,10.6206865 L8.38056402,9.40643563 L9.8731604,8.19218476 L9.8731604,5.09489754 C9.05959804,5.00043961 8.07111976,4.73105958 7.49319993,4.58733193 C6.64360837,4.37742541 3.81037744,3.57948913 3.36495205,3.51301873 C2.92010777,3.44654833 2.37095317,3.46753899 2.03884539,3.76519808 C1.70644706,4.06606409 1.500732,4.59432881 1.64223374,5.07040844 C1.72213719,5.33978847 1.90693207,5.49721835 2.04669046,5.6511498 C2.04669046,5.6511498 1.88310631,5.63715603 1.58673717,5.45873549 C1.05181991,5.13687884 0.645038731,4.50686776 0.595934431,3.72992213 C0.533173906,2.711584 0.950996291,1.79470069 1.78809385,1.17897492 C2.51536049,0.709892167 3.33793015,0.408734627 4.29444705,0.545465398 C5.6897065,0.744876585 7.56583942,1.53581599 9.23683841,1.93813681 C9.8842016,2.09585823 10.3854141,2.14833486 10.8404279,1.88216174 C11.0525353,1.72823029 11.4253212,1.33261482 11.1205258,0.807848539 C10.7648829,0.19183123 10.0829433,0.205824998 9.50531399,0.0973732992 C10.0024587,-0.00757995743 10.1114179,-0.00757995743 10.4850755,0.0274044615 L10.4850755,0.0274044615 Z M4.85144671,13.2421856 L4.85144671,6.8237109 L2.92766228,7.68461915 C2.92708116,7.68461915 2.4372004,8.78691988 2.522915,10.3862909 C2.59061501,11.6358177 3.28679195,13.130527 3.8217092,13.7567481 L4.85144671,13.2421856 L4.85144671,13.2421856 Z" id="Fill-1" fill="#1A1918" sketch:type="MSShapeGroup" mask="url(#mask-2)"></path>
                </g>
                <path d="M28.861706,6.51205804 C28.861706,6.51205804 27.4100783,7.39424847 26.4338034,7.97848826 C25.4578191,8.55952115 24.1482743,9.20002756 24.1482743,9.20002756 L24.1482743,15.3243416 L23.2751475,16.028403 L23.3907896,16.1642592 L24.2427056,15.4753577 L26.912643,17.8971541 L31.552854,14.2083387 L31.4430231,14.0751063 L28.8785583,16.0942904 L26.7708507,14.1138807 L26.7711412,13.375418 L31.0048617,10.2498517 L28.861706,6.51205804 L28.861706,6.51205804 Z M28.9233043,11.5693473 L26.7708507,13.1515177 L26.7708507,7.88752877 L28.9233043,11.5693473 L28.9233043,11.5693473 Z" id="Fill-4" fill="#1A1918" sketch:type="MSShapeGroup"></path>
                <path d="M16.6986581,20.1997119 C17.3079582,20.3501449 18.3827322,20.4343991 19.6786208,19.7828143 C21.1133961,19.0621352 21.8348516,17.5327331 21.8252632,15.9651396 L21.8859898,13.7427543 L21.8862804,8.88837469 L22.8035719,8.18518787 L22.6966466,8.0484571 L21.7938829,8.73094481 L19.7105822,6.40739632 L17.0380298,8.70995416 L17.0380298,0.884814261 L13.6986469,3.47453587 C13.847122,3.5689938 14.3204409,3.65674638 14.3343877,4.32494878 L14.3343877,15.2864418 L12.920242,16.3397644 L13.0169978,16.4866989 L13.6998091,15.9753433 L15.6015111,17.7496365 L18.5951301,15.3599091 L18.4864614,15.2231783 L17.7827299,15.782929 L17.0380298,15.0409678 L17.0452938,8.93414597 L17.9175488,8.18839478 L19.2180864,9.80904798 C19.2180864,9.80904798 19.2154714,13.763745 19.2189581,15.0762438 C19.2093696,16.4759121 19.2047207,18.2222177 18.4716429,19.0656337 C17.7388557,19.9128397 17.4451015,19.9793101 16.6986581,20.1997119" id="Fill-5" fill="#1A1918" sketch:type="MSShapeGroup"></path>
                <path d="M37.4747164,19.6469581 C36.2787797,19.5102273 35.7764049,18.7825514 35.7900612,18.2085154 C35.7987779,17.8405959 36.1314668,17.1199169 36.8587334,17.0219605 C37.585419,16.9205057 38.3283757,17.263353 38.9556904,18.0018158 L41.7180252,14.939513 L41.5849497,14.820566 L40.8428646,15.6534867 C40.0891571,14.7925785 39.0196132,14.2500284 37.9541371,14.0928901 L37.9541371,4.76225402 L45.129176,17.8758719 C45.129176,17.8758719 45.1980382,18.0263049 45.4929546,18.0263049 C45.7469023,18.0263049 45.6858851,17.8196053 45.6858851,17.8196053 L45.6847229,4.62231635 C46.2675822,4.59782725 47.1578519,4.2759706 47.5899116,3.83166848 C48.9715148,2.40721956 48.4072512,0.853328284 48.2555799,0.702895283 C48.1710276,1.38188455 47.6506382,2.06437225 46.7821604,2.06757916 C45.6425919,2.0710776 44.9478678,1.22766157 44.9478678,1.22766157 L42.1875669,4.3844223 L42.3191897,4.50336932 L43.1100885,3.59698134 C44.0759033,4.48937555 44.7810875,4.57333816 45.5103881,4.62231635 L45.5098069,12.2798226 L40.1876563,2.57864321 C39.7062017,1.77720848 38.9719617,1.07373012 37.8219332,1.0632348 C36.4998943,1.05623791 35.553547,2.22500904 35.4405199,3.23285184 C35.3126744,4.37042853 35.4541761,4.63281167 35.4541761,4.63281167 C35.4541761,4.63281167 35.64885,3.36608417 36.4301604,3.3765795 C37.131858,3.38707482 37.4970893,4.03428657 37.77864,4.52086153 L37.77864,7.33098498 C37.0548601,7.37996316 35.1705915,7.46421731 35.0555306,9.43092472 C35.0471044,10.1623906 35.4997937,10.9288409 35.8964054,11.1877256 C36.4063347,11.523576 36.8041085,11.5165792 36.8041085,11.5165792 C36.8041085,11.5165792 36.1930651,11.1912241 36.3761166,10.5472192 C36.5397008,9.96997631 37.7362186,9.87551838 37.7795117,10.1169109 L37.7792211,14.0821032 C37.2036258,14.0751063 35.3600353,14.1383698 34.5284584,15.7237471 C34.0272459,16.6826117 34.0565922,17.753718 34.5923811,18.5090899 C35.0290898,19.1253987 35.9277857,19.9128397 37.4747164,19.6469581" id="Fill-6" fill="#1A1918" sketch:type="MSShapeGroup"></path>
                <path d="M52.6287682,6.51205804 C52.6287682,6.51205804 51.1768499,7.39424847 50.2005751,7.97848826 C49.2243003,8.55952115 47.9153365,9.20002756 47.9153365,9.20002756 L47.9153365,15.3243416 L47.0419192,16.028403 L47.1578519,16.1642592 L48.0094773,15.4753577 L50.6794147,17.8971541 L55.3199163,14.2083387 L55.2097948,14.0751063 L52.6456206,16.0942904 L50.5376224,14.1138807 L50.5379129,13.375418 L54.7719239,10.2498517 L52.6287682,6.51205804 L52.6287682,6.51205804 Z M52.690657,11.5693473 L50.5376224,13.1515177 L50.5376224,7.88752877 L52.690657,11.5693473 L52.690657,11.5693473 Z" id="Fill-7" fill="#1A1918" sketch:type="MSShapeGroup"></path>
                <path d="M59.1148941,17.9426338 L56.8398251,16.0453122 L55.8405962,16.7735712 L55.7389009,16.6301351 L56.7555633,15.8846754 L56.7555633,10.5822036 C56.804377,8.39859283 54.7620449,8.94085132 54.8727475,6.62429972 C54.9215613,5.60596159 55.9039378,4.8357213 56.3996297,4.58062658 C56.9304792,4.31095502 57.5049123,4.31095502 57.5049123,4.31095502 C57.5049123,4.31095502 56.573674,4.89519481 56.7997281,5.7351124 C57.1481071,7.03011898 59.3546045,7.14556756 59.3961543,8.87088248 L59.3961543,14.8870364 L61.0256035,16.1963283 L61.4538859,15.8601863 L61.4538859,9.34696212 L60.5752386,8.47206011 L62.8372325,6.46307985 L64.9033903,8.30063645 L64.1151065,9.15804625 L64.1151065,14.9293092 L66.0502227,16.5321787 L66.3942434,16.3111938 L66.3942434,9.36445433 L65.5141432,8.5385305 L67.7804955,6.45987295 L69.8992444,8.21667385 L70.7453492,7.46421731 L70.8598291,7.5971581 L68.9549309,9.27699328 L68.9549309,14.939513 L64.0808207,17.9563361 L61.5878332,15.9753433 L59.1148941,17.9426338" id="Fill-8" fill="#1A1918" sketch:type="MSShapeGroup"></path>
                <path d="M158.821611,6.51205804 C158.821611,6.51205804 157.369402,7.39424847 156.393708,7.97848826 C155.417143,8.55952115 154.107888,9.20002756 154.107888,9.20002756 L154.107888,15.3243416 L153.234471,16.028403 L153.350985,16.1642592 L154.20261,15.4753577 L156.872838,17.8971541 L161.512759,14.2083387 L161.403218,14.0751063 L158.838463,16.0942904 L156.730465,14.1138807 L156.730465,13.375418 L160.965057,10.2498517 L158.821611,6.51205804 L158.821611,6.51205804 Z M158.8835,11.5693473 L156.730465,13.1515177 L156.730465,7.88752877 L158.8835,11.5693473 L158.8835,11.5693473 Z" id="Fill-9" fill="#1A1918" sketch:type="MSShapeGroup"></path>
                <path d="M137.036735,9.07408365 L137.150343,9.20702444 L138.024342,8.45106946 L139.321683,9.92449656 L139.321683,14.9849928 L138.691753,15.5625272 L140.713165,17.8548813 L142.787168,15.8039197 L141.934962,14.9185224 L141.934962,8.7974152 L142.450702,8.38459906 L143.884896,10.0641427 L143.884896,15.1109367 L143.345621,15.6502798 L145.249066,17.7991977 L147.284715,15.7549415 L146.536819,14.9675005 L146.517352,8.8219043 L147.067378,8.37410373 L148.562589,10.0259514 L148.562589,15.0447578 L148.070675,15.5380381 L150.172281,17.837389 L152.993889,15.2231783 L152.874179,15.093736 L152.189334,15.726954 L151.138386,14.5581828 L151.138386,8.82890118 L152.153014,8.05545399 L152.047251,7.91551631 L151.031461,8.6889635 L149.111744,6.52955025 L146.366552,8.70645571 L144.443639,6.60680751 L141.792298,8.6889635 L139.852242,6.61730283 L137.036735,9.07408365" id="Fill-10" fill="#1A1918" sketch:type="MSShapeGroup"></path>
                <path d="M131.292113,8.91636223 L131.406012,9.04959456 L132.14432,8.40908815 L133.299288,9.78076891 L133.299288,15.5660256 L132.484854,16.2799993 L132.598462,16.4132317 L133.453574,15.6814742 L135.316051,17.837389 L138.00778,15.4263795 L137.894172,15.2931472 L137.10153,15.9931271 L135.988692,14.7051174 L135.988692,9.04959456 L136.927195,8.23416606 L136.813877,8.10122527 L135.922155,8.87088248 L133.96205,6.57881997 L131.292113,8.91636223" id="Fill-11" fill="#1A1918" sketch:type="MSShapeGroup"></path>
                <g id="Group-16" transform="translate(0.000000, -0.000000)">
                    <mask id="mask-4" sketch:name="Clip 13" fill="white">
                        <use xlink:href="#path-3"></use>
                    </mask>
                    <g id="Clip-13"></g>
                    <path d="M132.067903,4.1255376 L134.094254,2.26378344 L135.742299,4.09755006 L133.70665,5.95230734 L132.067903,4.1255376" id="Fill-12" fill="#1A1918" sketch:type="MSShapeGroup" mask="url(#mask-4)"></path>
                    <path d="M129.34276,0.0274044615 C129.817822,0.0693857641 130.562813,0.303781371 131.124171,0.797353214 C131.720396,1.3783861 131.856086,2.25999346 131.647175,3.06142819 C131.461218,3.77540187 131.253469,4.14652825 130.526493,4.64010009 C129.793415,5.13687884 128.90576,5.09489754 128.90576,5.09489754 L128.90576,8.18839478 L130.406202,9.40643563 L128.90576,10.6206865 L128.90576,14.8348513 C128.90576,14.8348513 130.408526,13.9704446 131.340927,12.0349316 C131.340927,12.0349316 131.379571,11.9296868 131.466157,11.7302757 C131.549257,12.2486281 131.502477,13.2984522 130.917584,14.6456439 C130.477098,15.6604836 129.675739,16.6368404 128.67128,17.1933842 C126.891031,18.1840263 125.555917,18.2784843 124.124629,17.9808252 C122.448109,17.6344794 120.926166,16.689317 119.887131,15.0409678 C119.156668,13.882692 118.829209,12.5320019 118.860009,11.0792739 C118.918411,8.22687764 121.032801,5.76688992 123.47436,4.84971507 C123.77102,4.73805646 123.888986,4.66458918 124.311167,4.62581479 C124.116784,4.75904712 123.891892,4.93047077 123.616733,5.11238975 C122.830774,5.63045068 122.15697,6.66278258 121.869318,7.45722042 L126.606866,5.33629003 L126.606866,11.9827465 L122.786319,13.9036827 C123.222156,14.5092047 124.544485,15.4263795 125.676789,15.5555303 C127.601155,15.7692268 128.730263,14.9258108 128.730263,14.9258108 L128.730263,10.6206865 L127.23912,9.40643563 L128.730263,8.19218476 L128.730263,5.09489754 C127.917282,5.00043961 126.929094,4.73105958 126.351465,4.58733193 C125.501292,4.37742541 122.667771,3.57948913 122.222927,3.51301873 C121.778082,3.44654833 121.228637,3.46753899 120.896529,3.76519808 C120.564131,4.06606409 120.358707,4.59432881 120.499918,5.07040844 C120.580112,5.33978847 120.764326,5.49721835 120.904665,5.6511498 C120.904665,5.6511498 120.7405,5.63715603 120.444421,5.45873549 C119.909213,5.13687884 119.502432,4.50686776 119.453619,3.72992213 C119.391149,2.711584 119.80868,1.79470069 120.645778,1.17897492 C121.373335,0.709892167 122.195614,0.408734627 123.152422,0.545465398 C124.547391,0.744876585 126.423523,1.53581599 128.094813,1.93813681 C128.742176,2.09585823 129.243389,2.14833486 129.697821,1.88216174 C129.910219,1.72823029 130.283005,1.33261482 129.97821,0.807848539 C129.622567,0.19183123 128.940918,0.205824998 128.363289,0.0973732992 C128.860433,-0.00757995743 128.969393,-0.00757995743 129.34276,0.0274044615 L129.34276,0.0274044615 Z M123.709712,13.2421856 L123.709712,6.8237109 L121.785927,7.68461915 C121.785927,7.68461915 121.295175,8.78691988 121.380599,10.3862909 C121.448299,11.6358177 122.144476,13.130527 122.679684,13.7567481 L123.709712,13.2421856 L123.709712,13.2421856 Z" id="Fill-14" fill="#1A1918" sketch:type="MSShapeGroup" mask="url(#mask-4)"></path>
                    <path d="M163.985117,18.6880935 C163.677706,18.7784699 162.34114,18.4534064 162.020654,17.0639418 C161.708304,15.7094618 162.645354,14.7925785 164.061243,13.3509289 L162.389953,11.8177367 L162.389953,8.89187313 C162.389953,8.89187313 163.618142,8.27614736 164.58047,7.67412382 C165.543089,7.06860184 166.527499,6.41410167 166.527499,6.41410167 C166.527499,6.41410167 167.245468,7.32427963 168.056996,7.25081235 C169.327606,7.13857067 169.268623,6.13422631 169.231722,5.89633227 C169.448479,6.28465932 170.029013,7.43972821 167.796656,10.0221614 L169.614678,11.4955885 L169.614678,15.2966456 C169.614678,15.2966456 167.502612,16.3989464 165.505026,17.8618781 C165.505026,17.8618781 164.389864,16.4622098 163.421725,17.1307038 C162.767969,17.5817112 163.066953,18.3446631 163.985117,18.6880935 L163.985117,18.6880935 Z M162.413779,15.75844 C162.413779,15.75844 163.373492,14.1663574 165.022118,14.5092047 C166.603625,14.8380582 167.152489,16.5143949 167.152489,16.5143949 L167.152489,12.6544474 L166.049241,11.6917928 C164.837614,12.9136236 162.681092,14.6803368 162.413779,15.75844 L162.413779,15.75844 Z M164.860858,7.69511447 L164.860858,10.7364266 L165.869966,11.6183255 C165.869966,11.6183255 168.061645,9.85773463 168.857193,8.22687764 C168.857193,8.22687764 167.872492,9.56736395 166.546385,9.15804625 C165.436454,8.81869739 164.860858,7.69511447 164.860858,7.69511447 L164.860858,7.69511447 Z" id="Fill-15" fill="#1A1918" sketch:type="MSShapeGroup" mask="url(#mask-4)"></path>
                </g>
                <path d="M95.7469923,9.03880769 L96.5657848,8.28314424 L96.6831702,8.41608504 L95.8858791,9.15804625 L95.8858791,15.2021877 C95.8858791,15.2021877 94.3712003,16.0071209 93.3141503,16.605646 C92.257972,17.2041711 91.1291543,17.9073579 91.1291543,17.9073579 L88.3502577,15.5590288 L87.6154365,16.1995352 L87.4965983,16.0663028 L88.269192,15.3911036 L88.269192,8.89187313 L88.2793615,8.89187313 C88.2793615,8.89187313 89.5900686,8.29684648 90.6956417,7.67062538 C91.6847011,7.11058314 92.7914365,6.46307985 92.7914365,6.46307985 L95.7469923,9.03880769 L95.7469923,9.03880769 Z M90.9057152,14.365477 L93.2540048,16.4969027 L93.2540048,9.97318321 L90.9057152,7.79307084 L90.9057152,14.365477 L90.9057152,14.365477 Z" id="Fill-17" fill="#1A1918" sketch:type="MSShapeGroup"></path>
                <path d="M101.210935,8.42658036 L102.975785,6.61730283 C102.975785,6.61730283 103.218691,6.83070779 103.445617,6.94265793 C103.574915,7.00562988 104.108961,7.28229833 104.599423,7.01262677 C104.864993,6.86569221 104.903056,6.82720935 105.194195,6.5505409 C105.253759,7.95749761 104.580536,8.9478482 103.740824,9.35745744 C103.396803,9.52538265 102.392925,9.84723931 101.342558,8.5630196 L101.342558,15.0654569 L102.459754,16.056099 L103.392154,15.2823603 L103.499951,15.4190911 L100.579262,17.865085 L98.3567842,15.8356972 L97.5571686,16.5913607 L97.426127,16.451423 L98.644146,15.3491222 L98.6543156,9.73528917 L97.7201716,8.49305076 L96.9170694,9.203526 L96.8008462,9.07408365 L99.6302998,6.5228449 L101.210935,8.42658036" id="Fill-18" fill="#1A1918" sketch:type="MSShapeGroup"></path>
                <path d="M108.652997,11.135249 L111.916544,6.37212036 C111.916544,6.37212036 112.346861,6.88318442 113.0965,7.0825956 C114.115778,7.34876872 115.005466,6.36162504 115.005466,6.36162504 C114.835199,7.63564096 114.191613,9.080789 112.862601,9.30148237 C111.691943,9.49739512 110.602932,8.58401025 110.602932,8.58401025 L110.391115,8.91286378 L114.922076,15.7794306 L115.828327,14.9817859 L115.945131,15.1144351 L112.83587,17.8405959 L108.652997,11.135249" id="Fill-19" fill="#1A1918" sketch:type="MSShapeGroup"></path>
                <path d="M105.956909,4.77624779 C105.956909,3.74741434 105.536763,3.11419635 104.988189,3.15938456 L108.547815,0.650418654 L108.547815,14.8523435 L108.548396,14.8523435 L109.488351,15.8461925 L110.200509,15.2266768 L110.312374,15.3599091 L107.443695,17.872665 L105.500443,16.0418137 L104.722329,16.7280914 L104.599423,16.5948591 L105.956909,15.4088873 L105.956909,4.77624779" id="Fill-20" fill="#1A1918" sketch:type="MSShapeGroup"></path>
                <path d="M76.1967982,4.54185218 C76.1965076,3.58298757 75.8083222,3.04772596 75.1795547,3.03344065 C74.2747571,3.01245 74.0603253,4.29346281 74.0603253,4.29346281 C74.0603253,4.29346281 73.8955789,3.30661066 74.7187297,2.410718 C75.1815886,1.91014927 76.0451269,1.20667091 77.3953499,1.53231755 C78.7897377,1.87166641 79.1857682,2.95647493 79.1857682,3.91533955 L79.1857682,17.1266223 C79.1857682,17.1266223 79.7125498,17.1898858 80.074004,17.2706415 C80.4932791,17.357811 80.8904719,17.4700526 80.8904719,17.4700526 L80.8904719,1.53931443 L81.063935,1.53931443 L81.063935,3.68794082 L83.9227351,1.3783861 L86.0173676,3.24713715 L86.993933,2.40022267 L87.1052167,2.53316346 L86.0841959,3.41506236 L86.0841959,15.699258 C86.0336388,16.5004012 85.9049217,17.3158297 85.1506331,17.7849124 C83.4683024,18.7857583 81.4387548,17.6312725 79.6311936,17.3685978 C78.2891063,17.1688951 76.1825608,16.9138004 75.6537453,18.1487504 C75.4811539,18.5548612 75.4930667,19.1810823 76.1020763,19.5904 C77.3235821,20.40991 82.7628276,18.2155123 84.6285004,19.0866243 C86.3294269,19.8807706 86.3230346,21.1375859 86.0603702,22.0019926 C85.6181409,23.6223542 83.5792955,23.9060196 83.5792955,23.9060196 C83.5792955,23.9060196 84.5764905,23.3246951 84.2923248,22.3623321 C84.1482081,21.8760487 83.8190059,21.7393179 82.7514958,21.8585565 C80.4200585,22.124438 77.6333169,23.2579332 75.7606706,22.4710753 C74.795437,22.068463 74.1129163,20.857419 74.1791635,19.6679488 C74.2271056,17.9563361 76.1967982,17.2808452 76.1967982,17.2808452 L76.1962171,10.9498316 C76.1398488,10.6976522 75.0889006,10.7641226 74.8593598,11.2297069 C74.5098185,11.9334768 75.2934534,12.2553335 75.2934534,12.2553335 C75.2934534,12.2553335 74.6437657,12.3532898 74.0992601,11.7232788 C73.8342712,11.4151243 73.2804677,10.3373127 74.0004704,9.33996523 C74.592337,8.51753985 75.3018796,8.37410373 76.1967982,8.27614736 L76.1967982,4.54185218 L76.1967982,4.54185218 Z M81.063935,17.5190308 C81.063935,17.5190308 81.8934781,17.7394327 82.4981293,17.2423624 C83.1701899,16.6858186 83.0995843,15.9059576 83.0995843,15.9059576 L83.0995843,10.984816 C83.0995843,10.984816 82.709946,10.4807488 82.090767,10.4807488 C81.4718784,10.4807488 81.063935,11.0023082 81.063935,11.0023082 L81.063935,17.5190308 L81.063935,17.5190308 Z M83.0995843,4.60132569 L81.7264072,3.39057326 L81.063935,3.91533955 L81.063935,8.47555855 C81.063935,8.47555855 81.4718784,8.99332795 82.090767,8.99332795 C82.709946,8.99332795 83.0995843,8.4965492 83.0995843,8.4965492 L83.0995843,4.60132569 L83.0995843,4.60132569 Z M83.0995843,8.76942767 C83.0995843,8.76942767 82.7064593,9.21751977 82.0875708,9.21751977 C81.4686823,9.21751977 81.063935,8.76592923 81.063935,8.76592923 L81.063935,10.7119375 C81.063935,10.7119375 81.4686823,10.260347 82.0875708,10.260347 C82.7064593,10.260347 83.0995843,10.6871569 83.0995843,10.6871569 L83.0995843,8.76942767 L83.0995843,8.76942767 Z" id="Fill-21" fill="#1A1918" sketch:type="MSShapeGroup"></path>
            </g>
        </g>
    </g>
</svg>