<?xml version="1.0" encoding="utf-8"?>
<!-- Generator: Adobe Illustrator 18.1.1, SVG Export Plug-In . SVG Version: 6.00 Build 0)  -->
<!DOCTYPE svg PUBLIC "-//W3C//DTD SVG 1.1//EN" "http://www.w3.org/Graphics/SVG/1.1/DTD/svg11.dtd">
<svg version="1.1" id="Layer_1" xmlns:sketch="http://www.bohemiancoding.com/sketch/ns"
	 xmlns="http://www.w3.org/2000/svg" xmlns:xlink="http://www.w3.org/1999/xlink" x="0px" y="0px" viewBox="26 48 171 25"
	 enable-background="new 26 48 171 25" xml:space="preserve">
<title>tc-techcrunch copy</title>
<desc>Created with Sketch.</desc>
<g id="Page-1" sketch:type="MSPage">
	<g id="press-copy-2" transform="translate(-876.000000, -913.000000)" sketch:type="MSArtboardGroup">
		<g id="tc-techcrunch-copy" transform="translate(876.000000, 913.286646)" sketch:type="MSLayerGroup">
			<path id="Fill-1" sketch:type="MSShapeGroup" d="M90,57.4V68h-3.9V57.4h-3.9V54h11.7v3.4H90z"/>
			<g id="Group-26" sketch:type="MSShapeGroup">
				<path id="Fill-2" d="M98.2,59.9c-0.8,0-1.3,0.6-1.4,1.6h3C99.6,60.5,99.3,59.9,98.2,59.9 M103,63.8h-6.2
					c0.1,1.2,0.8,1.7,1.8,1.7c0.9,0,1.7-0.2,2.7-0.7l1.4,2.3c-1.3,0.8-2.6,1.2-4.3,1.2c-3.2,0-4.9-2.2-4.9-5.5c0-3.6,2-5.5,4.8-5.5
					c2.9,0,4.7,1.9,4.7,5.8C103,63.4,103,63.6,103,63.8"/>
				<path id="Fill-4" d="M109.7,68.2c-3.1,0-4.9-2-4.9-5.5c0-3.2,1.6-5.4,5-5.4c2,0,3.1,0.9,4,2.4l-2.5,1.9
					c-0.5-0.9-0.8-1.4-1.6-1.4c-0.9,0-1.4,0.9-1.4,2.6c0,1.7,0.5,2.5,1.5,2.5c0.7,0,1.2-0.4,1.8-1.4l2.3,1.8
					C112.7,67.5,111.5,68.2,109.7,68.2"/>
				<path id="Fill-6" d="M121.9,68v-6c0-1.4-0.5-1.7-1.2-1.7c-0.8,0-1.2,0.4-1.2,1.7v6h-3.6V54.9l3.6-1.4v4.8
					c0.7-0.5,1.4-0.9,2.6-0.9c2.3,0,3.4,1.5,3.4,4.3V68H121.9z"/>
				<path id="Fill-8" d="M134.2,68.2c-4.2,0-6.4-3.1-6.4-7.2c0-4.5,2.6-7.2,6.4-7.2c3.4,0,4.8,1.5,5.8,4.1l-3.5,1.4
					c-0.5-1.3-1-2.1-2.3-2.1c-1.6,0-2.3,1.6-2.3,3.8c0,2.1,0.7,3.8,2.4,3.8c1.2,0,1.7-0.7,2.5-2l3.3,1.7
					C139.1,66.4,137.5,68.2,134.2,68.2"/>
				<path id="Fill-10" d="M148.9,61.5c-0.5-0.5-1-0.9-1.7-0.9c-0.9,0-1.4,0.4-1.4,1.7V68h-3.6V57.5h3.6v0.8c0.6-0.6,1.3-1,2.2-1
					c0.8,0,1.3,0.2,1.7,0.4L148.9,61.5z"/>
				<path id="Fill-12" d="M157.4,68v-0.7c-0.6,0.5-1.4,0.9-2.6,0.9c-2.3,0-3.4-1.5-3.4-4.3v-6.4h3.6v6c0,1.4,0.5,1.7,1.2,1.7
					c0.7,0,1.2-0.4,1.2-1.7v-6h3.6V68H157.4z"/>
				<path id="Fill-14" d="M169.7,68v-6c0-1.4-0.5-1.7-1.2-1.7c-0.8,0-1.2,0.4-1.2,1.7v6h-3.6V57.5h3.6v0.7c0.7-0.5,1.4-0.9,2.6-0.9
					c2.3,0,3.4,1.5,3.4,4.3V68H169.7z"/>
				<path id="Fill-16" d="M180.3,68.2c-3.1,0-4.9-2-4.9-5.5c0-3.2,1.6-5.4,5-5.4c2,0,3.1,0.9,4,2.4l-2.5,1.9
					c-0.5-0.9-0.8-1.4-1.6-1.4c-0.9,0-1.4,0.9-1.4,2.6c0,1.7,0.5,2.5,1.5,2.5c0.7,0,1.2-0.4,1.8-1.4l2.3,1.8
					C183.3,67.5,182.2,68.2,180.3,68.2"/>
				<path id="Fill-18" d="M192.6,68v-6c0-1.4-0.5-1.7-1.2-1.7c-0.8,0-1.2,0.4-1.2,1.7v6h-3.6V54.9l3.6-1.4v4.8
					c0.7-0.5,1.4-0.9,2.6-0.9c2.3,0,3.4,1.5,3.4,4.3V68H192.6z"/>
				<path id="Fill-20" d="M26,48v8h8v16h8V56h8v-8H26z"/>
				<path id="Fill-22" d="M58,64v-8h-8v16h24v-8H58z"/>
				<path id="Fill-24" d="M58,56h16v-8H58V56z"/>
			</g>
		</g>
	</g>
</g>
</svg>
