<?xml version="1.0" encoding="UTF-8" standalone="no"?>
<svg width="171px" height="25px" viewBox="0 0 171 25" version="1.1" xmlns="http://www.w3.org/2000/svg" xmlns:xlink="http://www.w3.org/1999/xlink" xmlns:sketch="http://www.bohemiancoding.com/sketch/ns">
    <!-- Generator: Sketch 3.3.1 (12002) - http://www.bohemiancoding.com/sketch -->
    <title>tc-techcrunch copy</title>
    <desc>Created with Sketch.</desc>
    <defs></defs>
    <g id="Page-1" stroke="none" stroke-width="1" fill="none" fill-rule="evenodd" sketch:type="MSPage">
        <g id="press-copy-2" sketch:type="MSArtboardGroup" transform="translate(-876.000000, -913.000000)">
            <g id="tc-techcrunch-copy" sketch:type="MSLayerGroup" transform="translate(876.000000, 913.286646)">
                <path d="M63.9736,9.3774 L63.9736,20.0004 L60.0926,20.0004 L60.0926,9.3774 L56.1716,9.3774 L56.1716,5.9964 L67.8946,5.9964 L67.8946,9.3774 L63.9736,9.3774 Z" id="Fill-1" fill="#099600" sketch:type="MSShapeGroup"></path>
                <g id="Group-26" sketch:type="MSShapeGroup">
                    <path d="M72.1934,11.938 C71.3734,11.938 70.9134,12.498 70.7934,13.538 L73.7944,13.538 C73.6134,12.478 73.2534,11.938 72.1934,11.938 M76.9544,15.779 L70.7934,15.779 C70.9134,16.939 71.5924,17.459 72.5734,17.459 C73.4934,17.459 74.2544,17.259 75.2944,16.719 L76.6734,19.02 C75.3744,19.779 74.0334,20.22 72.3934,20.22 C69.2324,20.22 67.4924,17.979 67.4924,14.758 C67.4924,11.138 69.5324,9.277 72.2934,9.277 C75.1734,9.277 76.9744,11.178 76.9744,15.078 C76.9744,15.379 76.9744,15.599 76.9544,15.779" id="Fill-2" fill="#099600"></path>
                    <path d="M83.6533,20.2197 C80.5733,20.2197 78.7323,18.2597 78.7323,14.7187 C78.7323,11.4977 80.3733,9.2777 83.7333,9.2777 C85.7143,9.2777 86.8543,10.1977 87.7743,11.6777 L85.2943,13.5577 C84.7943,12.6377 84.4533,12.1977 83.6743,12.1977 C82.7533,12.1977 82.2933,13.1177 82.2933,14.7787 C82.2933,16.4397 82.7933,17.2987 83.7733,17.2987 C84.4533,17.2987 84.9333,16.9187 85.5933,15.9387 L87.8743,17.7187 C86.6543,19.5197 85.5133,20.2197 83.6533,20.2197" id="Fill-4" fill="#099600"></path>
                    <path d="M95.9336,20 L95.9336,14.038 C95.9336,12.678 95.4736,12.318 94.7336,12.318 C93.9726,12.318 93.5126,12.678 93.5126,13.998 L93.5126,20 L89.9126,20 L89.9126,6.857 L93.5126,5.417 L93.5126,10.197 C94.1726,9.697 94.9126,9.277 96.1536,9.277 C98.4546,9.277 99.5546,10.817 99.5546,13.578 L99.5546,20 L95.9336,20 Z" id="Fill-6" fill="#099600"></path>
                    <path d="M108.1738,20.2197 C104.0128,20.2197 101.7918,17.1387 101.7918,12.9977 C101.7918,8.4967 104.4328,5.7767 108.1938,5.7767 C111.6348,5.7767 112.9948,7.2567 113.9548,9.8977 L110.4348,11.2777 C109.9338,9.9777 109.4538,9.1567 108.1738,9.1567 C106.5538,9.1567 105.8538,10.7777 105.8538,12.9977 C105.8538,15.1387 106.5328,16.8387 108.2138,16.8387 C109.4338,16.8387 109.9538,16.1787 110.7138,14.8587 L113.9948,16.5987 C113.0548,18.4397 111.4938,20.2197 108.1738,20.2197" id="Fill-8" fill="#000000"></path>
                    <path d="M122.8525,13.458 C122.3925,12.958 121.8735,12.578 121.1725,12.578 C120.2915,12.578 119.7515,12.998 119.7515,14.278 L119.7515,20 L116.1515,20 L116.1515,9.497 L119.7515,9.497 L119.7515,10.257 C120.3725,9.657 121.0725,9.277 121.9935,9.277 C122.7525,9.277 123.2735,9.457 123.6935,9.717 L122.8525,13.458 Z" id="Fill-10" fill="#000000"></path>
                    <path d="M131.4131,20 L131.4131,19.299 C130.7721,19.799 130.0131,20.22 128.7931,20.22 C126.4921,20.22 125.3921,18.68 125.3921,15.918 L125.3921,9.497 L129.0131,9.497 L129.0131,15.459 C129.0131,16.818 129.4731,17.179 130.2131,17.179 C130.9531,17.179 131.4131,16.818 131.4131,15.498 L131.4131,9.497 L135.0341,9.497 L135.0341,20 L131.4131,20 Z" id="Fill-12" fill="#000000"></path>
                    <path d="M143.6533,20 L143.6533,14.038 C143.6533,12.678 143.1933,12.318 142.4533,12.318 C141.6923,12.318 141.2323,12.678 141.2323,13.998 L141.2323,20 L137.6323,20 L137.6323,9.497 L141.2323,9.497 L141.2323,10.197 C141.8923,9.697 142.6323,9.277 143.8733,9.277 C146.1743,9.277 147.2743,10.817 147.2743,13.578 L147.2743,20 L143.6533,20 Z" id="Fill-14" fill="#000000"></path>
                    <path d="M154.292,20.2197 C151.212,20.2197 149.371,18.2597 149.371,14.7187 C149.371,11.4977 151.012,9.2777 154.372,9.2777 C156.353,9.2777 157.493,10.1977 158.413,11.6777 L155.933,13.5577 C155.433,12.6377 155.092,12.1977 154.313,12.1977 C153.392,12.1977 152.932,13.1177 152.932,14.7787 C152.932,16.4397 153.432,17.2987 154.412,17.2987 C155.092,17.2987 155.572,16.9187 156.232,15.9387 L158.513,17.7187 C157.293,19.5197 156.152,20.2197 154.292,20.2197" id="Fill-16" fill="#000000"></path>
                    <path d="M166.5723,20 L166.5723,14.038 C166.5723,12.678 166.1123,12.318 165.3723,12.318 C164.6113,12.318 164.1513,12.678 164.1513,13.998 L164.1513,20 L160.5513,20 L160.5513,6.857 L164.1513,5.417 L164.1513,10.197 C164.8113,9.697 165.5513,9.277 166.7923,9.277 C169.0933,9.277 170.1933,10.817 170.1933,13.578 L170.1933,20 L166.5723,20 Z" id="Fill-18" fill="#000000"></path>
                    <path d="M0,0 L0,8 L8,8 L8,24 L16,24 L16,8 L24,8 L24,0 L0,0 Z" id="Fill-20" fill="#099600"></path>
                    <path d="M32,16 L32,8 L24,8 L24,24 L48,24 L48,16 L32,16 Z" id="Fill-22" fill="#099600"></path>
                    <path d="M32,8 L48,8 L48,0 L32,0 L32,8 Z" id="Fill-24" fill="#099600"></path>
                </g>
            </g>
        </g>
    </g>
</svg>