<?xml version="1.0" encoding="UTF-8" standalone="no"?>
<svg width="180px" height="19px" viewBox="0 0 180 19" version="1.1" xmlns="http://www.w3.org/2000/svg" xmlns:xlink="http://www.w3.org/1999/xlink" xmlns:sketch="http://www.bohemiancoding.com/sketch/ns">
    <!-- Generator: Sketch 3.3.1 (12002) - http://www.bohemiancoding.com/sketch -->
    <title>Wall_Street_Journal Copy</title>
    <desc>Created with Sketch.</desc>
    <defs></defs>
    <g id="Page-1" stroke="none" stroke-width="1" fill="none" fill-rule="evenodd" sketch:type="MSPage">
        <g id="press-copy-2" sketch:type="MSArtboardGroup" transform="translate(-639.000000, -915.000000)">
            <g id="Wall_Street_Journal-Copy" sketch:type="MSLayerGroup" transform="translate(639.000000, 915.652466)">
                <path d="M30.0495169,0.108511299 C30.2371299,0.170372881 30.3618672,0.233248588 30.3000056,0.483737288 C30.2371299,0.921838983 29.5485395,0.734225989 29.1733136,0.858963277 C28.2342345,1.17232768 28.5475989,2.42375706 28.4218475,3.29996045 L28.4218475,6.93052542 L28.4218475,12.1248701 L28.4218475,15.6925593 C28.4218475,16.1925226 28.3599859,16.7563757 28.7352119,16.9439887 C28.9857006,17.3192147 29.7361525,17.068726 30.2371299,17.1316017 C30.988596,17.0068644 31.3009463,16.1925226 31.8019237,15.8172966 C31.9895367,15.1287062 32.3029011,14.5658672 32.4276384,13.8772768 C32.8028644,12.6258475 32.6152514,10.998178 33.0533531,9.74674859 C33.3038418,9.68387288 33.3667175,9.87148588 33.4295932,10.0590989 L33.4295932,17.0068644 C33.5543305,17.1944774 33.3667175,17.5068277 33.3667175,17.6954548 L32.8028644,17.8201921 L26.4818277,17.8201921 L25.856113,17.8201921 C25.6056243,17.7573164 25.2303983,17.8201921 25.1046469,17.5697034 C25.1675226,16.881113 26.2942147,17.1944774 26.2942147,16.3811497 L26.2942147,7.55624011 C26.231339,6.42954802 26.2942147,4.99050565 26.2942147,3.92567514 C26.2942147,2.86185876 26.6075791,1.42281638 25.856113,0.858963277 C25.5427486,0.546612994 24.5418079,1.0475904 24.6665452,0.359 C24.7294209,0.233248588 24.7922966,0.170372881 24.9799096,0.108511299 L30.0495169,0.108511299" id="Fill-2" fill="#1A1918" sketch:type="MSShapeGroup"></path>
                <path d="M55.2089266,1.0475904 C55.4594153,1.23520339 55.7727797,1.0475904 55.8975169,0.984714689 C56.1480056,0.734225989 55.8975169,0.108511299 56.3984944,0.170372881 L56.7108446,0.233248588 L56.7108446,6.80477401 C56.5861073,6.86764972 56.7108446,7.24287571 56.5232316,7.24287571 L56.1480056,7.24287571 C56.0232684,4.86475424 55.8346412,2.42375706 54.0822345,1.29706497 C53.7698842,1.10945198 53.3946582,0.984714689 53.0184181,0.984714689 C52.2679661,1.0475904 51.8298644,1.61042938 51.5165,2.17326836 C51.0783983,2.86185876 51.2041497,4.17616384 51.5793757,4.80187853 C52.5184548,6.11618362 54.0203729,6.86764972 55.147065,7.9314661 C56.2727429,9.1210339 57.587048,10.3724633 57.6499237,12.3753588 C57.8375367,14.5658672 57.0870847,16.3811497 55.6470282,17.5697034 C54.8337006,18.1335565 53.5822712,18.1954181 52.6431921,17.8201921 L51.328887,16.9439887 C51.0155226,16.8192514 50.953661,17.1316017 50.8279096,17.2573531 C50.8279096,17.6325791 50.766048,17.8830678 50.5155593,18.0078051 L50.0774576,17.8830678 L50.0145819,14.2525028 L50.0145819,10.1848503 C50.1393192,10.1219746 50.4526836,10.1219746 50.5774209,10.1848503 C50.7031723,12.7505847 50.766048,15.4420706 52.6431921,16.7563757 C53.2060311,17.1316017 53.8946215,17.4449661 54.7089633,17.1944774 C55.8975169,16.6935 56.3356186,15.3791949 56.3356186,13.9401525 C56.2108814,12.687709 55.709904,11.7496441 54.8337006,11.0610537 C53.6441328,9.62099718 51.891726,8.8705452 50.766048,7.30575141 C50.4526836,6.93052542 50.4526836,6.42954802 50.2021949,5.99144633 C49.5764802,3.92567514 50.3898079,1.86091808 51.5793757,0.609488701 C52.1422147,0.233248588 53.0184181,-0.017240113 53.7698842,0.170372881 C54.3327232,0.359 54.8337006,0.671350282 55.2089266,1.0475904" id="Fill-3" fill="#1A1918" sketch:type="MSShapeGroup"></path>
                <path d="M5.70343503,0.170372881 C5.82817232,0.233248588 6.01578531,0.233248588 6.07866102,0.483737288 C5.89104802,0.921838983 5.32820904,0.921838983 5.13958192,1.29706497 C4.95196893,1.67330508 4.95196893,2.36088136 5.07772034,2.79999718 L5.82817232,7.24287571 C6.14153672,8.6829322 6.45388701,10.1848503 6.83012712,11.6238927 L7.01774011,11.6238927 C7.51871751,9.49625989 7.8939435,7.36862712 8.26916949,5.23998023 C7.8939435,3.61332486 8.20629379,1.42281638 6.70437571,0.671350282 C6.57963842,0.359 6.76725141,0.170372881 7.08061582,0.170372881 C7.95681921,0.233248588 10.7730424,0.170372881 11.4616328,0.233248588 C11.5234944,0.359 11.5234944,0.609488701 11.4616328,0.734225989 C10.9606554,0.921838983 10.3968023,0.858963277 10.084452,1.29706497 C9.39586158,2.42375706 10.3349407,3.61332486 10.272065,4.92762994 L11.0235311,8.8705452 C11.2111441,9.74674859 11.2111441,10.810565 11.7111073,11.4991554 L11.7739831,11.4991554 L12.7130621,7.4304887 C13.2140395,5.74095763 13.4635141,3.92567514 13.8397542,2.17326836 C13.9644915,1.61042938 13.7768785,1.23520339 13.4016525,0.984714689 C13.1511638,0.734225989 12.7130621,0.797101695 12.3378362,0.734225989 C12.2749605,0.609488701 12.2749605,0.359 12.3378362,0.233248588 C13.2759011,0.233248588 16.155,0.170372881 16.530226,0.233248588 C16.7188531,0.296124294 16.6559774,0.609488701 16.5931017,0.734225989 C16.0302627,0.858963277 15.4664096,0.984714689 15.1540593,1.35994068 C14.7778192,2.36088136 14.5902062,3.42571186 14.3397175,4.42665254 L13.2759011,9.30864689 C12.6501864,12.0001328 11.961596,14.7534802 11.3358814,17.5068277 C11.2111441,17.6954548 10.8977797,17.6954548 10.7730424,17.5697034 C10.3968023,17.068726 10.3968023,16.2553983 10.2091893,15.5668079 L9.27112429,10.1848503 L8.77014689,7.9314661 L8.64439548,7.9314661 L7.8939435,11.6238927 C7.51871751,13.4391751 7.1424774,15.2544576 6.76725141,17.1316017 C6.70437571,17.5068277 6.45388701,17.7573164 5.95392373,17.6325791 C5.51582203,17.5068277 5.70343503,16.9439887 5.57768362,16.5687627 L5.26533333,14.5658672 L4.32625424,9.62099718 L3.70053955,6.05432203 C3.51292655,4.61426554 3.13770056,3.17522316 2.82433616,1.79804237 C2.76146045,1.42281638 2.38623446,1.17232768 2.13574576,0.921838983 C1.69764407,0.797101695 1.32241808,0.984714689 0.884316384,0.734225989 C0.758564972,0.609488701 0.69670339,0.233248588 0.94719209,0.170372881 L5.70343503,0.170372881" id="Fill-4" fill="#1A1918" sketch:type="MSShapeGroup"></path>
                <path d="M19.973178,0.609488701 C20.2236667,2.29901977 20.7236299,3.80093785 20.9741186,5.55334463 L22.2884237,12.0001328 C22.6017881,13.4391751 22.7265254,14.8782175 23.1017514,16.1925226 C23.2903785,16.7563757 23.6656045,17.1316017 24.2913192,17.1944774 C24.2913192,17.3820904 24.4789322,17.5068277 24.3541949,17.6325791 L24.1665819,17.8201921 L20.4731412,17.8201921 C20.348404,17.6325791 19.7226893,17.8201921 19.4722006,17.6325791 C19.2845876,16.6935 20.6617684,17.4449661 20.7865056,16.7563757 C21.0998701,16.4430113 20.9741186,15.8172966 20.9112429,15.4420706 C20.5988927,14.8163559 20.8493814,13.7525395 20.2236667,13.3144379 L17.7197938,13.3144379 L17.4693051,13.4391751 C17.4064294,14.5658672 16.5931017,15.8172966 17.2816921,16.9439887 C17.5321808,17.1316017 18.0331582,17.068726 18.2207712,17.2573531 L18.1578955,17.6325791 L14.5902062,17.6954548 C14.2149802,17.8201921 14.2778559,17.2573531 14.4025932,17.1316017 C15.1540593,17.1944774 15.592161,16.8192514 15.967387,16.4430113 C16.4054887,15.4420706 16.4054887,14.1906412 16.7188531,13.0639492 L17.4064294,8.6829322 L18.0331582,5.05236723 C18.3455085,3.55044915 18.5331215,1.98565537 18.8464859,0.420861582 C18.9093616,0.108511299 20.0979153,-0.0791016949 19.973178,0.609488701" id="Fill-5" fill="#1A1918" sketch:type="MSShapeGroup"></path>
                <path d="M39.7506299,0.170372881 C39.8135056,0.296124294 39.9382429,0.546612994 39.8135056,0.671350282 C39.2496525,0.921838983 38.3105734,0.671350282 38.1858362,1.35994068 C38.0600847,3.29996045 38.0600847,4.74001695 38.0600847,6.68003672 L37.9982232,14.3153785 L37.9353475,14.3153785 C38.3105734,15.2544576 37.4343701,17.1316017 38.8115508,17.1944774 C39.1249153,17.2573531 39.7506299,17.2573531 40.0629802,17.068726 C41.3154237,16.0677853 41.6906497,14.3782542 41.9411384,12.687709 C42.1287514,11.8115056 42.0040141,10.7476893 42.2534887,9.87148588 C42.3792401,9.80861017 42.6297288,9.80861017 42.7544661,9.87148588 L42.7544661,17.5068277 L42.6915904,17.8201921 C41.6906497,17.8201921 40.6268333,17.8201921 39.8753672,17.8830678 L36.307678,17.8201921 L34.3676582,17.8201921 C34.0553079,17.8201921 34.1800452,17.3820904 34.2429209,17.1944774 C34.8686356,17.1316017 35.6201017,17.1944774 35.932452,16.6935 C36.1829407,15.7544209 35.9953277,14.5029915 36.120065,13.5020508 C35.9953277,12.6258475 36.1829407,11.6867684 36.0582034,10.6858277 L36.120065,9.87148588 L36.120065,1.86091808 C36.0582034,1.54755367 35.8695763,1.17232768 35.6819633,0.984714689 C35.3067373,0.546612994 33.8048192,1.17232768 34.3676582,0.170372881 L39.7506299,0.170372881" id="Fill-6" fill="#1A1918" sketch:type="MSShapeGroup"></path>
                <path d="M66.2243446,0.233248588 L66.3490819,0.546612994 L66.3490819,7.74385311 C66.2872203,7.9314661 66.1614689,7.99434181 66.0367316,8.05721751 L65.7233672,7.9314661 C65.7862429,5.67808192 65.4728785,3.67620056 64.8471638,1.86091808 C64.7224266,1.48569209 64.4090621,1.17232768 64.0338362,0.984714689 C63.7204718,0.984714689 63.4081215,0.984714689 63.2823701,1.23520339 L63.2823701,14.5658672 L63.2205085,14.5658672 C63.2823701,15.5049463 63.0947571,16.6935 63.7833475,17.1316017 C64.2214492,17.4449661 64.9729153,16.9439887 65.0347768,17.6325791 C65.0347768,18.1335565 64.3472006,17.7573164 64.0338362,17.9449294 L62.6566554,17.9449294 L62.6566554,17.8830678 C62.2185537,18.0706808 61.780452,17.7573164 61.405226,17.9449294 C61.03,17.8830678 60.2156582,17.8830678 59.6528192,17.8830678 C59.4652062,17.8201921 59.5280819,17.4449661 59.5899435,17.3192147 C60.2785339,17.1944774 61.03,17.1316017 61.2804887,16.3811497 L61.2804887,1.35994068 C61.1547373,1.0475904 60.9671243,0.984714689 60.7166356,0.921838983 C59.7775565,1.17232768 59.5280819,2.17326836 59.2775932,3.11234746 C58.9642288,4.48952825 58.7137401,5.86670904 58.8394915,7.55624011 C58.7137401,7.74385311 58.8394915,8.05721751 58.5261271,8.05721751 L58.1509011,7.9314661 L58.1509011,0.359 C58.9642288,0.108511299 64.2843249,0.170372881 66.2243446,0.233248588" id="Fill-7" fill="#1A1918" sketch:type="MSShapeGroup"></path>
                <path d="M73.6720734,0.233248588 C74.7358898,0.546612994 75.6120932,1.23520339 76.1130706,2.17326836 C76.5511723,3.55044915 76.801661,5.80383333 75.9254576,6.99238701 C75.4873559,7.61911582 74.9863785,8.1819548 74.2977881,8.6200565 C74.1730508,9.05815819 74.6111525,9.05815819 74.8616412,9.43338418 C75.7378446,10.0590989 75.8625819,11.4991554 75.8625819,12.6258475 C75.8625819,12.500096 75.7378446,12.3753588 75.6749689,12.500096 C75.6120932,12.687709 75.7378446,12.8134605 75.9254576,12.8134605 C75.9873192,13.8772768 75.7997062,15.0668446 76.0501949,16.0049096 C76.1130706,16.1925226 76.2378079,16.318274 76.4254209,16.3811497 C76.7387853,16.318274 76.801661,16.0049096 76.9263983,15.8172966 C76.8635226,15.2544576 76.989274,14.6277288 77.0521497,14.0648898 C77.2397627,14.1906412 77.4273757,13.8144011 77.552113,14.0648898 C77.6778644,15.5049463 77.6149887,17.0068644 76.6759096,17.6954548 C76.3006836,17.9449294 75.9254576,18.0706808 75.3616045,18.0078051 C74.7358898,17.8201921 74.2977881,17.4449661 73.9854379,16.9439887 L73.7968107,15.7544209 L73.7968107,11.2486667 C73.6091977,10.3724633 73.4215847,9.43338418 72.5453814,9.18289548 C72.1701554,9.05815819 71.5444407,8.9334209 71.2310763,9.18289548 L71.106339,9.43338418 L71.106339,16.3811497 C71.2310763,16.7563757 71.3568277,17.068726 71.669178,17.1944774 C71.9825424,17.2573531 72.4206441,17.1944774 72.3577684,17.6954548 L72.2330311,17.8830678 L68.9776921,17.9449294 C68.8529548,17.9449294 68.6653418,17.8201921 68.6024661,17.9449294 C68.2901158,17.6954548 67.2252853,18.2582938 67.475774,17.5068277 C67.475774,17.068726 68.0396271,17.3820904 68.2901158,17.1944774 C68.6024661,17.1316017 68.7900791,16.8192514 68.9776921,16.6306243 C68.9776921,16.318274 69.1663192,15.943048 69.0405678,15.6296836 L69.1034435,12.0001328 C69.1034435,10.4972006 69.0405678,9.05815819 69.1034435,7.74385311 C69.1034435,6.80477401 69.1034435,5.49046893 69.0405678,4.48952825 C69.1034435,3.86381356 69.0405678,2.92473446 69.1034435,2.29901977 C68.9776921,1.73516667 68.8529548,1.17232768 68.3519774,0.984714689 C68.0396271,0.858963277 67.475774,1.0475904 67.3510367,0.734225989 C67.288161,0.483737288 67.3510367,0.296124294 67.6015254,0.233248588 L73.6720734,0.233248588" id="Fill-8" fill="#1A1918" sketch:type="MSShapeGroup"></path>
                <path d="M86.878,0.233248588 C87.3161017,0.420861582 87.065613,1.29706497 87.1284887,1.73516667 C87.3161017,2.73712147 87.0027373,3.86381356 87.1903503,4.74001695 C87.0027373,5.11524294 87.253226,5.36573164 87.1903503,5.74095763 C87.065613,6.17905932 87.1903503,6.80477401 87.065613,7.18101412 C86.1894096,7.24287571 86.6275113,6.11618362 86.5017599,5.55334463 C86.3141469,3.61332486 85.6255565,1.86091808 83.9989011,1.0475904 C83.435048,0.858963277 82.4969831,0.858963277 82.1207429,1.29706497 C81.7455169,2.42375706 81.9331299,4.30191525 81.9331299,5.36573164 C81.8083927,5.74095763 81.9960056,5.86670904 81.9331299,6.30481073 L81.9331299,8.05721751 C81.9960056,8.24483051 81.8712684,8.74479379 82.3093701,8.6829322 C83.8112881,7.99434181 83.9989011,6.24193503 83.9989011,4.48952825 C83.9989011,4.23903955 84.1236384,4.11430226 84.4998785,4.17616384 L84.5617401,4.55240395 C84.4370028,5.36573164 84.6874915,6.36667232 84.4998785,7.24287571 C84.4998785,8.1190791 84.4998785,9.30864689 84.5617401,10.2467119 C84.4998785,11.373404 84.4998785,12.3753588 84.5617401,13.5020508 C84.5617401,13.7525395 84.4370028,13.8772768 84.1865141,13.8772768 C83.7484124,13.5020508 84.0617768,12.4382345 83.8731497,11.8743814 C83.6236751,10.810565 83.3731864,9.55913559 82.1836186,9.30864689 L81.9960056,9.43338418 C81.8712684,10.810565 81.9331299,11.8115056 81.9331299,13.0639492 C81.9331299,14.1906412 81.9960056,15.6296836 81.9331299,16.7563757 C82.3093701,17.5068277 83.247435,17.1944774 84.1236384,17.1944774 C85.6884322,16.505887 86.2522853,14.6277288 86.5646356,12.8763362 L87.3161017,13.0639492 L87.3161017,17.6954548 L87.1284887,17.8830678 L79.8683729,17.9449294 C79.3673955,17.8201921 78.4911921,18.0078051 77.9902147,17.8201921 C77.8026017,16.8192514 78.9921695,17.5068277 79.3673955,17.1316017 C79.6178842,17.0068644 79.7426215,16.7563757 79.8683729,16.505887 L79.8683729,1.73516667 C79.7426215,1.42281638 79.5550085,1.10945198 79.3045198,0.984714689 C78.8664181,0.797101695 77.9283531,1.17232768 77.9902147,0.420861582 L78.1159661,0.233248588 L86.878,0.233248588" id="Fill-9" fill="#1A1918" sketch:type="MSShapeGroup"></path>
                <path d="M95.9523842,0.233248588 C96.2657486,0.420861582 97.141952,0.108511299 97.329565,0.483737288 C97.329565,2.79999718 97.3924407,4.80187853 97.329565,7.05526271 C97.2666893,7.24287571 96.954339,7.24287571 96.8285876,7.11813842 C96.579113,4.67714124 96.6409746,1.79804237 94.3886045,0.921838983 C93.8876271,0.734225989 93.323774,0.984714689 92.8238107,0.984714689 C92.5104463,1.29706497 92.2599576,1.54755367 92.2599576,2.04853107 L92.2599576,8.1190791 C92.3228333,8.30669209 92.385709,8.4324435 92.573322,8.4324435 C94.2628531,7.99434181 94.1381158,5.92857062 94.3886045,4.23903955 C94.4504661,4.11430226 94.7638305,4.11430226 94.8885678,4.23903955 L94.8885678,6.80477401 C95.0143192,6.93052542 94.8885678,6.93052542 94.8885678,7.18101412 C95.0143192,7.74385311 94.8885678,8.1819548 94.9514435,8.8705452 L94.9514435,10.5600763 C94.7638305,11.4991554 95.0143192,12.687709 94.7638305,13.5639124 C94.6380791,13.6896638 94.3886045,13.6267881 94.3257288,13.4391751 C94.1999774,12.0001328 94.1999774,10.1219746 93.0732853,9.24577119 C92.948548,9.1210339 92.573322,9.1210339 92.385709,9.24577119 L92.2599576,9.68387288 L92.2599576,13.7525395 L92.3228333,13.7525395 C92.385709,14.7534802 91.9476073,16.3811497 92.6980593,17.0068644 C93.1990367,17.2573531 93.8876271,17.3192147 94.5133418,17.1944774 C95.8905226,16.7563757 96.2657486,15.3163192 96.766726,14.0648898 C96.6409746,13.5639124 96.954339,13.0639492 96.954339,12.500096 L97.0790763,10.4972006 C97.2048277,10.3724633 97.329565,10.3095876 97.517178,10.435339 L97.6429294,10.5600763 C97.4553164,11.4991554 98.0181554,13.0010734 97.141952,13.3762994 C97.0790763,13.6267881 96.766726,13.6267881 96.766726,13.9401525 C97.0172147,13.6896638 97.329565,13.4391751 97.5800537,13.0639492 L97.704791,13.0639492 L97.6429294,16.6935 C97.517178,17.1316017 97.8305424,17.8201921 97.329565,17.9449294 C96.2657486,18.0706808 95.2648079,18.0078051 94.1999774,18.0078051 C92.1970819,17.8830678 90.3199379,17.9449294 88.3799181,17.9449294 C88.1923051,17.8830678 88.1923051,17.5068277 88.3170424,17.3820904 C88.8808955,17.1944774 89.6313475,17.3192147 90.0065734,16.7563757 C90.5704266,16.318274 90.2570621,15.0668446 90.3199379,14.2525028 C90.3828136,12.8763362 90.1952006,11.0610537 90.3199379,9.80861017 L90.2570621,6.24193503 L90.2570621,1.79804237 C90.0694492,1.29706497 89.6942232,0.858963277 89.0685085,0.858963277 C88.6922684,0.858963277 88.2541667,0.921838983 88.3799181,0.420861582 C88.4427938,0.170372881 94.9514435,0.233248588 95.9523842,0.233248588" id="Fill-10" fill="#1A1918" sketch:type="MSShapeGroup"></path>
                <path d="M127.809071,2.04853107 C128.623412,3.17522316 128.872887,4.80187853 129.249127,6.36667232 C129.687229,9.62099718 129.373864,13.3762994 128.122435,15.7544209 C127.621458,16.6935 126.932867,17.3820904 126.11954,17.8830678 C125.368073,18.0706808 124.242395,18.1335565 123.741418,17.6325791 C121.363297,15.4420706 120.799444,12.0001328 120.862319,7.99434181 C120.987056,5.30285593 121.801398,2.73712147 123.366192,0.921838983 C123.991907,0.233248588 125.18046,0.0456355932 126.182415,0.359 C126.80813,0.797101695 127.433845,1.35994068 127.809071,2.04853107" id="Fill-11" fill="#1A1918" sketch:type="MSShapeGroup"></path>
                <path d="M106.905941,0.420861582 L107.030678,0.609488701 L107.093554,5.42860734 C106.905941,6.24193503 107.093554,7.24287571 106.967802,8.05721751 C106.780189,8.24483051 106.592576,8.05721751 106.467839,7.99434181 L106.279212,4.92762994 C106.029737,3.48757345 105.779249,2.17326836 104.964907,1.17232768 C104.777294,0.984714689 104.339192,0.984714689 104.214455,1.17232768 L103.963966,1.42281638 L103.963966,16.6306243 C104.088703,17.5068277 105.341147,17.0068644 105.84111,17.3820904 C105.903986,17.6954548 105.779249,17.8830678 105.52876,17.9449294 C103.90109,18.1335565 102.274435,17.8201921 100.646766,17.9449294 C100.27154,18.0078051 100.27154,17.5697034 100.396277,17.3820904 C100.96013,17.2573531 101.64872,17.3192147 101.836333,16.7563757 L101.898195,9.74674859 L101.898195,1.48569209 C101.773458,1.29706497 101.64872,1.10945198 101.398232,1.0475904 C100.27154,1.17232768 100.208664,2.29901977 99.8952994,3.11234746 L99.3953362,6.49242373 C99.2695847,7.05526271 99.5200734,7.80672881 99.2077232,8.1190791 L98.8314831,8.05721751 L98.7696215,4.55240395 C98.7696215,3.29996045 98.7067458,1.73516667 98.8314831,0.483737288 C99.2695847,0.170372881 105.84111,0.359 106.905941,0.420861582" id="Fill-12" fill="#1A1918" sketch:type="MSShapeGroup"></path>
                <path d="M120.424218,0.359 C120.737582,0.296124294 120.799444,0.609488701 120.674706,0.797101695 C120.048992,0.921838983 119.423277,0.921838983 119.047037,1.35994068 C118.608935,2.36088136 119.109912,3.67620056 118.922299,4.74001695 C118.985175,4.92762994 118.859424,5.30285593 118.922299,5.61622034 C118.985175,6.42954802 118.922299,7.36862712 118.922299,8.1190791 L118.922299,9.18289548 L118.922299,15.1287062 C118.547073,16.3811497 117.98322,17.6325791 116.731791,17.9449294 C115.480362,18.2582938 114.66602,17.6954548 114.103181,17.068726 C113.41459,16.0677853 112.663124,14.7534802 113.226977,13.2515621 C113.477466,12.687709 113.915568,12.3753588 114.541282,12.3124831 C114.853633,12.4382345 115.229873,12.5629718 115.35461,12.8763362 C115.291734,13.4391751 115.667975,14.0648898 115.291734,14.4401158 C115.229873,14.9410932 114.541282,14.9410932 114.541282,15.5049463 C114.604158,16.2553983 114.916508,16.881113 115.542223,17.1316017 C116.106076,17.2573531 116.418427,17.0068644 116.731791,16.6935 C117.169893,15.4420706 116.919404,13.4391751 116.919404,12.0619944 L116.98228,8.4324435 L116.98228,1.98565537 C116.856528,1.61042938 116.731791,1.29706497 116.418427,0.984714689 C116.043201,0.671350282 115.166997,1.10945198 114.979384,0.609488701 L115.166997,0.233248588 C117.107017,0.233248588 118.484198,0.420861582 120.424218,0.359" id="Fill-13" fill="#1A1918" sketch:type="MSShapeGroup"></path>
                <path d="M134.130107,0.420861582 C134.380596,0.296124294 134.881573,0.233248588 135.069186,0.546612994 C135.132062,0.921838983 134.881573,0.984714689 134.631085,1.0475904 C134.255859,1.0475904 134.00537,1.23520339 133.754881,1.42281638 C133.504393,1.86091808 133.504393,2.48663277 133.504393,3.11234746 L133.504393,10.2467119 L133.442531,10.3095876 C133.567268,12.1877458 133.442531,13.4391751 133.567268,15.3791949 C133.754881,16.130661 134.192983,16.8192514 134.881573,17.1944774 C135.444412,17.3192147 136.195879,17.2573531 136.571105,16.8192514 C137.196819,16.3811497 137.322571,15.6925593 137.447308,15.0039689 L137.447308,8.74479379 L137.385446,8.3695678 L137.447308,2.86185876 C137.510184,2.29901977 137.385446,1.67330508 137.072082,1.23520339 C136.758718,0.984714689 136.195879,0.984714689 135.820653,0.921838983 L135.882514,0.483737288 L139.199715,0.420861582 C139.387328,0.420861582 139.513079,0.609488701 139.513079,0.734225989 C139.513079,1.0475904 139.012102,0.858963277 138.887364,0.984714689 C138.574,1.0475904 138.26165,1.29706497 138.26165,1.61042938 L138.073023,2.61137006 L138.073023,15.1287062 C137.948285,16.1925226 137.322571,17.068726 136.571105,17.6954548 C136.071141,18.1335565 135.069186,17.9449294 134.506347,18.0706808 C133.253904,17.8201921 132.190088,16.9439887 131.814862,15.7544209 C131.063395,14.1906412 131.564373,11.6238927 131.37676,9.93436158 L131.37676,1.86091808 C131.252023,1.48569209 131.063395,1.23520339 130.751045,1.0475904 C130.437681,0.921838983 129.874842,1.0475904 129.874842,0.671350282 C129.811966,0.296124294 130.250068,0.483737288 130.437681,0.359 L134.130107,0.420861582" id="Fill-14" fill="#1A1918" sketch:type="MSShapeGroup"></path>
                <path d="M144.206446,0.483737288 C146.084605,0.233248588 147.961749,0.609488701 148.713215,2.11140678 C149.338929,3.11234746 149.714155,4.67714124 149.276054,6.05432203 C148.713215,7.05526271 148.275113,8.30669209 147.148421,8.80766949 C147.148421,9.3715226 147.774136,9.49625989 148.024624,9.93436158 C148.275113,10.435339 148.525602,10.8734407 148.525602,11.5620311 L148.650339,14.7534802 C148.650339,15.3163192 148.587463,16.2553983 149.151316,16.505887 C149.901768,16.2553983 149.714155,15.1287062 149.839907,14.3153785 C149.901768,14.2525028 150.152257,14.2525028 150.215133,14.3153785 C150.402746,15.6925593 150.090395,17.0068644 149.276054,17.8201921 C148.837952,18.0078051 148.275113,18.2582938 147.774136,18.0706808 C147.211297,18.0706808 147.211297,17.4449661 146.835056,17.1316017 L146.647444,15.3163192 L146.647444,11.6867684 C146.585582,10.8734407 146.522706,9.93436158 145.896992,9.49625989 C145.45889,9.1210339 144.644548,8.99528249 144.018833,9.24577119 L143.894096,9.43338418 C143.643607,11.8743814 143.956972,13.8772768 143.894096,16.4430113 C143.956972,16.8192514 144.018833,17.2573531 144.456935,17.4449661 C144.833175,17.5068277 145.020788,17.4449661 145.45889,17.5697034 C145.520751,17.6954548 145.45889,17.8830678 145.520751,18.0706808 L142.204565,18.1335565 L140.389282,18.0078051 C140.263531,17.8830678 140.263531,17.5697034 140.389282,17.5068277 C140.952121,17.5068277 141.390223,17.3192147 141.703588,17.0068644 L141.891201,16.3811497 L141.891201,1.98565537 C141.766463,1.61042938 141.703588,1.23520339 141.328362,1.0475904 C141.014997,0.921838983 140.452158,1.10945198 140.452158,0.671350282 C140.639771,0.233248588 141.014997,0.609488701 141.453099,0.420861582 C142.392178,0.483737288 143.14263,0.483737288 144.206446,0.483737288" id="Fill-15" fill="#1A1918" sketch:type="MSShapeGroup"></path>
                <path d="M153.406582,0.420861582 C153.532333,0.546612994 153.782822,0.609488701 153.844684,0.797101695 C155.097127,4.30191525 156.035192,7.9314661 157.475249,11.3115424 C157.850475,11.2486667 157.349497,10.8734407 157.599986,10.6858277 C157.538124,9.3715226 157.662862,8.1190791 157.538124,6.74291243 C157.662862,5.99144633 157.538124,5.42860734 157.599986,4.61426554 C157.412373,4.48952825 157.725737,4.30191525 157.538124,4.23903955 C157.662862,3.48757345 157.475249,2.42375706 157.475249,1.54755367 C157.161884,1.10945198 156.599045,0.984714689 155.973331,0.984714689 C155.973331,0.921838983 155.847579,0.546612994 156.098068,0.483737288 L159.728633,0.483737288 C159.978107,0.546612994 159.85337,0.797101695 159.85337,0.984714689 C159.478144,1.17232768 158.914291,1.10945198 158.663802,1.48569209 L158.414328,2.11140678 L158.351452,5.49046893 L158.351452,14.8782175 L158.351452,16.1925226 C158.288576,16.6935 158.414328,17.5068277 158.288576,18.0078051 C158.163839,18.1335565 157.850475,18.1954181 157.725737,18.0706808 C157.287636,17.5068277 157.349497,16.5687627 156.911395,16.0049096 C156.223819,14.3153785 155.847579,12.3753588 155.158989,10.7476893 L153.907559,7.18101412 C153.719946,6.55428531 153.406582,6.05432203 153.218969,5.49046893 L153.094232,5.55334463 C152.906619,6.30481073 152.906619,6.93052542 153.031356,7.6809774 L152.96848,11.0610537 L152.96848,16.6306243 C153.094232,16.9439887 153.218969,17.2573531 153.532333,17.4449661 C153.844684,17.6325791 154.59615,17.2573531 154.59615,17.8201921 L154.533274,18.0706808 L151.02846,18.1335565 C150.777972,18.0706808 150.465621,18.0706808 150.465621,17.7573164 C150.71611,17.2573531 151.779927,17.7573164 152.030415,17.1316017 C152.280904,16.6306243 152.280904,15.943048 152.280904,15.2544576 L152.218028,8.05721751 L152.218028,2.04853107 C152.092277,1.17232768 151.216073,1.10945198 150.528497,0.921838983 C150.33987,0.797101695 150.528497,0.609488701 150.528497,0.483737288 C151.466562,0.359 152.405641,0.420861582 153.406582,0.420861582" id="Fill-16" fill="#1A1918" sketch:type="MSShapeGroup"></path>
                <path d="M165.611568,3.61332486 C165.862056,5.36573164 166.424895,6.93052542 166.612508,8.74479379 L167.739201,13.9401525 C168.114427,15.1915819 168.052565,16.8192514 169.241119,17.4449661 C169.554483,17.5068277 169.929709,17.5068277 169.742096,18.0078051 L169.67922,18.1335565 C168.240178,18.1954181 166.300158,18.2582938 164.79824,18.0706808 C164.484876,17.1944774 165.548692,17.5697034 165.923918,17.3192147 C166.237282,17.068726 166.300158,16.5687627 166.237282,16.0049096 C166.049669,15.1287062 165.923918,14.1906412 165.548692,13.5020508 C164.547751,13.4391751 163.358184,13.4391751 162.48198,13.5639124 C162.231492,13.8772768 162.16963,14.3782542 162.106754,14.8782175 C161.981003,15.6296836 161.48104,16.7563757 162.231492,17.3820904 C162.544856,17.6954548 163.796285,17.1316017 163.358184,18.0706808 C162.357243,18.2582938 161.167675,18.1954181 160.166734,18.1954181 C159.85337,18.0706808 159.16478,18.3211695 159.352393,17.6954548 C159.352393,17.3192147 159.978107,17.5697034 160.166734,17.4449661 C160.729573,17.1316017 160.980062,16.5687627 161.104799,16.0049096 L161.856266,11.7496441 L162.795345,6.36667232 L163.358184,3.23809887 C163.545797,2.29901977 163.671548,1.23520339 164.10965,0.483737288 L164.922977,0.546612994 L165.611568,3.61332486" id="Fill-17" fill="#1A1918" sketch:type="MSShapeGroup"></path>
                <path d="M175.125068,0.483737288 C175.374542,0.546612994 175.625031,0.609488701 175.625031,0.921838983 C175.500294,1.35994068 174.686966,1.10945198 174.373602,1.35994068 C173.9355,1.54755367 173.9355,2.11140678 173.810763,2.48663277 L173.810763,16.4430113 C173.622136,16.881113 173.9355,17.1944774 174.185989,17.4449661 C174.686966,17.7573164 175.813658,17.6954548 176.439373,17.5068277 C177.440314,16.881113 177.627927,15.6296836 178.066028,14.5029915 L178.50413,11.2486667 C178.567006,11.1239294 178.817494,11.1239294 179.005107,11.2486667 L179.005107,17.068726 L178.942232,17.068726 C178.942232,17.3820904 179.005107,17.8830678 178.879356,18.1954181 C178.567006,18.3211695 178.066028,18.1954181 177.81554,18.2582938 L177.627927,18.1954181 L174.248864,18.2582938 C172.934559,18.1954181 171.494503,18.3830311 170.430686,18.0706808 C170.305949,18.0078051 170.305949,17.7573164 170.367811,17.6325791 C170.744051,17.3820904 171.557379,17.6954548 171.744992,17.1316017 L171.807867,16.505887 L171.807867,1.73516667 C171.494503,1.10945198 170.805912,1.0475904 170.180198,1.0475904 C170.180198,0.797101695 170.05546,0.546612994 170.305949,0.483737288 L175.125068,0.483737288" id="Fill-18" fill="#1A1918" sketch:type="MSShapeGroup"></path>
                <path d="M126.682379,2.11140678 L126.80813,3.29996045 L126.80813,7.24287571 L126.871006,7.30575141 L126.80813,15.4420706 C126.682379,16.0677853 126.370028,16.505887 126.056664,17.0068644 C125.618562,17.3820904 124.86811,17.3192147 124.430008,17.068726 C123.490929,16.4430113 123.303316,15.2544576 123.366192,14.1906412 C123.303316,13.3144379 123.615667,12.5629718 123.366192,11.7496441 C123.428054,10.810565 123.366192,9.74674859 123.490929,8.74479379 C123.366192,8.6829322 123.490929,8.30669209 123.366192,8.24483051 C123.615667,7.9314661 123.303316,7.74385311 123.366192,7.4304887 C123.428054,5.86670904 123.366192,4.67714124 123.366192,2.86185876 C123.615667,2.04853107 123.991907,1.10945198 124.86811,0.921838983 C125.806175,0.858963277 126.307153,1.42281638 126.682379,2.11140678" id="Fill-19" fill="#FFFFFF" sketch:type="MSShapeGroup"></path>
                <path d="M73.171096,1.0475904 C74.9235028,2.11140678 74.2349124,4.80187853 74.1730508,6.80477401 C74.0472994,7.36862712 73.7349492,7.80672881 73.2968475,8.1819548 C72.7958701,8.49531921 71.7320537,8.4324435 71.2310763,8.24483051 L71.1682006,1.86091808 C71.2310763,1.42281638 71.4186893,0.984714689 71.9825424,0.984714689 C72.3577684,0.858963277 72.7329944,1.0475904 73.171096,1.0475904" id="Fill-20" fill="#FFFFFF" sketch:type="MSShapeGroup"></path>
                <path d="M146.960808,2.04853107 C147.148421,2.48663277 147.148421,3.11234746 147.211297,3.55044915 L147.148421,6.86764972 C146.960808,7.49336441 146.773195,8.05721751 146.209342,8.30669209 C145.709379,8.49531921 144.582686,8.49531921 143.956972,8.30669209 C143.894096,5.92857062 143.894096,4.11430226 143.894096,1.73516667 C143.956972,1.42281638 144.206446,1.10945198 144.582686,0.984714689 C145.77124,0.734225989 146.396955,1.35994068 146.960808,2.04853107" id="Fill-21" fill="#FFFFFF" sketch:type="MSShapeGroup"></path>
                <path d="M164.046774,5.74095763 C164.422,8.1190791 165.173466,10.2467119 165.485816,12.687709 L165.361079,12.8134605 L162.857206,12.8763362 L162.544856,12.687709 C162.607732,12.0001328 162.732469,11.2486667 162.920082,10.4972006 L163.421059,7.18101412 C163.545797,6.68003672 163.608672,6.11618362 163.796285,5.67808192 L164.046774,5.74095763" id="Fill-22" fill="#FFFFFF" sketch:type="MSShapeGroup"></path>
                <path d="M19.5969379,9.05815819 L20.2236667,12.4382345 C19.785565,12.9381977 18.9093616,12.4382345 18.2207712,12.6258475 L17.7197938,12.5629718 L17.7826695,11.7496441 L18.3455085,8.1819548 L18.7836102,5.86670904 L18.9093616,5.92857062 L19.5969379,9.05815819" id="Fill-23" fill="#FFFFFF" sketch:type="MSShapeGroup"></path>
            </g>
        </g>
    </g>
</svg>