<?xml version="1.0" encoding="UTF-8" standalone="no"?>
<svg width="101px" height="22px" viewBox="0 0 101 22" version="1.1" xmlns="http://www.w3.org/2000/svg" xmlns:xlink="http://www.w3.org/1999/xlink" xmlns:sketch="http://www.bohemiancoding.com/sketch/ns">
    <!-- Generator: Sketch 3.3.1 (12002) - http://www.bohemiancoding.com/sketch -->
    <title>Wired Copy</title>
    <desc>Created with Sketch.</desc>
    <defs></defs>
    <g id="Page-1" stroke="none" stroke-width="1" fill="none" fill-rule="evenodd" sketch:type="MSPage">
        <g id="press-copy-2" sketch:type="MSArtboardGroup" transform="translate(-480.000000, -914.000000)">
            <g id="Wired-Copy" sketch:type="MSLayerGroup" transform="translate(480.000000, 914.786646)">
                <path d="M80.7359963,0.192684211 L100.899,0.192684211 L100.899,20.6400526 L80.7359963,20.6400526 L80.7359963,0.192684211 Z" id="Fill-3" fill="#1B1A18" sketch:type="MSShapeGroup"></path>
                <path d="M40.5949707,0.192684211 L60.7579744,0.192684211 L60.7579744,20.6400526 L40.5949707,20.6400526 L40.5949707,0.192684211 Z" id="Fill-4" fill="#1B1A18" sketch:type="MSShapeGroup"></path>
                <path d="M0.26896337,0.192684211 L20.431967,0.192684211 L20.431967,20.6400526 L0.26896337,20.6400526 L0.26896337,0.192684211 Z" id="Fill-5" fill="#1B1A18" sketch:type="MSShapeGroup"></path>
                <path d="M35.6315421,5.74957895 L35.6315421,3.41636842 L25.8889267,3.41636842 L25.8889267,5.74957895 L29.280381,5.74957895 L29.280381,14.9604737 L25.8889267,14.9604737 L25.8889267,17.2936842 L35.6315421,17.2936842 L35.6315421,14.9604737 L31.9319084,14.9604737 L31.9319084,5.74957895 L35.6315421,5.74957895" id="Fill-6" fill="#1B1A18" sketch:type="MSShapeGroup"></path>
                <path d="M51.7556557,9.58742105 C50.0290366,9.58742105 47.9328242,9.64894737 47.9328242,9.64894737 L47.9328242,5.84168421 L51.8174396,5.84168421 C51.8174396,5.84168421 53.913652,5.53478947 53.913652,7.49957895 C53.913652,9.219 53.4822747,9.58742105 51.7556557,9.58742105 L51.7556557,9.58742105 Z M54.5921648,10.9384211 C54.5921648,10.9384211 56.6883773,10.7542105 56.6883773,7.00847368 C56.6883773,3.26273684 53.2355092,3.44694737 53.2355092,3.44694737 L45.2195128,3.44694737 L45.2195128,17.2015789 L47.9328242,17.2015789 L47.9328242,11.8594737 C47.9328242,11.8594737 50.7075495,11.7979474 52.3106007,11.7979474 C53.913652,11.7979474 53.913652,14.1311579 53.913652,14.1311579 L53.913652,17.1400526 L56.6883773,17.1400526 L56.6883773,13.9469474 C56.6883773,11.0607368 54.5921648,10.9384211 54.5921648,10.9384211 L54.5921648,10.9384211 Z" id="Fill-7" fill="#FFFFFF" sketch:type="MSShapeGroup"></path>
                <path d="M64.4576081,3.44694737 L64.4576081,5.719 L66.3692088,5.719 L66.3692088,14.9910526 L64.4576081,14.9910526 L64.4576081,17.2627368 L76.235022,17.2627368 L76.235022,12.7805263 L73.891674,12.7805263 L73.891674,14.9910526 L68.8971685,14.9910526 L68.8971685,11.2453158 L72.5968022,11.2453158 L72.5968022,8.97326316 L68.8971685,8.97326316 L68.8971685,5.719 L73.7066923,5.719 L73.7066923,7.92952632 L76.235022,7.92952632 L76.235022,3.44694737 L64.4576081,3.44694737" id="Fill-8" fill="#1B1A18" sketch:type="MSShapeGroup"></path>
                <path d="M94.6096227,12.2890526 C94.6096227,12.2890526 94.5482088,14.9910526 92.4516264,14.9910526 L88.0738498,14.9910526 L88.0738498,5.78052632 L92.2666447,5.78052632 C92.2666447,5.78052632 94.6096227,5.59594737 94.6096227,8.72789474 L94.6096227,12.2890526 L94.6096227,12.2890526 Z M97.384348,12.2278947 L97.384348,8.35947368 C97.384348,2.83315789 91.2185385,3.50847368 91.2185385,3.50847368 L85.2373407,3.50847368 L85.2373407,17.4469474 C85.2373407,17.4469474 87.5189048,17.3857895 92.5748242,17.3857895 C97.6307436,17.3857895 97.384348,12.2278947 97.384348,12.2278947 L97.384348,12.2278947 Z" id="Fill-9" fill="#FFFFFF" sketch:type="MSShapeGroup"></path>
                <path d="M1.99558242,3.50847368 L4.77030769,3.50847368 L6.68190842,14.0084737 L9.14808425,3.50847368 L12.1695751,3.57 L14.6357509,14.1926842 L16.4859377,3.50847368 L19.1370952,3.50847368 L16.3005861,17.2627368 L12.8477179,17.2627368 L10.6279377,7.25421053 L8.22317582,17.3242632 L4.83209158,17.3242632 L1.99558242,3.50847368" id="Fill-10" fill="#FFFFFF" sketch:type="MSShapeGroup"></path>
            </g>
        </g>
    </g>
</svg>