<?xml version="1.0" encoding="utf-8"?>
<!-- Generator: Adobe Illustrator 18.1.1, SVG Export Plug-In . SVG Version: 6.00 Build 0)  -->
<!DOCTYPE svg PUBLIC "-//W3C//DTD SVG 1.1//EN" "http://www.w3.org/Graphics/SVG/1.1/DTD/svg11.dtd">
<svg version="1.1" id="Layer_1" xmlns:sketch="http://www.bohemiancoding.com/sketch/ns"
	 xmlns="http://www.w3.org/2000/svg" xmlns:xlink="http://www.w3.org/1999/xlink" x="0px" y="0px" viewBox="-47 51 20 20"
	 enable-background="new -47 51 20 20" xml:space="preserve">
<title>web-feed1</title>
<desc>Created with Sketch.</desc>
<g id="Page-1" sketch:type="MSPage">
	<g id="press-copy-2" transform="translate(-970.000000, -376.000000)" sketch:type="MSArtboardGroup">
		<g id="web-feed1" transform="translate(970.000000, 376.000000)" sketch:type="MSLayerGroup">
			<g id="Group" sketch:type="MSShapeGroup">
				<path id="Shape" fill="#18347B" d="M-44.5,53.4v2.9c6.7,0,12.1,5.5,12.1,12.3h2.9C-29.5,60.2-36.2,53.4-44.5,53.4L-44.5,53.4z"
					/>
				<path id="Shape_1_" fill="#18347B" d="M-44.5,58.6v2.9c1.9,0,3.6,0.7,5,2.1c1.3,1.3,2.1,3.1,2.1,5.1h2.9
					C-34.6,63.1-39,58.6-44.5,58.6L-44.5,58.6z"/>
				<path id="Shape_2_" fill="#18347B" d="M-42.5,64.6c-1.1,0-2,0.9-2,2c0,1.1,0.9,2,2,2c1.1,0,2-0.9,2-2
					C-40.5,65.5-41.4,64.6-42.5,64.6L-42.5,64.6z"/>
			</g>
		</g>
	</g>
</g>
</svg>
