<?xml version="1.0" encoding="UTF-8" standalone="no"?>
<svg width="22px" height="22px" viewBox="0 0 22 22" version="1.1" xmlns="http://www.w3.org/2000/svg" xmlns:xlink="http://www.w3.org/1999/xlink" xmlns:sketch="http://www.bohemiancoding.com/sketch/ns">
    <!-- Generator: Sketch 3.3.1 (12002) - http://www.bohemiancoding.com/sketch -->
    <title>web-feed1</title>
    <desc>Created with Sketch.</desc>
    <defs></defs>
    <g id="Page-1" stroke="none" stroke-width="1" fill="none" fill-rule="evenodd" sketch:type="MSPage">
        <g id="press-copy-2" sketch:type="MSArtboardGroup" transform="translate(-970.000000, -376.000000)" fill="#6072A3">
            <g id="web-feed1" sketch:type="MSLayerGroup" transform="translate(970.000000, 376.000000)">
                <g id="Group" sketch:type="MSShapeGroup">
                    <path d="M0.00811764706,0 L0.00811764706,4.2185 C9.64376471,4.2185 17.4854118,12.19625 17.4854118,22 L21.6470588,22 C21.6470588,9.8725 11.9383529,0 0.00811764706,0 L0.00811764706,0 Z" id="Shape"></path>
                    <path d="M0.00270588235,7.473125 L0.00270588235,11.69025 C2.70452941,11.69025 5.244,12.764125 7.15705882,14.70975 C9.06741176,16.649875 10.1227059,19.243125 10.1227059,22 L14.2911176,22 C14.2911176,13.98925 7.87952941,7.473125 0.00270588235,7.473125 L0.00270588235,7.473125 Z" id="Shape"></path>
                    <path d="M2.88176471,16.1315 C1.29205882,16.1315 0,17.447375 0,19.053375 C0,20.669 1.29205882,21.9725 2.88176471,21.9725 C4.47688235,21.9725 5.76758824,20.669 5.76758824,19.053375 C5.76623529,17.450125 4.47688235,16.1315 2.88176471,16.1315 L2.88176471,16.1315 Z" id="Shape"></path>
                </g>
            </g>
        </g>
    </g>
</svg>