<?xml version="1.0" encoding="utf-8"?>
<!-- Generator: Adobe Illustrator 18.1.1, SVG Export Plug-In . SVG Version: 6.00 Build 0)  -->
<!DOCTYPE svg PUBLIC "-//W3C//DTD SVG 1.1//EN" "http://www.w3.org/Graphics/SVG/1.1/DTD/svg11.dtd">
<svg version="1.1" id="Capa_1" xmlns="http://www.w3.org/2000/svg" xmlns:xlink="http://www.w3.org/1999/xlink" x="0px" y="0px"
	 viewBox="-139 216.5 369.5 369.5" enable-background="new -139 216.5 369.5 369.5" xml:space="preserve">
<g>
	<g>
		<path fill="#4683E8" d="M45.7,573.9c-3.5,0-6.8-1.4-9.2-4l-147.7-159.2c0,0-0.1-0.1-0.1-0.1c-17.9-19.8-27.8-46.1-27.8-74.1
			c0-27.9,9.9-54.2,27.8-74.1l2.2-2.5c18.2-20.2,42.6-31.3,68.6-31.3S10,239.8,28.2,260l17.5,19.4L63.2,260
			c18.2-20.2,42.6-31.3,68.6-31.3s50.4,11.1,68.6,31.3l2.2,2.5c17.9,19.9,27.8,46.2,27.8,74.1s-9.9,54.2-27.8,74.1
			c0,0-0.1,0.1-0.1,0.1L54.9,569.9C52.5,572.4,49.2,573.9,45.7,573.9z M-92.7,393.8L45.7,543l138.4-149.2
			c28.5-31.6,28.5-83-0.1-114.5l-2.2-2.5c-13.4-14.9-31.2-23.1-50.1-23.1c-18.8,0-36.6,8.2-50,23.1L55,306.4
			c-2.4,2.6-5.7,4.1-9.3,4.1s-6.9-1.5-9.3-4.1L9.7,276.7c-13.4-14.9-31.2-23.1-50-23.1s-36.6,8.2-50,23.1l-2.2,2.5
			C-121.2,310.8-121.2,362.2-92.7,393.8z"/>
	</g>
</g>
</svg>
