<?xml version="1.0" encoding="utf-8"?>
<!-- Generator: Adobe Illustrator 18.1.1, SVG Export Plug-In . SVG Version: 6.00 Build 0)  -->
<!DOCTYPE svg PUBLIC "-//W3C//DTD SVG 1.1//EN" "http://www.w3.org/Graphics/SVG/1.1/DTD/svg11.dtd">
<svg version="1.1" id="Capa_1" xmlns="http://www.w3.org/2000/svg" xmlns:xlink="http://www.w3.org/1999/xlink" x="0px" y="0px"
	 viewBox="-101 177.1 446.9 446.9" enable-background="new -101 177.1 446.9 446.9" xml:space="preserve">
<g>
	<path fill="#4683E8" d="M343.3,270.5c-2.6-3.7-6.7-5.9-11.1-6.1L54.9,252.4c-8-0.3-14.6,5.8-14.9,13.7c-0.3,7.9,5.8,14.6,13.7,14.9
		l258.4,11.1l-50.8,158.5H35.2L-5.6,228.3c-0.9-4.9-4.2-8.9-8.9-10.8l-66.9-26.3c-7.4-2.9-15.7,0.7-18.6,8.1
		c-2.9,7.4,0.7,15.7,8.1,18.6l59.5,23.4L9.2,467.7c1.3,6.8,7.2,11.7,14.1,11.7h6.9l-15.7,43.7c-1.3,3.7-0.8,7.7,1.5,10.9
		c2.2,3.2,5.9,5.1,9.8,5.1h11c-6.8,7.6-11,17.6-11,28.7c0,23.7,19.3,43,43,43s43-19.3,43-43c0-11-4.2-21.1-11-28.7h93.8
		c-6.8,7.6-11,17.6-11,28.7c0,23.7,19.3,43,43,43c23.7,0,43-19.3,43-43c0-11-4.2-21.1-11-28.7h13.4c6.6,0,11.9-5.3,11.9-11.9
		c0-6.6-5.3-11.9-11.9-11.9H42.7l12.9-35.8h216.2c6.2,0,11.8-4,13.7-10l59.7-186.4C346.5,278.8,345.8,274.2,343.3,270.5z M68.7,587
		c-10.5,0-19.1-8.6-19.1-19.1c0-10.5,8.6-19.1,19.1-19.1s19.1,8.6,19.1,19.1C87.8,578.4,79.2,587,68.7,587z M226.4,587
		c-10.5,0-19.1-8.6-19.1-19.1c0-10.5,8.6-19.1,19.1-19.1s19.1,8.6,19.1,19.1C245.5,578.4,236.9,587,226.4,587z"/>
</g>
</svg>
