<?xml version="1.0" encoding="UTF-8" standalone="no"?>
<svg width="21px" height="20px" viewBox="0 0 21 20" version="1.1" xmlns="http://www.w3.org/2000/svg" xmlns:xlink="http://www.w3.org/1999/xlink" xmlns:sketch="http://www.bohemiancoding.com/sketch/ns">
    <!-- Generator: Sketch 3.3.1 (12002) - http://www.bohemiancoding.com/sketch -->
    <title>Imported Layers 2 Copy</title>
    <desc>Created with Sketch.</desc>
    <defs></defs>
    <g id="Page-1" stroke="none" stroke-width="1" fill="none" fill-rule="evenodd" sketch:type="MSPage">
        <g id="press-copy-2" sketch:type="MSArtboardGroup" transform="translate(-969.000000, -491.000000)" fill="#6072A3">
            <path d="M987.823455,491.391551 L970.522485,491.391551 C969.819697,491.391551 969.25,491.936179 969.25,492.607783 L969.25,509.144039 C969.25,509.815759 969.819697,510.360271 970.522485,510.360271 L979.820182,510.360271 L979.820182,503.02349 L977.230364,503.02349 L977.230364,500.146728 L979.796909,500.146728 C979.796909,500.146728 979.843576,499.143204 979.843576,497.582191 C979.843576,496.021179 981.056788,494.950691 981.616788,494.683185 C982.176667,494.415563 983.039939,494.214789 983.926606,494.259393 C984.813152,494.303996 985.956424,494.415563 985.956424,494.415563 L986.003091,496.913137 C986.003091,496.913137 984.579818,496.935496 984.043212,496.95774 C983.506606,496.9801 982.923333,497.247722 982.923333,498.184283 L982.923333,500.124368 L985.933152,500.124368 L985.513152,503.00113 L982.946606,503.00113 L982.946606,510.360271 L987.823455,510.360271 C988.526242,510.360271 989.095939,509.815759 989.095939,509.144039 L989.095939,492.607783 C989.095939,491.936179 988.526242,491.391551 987.823455,491.391551" id="Imported-Layers-2-Copy" sketch:type="MSShapeGroup"></path>
        </g>
    </g>
</svg>