<?xml version="1.0" encoding="utf-8"?>
<!-- Generator: Adobe Illustrator 18.1.1, SVG Export Plug-In . SVG Version: 6.00 Build 0)  -->
<!DOCTYPE svg PUBLIC "-//W3C//DTD SVG 1.1//EN" "http://www.w3.org/Graphics/SVG/1.1/DTD/svg11.dtd">
<svg version="1.1" id="Layer_1" xmlns:sketch="http://www.bohemiancoding.com/sketch/ns"
	 xmlns="http://www.w3.org/2000/svg" xmlns:xlink="http://www.w3.org/1999/xlink" x="0px" y="0px" viewBox="-48.5 51 20 20"
	 enable-background="new -48.5 51 20 20" xml:space="preserve">
<title>Imported Layers 2 Copy</title>
<desc>Created with Sketch.</desc>
<g id="Page-1" sketch:type="MSPage">
	<g id="press-copy-2" transform="translate(-969.000000, -491.000000)" sketch:type="MSArtboardGroup">
		<path id="Imported-Layers-2-Copy" sketch:type="MSShapeGroup" fill="#18347B" d="M937.5,544.2h-13.9c-0.6,0-1,0.4-1,1v13.3
			c0,0.5,0.5,1,1,1h7.5v-5.9h-2.1v-2.3h2.1c0,0,0-0.8,0-2.1c0-1.3,1-2.1,1.4-2.3c0.5-0.2,1.1-0.4,1.9-0.3c0.7,0,1.6,0.1,1.6,0.1l0,2
			c0,0-1.1,0-1.6,0c-0.4,0-0.9,0.2-0.9,1v1.6h2.4l-0.3,2.3h-2.1v5.9h3.9c0.6,0,1-0.4,1-1v-13.3C938.5,544.7,938,544.2,937.5,544.2"
			/>
	</g>
</g>
</svg>
