<?xml version="1.0" encoding="UTF-8" standalone="no"?>
<svg width="22px" height="25px" viewBox="0 0 22 25" version="1.1" xmlns="http://www.w3.org/2000/svg" xmlns:xlink="http://www.w3.org/1999/xlink" xmlns:sketch="http://www.bohemiancoding.com/sketch/ns">
    <!-- Generator: Sketch 3.3.1 (12002) - http://www.bohemiancoding.com/sketch -->
    <title>network 2 copy 4</title>
    <desc>Created with Sketch.</desc>
    <defs></defs>
    <g id="Page-1" stroke="none" stroke-width="1" fill="none" fill-rule="evenodd" sketch:type="MSPage">
        <g id="developers-copy-17" sketch:type="MSArtboardGroup" transform="translate(-345.000000, -1252.000000)" fill="#2C3E50">
            <g id="network-2-copy-4" sketch:type="MSLayerGroup" transform="translate(344.946319, 1252.471906)">
                <path d="M21.2835374,3.38058956 C21.2835374,1.51651135 19.767026,0 17.9029478,0 C16.0388696,0 14.5223582,1.51651135 14.5223582,3.38058956 C14.5223582,4.62913636 15.2032301,5.72096115 16.212653,6.306437 L16.212653,9.09711369 L11.1417687,11.6325559 L6.07088434,9.09711369 L6.07088434,6.306437 C7.08030725,5.72096115 7.76117912,4.62913636 7.76117912,3.38058956 C7.76117912,1.51651135 6.24466777,0 4.38058956,0 C2.51651135,0 1,1.51651135 1,3.38058956 C1,4.62913636 1.68087187,5.72096115 2.69029478,6.306437 L2.69029478,11.1864765 L9.4514739,14.5670661 L9.4514739,17.3577427 C8.44205099,17.9432186 7.76117912,19.0350434 7.76117912,20.2835902 C7.76117912,22.1476684 9.27769047,23.6641797 11.1417687,23.6641797 C13.0058469,23.6641797 14.5223582,22.1476684 14.5223582,20.2835902 C14.5223582,19.0350434 13.8414864,17.9432186 12.8320635,17.3577427 L12.8320635,14.5670661 L19.5932426,11.1864765 L19.5932426,6.306437 C20.6026655,5.72096115 21.2835374,4.62913636 21.2835374,3.38058956 L21.2835374,3.38058956 Z M4.38058956,1.69029478 C5.31410767,1.69029478 6.07088434,2.44707145 6.07088434,3.38058956 C6.07088434,4.31410767 5.31410767,5.07088434 4.38058956,5.07088434 C3.44707145,5.07088434 2.69029478,4.31410767 2.69029478,3.38058956 C2.69029478,2.44707145 3.44707145,1.69029478 4.38058956,1.69029478 L4.38058956,1.69029478 Z M11.1417687,21.9738321 C10.2082506,21.9738321 9.4514739,21.2170555 9.4514739,20.2835374 C9.4514739,19.3500192 10.2082506,18.5932426 11.1417687,18.5932426 C12.0752868,18.5932426 12.8320635,19.3500192 12.8320635,20.2835374 C12.8320635,21.2170555 12.0752868,21.9738321 11.1417687,21.9738321 L11.1417687,21.9738321 Z M17.9029478,5.07088434 C16.9694297,5.07088434 16.212653,4.31410767 16.212653,3.38058956 C16.212653,2.44707145 16.9694297,1.69029478 17.9029478,1.69029478 C18.8364659,1.69029478 19.5932426,2.44707145 19.5932426,3.38058956 C19.5932426,4.31410767 18.8364659,5.07088434 17.9029478,5.07088434 L17.9029478,5.07088434 Z" id="Shape" sketch:type="MSShapeGroup"></path>
            </g>
        </g>
    </g>
</svg>