<?xml version="1.0" encoding="utf-8"?>
<!-- Generator: Adobe Illustrator 18.1.1, SVG Export Plug-In . SVG Version: 6.00 Build 0)  -->
<!DOCTYPE svg PUBLIC "-//W3C//DTD SVG 1.1//EN" "http://www.w3.org/Graphics/SVG/1.1/DTD/svg11.dtd">
<svg version="1.1" id="Layer_1" xmlns:sketch="http://www.bohemiancoding.com/sketch/ns"
	 xmlns="http://www.w3.org/2000/svg" xmlns:xlink="http://www.w3.org/1999/xlink" x="0px" y="0px" viewBox="-49 51 20 20"
	 enable-background="new -49 51 20 20" xml:space="preserve">
<title>Imported Layers Copy</title>
<desc>Created with Sketch.</desc>
<g id="Page-1" sketch:type="MSPage">
	<g id="press-copy-2" transform="translate(-970.000000, -546.000000)" sketch:type="MSArtboardGroup">
		<path id="Imported-Layers-Copy" sketch:type="MSShapeGroup" fill="#18347B" d="M937.8,599h-13.7c-0.6,0-1.2,0.5-1.2,1.2v13.7
			c0,0.6,0.5,1.2,1.2,1.2h13.7c0.6,0,1.2-0.5,1.2-1.2v-13.7C939,599.5,938.5,599,937.8,599L937.8,599z M926.3,604.9h2.2v6.6h-2.2
			V604.9z M927.4,603.9c-0.7,0-1.2-0.5-1.2-1.2c0-0.7,0.5-1.2,1.2-1.2c0.7,0,1.2,0.5,1.2,1.2C928.7,603.4,928.1,603.9,927.4,603.9
			L927.4,603.9z M936.3,611.5H934v-4c0-0.6-0.1-1.2-0.8-1.2c-0.7,0-0.9,0.7-0.9,1.3v3.9h-2.2c0,0,0-6.2,0-6.6l2.1,0l0,1
			c0.4-0.8,1.2-1.1,2-1.1c1.4,0,2.1,0.8,2.1,2.2V611.5L936.3,611.5z"/>
	</g>
</g>
</svg>
