<?xml version="1.0" encoding="utf-8"?>
<!-- Generator: Adobe Illustrator 18.1.1, SVG Export Plug-In . SVG Version: 6.00 Build 0)  -->
<!DOCTYPE svg PUBLIC "-//W3C//DTD SVG 1.1//EN" "http://www.w3.org/Graphics/SVG/1.1/DTD/svg11.dtd">
<svg version="1.1" id="Capa_1" xmlns="http://www.w3.org/2000/svg" xmlns:xlink="http://www.w3.org/1999/xlink" x="0px" y="0px"
	 viewBox="-88 164.5 472.5 472.5" enable-background="new -88 164.5 472.5 472.5" xml:space="preserve">
<g>
	<path fill="#4683E8" d="M384.5,400.7c0-56.9-20-110.7-56.6-153.5c3.4-7.3,2.1-16.2-3.9-22.3c-6-6-15-7.3-22.3-3.9
		c-42.7-36.6-96.6-56.6-153.5-56.6c-56.9,0-110.7,20-153.5,56.6c-7.3-3.4-16.2-2.1-22.3,3.9c-6,6-7.3,15-3.9,22.3
		C-68,290-88,343.8-88,400.7c0,56.9,20,110.7,56.6,153.5c-3.4,7.3-2.1,16.2,3.9,22.3c3.8,3.8,8.9,5.8,13.9,5.8
		c2.8,0,5.7-0.6,8.3-1.9C37.5,617,91.4,637,148.3,637c56.9,0,110.7-20,153.5-56.6c2.6,1.2,5.5,1.9,8.3,1.9c5,0,10.1-1.9,13.9-5.8
		c6-6,7.3-15,3.9-22.3C364.5,511.5,384.5,457.6,384.5,400.7z M320.2,544.8l-60-60c18.2-24.1,28-53.3,28-84c0-30.7-9.8-59.9-28-84
		l60-60c33.9,40.3,52.4,90.7,52.4,144C372.5,454,354,504.5,320.2,544.8z M66.8,482.2c-5.6-5.6-13.8-7.1-20.8-4.5
		c-34.2-45.4-34.2-108.4,0-153.8c2.2,0.8,4.5,1.2,6.8,1.2c5,0,10.1-1.9,13.9-5.8c5.6-5.6,7.1-13.8,4.5-20.8
		c22.1-16.7,48.8-25.7,76.9-25.7s54.9,9,76.9,25.7c-2.6,7-1.1,15.2,4.5,20.8c3.8,3.8,8.9,5.8,13.9,5.8c2.3,0,4.6-0.4,6.8-1.2
		c16.7,22.1,25.7,48.8,25.7,76.9c0,28.1-9,54.9-25.7,76.9c-7-2.6-15.2-1.1-20.8,4.5c-5.6,5.6-7.1,13.8-4.5,20.8
		c-22.1,16.7-48.8,25.7-76.9,25.7c-28.1,0-54.9-9-76.9-25.7C73.9,496,72.4,487.8,66.8,482.2z M292.3,228.8l-60,60
		c-24.1-18.2-53.3-28-84-28s-59.9,9.8-84,28l-60-60c40.3-33.9,90.7-52.4,144-52.4C201.5,176.5,252,195,292.3,228.8z M-23.6,256.7
		l60,60c-37.3,49.6-37.3,118.4,0,168l-60,60C-93.3,461.7-93.3,339.7-23.6,256.7z M4.2,572.6l60-60c24.1,18.2,53.3,28,84,28
		s59.9-9.8,84-28l60,60c-40.3,33.9-90.7,52.4-144,52.4C95,625,44.5,606.5,4.2,572.6z"/>
</g>
</svg>
