<?xml version="1.0" encoding="utf-8"?>
<!-- Generator: Adobe Illustrator 18.1.1, SVG Export Plug-In . SVG Version: 6.00 Build 0)  -->
<!DOCTYPE svg PUBLIC "-//W3C//DTD SVG 1.1//EN" "http://www.w3.org/Graphics/SVG/1.1/DTD/svg11.dtd">
<svg version="1.1" id="Layer_1" xmlns="http://www.w3.org/2000/svg" xmlns:xlink="http://www.w3.org/1999/xlink" x="0px" y="0px"
	 viewBox="0 0 100 100" enable-background="new 0 0 100 100" xml:space="preserve">
<g>
	<path fill="#4683E8" d="M50,7c23.7,0,43,19.3,43,43S73.7,93,50,93S7,73.7,7,50S26.3,7,50,7 M50,0C22.4,0,0,22.4,0,50s22.4,50,50,50
		s50-22.4,50-50S77.6,0,50,0L50,0z"/>
</g>
<g>
	<path fill="#4683E8" d="M50,27.8c12.3,0,22.2,10,22.2,22.2S62.3,72.2,50,72.2S27.8,62.3,27.8,50S37.7,27.8,50,27.8 M50,20.8
		c-16.2,0-29.2,13.1-29.2,29.2S33.8,79.2,50,79.2S79.2,66.2,79.2,50S66.2,20.8,50,20.8L50,20.8z"/>
</g>
<line fill="none" stroke="#4683E8" stroke-width="7" stroke-miterlimit="10" x1="32.4" y1="32.4" x2="14.9" y2="14.9"/>
<line fill="none" stroke="#4683E8" stroke-width="7" stroke-miterlimit="10" x1="32.4" y1="67.6" x2="14.9" y2="85.1"/>
<line fill="none" stroke="#4683E8" stroke-width="7" stroke-miterlimit="10" x1="67.6" y1="67.6" x2="85.1" y2="85.1"/>
<line fill="none" stroke="#4683E8" stroke-width="7" stroke-miterlimit="10" x1="67.6" y1="32.4" x2="85.1" y2="14.9"/>
</svg>
