<?xml version="1.0" encoding="UTF-8" standalone="no"?>
<svg width="26px" height="20px" viewBox="0 0 26 20" version="1.1" xmlns="http://www.w3.org/2000/svg" xmlns:xlink="http://www.w3.org/1999/xlink" xmlns:sketch="http://www.bohemiancoding.com/sketch/ns">
    <!-- Generator: Sketch 3.3.1 (12002) - http://www.bohemiancoding.com/sketch -->
    <title>final shape copy</title>
    <desc>Created with Sketch.</desc>
    <defs></defs>
    <g id="Page-1" stroke="none" stroke-width="1" fill="none" fill-rule="evenodd" sketch:type="MSPage">
        <g id="press-copy-2" sketch:type="MSArtboardGroup" transform="translate(-970.000000, -439.000000)" fill="#6072A3">
            <path d="M973.125634,451.518459 C973.421206,451.56842 973.725701,451.59451 974.036735,451.59451 C974.584346,451.59451 975.111685,451.513637 975.605748,451.364009 C973.183802,451.007462 971.331924,449.053488 971.331924,446.696483 C971.331924,446.659928 971.33237,446.62347 971.333256,446.587113 C972.050382,446.966557 972.876511,447.187831 973.757007,447.200021 C972.30237,446.369277 971.331924,444.87424 971.331924,443.168 C971.331924,442.282123 971.593525,441.453178 972.04867,440.744581 C974.627655,443.618722 978.411265,445.522055 982.676181,445.780597 C982.59805,445.446365 982.556888,445.09927 982.556888,444.743216 C982.556888,442.063715 984.888034,439.891551 987.763648,439.891551 C989.265981,439.891551 990.619705,440.484427 991.570048,441.43278 C992.749228,441.258237 993.845182,440.850882 994.801956,440.262853 C994.449017,441.385632 993.645807,442.329165 992.586853,442.912194 C993.623423,442.822369 994.602763,442.560031 995.502727,442.16626 C994.858011,443.149429 993.991978,443.992853 992.969171,444.63639 C992.969995,444.671906 992.970409,444.707516 992.970409,444.743216 C992.970409,444.837882 992.968218,445.204851 992.968218,445.295623 C992.968218,452.864342 986.383488,459 978.260811,459 C975.306053,459 972.554806,458.188093 970.25,456.790641 C970.659663,456.834936 971.07637,456.857707 971.498785,456.857707 C973.945593,456.857707 976.200899,456.093708 978.004941,454.807758 C975.695161,454.80795 973.777966,453.426164 973.125634,451.518459 Z" id="final-shape-copy" sketch:type="MSShapeGroup"></path>
        </g>
    </g>
</svg>