<?xml version="1.0" encoding="utf-8"?>
<!-- Generator: Adobe Illustrator 18.1.1, SVG Export Plug-In . SVG Version: 6.00 Build 0)  -->
<!DOCTYPE svg PUBLIC "-//W3C//DTD SVG 1.1//EN" "http://www.w3.org/Graphics/SVG/1.1/DTD/svg11.dtd">
<svg version="1.1" id="Layer_1" xmlns:sketch="http://www.bohemiancoding.com/sketch/ns"
	 xmlns="http://www.w3.org/2000/svg" xmlns:xlink="http://www.w3.org/1999/xlink" x="0px" y="0px" viewBox="-43 51 20 20"
	 enable-background="new -43 51 20 20" xml:space="preserve">
<title>final shape copy</title>
<desc>Created with Sketch.</desc>
<g id="Page-1" sketch:type="MSPage">
	<g id="press-copy-2" transform="translate(-970.000000, -439.000000)" sketch:type="MSArtboardGroup">
		<path id="final-shape-copy" sketch:type="MSShapeGroup" fill="#18347B" d="M929.3,501.6c0.2,0,0.5,0.1,0.7,0.1
			c0.4,0,0.9-0.1,1.2-0.2c-1.9-0.3-3.4-1.8-3.4-3.7c0,0,0-0.1,0-0.1c0.6,0.3,1.2,0.5,1.9,0.5c-1.2-0.7-1.9-1.8-1.9-3.2
			c0-0.7,0.2-1.4,0.6-1.9c2,2.3,5,3.8,8.4,4c-0.1-0.3-0.1-0.5-0.1-0.8c0-2.1,1.8-3.8,4.1-3.8c1.2,0,2.3,0.5,3,1.2
			c0.9-0.1,1.8-0.5,2.6-0.9c-0.3,0.9-0.9,1.6-1.8,2.1c0.8-0.1,1.6-0.3,2.3-0.6c-0.5,0.8-1.2,1.4-2,2c0,0,0,0.1,0,0.1
			c0,0.1,0,0.4,0,0.4c0,6-5.2,10.9-11.6,10.9c-2.3,0-4.5-0.6-6.3-1.7c0.3,0,0.7,0.1,1,0.1c1.9,0,3.7-0.6,5.2-1.6
			C931.3,504.2,929.8,503.2,929.3,501.6z"/>
	</g>
</g>
</svg>
