<?xml version="1.0" encoding="utf-8"?>
<!-- Generator: Adobe Illustrator 18.1.1, SVG Export Plug-In . SVG Version: 6.00 Build 0)  -->
<!DOCTYPE svg PUBLIC "-//W3C//DTD SVG 1.1//EN" "http://www.w3.org/Graphics/SVG/1.1/DTD/svg11.dtd">
<svg version="1.1" id="Layer_1" xmlns="http://www.w3.org/2000/svg" xmlns:xlink="http://www.w3.org/1999/xlink" x="0px" y="0px"
	 viewBox="0 0 100 100" enable-background="new 0 0 100 100" xml:space="preserve">
<g>
	<path fill-rule="evenodd" clip-rule="evenodd" d="M-201.3,38.6c-1.3,0-2.6,0.1-3.9,0.3c-2.1,0.3-4.1,0.6-6.6,1.2
		c0.6-0.9,1-1.4,1.4-1.9c2.2-2.7,4.7-5.4,6.7-8.3c0.5-0.8,0.1-2.1,0.1-3.1c-1,0-2.2-0.4-3.1,0c-1.9,0.6-3.7,1.8-5.6,2.7
		c-4.5,2.2-9.2,4.3-13.7,6.5c-1.9,0.9-2.5,3-1.6,4.8c1.2,2.1,2.5,0.9,3.7,0.3c2.3-1.2,4.8-2.3,7.1-3.5c-2.5,3.6-5.4,6.6-8.3,9.7
		c-0.6,0.8-1.4,1.7-1.7,2.6c-0.3,0.9-0.1,2.2,0.4,2.7c0.5,0.4,1.8,0,2.7-0.3c0.6-0.3,1-0.9,1.5-1.3c4.8-3.6,10.2-5.9,16.3-6.1
		c3.7-0.1,4.8,1.7,3.4,5c-4.1,9.8-11.2,16.1-21.8,18.3c-5.3,1.2-5.7,1-8.3-4.3c-0.9,1-1.9,1.7-2.4,2.6c-0.6,1-1.3,2.5-1.3,3.6v1.8
		c2,3,4.1,3.4,7.1,3.1c7.2-0.8,13.3-4.3,19-8.5c6.7-5.2,12.1-11.2,14.6-19.6C-194,42-196.3,39-201.3,38.6z"/>
	<path fill-rule="evenodd" clip-rule="evenodd" d="M-161,15v21.9c-4-2.3-7.6-3.7-12-3.7c-11.6,0-21,9.4-21,20.9
		c0,11.5,9.5,20.9,21,20.9c4.4,0,8-1.4,12-3.7V75h9V15H-161z M-172.8,65.7c-6.5,0-11.8-5.3-11.8-11.8s5.4-11.8,11.9-11.8
		c5.9,0,10.7,4.4,11.7,10.1v3.3C-162,61.3-166.9,65.7-172.8,65.7z"/>
</g>
<g>
	<path fill-rule="evenodd" clip-rule="evenodd" fill="#8EB84A" d="M-66.1,17.8v-1c-0.2-2.8-0.5-5.2-1-6.9c0.7,0,1.4,0.3,1.9,0.7
		c1.6,1.2,2.8,3.5,3.6,6.1L-66.1,17.8z M-71.8,46.5c-0.3-0.2-0.9-0.3-1.4-0.7c-0.5-0.2-1.2-0.3-1.7-0.5c-0.7-0.2-1.4-0.3-2.1-0.3
		c-0.7,0-1.6-0.2-2.2,0c-0.7,0-1.4,0.2-1.9,0.3c-0.5,0.2-1,0.5-1.6,0.9c-0.3,0.3-0.7,0.7-1,1.2c-0.2,0.5-0.3,1-0.3,1.6
		c0,0.5,0,0.9,0.2,1.2c0.2,0.3,0.3,0.9,0.7,1.2c0.3,0.3,0.7,0.9,1.2,1.2c0.5,0.3,1,0.9,1.9,1.2c1,0.7,1.9,1.4,2.9,2.1
		c1,0.9,1.9,1.7,2.6,2.8c0.9,1,1.4,2.2,1.9,3.6c0.5,1.4,0.7,2.9,0.5,4.5c-0.2,2.8-0.7,5-1.7,6.9c-1,1.9-2.2,3.5-4,4.5
		c-1.6,1-3.5,1.7-5.4,1.9c-1.9,0.2-4,0.2-6.1-0.3c-1-0.2-1.9-0.5-2.9-0.9c-0.9-0.3-1.7-0.7-2.4-1.2c-0.7-0.5-1.4-0.9-2.1-1.4
		c-0.5-0.2-1-0.7-1.4-1.2l2.4-7.8c0.3,0.3,0.9,0.7,1.4,1c0.5,0.3,1.2,0.9,1.9,1.2c0.7,0.3,1.4,0.7,2.1,1c0.7,0.3,1.6,0.5,2.2,0.7
		c0.7,0.2,1.2,0,1.9,0c0.5-0.2,1-0.3,1.4-0.7c0.3-0.3,0.7-0.7,0.9-1.2c0.2-0.5,0.3-0.9,0.3-1.6c0-0.5,0-1-0.2-1.6
		c-0.2-0.5-0.3-1-0.7-1.4c-0.3-0.5-0.7-0.9-1.2-1.4c-0.5-0.5-1.2-1-1.9-1.6c-0.9-0.7-1.7-1.4-2.4-2.2c-0.7-0.7-1.4-1.6-1.9-2.6
		c-0.5-0.9-1-1.9-1.2-2.9c-0.3-1-0.3-2.2-0.3-3.5c0.2-2.1,0.5-4,1.2-5.7c0.7-1.7,1.7-3.3,2.9-4.7c1.2-1.4,2.8-2.6,4.7-3.5
		c1.9-0.9,4-1.6,6.2-1.9c1-0.2,2.1-0.2,3.1-0.2c1,0,1.9,0,2.8,0.2c0.9,0.2,1.7,0.3,2.4,0.5c0.7,0.2,1.4,0.5,1.9,0.7L-71.8,46.5z
		 M-76.7,7.6c1.9-0.7,3.3-0.7,4.5,0c-5.9,2.6-8.3,9.3-9.5,15l-7.3,2.2C-87.4,19.2-83.8,10-76.7,7.6z M-69.2,18.8l-9,2.8
		c1.2-4.7,3.5-9.3,7.8-11.2C-69.4,12.8-69.2,15.9-69.2,18.8z M-56.2,14.9l-2.8,0.9c-1.2-3.6-2.8-6.1-4.8-7.6c-1.6-1-3.3-1.6-5-1.4
		c-0.3-0.5-0.9-0.9-1.2-1.4c-2.1-1.6-4.5-1.9-7.6-0.7C-86.9,7.9-90.8,20-92.2,25.9l-8.1,2.4c0,0-1.9,0.5-2.4,1
		c-0.5,0.7-0.5,2.2-0.5,2.2l-6.9,52.8l51.4,9.7l4-79.4C-55.6,14.7-56.1,14.7-56.2,14.9z"/>
	<path fill-rule="evenodd" clip-rule="evenodd" fill="#5C893F" d="M-39.6,21.6c0,0,0-0.3-0.3-0.5c-0.2-0.2-0.5-0.2-0.5-0.2l-7.3-0.5
		l-5.4-5.4c-0.2-0.2-0.5-0.2-0.7-0.3l-3.8,79.4l27.8-6.1L-39.6,21.6"/>
</g>
<g id="Page-1" sketch:type="MSPage">
	<g id="Artboard-52" transform="translate(-21.000000, -15.000000)" sketch:type="MSArtboardGroup">
		<g id="Fill-11-_x2B_-Fill-12" transform="translate(21.000000, 15.000000)" sketch:type="MSLayerGroup">
			<path id="Fill-11" sketch:type="MSShapeGroup" fill="#539C44" d="M58.2,37.2l-1.7,3.3c3.3,2.1,5.4,5.8,5.4,10.1
				c0,6.5-5.4,11.9-11.9,11.9s-11.9-5.4-11.9-11.9c0-4.4,2.4-8.2,6-10.4l-1.7-3.3c-4.7,2.7-8,7.8-8,13.7c0,8.7,7,15.6,15.6,15.6
				s15.6-7,15.6-15.6C65.8,44.9,62.8,39.9,58.2,37.2"/>
			<path id="Fill-12" sketch:type="MSShapeGroup" fill="#539C44" d="M48,29.8h4.1v20.6H48V29.8z"/>
		</g>
	</g>
</g>
</svg>
