<?xml version="1.0" encoding="utf-8"?>
<!-- Generator: Adobe Illustrator 18.1.1, SVG Export Plug-In . SVG Version: 6.00 Build 0)  -->
<svg version="1.2" baseProfile="tiny" id="Layer_1" xmlns="http://www.w3.org/2000/svg" xmlns:xlink="http://www.w3.org/1999/xlink"
	 x="0px" y="0px" viewBox="0 0 100 120" xml:space="preserve">
<g>
	<path fill="#3354A8" d="M94.7,60.7c-2.7-3.7-6.1-8.4-6.7-13.5C84.5,14.2,73.2,0,50.3,0H50C27,0,15.7,14.2,12.2,47.2
		c-0.5,5.1-4,9.8-6.8,13.6c-2.4,3.2-4.2,5.8-3.8,7.9c0.2,0.9,0.8,1.6,1.8,2.1c6.6,3.5,12.5-2.1,14.8-5.5c0.3-0.5,0.2-1.1-0.3-1.4
		c-0.5-0.3-1.1-0.2-1.4,0.3c-0.2,0.3-5.5,8.3-12.1,4.8c-0.6-0.3-0.7-0.6-0.7-0.8C3.4,67,5.2,64.6,7.1,62c2.9-3.9,6.5-9,7.2-14.7
		C17.6,15.7,28.3,2,50,2h0.3c1.9,0,3.7,0.3,5.4,0.5c0,0.1,0.1,0.3,0.1,0.4C56,3,56.1,3.1,56.2,3.1s0.3,0,0.4-0.1l0.2-0.1
		c0.5,0.1,1,0.2,1.5,0.3l-0.7,0.7c-0.2,0.2-0.2,0.5,0,0.7c0.1,0.1,0.2,0.2,0.4,0.2s0.3,0,0.4-0.2l1.1-1.1c0.6,0.1,1.1,0.3,1.7,0.4
		l-1.8,1.8c-0.2,0.2-0.2,0.5,0,0.7c0.1,0.1,0.2,0.2,0.4,0.2s0.3-0.1,0.4-0.2l2.2-2.2c0.5,0.2,1,0.4,1.5,0.5l-2.4,2.4
		c-0.2,0.2-0.2,0.5,0,0.7c0.1,0.1,0.2,0.2,0.4,0.2c0.1,0,0.3-0.1,0.4-0.2l2.7-2.7c0.5,0.2,1,0.5,1.5,0.7l-3,3
		c-0.2,0.2-0.2,0.5,0,0.7c0.1,0.1,0.2,0.2,0.4,0.2s0.3-0.1,0.4-0.2l3.2-3.2c0.5,0.3,0.9,0.5,1.4,0.8l-3.4,3.4
		c-0.2,0.2-0.2,0.5,0,0.7c0.1,0.1,0.2,0.2,0.4,0.2c0.1,0,0.3-0.1,0.4-0.2l3.6-3.6c0.5,0.3,1,0.7,1.4,1.1l-3.6,3.6
		c-0.2,0.2-0.2,0.5,0,0.7c0.1,0.1,0.2,0.2,0.4,0.2c0.1,0,0.3-0.1,0.4-0.2l3.7-3.7c0.5,0.4,0.9,0.8,1.3,1.3l-4.3,4.3
		c-0.2,0.2-0.2,0.5,0,0.7c0.1,0.1,0.2,0.2,0.4,0.2c0.1,0,0.3-0.1,0.4-0.2l4.3-4.3c0.4,0.5,0.9,1,1.3,1.5l-4.7,4.7
		c-0.2,0.2-0.2,0.5,0,0.7c0.1,0.1,0.2,0.2,0.4,0.2c0.1,0,0.3-0.1,0.4-0.2l4.6-4.6c0.4,0.6,0.9,1.2,1.3,1.8l-5,5
		c-0.2,0.2-0.2,0.5,0,0.7c0.1,0.1,0.2,0.2,0.4,0.2c0.1,0,0.3-0.1,0.4-0.2l4.8-4.8c0.4,0.6,0.7,1.3,1.1,1.9l-5.3,5.3
		c-0.2,0.2-0.2,0.5,0,0.7c0.1,0.1,0.2,0.2,0.4,0.2c0.1,0,0.3-0.1,0.4-0.2l5.1-5.1c0.3,0.7,0.7,1.4,1,2.1l-5.6,5.6
		c-0.2,0.2-0.2,0.5,0,0.7c0.1,0.1,0.2,0.2,0.4,0.2c0.1,0,0.3-0.1,0.4-0.2l5.3-5.3c0.3,0.8,0.6,1.6,1,2.5L75.5,31
		c-0.2,0.2-0.2,0.5,0,0.7c0.1,0.1,0.2,0.2,0.4,0.2c0.1,0,0.3-0.1,0.4-0.2l5.5-5.5c0.3,0.9,0.6,1.8,0.9,2.8l-6.1,6.1
		c-0.2,0.2-0.2,0.5,0,0.7c0.1,0.1,0.2,0.2,0.4,0.2c0.1,0,0.3-0.1,0.4-0.2l5.7-5.7c0.2,0.9,0.5,1.8,0.7,2.8l-6.2,6.2
		c-0.2,0.2-0.2,0.5,0,0.7c0.1,0.1,0.2,0.2,0.4,0.2c0.1,0,0.3-0.1,0.4-0.2l5.7-5.7c0.2,1,0.4,2,0.6,3.1l-6.2,6.2
		c-0.2,0.2-0.2,0.5,0,0.7c0.1,0.1,0.2,0.2,0.4,0.2c0.1,0,0.3-0.1,0.4-0.2l5.7-5.7c0.2,1,0.4,2.1,0.5,3.2l-5.9,5.9
		c-0.2,0.2-0.2,0.5,0,0.7c0.1,0.1,0.2,0.2,0.4,0.2c0.1,0,0.3-0.1,0.4-0.2l5.4-5.4c0.1,1.1,0.3,2.2,0.4,3.3l-4.7,4.7
		c-0.2,0.2-0.2,0.5,0,0.7c0.1,0.1,0.2,0.2,0.4,0.2c0.1,0,0.3-0.1,0.4-0.2l4.2-4.2c0,0,0,0.1,0,0.1c0.1,1.1,0.3,2.1,0.7,3.2L82.3,55
		c-0.2,0.2-0.2,0.5,0,0.7c0.1,0.1,0.2,0.2,0.4,0.2c0.1,0,0.3-0.1,0.4-0.2l4-4c0.3,0.9,0.7,1.8,1.1,2.6l-3.9,3.9
		c-0.2,0.2-0.2,0.5,0,0.7c0.1,0.1,0.2,0.2,0.4,0.2s0.3-0.1,0.4-0.2l3.7-3.7c0.4,0.8,0.9,1.5,1.4,2.2l-2.8,2.8
		c-0.2,0.2-0.2,0.5,0,0.7c0.1,0.1,0.2,0.2,0.4,0.2c0.1,0,0.3,0,0.4-0.1l2.6-2.6c0.6,0.8,1.1,1.6,1.7,2.4l-1.5,1.5
		c-0.2,0.2-0.2,0.5,0,0.7c0.1,0.1,0.2,0.2,0.4,0.2c0.1,0,0.3-0.1,0.4-0.2l1.4-1.4c0.1,0.1,0.1,0.1,0.2,0.2c0.5,0.7,1,1.3,1.4,1.9
		l-0.1,0.1c-0.2,0.2-0.2,0.5,0,0.7c0.1,0.1,0.2,0.2,0.4,0.2c0.1,0,0.2,0,0.3-0.1c0.9,1.4,1.6,2.6,1.4,3.4c0,0.2-0.2,0.5-0.7,0.9
		c-5.8,3.6-12-4.8-12.1-4.9c-0.3-0.5-1-0.6-1.4-0.2c-0.5,0.3-0.6,1-0.2,1.4c1.9,2.7,6.2,6.6,10.7,6.6c1.4,0,2.7-0.4,4.1-1.2
		c0.9-0.6,1.5-1.3,1.7-2.2C99,66.3,97.1,63.8,94.7,60.7z"/>
	<path fill="#3354A8" d="M85.6,73.3c0.1-0.5-0.2-1.1-0.7-1.3c-0.5-0.1-1.1,0.2-1.3,0.7c-2,7.4,0.5,15.7,2.5,22.4
		c1.9,6.1,3.5,11.4,0.9,13.4c-2.4,1.8-6.7,2.7-10.6,3.1l1.1-1.1c0.2-0.2,0.2-0.5,0-0.7c-0.2-0.2-0.5-0.2-0.7,0l-1.9,1.9
		c-1,0-1.9,0-2.7,0l2.7-2.7c0.2-0.2,0.2-0.5,0-0.7c-0.2-0.2-0.5-0.2-0.7,0l-3.4,3.4c-0.5,0-0.9-0.1-1.3-0.2c-0.1,0-0.1,0-0.2,0
		c0-0.3,0-0.7,0-1.1c0,0,0,0,0,0l3.7-3.7c0.2-0.2,0.2-0.5,0-0.7c-0.2-0.2-0.5-0.2-0.7,0l-3.2,3.2c-0.1-0.6-0.2-1.3-0.4-2
		c0,0,0.1,0,0.1-0.1l2.6-2.6c0.2-0.2,0.2-0.5,0-0.7c-0.2-0.2-0.5-0.2-0.7,0l-2.3,2.3c-0.1-0.6-0.3-1.2-0.4-1.8c0,0,0,0,0.1,0l2-2
		c0.2-0.2,0.2-0.5,0-0.7c-0.2-0.2-0.5-0.2-0.7,0l-1.6,1.6c-0.1-0.5-0.2-1.1-0.3-1.7l1.6-1.6c0.2-0.2,0.2-0.5,0-0.7
		c-0.2-0.2-0.5-0.2-0.7,0l-1.1,1.1c-0.1-0.6-0.2-1.3-0.2-1.9c0,0,0,0,0,0l1.1-1.1c0.2-0.2,0.2-0.5,0-0.7c-0.2-0.2-0.5-0.2-0.7,0
		L67,96.7c0-0.6,0-1.2,0-1.8l1-1c0.2-0.2,0.2-0.5,0-0.7c-0.2-0.2-0.5-0.2-0.7,0L67,93.4c0.1-1.7,0.4-3.4,0.9-5.1
		c0.1-0.3-0.1-0.6-0.3-0.6c-0.3-0.1-0.6,0.1-0.6,0.3c-0.7,2.3-1,4.5-1,6.7c0,0,0,0.1,0,0.1c-0.1,4.3,0.8,8.3,1.5,11.5
		c0.6,2.7,1.1,5.2,0.6,6.2c-1.9,2.2-6.5,5.5-18,5.5c0,0,0,0,0,0c-10,0-15.6-2.3-18.7-4.4c0-0.1-0.1-0.2-0.1-0.3
		c-1.8-1.4-0.9-5.4-0.1-9.2c0.6-3,1.2-5.8,0.7-7.6c-0.1-0.3-0.4-0.4-0.6-0.4c-0.3,0.1-0.4,0.4-0.4,0.6c0.5,1.6-0.1,4.4-0.7,7.1
		c-0.7,3.2-1.3,6.5-0.5,8.6c-3.8,0.8-13.7,0.3-17.7-2.7c-2.6-2-1-7.2,0.9-13.2c2.1-6.6,4.6-14.8,2.6-22.3c-0.2-0.5-0.7-0.9-1.3-0.7
		c-0.5,0.1-0.9,0.7-0.7,1.3c1.9,6.9-0.5,14.4-2.6,21.1c-2.1,6.8-3.9,12.6-0.1,15.5c4.6,3.4,14.5,4,18.9,3.3
		c3.2,2.4,9.3,5.2,20.6,5.2c0,0,0,0,0,0c12.5,0,17.6-3.8,19.7-6.3c4.5,0.6,14.1-0.1,18.5-3.5c3.8-2.8,2-8.8-0.1-15.7
		C86.1,87.8,83.7,80.2,85.6,73.3z"/>
	<circle fill="#3354A8" cx="38.3" cy="38.2" r="1.5"/>
	<circle fill="#3354A8" cx="61.6" cy="38.2" r="1.5"/>
	<path fill="#3354A8" d="M49.4,55.5c-5.5,0-10.3,3.8-11.5,9.1c-0.1,0.6,0.2,1.1,0.8,1.2c0.6,0.1,1.1-0.2,1.2-0.8
		c1-4.4,5-7.5,9.5-7.5c4.6,0,8.5,3.1,9.5,7.5c0.1,0.5,0.5,0.8,1,0.8c0.1,0,0.2,0,0.2,0c0.6-0.1,0.9-0.7,0.8-1.2
		C59.7,59.3,54.9,55.5,49.4,55.5z"/>
	<path fill="#3354A8" d="M39.1,30.9c-1.7-0.4-3.2,0.1-4.4,1.2c-1.8,1.9-2.4,5.4-1.9,7.5c0.1,0.2,0.3,0.4,0.5,0.4c0,0,0.1,0,0.1,0
		c0.3-0.1,0.4-0.3,0.4-0.6c-0.4-1.9,0.1-5,1.7-6.5c0.9-0.9,2.1-1.2,3.4-1c0.3,0.1,0.6-0.1,0.6-0.4C39.6,31.2,39.4,30.9,39.1,30.9z"
		/>
	<path fill="#3354A8" d="M66.3,40c0,0,0.1,0,0.1,0c0.2,0,0.4-0.2,0.5-0.4c0.5-2.1-0.1-5.6-1.9-7.5c-1.2-1.2-2.7-1.6-4.4-1.2
		c-0.3,0.1-0.5,0.3-0.4,0.6c0.1,0.3,0.3,0.5,0.6,0.4c1.4-0.3,2.5,0,3.4,1c1.5,1.6,2.1,4.7,1.7,6.5C65.8,39.6,66,39.9,66.3,40z"/>
</g>
</svg>
