<?xml version="1.0" encoding="utf-8"?>
<!-- Generator: Adobe Illustrator 18.1.1, SVG Export Plug-In . SVG Version: 6.00 Build 0)  -->
<!DOCTYPE svg PUBLIC "-//W3C//DTD SVG 1.1//EN" "http://www.w3.org/Graphics/SVG/1.1/DTD/svg11.dtd">
<svg version="1.1" id="bitpay_wordmark" xmlns="http://www.w3.org/2000/svg" xmlns:xlink="http://www.w3.org/1999/xlink" x="0px"
	 y="0px" viewBox="252.5 17 185 64" enable-background="new 252.5 17 185 64" xml:space="preserve">
<g>
	<path id="y_2_" fill="#002855" d="M437.6,32.1H428l-5.6,23.4l0,0l-0.8,3.1c-0.6,0.2-1,0.2-1.7,0.4c-1,0.2-1.9,0.2-2.9,0.2
		c-1.3,0-2.1-0.2-2.9-0.6c-0.6-0.4-1.3-0.8-1.5-1.5c-0.2-0.6-0.4-1.5-0.4-2.3s0.2-1.9,0.4-2.7l2.9-12.2l1.9-8.1l0,0h-9.8l-4.5,18.7
		c-0.6,2.3-0.8,4.5-0.8,6.4c0,2.1,0.2,3.8,0.8,5.3c0.6,1.5,1.9,2.7,3.6,3.6c1.7,0.8,4.1,1.3,7,1.3c2.1,0,4.1-0.2,5.6-0.6h0.2l0,0
		c-0.4,1.9-1.3,3.4-2.7,4.7c-1.5,1.3-3.4,1.9-6.2,1.9c-1,0-2.3,0-3.1-0.2l-2,7.9c1.3,0.2,2.7,0.2,4.3,0.2c2.9,0,5.6-0.4,7.7-1
		c2.1-0.6,4.1-1.7,5.8-2.9c1.5-1.3,2.9-2.9,4.1-5.1c1-2.1,1.9-4.5,2.5-7.2l6.6-27.8l0,0L437.6,32.1z"/>
	<path id="a_2_" fill="#002855" d="M397.4,52c-0.6,2.3-0.8,4.9-0.6,7.4c0.2,2.5,1.3,6.2,2.1,8.1h-9.3c-1-1.9-1-2.7-1.3-3.4
		c-1.3,1-2.5,1.7-4.1,2.3c-1.5,0.6-2.9,1-4.9,1c-2.1,0-4.1-0.4-5.6-1c-1.5-0.6-2.7-1.7-3.8-2.9c-1-1.3-1.7-2.7-2.1-4.5
		s-0.6-3.4-0.6-5.6c0-2.9,0.6-5.8,1.5-8.3c1-2.5,2.5-4.9,4.5-6.8c1.9-1.9,6.4-6.4,13.8-6.4c3.1,0,7.4,0,14.9,0L397.4,52z
		 M390.6,40.2c-4.5,0-5.3,0-7.2,0.8c-1.3,0.6-2.3,1.7-3.4,2.9c-0.8,1-1.7,2.5-2.3,4.1c-0.6,1.5-0.8,3.1-0.8,4.9c0,2.1,0.4,3.6,1,4.9
		c0.6,1.2,1.9,1.7,3.8,1.7c1,0,1.9-0.2,2.7-0.6c0.8-0.4,1.7-1,2.5-1.9c0-1,0.2-2.1,0.4-3.4c0.2-1.3,0.4-2.3,0.6-3.1L390.6,40.2"/>
	<path id="p_2_" fill="#002855" d="M364.8,46.2c0,3.1-0.6,6-1.5,8.7c-1,2.5-2.5,4.9-4.3,6.8c-1.9,1.9-4.1,3.4-6.6,4.5
		s-5.3,1.7-8.3,1.7c-1.5,0-2.9-0.2-4.5-0.4l-2.9,11.6h-9.5l11-46.8c1.7,0,10.2,0,12.8,0c2.3,0,4.5,0.4,6.2,1s3.1,1.7,4.3,2.9
		c1,1.3,1.9,2.7,2.5,4.5C364.6,42.3,364.8,44.2,364.8,46.2z M341.3,59.3c0.6,0.2,1.7,0.2,2.7,0.2c1.7,0,3.1-0.2,4.7-0.8
		c1.3-0.6,2.5-1.5,3.6-2.5c1-1,1.7-2.5,2.3-4.1c0.6-1.5,0.8-3.4,0.8-5.3c0-1.9-0.4-3.4-1.3-4.7c-0.8-1.3-2.3-1.9-4.3-1.9
		c-1.5,0-3.8,0-3.8,0L341.3,59.3z"/>
	<path id="t_2_" fill="#002855" d="M321.3,59.3c-1.3,0-2.1-0.2-2.9-0.6c-0.6-0.4-1.3-0.8-1.5-1.5c-0.2-0.6-0.4-1.5-0.4-2.3
		c0-0.8,0.2-1.9,0.4-2.7l2.9-12.2h10.8l1.9-8.1h-11l2.5-10.2l-10.2,1.7l-6.4,27.4c-0.6,2.3-0.8,4.5-0.8,6.4c0,2.1,0.2,3.8,0.8,5.3
		c0.6,1.5,1.9,2.7,3.6,3.6c1.7,0.9,4.1,1.3,7,1.3c2.1,0,4.1-0.2,5.6-0.6c0.2,0,0.4,0,0.6-0.2l1.9-8.3c-0.6,0.2-1.3,0.4-1.9,0.4
		C323.2,59.3,322.3,59.3,321.3,59.3z"/>
	<polygon id="i_bottom_6_" fill="#002855" points="296.9,32.1 288.4,67.6 297.9,67.6 306.4,32.1 	"/>
	<polygon id="i_top_2_" fill="#002855" points="307.2,27.8 308.7,21.7 299.2,21.7 297.7,27.8 	"/>
	<path id="b_2_" fill="#002855" d="M275.6,32.1c2.1,0,3.8,0.4,5.3,1c1.5,0.6,2.7,1.7,3.8,2.9c1,1.3,1.7,2.7,2.1,4.5s0.6,3.4,0.6,5.3
		c0,2.9-0.6,5.8-1.7,8.5c-1,2.5-2.5,4.9-4.5,7c-1.9,2.1-4.1,3.4-6.8,4.7c-2.5,1-5.3,1.7-8.3,1.7c-0.4,0-1,0-2.1,0s-2.1,0-3.4-0.2
		c-1.3-0.2-2.5-0.4-4.1-0.8c-1.5-0.4-2.7-0.8-4.1-1.5l11.1-46.6l10-1.5l-4.1,16.6c0.8-0.4,1.7-0.6,2.5-0.8
		C273.7,32.1,274.5,32.1,275.6,32.1z M267.1,59.7c1.5,0,2.9-0.4,4.3-1s2.5-1.7,3.4-2.9c1-1.3,1.7-2.5,2.3-4.1s0.8-3.1,0.8-4.9
		c0-2.1-0.4-3.6-1-4.9c-0.6-1-2.1-1.7-4.1-1.7c-0.6,0-1.3,0-2.1,0.2c-1,0.2-1.7,0.6-2.5,1.3L264,59.4c1.3,0.2,1.7,0.2,1.9,0.2
		C266.2,59.7,266.7,59.7,267.1,59.7z"/>
</g>
</svg>
